<!-- icon666.com - MILLIONS vector ICONS FREE --><svg enable-background="new 0 0 256 256" viewBox="0 0 256 256" xmlns="http://www.w3.org/2000/svg"><g id="Layer_1"><g><path d="m35.575 192.722h184.83c.193 0 .375.012.556.036 2.827.302 4.906 2.864 4.579 5.715-1.205 10.594-2.701 21.15-4.301 30.787-.411 2.489-2.562 4.314-5.099 4.314h-176.3c-2.513 0-4.676-1.825-5.087-4.314-1.667-10.065-3.117-20.432-4.289-30.787-.35-2.876 1.764-5.413 4.555-5.715.194-.024.375-.036.556-.036z" fill="#efefef"></path><path d="m39.84 22.427h176.3c2.537 0 4.688 1.825 5.099 4.314 1.639 9.891 3.132 20.495 4.301 30.775.314 2.863-1.752 5.425-4.579 5.727-.181.012-.362.024-.556.024h-184.83c-.181 0-.362-.012-.556-.024-2.791-.302-4.906-2.84-4.555-5.727 1.172-10.355 2.622-20.71 4.289-30.775.411-2.49 2.574-4.314 5.087-4.314z" fill="#efefef"></path><path d="m215.27 233.57c-.41 2.33-.83 4.67-1.27 7-.044.27-.616 3.416-.95 5.1-.48 2.42-2.6 4.17-5.08 4.17h-159.96c-2.46 0-4.59-1.75-5.05-4.17-.351-1.77-.918-4.842-.96-5.1-.45-2.33-.87-4.67-1.28-7z" fill="#f0c020"></path><path d="m215.27 233.57c-.41 2.33-.83 4.67-1.27 7h-172c-.45-2.33-.87-4.67-1.28-7z" fill="#e8a61e"></path><path d="m215.27 22.43h-174.55c.41-2.33.83-4.67 1.28-7 .039-.238.568-3.117.96-5.11.46-2.42 2.59-4.16 5.05-4.16h159.96c2.48 0 4.6 1.74 5.08 4.16.361 1.833.91 4.864.95 5.11.44 2.33.86 4.67 1.27 7z" fill="#f0c020"></path><path d="m215.27 22.43h-174.55c.41-2.33.83-4.67 1.28-7h172c.44 2.33.86 4.67 1.27 7z" fill="#e8a61e"></path><path d="m221.65 185.78c-.21 2.32-.44 4.65-.69 6.98-.18-.03-.36-.04-.56-.04h-184.83c-.18 0-.36.01-.55.04-.24-2.33-.47-4.65-.68-6.98-3.89-37.355-3.357-82.871-.02-115.58.22-2.31.45-4.64.7-6.96.19.01.37.03.55.03h184.83c.2 0 .38-.02.56-.03.25 2.32.48 4.64.69 6.96 4.047 39.665 3.198 77.182 0 115.58z" fill="#f0c020"></path><circle cx="128" cy="128" fill="#e8a61e" r="46.136"></circle><path d="m221.65 185.78c-.21 2.32-.44 4.65-.69 6.98-.18-.03-.36-.04-.56-.04h-184.83c-.18 0-.36.01-.55.04-.24-2.33-.47-4.65-.68-6.98 1.122-.109 186.441-.085 187.31 0z" fill="#e8a61e"></path><path d="m221.65 70.2c-.81.099-186.285.127-187.33 0 .22-2.31.45-4.64.7-6.96.19.01.37.03.55.03h184.83c.2 0 .38-.02.56-.03.25 2.32.48 4.64.69 6.96z" fill="#e8a61e"></path><g fill="#afafaf"><circle cx="103.044" cy="42.848" r="5.743"></circle><circle cx="153.084" cy="42.848" r="5.743"></circle><circle cx="54.791" cy="42.848" r="5.743"></circle><circle cx="199.423" cy="42.848" r="5.743"></circle><circle cx="103.044" cy="213.166" r="5.743"></circle><circle cx="153.084" cy="213.166" r="5.743"></circle><circle cx="54.791" cy="213.166" r="5.743"></circle><circle cx="199.423" cy="213.166" r="5.743"></circle></g><circle cx="128" cy="128" fill="#efefef" r="39.136"></circle><path d="m147.341 136.258h-7.341c-6.627 0-12 5.373-12 12h7.341c6.627 0 12-5.373 12-12z" fill="#f0c020"></path><path d="m108.644 136.258h7.341c6.627 0 12 5.373 12 12h-7.341c-6.627 0-12-5.373-12-12z" fill="#f0c020"></path><path d="m147.341 117.99h-7.341c-6.627 0-12 5.373-12 12h7.341c6.627 0 12-5.373 12-12z" fill="#f0c020"></path><path d="m108.644 117.99h7.341c6.627 0 12 5.373 12 12h-7.341c-6.627 0-12-5.373-12-12z" fill="#f0c020"></path><path d="m128 113.438c-3.023 0-5.474-2.451-5.474-5.474s5.474-9.463 5.474-9.463 5.474 6.44 5.474 9.463c0 3.022-2.451 5.474-5.474 5.474z" fill="#f0c020"></path><g><path d="m210.367 176.257c-1.376-.104-2.408-1.305-2.303-2.682.075-.993.148-1.986.219-2.981.099-1.377 1.282-2.416 2.672-2.315 1.377.098 2.414 1.294 2.315 2.672-.072 1.001-.145 2.002-.221 3.003-.104 1.375-1.303 2.407-2.682 2.303zm.9-12.969c-1.378-.075-2.436-1.253-2.36-2.632.587-10.806.885-21.777.885-32.608 0-15.807-.634-31.78-1.884-47.474-.109-1.376.917-2.581 2.293-2.691 1.382-.11 2.581.917 2.691 2.293 1.261 15.826 1.9 31.932 1.9 47.871 0 10.921-.3 21.983-.893 32.879-.077 1.404-1.29 2.447-2.632 2.362z" fill="#f8e5b0"></path></g><g><path d="m65.658 180.361c-1.331 0-2.437-1.048-2.496-2.391-.723-16.544-1.09-33.358-1.09-49.975 0-12.254.201-24.688.596-36.957.044-1.38 1.222-2.45 2.579-2.418 1.38.044 2.462 1.199 2.418 2.579-.394 12.215-.593 24.595-.593 36.795 0 16.544.365 33.285 1.085 49.756.061 1.379-1.009 2.547-2.388 2.607-.037.003-.074.004-.111.004zm-.227-96.736c-1.379-.057-2.452-1.221-2.396-2.601l.127-3.004c.06-1.379 1.222-2.444 2.606-2.389 1.379.06 2.449 1.227 2.389 2.606l-.126 2.991c-.057 1.387-1.228 2.454-2.6 2.397z" fill="#f8e5b0"></path></g><path d="m76.98 155.26c1.38-.03 2.47-1.18 2.44-2.55-.02-1.35-1.15-2.45-2.49-2.45h-.06c-1.428.043-2.48 1.214-2.44 2.56v.01c.028 1.269 1.056 2.43 2.55 2.43z"></path><path d="m27.98 198.78v.01c1.17 10.29 2.62 20.68 4.31 30.88.542 3.296 3.114 5.783 6.318 6.297.41 2.296 1.506 8.205 1.895 10.17.683 3.594 3.84 6.203 7.506 6.203h159.96c3.654 0 6.822-2.601 7.532-6.183.444-2.235 1.422-7.659 1.874-10.19 3.21-.515 5.783-3.001 6.334-6.297 1.67-10.07 3.16-20.76 4.31-30.91.407-3.047-1.254-6.344-4.367-7.802 1.947-19.214 3.449-47.383 3.197-71.428-.01-1.37-1.14-2.48-2.5-2.48h-.02c-1.38.02-2.49 1.15-2.48 2.53.261 24.533-1.366 53.168-3.137 70.64h-38.589c1.137-20.61 1.72-41.526 1.72-62.221 0-20.698-.583-41.619-1.72-62.232h38.586c1.206 12.084 2.042 21.533 2.6 33.913.06 1.33 1.15 2.38 2.49 2.38h.12c1.347-.061 2.443-1.194 2.38-2.61-.566-12.413-1.405-22.292-2.638-34.409 2.901-1.363 4.732-4.435 4.362-7.808-1.174-10.324-2.68-21.008-4.319-30.899-.544-3.296-3.114-5.784-6.322-6.303-.476-2.681-.924-5.071-.924-5.071-.09-.53-.6-3.29-.96-5.12-.71-3.58-3.87-6.18-7.53-6.18h-91.368c-1.37 0-2.49 1.12-2.49 2.5s1.12 2.5 2.49 2.5h8.894v11.267h-41.144c.342-3.553.723-7.284 1.149-11.267h11.111c1.37 0 2.49-1.12 2.49-2.5s-1.12-2.5-2.49-2.5h-48.6c-3.66 0-6.82 2.61-7.51 6.19-.428 2.179-1.503 7.994-1.893 10.18-3.206.515-5.776 3.005-6.32 6.302-1.695 10.23-3.144 20.627-4.305 30.883-.396 3.265 1.319 6.39 4.345 7.819-4.072 39.596-4.469 81.311.006 125.927-3.031 1.423-4.764 4.636-4.353 7.819zm17.432 46.404c-.478-2.41-1.252-6.67-1.693-9.114h35.608c.341 3.558.719 7.287 1.144 11.27h-32.461c-1.268 0-2.359-.899-2.598-2.156zm40.087 2.156c-.427-3.986-.808-7.718-1.15-11.27h41.144v11.27zm125.099-2.156c-.248 1.25-1.353 2.156-2.628 2.156h-32.442c.424-3.977.803-7.706 1.144-11.27h35.614c-.181 1.002-1.32 7.258-1.688 9.114zm12.462-46.984c-1.15 10.08-2.63 20.68-4.29 30.65-.21 1.29-1.32 2.22-2.63 2.22h-59.12c-1.37 0-2.5 1.13-2.5 2.5 0 1.38 1.13 2.5 2.5 2.5h14.629c-.343 3.558-.724 7.29-1.15 11.27h-40.005v-11.27h6.526c1.38 0 2.5-1.12 2.5-2.5 0-1.37-1.12-2.5-2.5-2.5h-97.18c-1.29 0-2.42-.95-2.62-2.22-1.68-10.13-3.12-20.44-4.27-30.66l-.01-.02c-.157-1.678 1.164-2.95 2.64-2.95h184.82c1.113 0 2.841.946 2.66 2.98zm-185.789-132.433h38.606c-1.14 20.61-1.717 41.535-1.717 62.233 0 4.92.03 9.9.09 14.79.02 1.37 1.14 2.47 2.5 2.47h.03c1.38-.02 2.49-1.15 2.47-2.53-.06-4.91-.1-9.87-.1-14.73 0-20.702.59-41.623 1.733-62.233h44.608v20.68c-21.794 1.303-39.127 19.438-39.127 41.553s17.333 40.25 39.126 41.553v20.667h-44.6c-.508-9.151-.924-18.4-1.2-27.54-.04-1.38-1.19-2.46-2.58-2.42-1.379.041-2.462 1.193-2.42 2.57.283 9.09.688 18.286 1.195 27.39h-38.607c-4.327-43.312-4.094-84.544-.007-124.453zm90.729 98.869c-20.201 0-36.636-16.435-36.636-36.636s16.435-36.636 36.636-36.636 36.636 16.435 36.636 36.636-16.435 36.636-36.636 36.636zm48.844-36.637c0 20.695-.585 41.613-1.727 62.221h-44.627v-20.665c21.802-1.293 39.146-19.433 39.146-41.555s-17.343-40.261-39.146-41.555v-20.678h44.625c1.144 20.611 1.729 41.533 1.729 62.232zm33.756-117.189c.223 1.126 1.506 8.114 1.687 9.117h-35.615c-.341-3.565-.72-7.293-1.144-11.267h32.442c1.3 0 2.38.89 2.63 2.15zm-80.106-2.15h40.005c.426 3.977.807 7.708 1.149 11.267h-41.155v-11.267zm-85.084 2.14c.24-1.24 1.33-2.14 2.6-2.14h32.46c-.424 3.981-.803 7.708-1.143 11.267h-35.623c.095-.522 1.465-7.89 1.706-9.127zm-12.462 46.997c1.153-10.19 2.591-20.501 4.272-30.649.208-1.266 1.335-2.221 2.62-2.221h176.299c1.313 0 2.42.934 2.633 2.223 1.599 9.65 3.096 20.216 4.283 30.639.165 1.511-.966 2.979-2.65 2.979h-184.83c-1.582-.001-2.821-1.368-2.627-2.971z"></path><circle cx="147.02" cy="233.57" r="2.5"></circle><circle cx="106.6" cy="6.16" r="2.5"></circle><path d="m224.1 107.06c-1.349.02-2.472 1.16-2.43 2.56.04 1.37 1.13 2.44 2.5 2.44.02 0 .04 0 .07-.01 1.37-.03 2.46-1.18 2.43-2.56-.04-1.39-1.19-2.51-2.57-2.43z"></path><path d="m135.341 132.49c7.995 0 14.5-6.505 14.5-14.5 0-1.381-1.119-2.5-2.5-2.5h-7.341c-3.635 0-6.952 1.354-9.5 3.572v-3.531c3.175-1.052 5.475-4.044 5.475-7.567 0-3.658-4.646-9.407-6.07-11.082-.95-1.118-2.859-1.118-3.81 0-1.424 1.675-6.07 7.424-6.07 11.082 0 3.524 2.3 6.515 5.475 7.567v3.545c-2.549-2.226-5.873-3.585-9.515-3.585h-7.341c-1.381 0-2.5 1.119-2.5 2.5 0 7.995 6.505 14.5 14.5 14.5h4.856v4.853c-2.549-2.226-5.873-3.585-9.515-3.585h-7.341c-1.381 0-2.5 1.12-2.5 2.5 0 7.995 6.505 14.5 14.5 14.5h4.856v6.083c0 1.381 1.119 2.5 2.5 2.5s2.5-1.119 2.5-2.5v-6.083h4.841c7.995 0 14.5-6.505 14.5-14.5 0-1.381-1.119-2.5-2.5-2.5h-7.341c-3.635 0-6.952 1.354-9.5 3.572v-4.839h4.841zm4.659-12h4.507c-1.1 4.029-4.792 7-9.166 7h-4.507c1.1-4.03 4.792-7 9.166-7zm0 18.267h4.507c-1.1 4.029-4.793 7-9.167 7h-4.507c1.101-4.029 4.793-7 9.167-7zm-12-36.208c1.699 2.34 2.975 4.602 2.975 5.414 0 1.64-1.334 2.975-2.975 2.975s-2.975-1.334-2.975-2.975c0-.813 1.276-3.074 2.975-5.414zm-7.356 24.941c-4.374 0-8.066-2.971-9.166-7h4.507c4.374 0 8.066 2.971 9.166 7zm0 18.267c-4.374 0-8.066-2.971-9.166-7h4.507c4.374 0 8.066 2.971 9.166 7z"></path><path d="m103.043 51.091c4.545 0 8.244-3.698 8.244-8.244s-3.698-8.243-8.244-8.243-8.243 3.698-8.243 8.244 3.698 8.243 8.243 8.243zm0-11.487c1.789 0 3.244 1.455 3.244 3.243 0 1.789-1.455 3.244-3.244 3.244-1.788 0-3.243-1.455-3.243-3.244 0-1.787 1.455-3.243 3.243-3.243z"></path><path d="m153.084 51.091c4.545 0 8.243-3.698 8.243-8.244s-3.698-8.243-8.243-8.243-8.244 3.698-8.244 8.243 3.699 8.244 8.244 8.244zm0-11.487c1.788 0 3.243 1.455 3.243 3.243 0 1.789-1.455 3.244-3.243 3.244-1.789 0-3.244-1.455-3.244-3.244.001-1.787 1.456-3.243 3.244-3.243z"></path><path d="m54.791 51.091c4.545 0 8.243-3.698 8.243-8.244s-3.698-8.243-8.243-8.243-8.243 3.698-8.243 8.243 3.698 8.244 8.243 8.244zm0-11.487c1.788 0 3.243 1.455 3.243 3.243 0 1.789-1.455 3.244-3.243 3.244s-3.243-1.455-3.243-3.244c0-1.787 1.455-3.243 3.243-3.243z"></path><path d="m199.422 51.091c4.545 0 8.244-3.698 8.244-8.244s-3.698-8.243-8.244-8.243-8.243 3.698-8.243 8.243 3.698 8.244 8.243 8.244zm0-11.487c1.789 0 3.244 1.455 3.244 3.243 0 1.789-1.455 3.244-3.244 3.244-1.788 0-3.243-1.455-3.243-3.244 0-1.787 1.455-3.243 3.243-3.243z"></path><path d="m103.043 204.922c-4.545 0-8.243 3.698-8.243 8.243s3.698 8.244 8.243 8.244 8.244-3.698 8.244-8.244-3.698-8.243-8.244-8.243zm0 11.487c-1.788 0-3.243-1.455-3.243-3.244 0-1.788 1.455-3.243 3.243-3.243 1.789 0 3.244 1.455 3.244 3.243 0 1.789-1.455 3.244-3.244 3.244z"></path><path d="m153.084 204.922c-4.545 0-8.244 3.698-8.244 8.243s3.698 8.244 8.244 8.244 8.243-3.698 8.243-8.244-3.697-8.243-8.243-8.243zm0 11.487c-1.789 0-3.244-1.455-3.244-3.244 0-1.788 1.455-3.243 3.244-3.243 1.788 0 3.243 1.455 3.243 3.243.001 1.789-1.454 3.244-3.243 3.244z"></path><path d="m54.791 204.922c-4.545 0-8.243 3.698-8.243 8.243s3.698 8.244 8.243 8.244 8.243-3.698 8.243-8.244-3.698-8.243-8.243-8.243zm0 11.487c-1.788 0-3.243-1.455-3.243-3.244 0-1.788 1.455-3.243 3.243-3.243s3.243 1.455 3.243 3.243c0 1.789-1.455 3.244-3.243 3.244z"></path><path d="m199.422 204.922c-4.545 0-8.243 3.698-8.243 8.243s3.698 8.244 8.243 8.244 8.244-3.698 8.244-8.244-3.698-8.243-8.244-8.243zm0 11.487c-1.788 0-3.243-1.455-3.243-3.244 0-1.788 1.455-3.243 3.243-3.243 1.789 0 3.244 1.455 3.244 3.243 0 1.789-1.455 3.244-3.244 3.244z"></path></g></g></svg>