<!-- icon666.com - MILLIONS vector ICONS FREE --><svg enable-background="new 0 0 256 256" viewBox="0 0 256 256" xmlns="http://www.w3.org/2000/svg"><g id="Layer_1"><g><path d="m185.736 163.765c24.868-8.7 35.046-38.357 20.79-60.502l-17.767-27.612c-12.445-19.345-13.412-43.746-2.9-63.869 1.156-2.222-.456-4.867-2.956-4.867h-109.805c-2.5 0-4.111 2.645-2.956 4.867 10.567 20.223 9.489 44.613-2.9 63.869l-17.767 27.612c-14.256 22.145-4.078 51.802 20.79 60.502 13.232 4.636 22.151 7.766 28.237 9.9 8.908 3.123 14.865 11.53 14.865 20.97v12.578c0 8.811-5.205 16.79-13.269 20.34l-33.928 14.935c-4.403 1.937-3.02 8.512 1.79 8.512h120.08c4.809 0 6.192-6.575 1.791-8.513l-33.928-14.935c-8.064-3.55-13.269-11.529-13.269-20.34v-12.578c0-9.439 5.957-17.847 14.865-20.97 6.086-2.132 15.005-5.263 28.237-9.899z" fill="#efefef"></path><path d="m135.596 169.03c-4.043 4.625-11.148 4.625-15.192 0-4.322-4.944-9.913-8.823-16.389-11.093l-28.239-9.901c-14.71-5.146-20.708-22.668-12.286-35.751l17.768-27.615c11.766-18.288 15.445-40.383 10.803-61.087h71.876c-4.64 20.697-.963 42.795 10.804 61.086l17.768 27.613c8.43 13.096 2.412 30.613-12.277 35.751-29.03 10.178-36.105 11.237-44.636 20.997z" fill="#f0c020"></path><path d="m224.13 45.605c-3.726-1.227-6.637-2.021-8.586-10.415-.634-2.735-4.545-2.728-5.178 0-1.906 8.207-4.563 9.086-8.586 10.415-2.423.8-2.428 4.245 0 5.047 6.682 2.207 7.439 5.472 8.585 10.414.637 2.741 4.542 2.74 5.179 0 1.904-8.207 4.706-9.133 8.585-10.414 2.423-.8 2.429-4.245.001-5.047z"></path><path d="m216.935 48.157c-1.467 1.033-2.789 2.422-3.922 4.434-.944-1.589-2.256-3.089-4.167-4.4 1.545-1.067 2.933-2.5 4.122-4.633 1.201 2.154 2.556 3.588 3.967 4.599z" fill="#f0c020"></path><path d="m54.22 45.605c-3.726-1.227-6.637-2.021-8.586-10.415-.634-2.735-4.545-2.728-5.178 0-1.906 8.207-4.563 9.086-8.586 10.415-2.423.8-2.428 4.245 0 5.047 6.682 2.207 7.439 5.472 8.585 10.414.637 2.741 4.542 2.74 5.179 0 1.904-8.207 4.706-9.133 8.585-10.414 2.423-.8 2.429-4.245.001-5.047z"></path><path d="m47.025 48.157c-1.467 1.033-2.789 2.422-3.922 4.434-.944-1.589-2.256-3.089-4.167-4.4 1.545-1.067 2.933-2.5 4.122-4.633 1.201 2.154 2.556 3.588 3.967 4.599z" fill="#f0c020"></path><path d="m126.312 162.699c-1.018-.933-1.087-2.514-.155-3.532.704-.769 1.443-1.528 2.196-2.258.992-.959 2.574-.935 3.535.058.96.992.935 2.575-.058 3.535-.682.66-1.35 1.347-1.987 2.042-.932 1.02-2.516 1.087-3.531.155zm9.505-8.837c-.745-1.163-.405-2.709.757-3.454 3.42-2.189 7.089-3.978 10.907-5.317l28.253-9.906c6.37-2.228 9.002-9.826 5.327-15.538l-17.769-27.614c-10.973-17.058-16.071-37.25-14.666-57.513.096-1.377 1.283-2.413 2.667-2.321 1.377.096 2.417 1.29 2.321 2.667-1.286 18.455 3.119 37.728 13.883 54.461l17.769 27.613c5.414 8.413 1.556 19.663-7.879 22.963l-28.251 9.906c-3.453 1.21-6.772 2.829-9.865 4.809-1.167.748-2.711.404-3.454-.756z" fill="#f8e5b0"></path><path d="m144 94.45c-1.381 0-2.5-1.119-2.5-2.5v-1.167c0-1.381 1.119-2.5 2.5-2.5s2.5 1.119 2.5 2.5v1.167c0 1.381-1.119 2.5-2.5 2.5z" fill="#cf941c"></path><path d="m88.5 118.235c-1.381 0-2.5-1.119-2.5-2.5v-1.167c0-1.381 1.119-2.5 2.5-2.5s2.5 1.119 2.5 2.5v1.167c0 1.381-1.119 2.5-2.5 2.5z" fill="#f8e5b0"></path><path d="m119 62.167c-1.381 0-2.5-1.119-2.5-2.5v-1.167c0-1.381 1.119-2.5 2.5-2.5s2.5 1.119 2.5 2.5v1.167c0 1.38-1.119 2.5-2.5 2.5z" fill="#f8e5b0"></path><g fill="#e8a61e"><path d="m111 46.64c-1.381 0-2.5-1.119-2.5-2.5v-1.167c0-1.381 1.119-2.5 2.5-2.5s2.5 1.119 2.5 2.5v1.167c0 1.381-1.119 2.5-2.5 2.5z"></path><path d="m119 132.041c-1.381 0-2.5-1.119-2.5-2.5v-1.167c0-1.381 1.119-2.5 2.5-2.5s2.5 1.119 2.5 2.5v1.167c0 1.381-1.119 2.5-2.5 2.5z"></path><path d="m156.62 118.818c-1.381 0-2.5-1.119-2.5-2.5v-1.167c0-1.381 1.119-2.5 2.5-2.5s2.5 1.119 2.5 2.5v1.167c0 1.381-1.12 2.5-2.5 2.5z"></path></g><path d="m69.44 166.13c8.007 2.802 28.23 9.89 28.23 9.89 6.79 2.38 11.74 8.26 12.93 15.36.224 1.352 1.476 2.265 2.87 2.05 1.404-.234 2.282-1.549 2.06-2.88-1.49-8.89-7.69-16.26-16.2-19.24-6.402-2.257-21.887-7.68-28.24-9.9-23.104-8.083-33.01-35.866-19.51-56.79l17.76-27.62c13.143-20.411 13.762-45.827 3.02-66.37-.295-.592.148-1.22.74-1.22h109.8c.589 0 1.039.624.74 1.22-2.15 4.11-3.86 8.47-5.1 12.96-.384 1.385.452 2.718 1.74 3.08 1.31.36 2.72-.45 3.08-1.75 1.14-4.14 2.73-8.18 4.71-11.98 2.045-3.903-.835-8.503-5.17-8.53h-109.8c-4.302.027-7.208 4.57-5.18 8.53 10.099 19.308 9.179 42.763-2.78 61.36l-17.77 27.61c-15.111 23.436-4.368 54.964 22.07 64.22z"></path><path d="m178.59 41.55c-1.38.06-2.45 1.23-2.4 2.61.49 11.61 4.11 22.97 10.47 32.84l17.76 27.62c13.484 20.953 3.613 48.695-19.51 56.79-1.34.47-28.24 9.9-28.24 9.9-9.89 3.46-16.54 12.84-16.54 23.33v12.57c0 9.8 5.8 18.68 14.77 22.63l33.92 14.94c1.904.89 1.376 3.69-.78 3.72h-120.08c-2.124-.029-2.706-2.82-.78-3.72l33.92-14.94c7.64-3.36 13.02-10.27 14.42-18.49.225-1.353-.667-2.649-2.05-2.88-1.35-.24-2.65.7-2.88 2.04-1.11 6.56-5.41 12.07-11.5 14.75l-33.93 14.94c-6.874 2.943-4.688 13.3 2.76 13.3h120.17c7.446 0 9.62-10.359 2.75-13.3l-33.93-14.94c-7.15-3.15-11.78-10.23-11.78-18.05v-12.57c0-8.37 5.31-15.85 13.2-18.62 20.962-7.341 27.67-9.694 28.23-9.89 26.301-9.209 37.239-40.608 22.07-64.22l-17.77-27.61c-5.87-9.13-9.22-19.63-9.67-30.36-.06-1.37-1.21-2.45-2.6-2.39z"></path><circle cx="113.37" cy="200.95" r="2.5"></circle><path d="m179.06 36.57c1.27 0 2.33-.96 2.48-2.22v-.01c.145-1.373-.837-2.595-2.2-2.76-1.37-.15-2.62.85-2.77 2.2-.174 1.452.962 2.79 2.49 2.79z"></path><path d="m155.46 159.37c1.3-.46 1.99-1.89 1.53-3.19-.44-1.27-1.91-1.98-3.18-1.53-1.3.45-1.99 1.88-1.54 3.19.442 1.228 1.785 2 3.19 1.53z"></path><path d="m164.48 21.14c-1.32-.29-2.69.58-2.98 1.9-4.748 21.166-1.11 43.934 11.14 62.98l17.77 27.62c7.584 11.797 2.1 27.448-11 32.03l-16.17 5.67c-1.3.46-1.98 1.89-1.53 3.19.432 1.234 1.792 1.995 3.19 1.53l16.16-5.67c16.14-5.617 22.898-24.932 13.55-39.46l-17.77-27.62c-11.697-18.182-14.856-39.716-10.46-59.18.3-1.34-.55-2.68-1.9-2.99z"></path><path d="m61.39 110.93c-9.316 14.444-2.663 33.803 13.56 39.47l28.24 9.9c5.9 2.07 11.21 5.65 15.33 10.37 5.037 5.771 13.919 5.775 18.96 0 2.64-3.02 5.75-5.57 9.22-7.57 1.251-.734 1.589-2.279.92-3.42-.66-1.15-2.26-1.58-3.41-.92-3.96 2.28-7.49 5.18-10.5 8.62-3.036 3.489-8.378 3.498-11.42 0-4.7-5.36-10.73-9.45-17.45-11.8l-28.24-9.9c-13.131-4.607-18.588-20.252-11.01-32.04l17.77-27.62c11.882-18.472 16.034-41.118 11.14-62.98-.29-1.32-1.67-2.2-2.99-1.9-1.295.3-2.192 1.573-1.89 2.98v.01c4.547 20.334.83 41.627-10.46 59.19z"></path></g></g></svg>