<!-- icon666.com - MILLIONS vector ICONS FREE --><svg enable-background="new 0 0 256 256" viewBox="0 0 256 256" xmlns="http://www.w3.org/2000/svg"><g id="Layer_1"><g><path d="m116.741 126.182v115.16c0 5.75-4.66 10.42-10.41 10.42h-74.8c-5.75 0-10.41-4.67-10.41-10.42v-115.16c0-6.31 1.91-12.45 5.45-17.62 1.32-1.928.764-1.175 17.13-20.34 3.61-4.21 5.35-9.68 4.92-15.22-1.11-14.29-.2-30.13 2.71-45.01.46-2.37.98-4.79 1.58-7.25h32.04c.59 2.43 1.13 4.84 1.61 7.24 3.23 16.13 3.9 30.68 2.66 44.92-.48 5.54 1.29 11.04 4.9 15.27 16.488 19.311 15.873 18.496 17.17 20.39 3.54 5.17 5.45 11.31 5.45 17.62z" fill="#13bf6d"></path><path d="m116.741 126.182v115.16c0 5.75-4.66 10.42-10.41 10.42h-74.8c-5.75 0-10.41-4.67-10.41-10.42v-115.16c0-6.31 1.91-12.45 5.45-17.62h84.72c3.54 5.17 5.45 11.31 5.45 17.62z" fill="#139c6e"></path><path d="m86.56 27.983c-.333.042-.667.052-1.011.052h-33.237c-.333 0-.656-.01-.979-.042.458-2.376.979-4.793 1.573-7.252h32.05c.583 2.429 1.125 4.835 1.604 7.242z" fill="#139c6e"></path><path d="m84.508 5.363c2.877 0 5.21 2.332 5.21 5.21v6.002c0 2.287-1.848 4.168-4.168 4.168h-33.238c-2.318 0-4.168-1.879-4.168-4.168v-6.002c0-2.877 2.332-5.21 5.21-5.21z" fill="#13bf6d"></path><path d="m116.741 136.272v69.46h-24.23c-4.86 7.93-13.6 13.23-23.58 13.23s-18.72-5.3-23.58-13.23h-24.23v-69.46h24.23c10.798-17.619 36.35-17.638 47.16 0z" fill="#efefef"></path><path d="m116.741 148.782v44.44h-24.24c-4.35 0-8.39 2.27-10.66 5.99-5.92 9.67-19.91 9.66-25.82 0-2.27-3.72-6.31-5.99-10.66-5.99h-24.24v-44.44h24.24c4.35 0 8.39-2.27 10.66-5.99 5.92-9.67 19.91-9.66 25.82 0 2.27 3.72 6.31 5.99 10.66 5.99z" fill="#f0c020"></path><path d="m71.736 154.123 2.928 5.933c.456.923 1.336 1.563 2.355 1.711l6.547.951c2.566.373 3.59 3.526 1.734 5.335l-4.738 4.618c-.737.719-1.074 1.754-.9 2.769l1.118 6.521c.438 2.555-2.244 4.504-4.539 3.298l-5.856-3.079c-.911-.479-2-.479-2.911 0l-5.856 3.079c-2.295 1.206-4.977-.742-4.539-3.298l1.118-6.521c.174-1.015-.162-2.05-.9-2.769l-4.738-4.618c-1.857-1.81-.832-4.963 1.734-5.335l6.547-.951c1.019-.148 1.9-.788 2.355-1.711l2.928-5.933c1.15-2.325 4.465-2.325 5.613 0z" fill="#efefef"></path><path d="m218.277 5.332h-98.139c-5.523 0-10 4.477-10 10v52.587c0 5.523 4.477 10 10 10h40.022l9.047 17.915 9.047-17.915h40.022c5.523 0 10-4.477 10-10v-52.587c.001-5.523-4.476-10-9.999-10z" fill="#efefef"></path><g><path d="m218.277 70.418c-1.381 0-2.5-1.119-2.5-2.5v-3c0-1.381 1.119-2.5 2.5-2.5s2.5 1.119 2.5 2.5v3c0 1.381-1.119 2.5-2.5 2.5zm0-13c-1.381 0-2.5-1.119-2.5-2.5v-37.086h-95.639c-1.381 0-2.5-1.119-2.5-2.5s1.119-2.5 2.5-2.5h98.139c1.381 0 2.5 1.119 2.5 2.5v39.586c0 1.381-1.119 2.5-2.5 2.5z" fill="#fff"></path></g><g><path d="m224.274 101.08c-3.726-1.227-6.637-2.021-8.586-10.415-.634-2.735-4.545-2.728-5.178 0-1.906 8.207-4.563 9.086-8.586 10.415-2.423.8-2.428 4.245 0 5.047 6.682 2.207 7.439 5.472 8.585 10.414.637 2.741 4.542 2.74 5.179 0 1.904-8.207 4.706-9.133 8.585-10.414 2.424-.8 2.429-4.245.001-5.047z"></path><path d="m217.08 103.632c-1.467 1.033-2.789 2.422-3.922 4.434-.944-1.589-2.256-3.089-4.167-4.4 1.545-1.067 2.933-2.5 4.122-4.633 1.2 2.154 2.556 3.588 3.967 4.599z" fill="#f0c020"></path></g><g><path d="m97.821 111.062c-.706 0-1.407-.297-1.901-.876l-11.63-13.61c-5.823-6.84-8.716-15.875-7.939-24.791 1.064-12.308.544-24.185-1.592-36.31-.239-1.359.668-2.656 2.028-2.896 1.361-.242 2.655.668 2.896 2.028 2.213 12.559 2.752 24.86 1.648 37.609-.66 7.594 1.805 15.289 6.763 21.114l11.627 13.607c.897 1.05.773 2.628-.276 3.524-.471.404-1.049.601-1.624.601z" fill="#76ffbb"></path></g><g><path d="m106.331 138.771c-1.381 0-2.5-1.119-2.5-2.5v-10.09c0-4.358-1.565-8.585-4.409-11.903l-3.501-4.091c-.897-1.049-.775-2.627.274-3.525 1.048-.898 2.627-.775 3.524.274l3.5 4.09c3.618 4.223 5.611 9.605 5.611 15.155v10.09c.001 1.381-1.118 2.5-2.499 2.5z" fill="#13bf6d"></path></g><g><path d="m106.326 243.843c-1.381 0-2.5-1.119-2.5-2.5v-3c0-1.381 1.119-2.5 2.5-2.5s2.5 1.119 2.5 2.5v3c0 1.381-1.119 2.5-2.5 2.5zm0-13c-1.381 0-2.5-1.119-2.5-2.5v-22.613c0-1.381 1.119-2.5 2.5-2.5s2.5 1.119 2.5 2.5v22.613c0 1.381-1.119 2.5-2.5 2.5z" fill="#13bf6d"></path></g><g><path d="m106.326 151.278c-1.381 0-2.5-1.119-2.5-2.5v-12.503c0-1.381 1.119-2.5 2.5-2.5s2.5 1.119 2.5 2.5v12.503c0 1.381-1.119 2.5-2.5 2.5z" fill="#fff"></path></g><g><path d="m106.326 208.23c-1.381 0-2.5-1.119-2.5-2.5v-12.503c0-1.381 1.119-2.5 2.5-2.5s2.5 1.119 2.5 2.5v12.503c0 1.381-1.119 2.5-2.5 2.5z" fill="#fff"></path></g><g><path d="m106.326 195.727c-1.381 0-2.5-1.119-2.5-2.5v-44.449c0-1.381 1.119-2.5 2.5-2.5s2.5 1.119 2.5 2.5v44.449c0 1.38-1.119 2.5-2.5 2.5z" fill="#f8e5b0"></path></g><path d="m68.87 203.96c-1.37 0-2.49 1.12-2.5 2.49-.011 1.38 1.109 2.5 2.489 2.51h.011c1.37 0 2.489-1.12 2.5-2.49 0-1.38-1.11-2.51-2.5-2.51z"></path><path d="m48.39 54.7c1.33 0 2.42-1.05 2.49-2.37.07-1.38-.99-2.56-2.37-2.63-1.4-.07-2.55 1-2.62 2.37-.086 1.434 1.082 2.63 2.5 2.63z"></path><path d="m18.62 241.34c0 7.12 5.79 12.92 12.91 12.92h74.8c7.12 0 12.91-5.8 12.91-12.92 0-12.01 0-103.764 0-115.16 0-6.719-1.989-13.209-5.729-18.775-.723-1.374-4.288-5.403-17.491-20.855-3.278-3.849-4.751-8.824-4.31-13.43 1.378-16.054.407-32.337-3.713-50.35 2.575-1.004 4.22-3.442 4.22-6.196v-6.001c0-4.251-3.458-7.71-7.709-7.71h-31.154c-4.251 0-7.709 3.458-7.709 7.71v6.001c0 2.707 1.629 5.183 4.226 6.197-1.419 6.342-2.484 12.777-3.181 19.188-.142 1.355.814 2.602 2.221 2.75 1.37.15 2.6-.84 2.75-2.2v-.009c.76-6.946 1.902-13.538 3.229-19.258h28.09c3.789 16.629 5.232 32.284 3.75 49.448-.538 5.959 1.314 12.214 5.49 17.11l13.885 16.262h-74.349l13.844-16.212c4.179-4.874 6.003-11.196 5.51-17.03-.26-3.45-.42-7.03-.449-10.65-.011-1.36-1.13-2.48-2.49-2.48h-.021c-1.474.021-2.498 1.238-2.479 2.52.02 3.69.18 7.39.46 10.99.38 4.65-1.066 9.594-4.33 13.4-16.31 19.1-15.929 18.548-17.29 20.55-3.85 5.62-5.89 12.21-5.89 19.03-.001 39.869-.001 71.956-.001 115.16zm32.025-230.767c0-1.494 1.215-2.71 2.709-2.71h31.154c1.494 0 2.709 1.216 2.709 2.71v6.001c0 .917-.73 1.667-1.667 1.667-.044 0-32.116 0-33.238 0-.956 0-1.667-.788-1.667-1.667zm-27.025 185.147h21.739c3.46 0 6.721 1.84 8.53 4.79 1.11 1.83 2.51 3.41 4.15 4.71 1.06.83 2.689.63 3.52-.42.851-1.08.66-2.66-.42-3.51-1.18-.93-2.18-2.06-2.99-3.38-2.705-4.454-7.579-7.19-12.79-7.19h-21.739c0-35.9 0-25.719 0-39.44h21.739c5.218 0 10.078-2.725 12.79-7.19 4.97-8.065 16.583-8.088 21.561.01 2.674 4.404 7.522 7.18 12.79 7.18h21.74v39.44h-21.74c-5.206 0-10.069 2.727-12.8 7.19-.82 1.34-1.851 2.5-3.061 3.44-1.085.857-1.296 2.403-.439 3.51.787 1.022 2.313 1.343 3.51.44 1.689-1.31 3.12-2.92 4.26-4.78 1.811-2.96 5.08-4.8 8.53-4.8h21.74v7.51h-21.73c-.87 0-1.68.46-2.13 1.2-4.62 7.53-12.64 12.03-21.45 12.03s-16.83-4.5-21.45-12.03c-.449-.74-1.27-1.2-2.13-1.2h-21.73zm90.62-49.44h-21.74c-3.45 0-6.72-1.83-8.53-4.79-6.874-11.26-23.196-11.273-30.08 0-1.81 2.95-5.07 4.79-8.53 4.79h-21.74c0-4.184 0-.72 0-7.51h21.73c.86 0 1.681-.46 2.13-1.19 9.881-16.091 33.087-16.014 42.9 0 .45.73 1.27 1.19 2.13 1.19h21.73zm-7.91 102.98h-74.8c-4.351-.01-7.9-3.56-7.91-7.92v-33.11h20.37c5.63 8.29 14.949 13.23 24.939 13.23s19.32-4.94 24.94-13.23h20.37v33.11c-.01 4.36-3.559 7.91-7.909 7.92zm-78.383-138.198h81.966c2.825 4.537 4.327 9.737 4.327 15.118v7.59h-20.37c-11.971-17.636-37.927-17.613-49.88 0h-20.37v-7.59c0-5.382 1.502-10.574 4.327-15.118z"></path><circle cx="228.28" cy="45.97" r="2.5"></circle><path d="m120.14 80.42h38.48l8.359 16.54c.925 1.828 3.543 1.812 4.46 0l8.351-16.54h38.49c6.89 0 12.5-5.61 12.5-12.5v-11.95c0-1.38-1.131-2.5-2.5-2.5-1.381 0-2.5 1.12-2.5 2.5v11.95c-.011 4.12-3.381 7.49-7.5 7.5h-40.02c-.94 0-1.82.54-2.24 1.37l-6.81 13.5-6.82-13.5c-.42-.83-1.3-1.37-2.229-1.37h-40.021c-4.13-.01-7.49-3.38-7.5-7.5v-52.59c.01-4.13 3.37-7.49 7.5-7.5h98.141c4.119.01 7.489 3.37 7.5 7.5v20.64c0 1.38 1.119 2.5 2.5 2.5 1.38 0 2.5-1.12 2.5-2.5v-.01-20.63c0-6.89-5.61-12.5-12.5-12.5h-98.141c-6.89 0-12.5 5.61-12.5 12.5v52.59c0 6.89 5.61 12.5 12.5 12.5z"></path><path d="m68.637 184.394c.186-.097.403-.096.587 0l5.855 3.079c4.129 2.169 8.952-1.343 8.166-5.933l-1.119-6.521c-.034-.204.033-.411.182-.556l4.737-4.618c3.338-3.255 1.494-8.93-3.119-9.6l-6.547-.951c-.205-.03-.381-.158-.473-.344l-2.929-5.933c-2.065-4.183-8.031-4.18-10.094 0l-2.929 5.934c-.092.185-.268.313-.472.342l-6.548.951c-4.614.67-6.457 6.345-3.119 9.6l4.738 4.619c.147.145.215.352.181.555l-1.119 6.522c-.788 4.603 4.05 8.099 8.166 5.932zm-8.181-1.348c-.465.246-1.001-.146-.912-.662l1.119-6.521c.313-1.827-.293-3.688-1.619-4.981l-4.737-4.618c-.376-.367-.172-.996.348-1.071l6.549-.952c1.834-.267 3.418-1.418 4.236-3.079l2.929-5.933c.232-.472.893-.472 1.125 0l2.929 5.931c.818 1.662 2.402 2.813 4.237 3.081l6.548.951c.52.076.724.705.348 1.071l-4.736 4.618c-1.327 1.293-1.934 3.155-1.62 4.982l1.119 6.52c.089.518-.449.908-.912.663l-5.856-3.079c-1.637-.861-3.597-.861-5.237 0z"></path><g><g><path d="m206.107 164.987h7v13.1h-7z" fill="#afafaf"></path></g><g><path d="m206.107 206.537h7v13.1h-7z" fill="#afafaf"></path></g><g><path d="m206.107 147.073v98.15c0 3.62-2.94 6.55-6.55 6.55h-60.68c-3.62 0-6.55-2.93-6.55-6.55v-80.34l.01-.02c.14 3.83 2.92 7.2 6.74 7.65 4.66.56 8.63-3.08 8.63-7.63v11.03c0 4.58 4 8.22 8.7 7.63 3.87-.49 6.68-3.98 6.68-7.89v-18.1c0-5.79 4.7-10.48 10.48-10.48z" fill="#f0c020"></path></g><g><path d="m196.107 244.273h-53.78c-1.381 0-2.5-1.119-2.5-2.5s1.119-2.5 2.5-2.5h51.28v-65.77c0-1.381 1.119-2.5 2.5-2.5s2.5 1.119 2.5 2.5v68.27c0 1.381-1.119 2.5-2.5 2.5zm0-78.27c-1.381 0-2.5-1.119-2.5-2.5v-3c0-1.381 1.119-2.5 2.5-2.5s2.5 1.119 2.5 2.5v3c0 1.381-1.119 2.5-2.5 2.5z" fill="#f8e5b0"></path></g><g><path d="m206.107 147.073v7h-32.54c-1.92 0-3.48 1.56-3.48 3.48v18.1c0 13.364-15.852 19.878-25.07 10.66-1.91-1.9-3.22-4.24-3.87-6.78-2.907.236-6.069-.43-8.82-2.18v-12.47l.01-.02c.14 3.83 2.92 7.2 6.74 7.65 4.66.56 8.63-3.08 8.63-7.63v11.03c0 4.58 4 8.22 8.7 7.63 3.87-.49 6.68-3.98 6.68-7.89v-18.1c0-5.79 4.7-10.48 10.48-10.48z" fill="#e8a61e"></path></g><g><path d="m206.077 147.077h-32.51c-5.78 0-10.48 4.69-10.48 10.48v18.1c0 3.91-2.81 7.4-6.68 7.89-4.7.59-8.7-3.05-8.7-7.63v-11.03c0 4.55-3.97 8.19-8.63 7.63-3.82-.45-6.6-3.82-6.74-7.65-.016-.163-.01-12.846-.01-13.01 0-2.66-.46-5.29-1.11-7.87-2.56-10.14 4.45-21.57 17.49-21.57 3.89-8.38 12.35-14.21 22.21-14.21 12.57 0 22.91 9.48 24.31 21.68 7.98 1.42 13.03 9.45 10.85 17.19z" fill="#f8e5b0"></path></g><g><path d="m232.967 178.087v28.45c0 7.23-5.87 13.1-13.1 13.1h-13.76v-13.1h13.76v-28.45h-13.76v-13.1h13.76c7.23 0 13.1 5.87 13.1 13.1z" fill="#efefef"></path></g><g><path d="m175.976 134.765c-1.38 0-2.5-1.12-2.5-2.5v-.65c0-1.38 1.12-2.5 2.5-2.5s2.5 1.12 2.5 2.5v.65c0 1.38-1.12 2.5-2.5 2.5z" fill="#f0c020"></path></g><g><path d="m153.697 142.955c-1.381 0-2.5-1.12-2.5-2.5v-.65c0-1.38 1.119-2.5 2.5-2.5 1.38 0 2.5 1.12 2.5 2.5v.65c0 1.38-1.12 2.5-2.5 2.5z" fill="#e8a61e"></path></g><g><path d="m183.833 219.637v-45.813c0-1.381-1.119-2.5-2.5-2.5s-2.5 1.119-2.5 2.5v45.813c0 1.381 1.119 2.5 2.5 2.5s2.5-1.119 2.5-2.5z"></path><path d="m219.867 162.487h-11.261v-15.227c2.128-8.747-3.228-17.053-11.159-19.415-.761-4.2-2.551-8.22-5.16-11.62-.82-1.06-2.45-1.27-3.51-.45-1.114.861-1.291 2.399-.461 3.5 2.44 3.17 3.971 6.93 4.431 10.9.12 1.09.96 1.98 2.04 2.17 5.579.979 9.854 6.258 9.24 12.23h-30.461c-7.149 0-12.979 5.83-12.979 12.98v18.1c0 2.834-2.128 5.46-5.18 5.46-2.86-.01-5.2-2.34-5.2-5.2 0-5.832-.002-14.535-.002-17.536 0-1.381-1.119-2.5-2.5-2.5s-2.5 1.119-2.5 2.5v6.507c0 .003.001.006.001.009-.015 2.87-2.403 5.453-5.839 5.14-2.44-.26-4.431-2.57-4.53-5.26l-.01-12.92c0-2.57-.38-5.27-1.19-8.48-2.061-8.315 3.345-18.413 15.07-18.46.97 0 1.859-.57 2.27-1.45 3.601-7.75 11.431-12.76 19.94-12.76.7 0 1.42.04 2.14.1 1.4.14 2.601-.88 2.73-2.24.13-1.37-.88-2.6-2.25-2.73-.86-.09-1.74-.13-2.62-.13-9.96 0-19.07 5.47-23.78 14.26-13.417.865-21.282 13.092-18.34 24.63.7 2.8 1.03 5.11 1.03 7.26v53.01c0 1.37 1.12 2.5 2.5 2.5s2.5-1.13 2.5-2.5v-31.245c1.181.718 2.517 1.206 3.96 1.385 2.319.26 4.51-.22 6.42-1.35v2.26c0 5.344 4.143 9.729 9.382 10.148v33.579c0 1.381 1.119 2.5 2.5 2.5s2.5-1.119 2.5-2.5v-34.458c3.556-1.651 5.998-5.334 5.998-9.529v-18.1c.01-4.39 3.59-7.97 7.979-7.98h30.04v95.65c0 2.23-1.819 4.05-4.05 4.05h-60.68c-2.23 0-4.04-1.82-4.05-4.05v-20.36c0-1.38-1.12-2.5-2.5-2.5s-2.5 1.12-2.5 2.5v20.36c0 4.99 4.06 9.05 9.05 9.05h60.68c4.99-.01 9.05-4.06 9.05-9.05v-23.088h11.261c8.602 0 15.6-6.998 15.6-15.6v-28.45c-.001-8.602-6.999-15.6-15.6-15.6zm-11.261 18.1h8.761v23.45h-8.761zm21.86 25.95c0 5.845-4.755 10.6-10.6 10.6h-11.26v-8.1h11.26c1.381 0 2.5-1.119 2.5-2.5v-28.45c0-1.381-1.119-2.5-2.5-2.5h-11.26v-8.1h11.26c5.845 0 10.6 4.755 10.6 10.6z"></path><path d="m181.566 113.455c1.19.675 2.705.249 3.4-.97.671-1.216.233-2.716-.97-3.4-1.226-.661-2.731-.231-3.4.97-.67 1.21-.24 2.73.97 3.4z"></path><circle cx="132.327" cy="214.865" r="2.5"></circle></g></g><path d="m148.708 27.785c1.381 0 2.5-1.119 2.5-2.5s-1.119-2.5-2.5-2.5h-17.001c-1.381 0-2.5 1.119-2.5 2.5s1.119 2.5 2.5 2.5h6.001v26.215h-6.001c-1.381 0-2.5 1.119-2.5 2.5s1.119 2.5 2.5 2.5h17.001c1.381 0 2.5-1.119 2.5-2.5s-1.119-2.5-2.5-2.5h-6v-26.215z"></path><path d="m160.707 22.785c-1.381 0-2.5 1.119-2.5 2.5v31.215c0 1.381 1.119 2.5 2.5 2.5s2.5-1.119 2.5-2.5v-13.107h6.698c5.682 0 10.304-4.622 10.304-10.304s-4.622-10.304-10.304-10.304zm14.501 10.304c0 2.925-2.379 5.304-5.304 5.304h-6.698v-10.608h6.698c2.925 0 5.304 2.379 5.304 5.304z"></path><path d="m206.708 59c1.381 0 2.5-1.119 2.5-2.5v-22.714c0-6.066-4.935-11.001-11.001-11.001s-11 4.935-11 11.001v22.714c0 1.381 1.119 2.5 2.5 2.5s2.5-1.119 2.5-2.5v-13.107h12.001v13.107c0 1.381 1.12 2.5 2.5 2.5zm-14.501-20.607v-4.606c0-3.309 2.692-6.001 6.001-6.001s6 2.692 6 6.001v4.606z"></path></g></g></svg>