<!-- icon666.com - MILLIONS vector ICONS FREE --><svg enable-background="new 0 0 256 256" viewBox="0 0 256 256" xmlns="http://www.w3.org/2000/svg"><g id="Layer_1"><g><g><path d="m172.95 109.47v136.92c0 2.76-2.23 5-5 5h-79.9c-2.77 0-5-2.24-5-5v-136.9c0-10.16 5.58-19.49 14.52-24.29l.03-.01c8.94-4.81 14.53-14.14 14.53-24.29v-20.08h31.75v20.05c0 10.003 5.443 19.421 14.53 24.3 8.96 4.8 14.54 14.14 14.54 24.3z" fill="#efefef"></path><path d="m172.95 109.47v136.92c0 2.76-2.23 5-5 5h-79.9c-2.77 0-5-2.24-5-5v-136.9c0-10.16 5.58-19.49 14.52-24.29l.03-.01c8.94-4.81 14.53-14.14 14.53-24.29v-4.39h31.75v4.36c0 10 5.44 19.42 14.53 24.3 8.96 4.8 14.54 14.14 14.54 24.3z" fill="#f0c020"></path><path d="m172.95 139.75v65.55h-20.62c-14.03 13.67-34.63 13.67-48.67 0h-20.61v-65.55h20.61c14.03-13.67 34.63-13.68 48.67 0z" fill="#efefef"></path><path d="m172.95 149.75v45.55h-20.62c-2.6 0-5.1 1.01-6.97 2.83-10.13 9.88-24.59 9.89-34.73 0-1.87-1.82-4.37-2.83-6.97-2.83h-20.61v-45.55h20.61c2.6 0 5.1-1.02 6.97-2.84 10.12-9.85 24.57-9.89 34.73 0 1.87 1.82 4.37 2.84 6.97 2.84z" fill="#7d7b79"></path><path d="m143.88 10.12v30.7h-31.75l-.01-30.7c0-2.76 2.24-5 5-5h21.76c2.76 0 5 2.24 5 5z" fill="#7d7b79"></path><g><g><path d="m215.01 139.978c-3.726-1.227-6.637-2.021-8.586-10.415-.634-2.736-4.545-2.728-5.178 0-1.906 8.207-4.563 9.086-8.586 10.415-2.423.8-2.428 4.245 0 5.047 6.682 2.207 7.439 5.472 8.585 10.414.637 2.741 4.542 2.74 5.179 0 1.904-8.207 4.706-9.133 8.585-10.414 2.424-.8 2.429-4.245.001-5.047z"></path><g><path d="m207.816 142.53c-1.467 1.033-2.789 2.422-3.922 4.434-.944-1.589-2.256-3.089-4.167-4.4 1.545-1.067 2.933-2.5 4.122-4.633 1.2 2.154 2.556 3.588 3.967 4.599z" fill="#f0c020"></path></g></g><g><path d="m63.339 139.978c-3.726-1.227-6.637-2.021-8.586-10.415-.634-2.736-4.545-2.728-5.178 0-1.906 8.207-4.563 9.086-8.586 10.415-2.423.8-2.428 4.245 0 5.047 6.682 2.207 7.439 5.472 8.585 10.414.637 2.741 4.542 2.74 5.179 0 1.904-8.207 4.706-9.133 8.585-10.414 2.424-.8 2.429-4.245.001-5.047z"></path><g><path d="m56.145 142.53c-1.467 1.033-2.789 2.422-3.922 4.434-.944-1.589-2.256-3.089-4.167-4.4 1.545-1.067 2.933-2.5 4.122-4.633 1.2 2.154 2.556 3.588 3.967 4.599z" fill="#f0c020"></path></g></g></g></g><g><path d="m162.95 142.25c-1.381 0-2.5-1.119-2.5-2.5v-30.28c0-5.572-3.046-10.662-7.949-13.285-13.304-7.139-20.701-22.019-20.701-29.675v-10c0-1.381 1.119-2.5 2.5-2.5s2.5 1.119 2.5 2.5v9.81c1.686 10.78 8.427 20.288 18.063 25.458 6.529 3.492 10.588 10.272 10.588 17.692v30.28c-.001 1.381-1.12 2.5-2.501 2.5z" fill="#f8e5b0"></path></g><g><path d="m162.95 243.89c-1.381 0-2.5-1.119-2.5-2.5v-3c0-1.381 1.119-2.5 2.5-2.5s2.5 1.119 2.5 2.5v3c0 1.381-1.119 2.5-2.5 2.5zm0-13c-1.381 0-2.5-1.119-2.5-2.5v-23.09c0-1.381 1.119-2.5 2.5-2.5s2.5 1.119 2.5 2.5v23.09c0 1.381-1.119 2.5-2.5 2.5z" fill="#f8e5b0"></path></g><g><path d="m162.95 207.8c-1.381 0-2.5-1.119-2.5-2.5v-10c0-1.381 1.119-2.5 2.5-2.5s2.5 1.119 2.5 2.5v10c0 1.381-1.119 2.5-2.5 2.5z" fill="#fff"></path></g><g><path d="m162.95 152.25c-1.381 0-2.5-1.119-2.5-2.5v-10c0-1.381 1.119-2.5 2.5-2.5s2.5 1.119 2.5 2.5v10c0 1.381-1.119 2.5-2.5 2.5z" fill="#fff"></path></g><g><path d="m162.95 197.8c-1.381 0-2.5-1.119-2.5-2.5v-45.55c0-1.381 1.119-2.5 2.5-2.5s2.5 1.119 2.5 2.5v45.55c0 1.381-1.119 2.5-2.5 2.5z" fill="#efefef"></path></g><g><path d="m138.029 117.125c-1.381 0-2.5-1.119-2.5-2.5v-2.125c0-1.381 1.119-2.5 2.5-2.5s2.5 1.119 2.5 2.5v2.125c0 1.381-1.119 2.5-2.5 2.5z" fill="#cf941c"></path></g><g><path d="m117.961 235.046c-1.381 0-2.5-1.119-2.5-2.5v-2.125c0-1.381 1.119-2.5 2.5-2.5s2.5 1.119 2.5 2.5v2.125c0 1.381-1.119 2.5-2.5 2.5z" fill="#cf941c"></path></g><g><path d="m101 226.907c-1.381 0-2.5-1.119-2.5-2.5v-2.125c0-1.381 1.119-2.5 2.5-2.5s2.5 1.119 2.5 2.5v2.125c0 1.381-1.119 2.5-2.5 2.5z" fill="#f8e5b0"></path></g><g><path d="m107.927 108.938c-1.381 0-2.5-1.119-2.5-2.5v-2.125c0-1.381 1.119-2.5 2.5-2.5s2.5 1.119 2.5 2.5v2.125c0 1.38-1.119 2.5-2.5 2.5z" fill="#cf941c"></path></g><g><path d="m148.062 229.032c-1.381 0-2.5-1.119-2.5-2.5v-2.125c0-1.381 1.119-2.5 2.5-2.5s2.5 1.119 2.5 2.5v2.125c0 1.381-1.119 2.5-2.5 2.5z" fill="#cf941c"></path></g><g><path d="m134.3 43.32c-1.381 0-2.5-1.119-2.5-2.5v-25.15c0-1.381 1.119-2.5 2.5-2.5s2.5 1.119 2.5 2.5v25.15c0 1.381-1.119 2.5-2.5 2.5z" fill="#efefef"></path></g><g><path d="m134.3 59.01c-1.381 0-2.5-1.119-2.5-2.5v-15.69c0-1.381 1.119-2.5 2.5-2.5s2.5 1.119 2.5 2.5v15.69c0 1.381-1.119 2.5-2.5 2.5z" fill="#fff"></path></g><circle cx="83.05" cy="118.93" r="2.5"></circle><path d="m175.45 246.39c0-15.214 0-121.842 0-136.92 0-11.11-6.08-21.26-15.86-26.5-8.15-4.38-13.21-12.84-13.21-22.1 0-22.352 0-25.95 0-50.75 0-4.13-3.37-7.5-7.5-7.5h-21.76c-4.13 0-7.5 3.37-7.5 7.5v2.149c0 1.38 1.12 2.5 2.5 2.5s2.5-1.12 2.5-2.5v-2.149c0-1.38 1.12-2.5 2.5-2.5h21.76c1.38 0 2.5 1.12 2.5 2.5v28.199h-26.75v-6.05c0-1.38-1.12-2.5-2.5-2.5s-2.5 1.13-2.5 2.5v28.63c0 9.221-5.05 17.681-13.18 22.07l-.06.031c-9.55 5.12-15.61 15.04-15.83 25.88-.03 1.37 1.07 2.52 2.44 2.55h.06c1.34 0 2.46-1.09 2.49-2.439.01 0 .01-.011.01-.011.18-9.029 5.23-17.29 13.17-21.569l.06-.021c9.77-5.26 15.84-15.41 15.84-26.49v-1.89h26.75v1.86c0 11.1 6.07 21.25 15.85 26.5 8.15 4.37 13.221 12.84 13.221 22.1v27.78h-17.12c-14.721-13.687-35.966-13.671-50.67 0h-17.111v-8.32c0-1.38-1.12-2.5-2.5-2.5s-2.5 1.12-2.5 2.5v117.46c.01 4.13 3.37 7.49 7.5 7.5h79.9c4.13-.01 7.489-3.37 7.5-7.5zm-60.82-192.38v-10.69h26.75v10.69zm-29.08 98.24h18.11c3.268 0 6.363-1.26 8.714-3.549 9.112-8.871 22.02-8.979 31.242 0 2.352 2.289 5.445 3.549 8.714 3.549h18.12v40.55h-18.12c-3.273 0-6.368 1.257-8.716 3.541-9.16 8.936-22.077 8.937-31.241-.003-2.345-2.281-5.439-3.538-8.713-3.538h-18.11zm18.11-10c.65 0 1.28-.26 1.75-.71 13.063-12.712 32.081-12.727 45.18 0 .46.45 1.1.71 1.74.71h18.12v5h-18.12c-1.958 0-3.814-.757-5.226-2.131-11.161-10.865-27.158-10.768-38.218 0-1.412 1.374-3.268 2.131-5.226 2.131h-18.11v-5zm-18.11 104.14v-38.59h17.11c2.48 2.3 5.2 4.26 8.08 5.82 1.18.64 2.76.17 3.39-1.011.637-1.153.26-2.684-1-3.38-2.77-1.5-5.37-3.43-7.73-5.72-.46-.45-1.09-.71-1.74-.71h-18.11v-5h18.11c1.964 0 3.82.754 5.224 2.119 11.085 10.814 27.097 10.852 38.219.003 1.406-1.368 3.263-2.122 5.227-2.122h18.12v5h-18.12c-.65 0-1.28.26-1.74.71-5.58 5.43-12.36 8.68-19.6 9.39-1.369.143-2.385 1.358-2.24 2.74.147 1.445 1.455 2.396 2.729 2.24 8.04-.79 15.601-4.28 21.851-10.08h17.12v38.59c0 1.38-1.12 2.5-2.5 2.5h-79.9c-1.38.001-2.5-1.119-2.5-2.499z"></path><path d="m121.8 212.41c-1.34-.271-2.69.62-2.96 1.939-.28 1.351.59 2.681 1.94 2.96 1.506.268 2.703-.709 2.96-1.939.277-1.389-.613-2.675-1.94-2.96z"></path><circle cx="112.12" cy="22.27" r="2.5"></circle><g><g><path d="m138.029 154.869-10.034-5.793-10.034 5.793v11.586l-10.034 5.793v11.586l10.034 5.793 10.034-5.793 10.034 5.793 10.034-5.793v-11.586l-10.034-5.793z" fill="#f0c020"></path></g><path d="m149.312 170.083-8.783-5.071v-10.143c0-.894-.477-1.719-1.25-2.165l-10.034-5.793c-.773-.447-1.727-.447-2.5 0l-10.034 5.793c-.773.446-1.25 1.271-1.25 2.165v10.143l-8.784 5.071c-.773.446-1.25 1.271-1.25 2.165v11.586c0 .894.477 1.719 1.25 2.165l10.034 5.793c.762.441 1.718.452 2.5 0l8.784-5.071 8.784 5.071c.762.441 1.718.452 2.5 0l10.033-5.793c.773-.446 1.25-1.271 1.25-2.165v-11.586c0-.894-.476-1.719-1.25-2.165zm-21.317-18.12 7.534 4.35v8.699c-2.726 1.574-4.808 2.776-7.534 4.35-2.726-1.574-4.808-2.776-7.534-4.35v-8.699zm-10.034 34.777-7.534-4.35v-8.699l7.534-4.35c2.726 1.574 4.808 2.776 7.534 4.35v8.699zm27.601-4.349-7.533 4.35-7.534-4.35v-8.699c2.726-1.574 4.808-2.776 7.534-4.35l7.533 4.35z"></path></g></g></g></svg>