<!-- icon666.com - MILLIONS vector ICONS FREE --><svg enable-background="new 0 0 256 256" viewBox="0 0 256 256" xmlns="http://www.w3.org/2000/svg"><g id="Layer_1"><g><g><g><path d="m215.01 125.473c-3.726-1.227-6.637-2.021-8.586-10.415-.634-2.735-4.545-2.728-5.178 0-1.906 8.207-4.563 9.086-8.586 10.415-2.423.8-2.428 4.245 0 5.047 6.682 2.207 7.439 5.472 8.585 10.414.637 2.741 4.542 2.74 5.179 0 1.904-8.207 4.706-9.133 8.585-10.414 2.424-.8 2.429-4.245.001-5.047z"></path><g><path d="m207.816 128.025c-1.467 1.033-2.789 2.422-3.922 4.434-.944-1.589-2.256-3.089-4.167-4.4 1.545-1.067 2.933-2.5 4.122-4.633 1.2 2.154 2.556 3.588 3.967 4.599z" fill="#f0c020"></path></g></g><g><path d="m63.339 125.473c-3.726-1.227-6.637-2.021-8.586-10.415-.634-2.735-4.545-2.728-5.178 0-1.906 8.207-4.563 9.086-8.586 10.415-2.423.8-2.428 4.245 0 5.047 6.682 2.207 7.439 5.472 8.585 10.414.637 2.741 4.542 2.74 5.179 0 1.904-8.207 4.706-9.133 8.585-10.414 2.424-.8 2.429-4.245.001-5.047z"></path><g><path d="m56.145 128.025c-1.467 1.033-2.789 2.422-3.922 4.434-.944-1.589-2.256-3.089-4.167-4.4 1.545-1.067 2.933-2.5 4.122-4.633 1.2 2.154 2.556 3.588 3.967 4.599z" fill="#f0c020"></path></g></g></g><g><path d="m173.89 130.71v110.52c0 5.52-4.48 10-10 10h-71.78c-5.52 0-10-4.48-10-10v-110.52c0-7.14 2.55-14.05 7.19-19.48l14.49-16.96c3.46-4.04 5.13-9.29 4.72-14.6-.43-5.58-.72-13.76 0-23.59.43-6 1.23-12.61 2.6-19.61.44-2.28.94-4.6 1.51-6.96h30.76c.56 2.33 1.08 4.64 1.54 6.95 1.32 6.57 2.24 13.08 2.71 19.62.58 7.75.53 15.53-.16 23.49-.46 5.32 1.24 10.6 4.71 14.66l14.52 17c4.64 5.43 7.19 12.34 7.19 19.48z" fill="#b25035"></path><path d="m173.89 130.71v110.52c0 5.52-4.48 10-10 10h-71.78c-5.52 0-10-4.48-10-10v-110.52c0-7.14 2.55-14.05 7.19-19.48l14.49-16.96c3.46-4.04 5.13-9.29 4.72-14.6-.43-5.58-.72-13.76 0-23.59h39.12c.58 7.75.53 15.53-.16 23.49-.46 5.32 1.24 10.6 4.71 14.66l14.52 17c4.64 5.43 7.19 12.34 7.19 19.48z" fill="#823a26"></path><path d="m148.75 4.772h-41.5c-2.209 0-4 1.791-4 4v6.621c0 2.209 1.791 4 4 4h41.5c2.209 0 4-1.791 4-4v-6.621c0-2.209-1.791-4-4-4z" fill="#f0c020"></path><path d="m144.92 36.46c-.687.086-33.167.072-33.81.01.44-2.28.94-4.6 1.51-6.96h30.76c.56 2.33 1.08 4.64 1.54 6.95z" fill="#823a26"></path><path d="m147.95 19.39v6.12c0 2.195-1.774 4-4 4h-31.9c-2.225 0-4-1.804-4-4v-6.12z" fill="#b25035"></path><path d="m173.889 140.393h-23.263c-10.353-16.939-34.919-16.906-45.252 0h-23.263v66.657h23.263c4.655 7.616 13.046 12.701 22.626 12.701s17.971-5.084 22.626-12.701h23.263z" fill="#efefef"></path><path d="m115.613 200.793c-2.18-3.567-6.059-5.743-10.239-5.743h-23.263v-42.657h23.263c4.18 0 8.059-2.175 10.239-5.742 5.676-9.286 19.107-9.271 24.773 0 2.181 3.566 6.06 5.742 10.239 5.742h23.263v42.657h-23.263c-4.18 0-8.059 2.175-10.239 5.742-5.675 9.286-19.107 9.271-24.773.001z" fill="#f0c020"></path><g><path d="m130.805 156.72 2.928 5.933c.456.923 1.336 1.563 2.355 1.711l6.547.951c2.566.373 3.59 3.526 1.734 5.335l-4.738 4.618c-.737.719-1.074 1.754-.9 2.769l1.118 6.521c.438 2.555-2.244 4.504-4.539 3.298l-5.856-3.079c-.911-.479-2-.479-2.911 0l-5.856 3.079c-2.295 1.206-4.977-.742-4.539-3.298l1.118-6.521c.174-1.015-.162-2.05-.9-2.769l-4.738-4.618c-1.857-1.81-.832-4.963 1.734-5.335l6.547-.951c1.019-.148 1.9-.788 2.355-1.711l2.928-5.933c1.15-2.325 4.466-2.325 5.613 0z" fill="#efefef"></path></g></g><g><path d="m137.607 58.58c-1.293 0-2.388-.996-2.49-2.307-.33-4.268-.886-8.674-1.65-13.098-.235-1.36.677-2.654 2.038-2.89 1.357-.232 2.653.677 2.889 2.038.792 4.577 1.367 9.141 1.709 13.563.106 1.377-.923 2.579-2.3 2.686-.066.006-.131.008-.196.008z" fill="#ffcbc3"></path></g><g><path d="m163.89 142.89c-1.381 0-2.5-1.119-2.5-2.5v-9.68c0-4.166-1.491-8.202-4.199-11.364l-14.521-16.991c-5.61-6.576-8.397-15.272-7.65-23.861.66-7.602.692-14.867.099-22.212-.111-1.376.914-2.582 2.291-2.693 1.381-.095 2.583.915 2.693 2.291.616 7.625.583 15.164-.101 23.047-.632 7.265 1.727 14.62 6.471 20.183l14.519 16.987c3.481 4.065 5.4 9.256 5.4 14.614v9.68c-.002 1.38-1.121 2.499-2.502 2.499z" fill="#ffcbc3"></path></g><g><path d="m163.89 243.732c-1.381 0-2.5-1.119-2.5-2.5v-3c0-1.381 1.119-2.5 2.5-2.5s2.5 1.119 2.5 2.5v3c0 1.381-1.119 2.5-2.5 2.5zm0-13c-1.381 0-2.5-1.119-2.5-2.5v-21.18c0-1.381 1.119-2.5 2.5-2.5s2.5 1.119 2.5 2.5v21.18c0 1.381-1.119 2.5-2.5 2.5z" fill="#ffcbc3"></path></g><g><path d="m163.89 154.893c-1.381 0-2.5-1.119-2.5-2.5v-12c0-1.381 1.119-2.5 2.5-2.5s2.5 1.119 2.5 2.5v12c0 1.38-1.119 2.5-2.5 2.5z" fill="#fff"></path></g><g><path d="m163.89 209.553c-1.381 0-2.5-1.119-2.5-2.5v-12c0-1.381 1.119-2.5 2.5-2.5s2.5 1.119 2.5 2.5v12c0 1.381-1.119 2.5-2.5 2.5z" fill="#fff"></path></g><g><path d="m163.89 197.553c-1.381 0-2.5-1.119-2.5-2.5v-42.66c0-1.381 1.119-2.5 2.5-2.5s2.5 1.119 2.5 2.5v42.66c0 1.381-1.119 2.5-2.5 2.5z" fill="#f8e5b0"></path></g><path d="m114.625 177.061c.147.144.214.351.179.555l-1.118 6.521c-.789 4.596 4.039 8.102 8.166 5.934l5.856-3.08c.183-.096.4-.097.583.001l5.856 3.079c4.132 2.17 8.953-1.347 8.166-5.934l-1.118-6.521c-.035-.204.032-.411.181-.556l4.738-4.618c3.339-3.255 1.494-8.929-3.12-9.6l-6.546-.951c-.206-.03-.383-.158-.474-.344l-2.928-5.933c-2.064-4.182-8.031-4.181-10.094 0l-2.928 5.933c-.091.186-.269.313-.473.344l-6.547.951c-4.615.671-6.457 6.346-3.119 9.6zm-.901-9.272 6.548-.951c1.833-.267 3.417-1.418 4.237-3.078l2.928-5.933c.233-.471.894-.471 1.127 0l2.928 5.933c.82 1.66 2.403 2.812 4.238 3.078l6.546.951c.521.076.724.706.349 1.072l-4.736 4.617c-1.328 1.293-1.934 3.155-1.62 4.982l1.118 6.521c.089.523-.454.905-.911.662l-5.855-3.078c-1.638-.864-3.598-.865-5.239-.001l-5.855 3.079c-.462.245-1-.144-.912-.662l1.118-6.521c.314-1.827-.292-3.689-1.618-4.981l-4.738-4.618c-.377-.367-.173-.996.347-1.072z"></path><path d="m147.93 72.63c-1.39-.09-2.56.979-2.64 2.35-.08 1.346.934 2.555 2.36 2.641.983.24 2.547-.79 2.63-2.351.08-1.351-.931-2.555-2.35-2.64z"></path><path d="m87.4 109.609c-5.02 5.87-7.79 13.37-7.79 21.101v110.52c0 6.891 5.61 12.5 12.5 12.5h71.78c6.89 0 12.5-5.609 12.5-12.5 0-11.112 0-99.45 0-110.52 0-7.73-2.77-15.22-7.79-21.101l-14.52-17c-1.95-2.29-3.29-5.06-3.86-8-.26-1.329-1.6-2.229-2.94-1.97-1.342.248-2.238 1.571-1.97 2.93.74 3.79 2.46 7.341 4.97 10.28l14.52 17c4.25 4.98 6.59 11.32 6.59 17.86v7.18h-19.4c-11.519-16.928-36.472-16.911-47.98 0h-19.4v-7.18c0-6.54 2.34-12.88 6.59-17.86l14.49-16.96c3.949-4.609 5.79-10.628 5.31-16.41-.576-7.606-.524-14.071-.126-20.899h34.402c.128 2.195.222 4.399.244 6.58.01 1.359 1.14 2.47 2.5 2.47h.03c1.426-.021 2.49-1.189 2.47-2.53-.154-11.735-1.609-22.564-4.108-33.584 2.475-1.002 4.038-3.354 4.038-6.006v-3.851c2.761-.75 4.8-3.272 4.8-6.267v-6.621c0-3.584-2.916-6.5-6.5-6.5-21.706 0-27.734 0-41.5 0-3.584 0-6.5 2.916-6.5 6.5v6.621c0 2.995 2.039 5.516 4.8 6.267v3.851c0 2.591 1.538 4.992 4.044 6.007-3.412 15.316-4.829 32.298-3.574 48.342.313 5.05-1.26 9.429-4.13 12.79zm76.49 139.12h-71.78c-4.13-.01-7.49-3.37-7.5-7.5v-31.68h19.4c4.848 7.101 12.792 12.014 22.02 12.63 1.062.173 2.564-.752 2.66-2.32.102-1.369-.939-2.575-2.32-2.659-7.75-.521-14.8-4.801-18.86-11.46-.45-.73-1.27-1.19-2.14-1.19h-20.76v-7h20.76c3.29 0 6.4 1.74 8.11 4.55 6.617 10.853 22.402 10.885 29.04 0 1.71-2.81 4.82-4.55 8.11-4.55h20.76v7h-20.76c-.87 0-1.69.46-2.14 1.19-1.41 2.31-3.18 4.35-5.28 6.069-1.06.88-1.22 2.46-.34 3.521.84 1.029 2.49 1.189 3.52.35 0 0 0-.01.01-.01 2.14-1.76 4.02-3.82 5.59-6.12h19.4v31.68c-.01 4.129-3.37 7.49-7.5 7.499zm-58.52-105.839c.87 0 1.69-.46 2.14-1.189 9.373-15.36 31.621-15.336 40.98 0 .45.729 1.27 1.189 2.14 1.189h20.76v7h-20.76c-3.29 0-6.4-1.74-8.11-4.54-6.62-10.875-22.415-10.885-29.04 0-.79 1.28-1.88 2.38-3.17 3.16-1.208.728-1.548 2.27-.85 3.44.71 1.159 2.209 1.559 3.43.84h.01c1.97-1.2 3.64-2.87 4.85-4.84 4.695-7.685 15.788-7.704 20.5.01 2.69 4.365 7.377 6.93 12.38 6.93h20.76v37.66h-20.76c-5.031 0-9.719 2.6-12.38 6.94-4.697 7.666-15.788 7.711-20.5 0-1.3-2.12-3.12-3.87-5.28-5.091-2.16-1.21-4.62-1.85-7.1-1.85h-20.76v-37.66h7.31c1.38 0 2.5-1.12 2.5-2.5 0-1.37-1.12-2.49-2.5-2.49l-7.31-.007v-7.002zm5.18-120.997h34.9v3.617c0 .828-.661 1.5-1.5 1.5h-31.9c-.869 0-1.5-.723-1.5-1.5zm11.7-5.003v-9.619h11.5v9.618h-11.5zm-7.64 15.12h26.793c1.778 7.675 2.877 14.749 3.498 21.57h-33.668c.704-7.943 1.844-14.86 3.377-21.57zm35.64-23.239v6.621c0 .827-.673 1.5-1.5 1.5 0 0-.045-.003-10-.003v-9.618h10c.827 0 1.5.673 1.5 1.5zm-44.5 0c0-.827.673-1.5 1.5-1.5h10v9.618c-9.308 0-9.837.003-10 .003-.827 0-1.5-.673-1.5-1.5z"></path><path d="m135.31 216.12c-1.289.401-2.045 1.782-1.62 3.14.418 1.316 1.821 2.043 3.14 1.62h.01c1.31-.43 2.03-1.83 1.61-3.14-.41-1.29-1.85-2.04-3.14-1.62z"></path><circle cx="101.92" cy="152.39" r="2.5"></circle></g></g></svg>