<!-- icon666.com - MILLIONS vector ICONS FREE --><svg version="1.1" id="Capa_1" xmlns="http://www.w3.org/2000/svg" xmlns:xlink="http://www.w3.org/1999/xlink" x="0px" y="0px" viewBox="0 0 512 512" style="enable-background:new 0 0 512 512;" xml:space="preserve"><rect x="235.99" y="384.29" style="fill:#F9653D;" width="45.46" height="120.21"></rect><path style="fill:#EF5330;" d="M281.451,384.292v44.304c-7.282,0.267-14.856,0.411-22.729,0.411c-7.873,0-15.446-0.145-22.729-0.411 v-44.304H281.451z"></path><path style="fill:#36CC8F;" d="M459.181,353.5c-17.26,15.74-60.48,43.09-156.4,49.64c-13.6,0.92-28.27,1.43-44.06,1.43 c-14.85,0-28.69-0.45-41.59-1.28c-5.37-0.34-10.57-0.75-15.61-1.22v55.22c0,6.6-5.34,11.94-11.94,11.94 c-6.59,0-11.94-5.34-11.94-11.94v-58c-7.34-1.06-14.29-2.24-20.87-3.54v14.21c0,8.05-6.53,14.58-14.58,14.58 s-14.58-6.53-14.58-14.58v-21.25c-2.88-0.84-5.67-1.7-8.35-2.57c-6.33-2.08-12.14-4.24-17.46-6.44 c-21.91-9.07-35.52-18.89-43.54-26.2c-5.25-4.78-4.52-14.26,1.38-17.91c9.58-5.94,18.9-12.57,27.93-19.76 c4.33-3.44,8.61-7.02,12.81-10.71c12.31-10.78,24.06-22.52,35.17-34.79c-13.91-5.89-23.39-12.14-29.64-17.3 c-5.6-4.59-5.11-14.35,0.88-18.2c9.39-6.02,18.43-12.89,27.1-20.36c0-0.01,0-0.01,0-0.01c6.02-5.18,11.85-10.65,17.5-16.34 c8.24-8.29,16.1-17.04,23.53-26.02c-13.08-4.45-22.17-9.54-28.33-13.96c-5.94-4.28-5.84-14.36,0.2-18.44 c46.96-31.65,82.38-90.67,99.84-124.28c5.48-10.56,18.7-10.56,24.19,0c17.46,33.61,52.87,92.63,99.83,124.28 c6.04,4.08,6.14,14.16,0.2,18.44c-6.16,4.42-15.25,9.51-28.32,13.96c12.05,14.57,25.24,28.57,39.41,40.96 c4.28,3.75,8.66,7.36,13.14,10.78c5.07,3.91,10.27,7.59,15.57,10.99c5.99,3.85,6.48,13.61,0.89,18.2 c-6.26,5.16-15.74,11.41-29.65,17.3c22.79,25.16,48.23,48.1,75.92,65.26C463.701,339.24,464.441,348.72,459.181,353.5z"></path><path style="fill:#00C279;" d="M459.181,353.5c-17.26,15.74-60.48,43.09-156.4,49.64c-13.6,0.92-28.27,1.43-44.06,1.43 c-14.85,0-28.69-0.45-41.59-1.28c-5.37-0.34-10.57-0.75-15.61-1.22v54.824c0,6.57-5.136,12.207-11.705,12.334 c-6.697,0.129-12.175-5.259-12.175-11.938v-58c-0.71-0.1-1.42-0.21-2.12-0.31v-3.71c5.04,0.47,10.24,0.88,15.61,1.22 c12.9,0.83,26.74,1.28,41.59,1.28c15.79,0,30.46-0.51,44.06-1.43c95.92-6.55,136-26.48,153.26-42.22 c5.26-4.78,4.52-14.26-1.37-17.91c-23.463-14.54-43.58-33.316-64.384-57.266c-5.628-6.478-3.452-16.592,4.392-20.072 c5.27-2.338,9.333-4.488,12.772-7.322c5.59-4.59,5.1-14.35-0.89-18.2c-5.3-3.4-10.5-7.08-15.57-10.99 c-4.48-3.42-8.86-7.03-13.14-10.78c-14.17-12.39-23.27-31.71-35.32-46.28c13.07-4.45,22.16-9.54,28.32-13.96 c5.94-4.28,5.84-14.36-0.2-18.44c-44.62-30.07-78.81-84.85-97.09-119.06c5.92-8.95,18.06-8.42,23.26,1.58 c17.46,33.61,52.87,92.63,99.83,124.28c6.04,4.08,6.14,14.16,0.2,18.44c-6.16,4.42-15.25,9.51-28.32,13.96 c12.05,14.57,25.24,28.57,39.41,40.96c4.28,3.75,8.66,7.36,13.14,10.78c5.07,3.91,10.27,7.59,15.57,10.99 c5.99,3.85,6.48,13.61,0.89,18.2c-6.26,5.16-15.74,11.41-29.65,17.3c22.79,25.16,48.23,48.1,75.92,65.26 C463.701,339.24,464.441,348.72,459.181,353.5z"></path><path style="fill:#EDF6F9;" d="M302.782,403.128c0,0,0,0,0,0.011c-13.605,0.922-28.266,1.433-44.06,1.433 c-14.849,0-28.688-0.455-41.594-1.277c-5.365-0.344-10.562-0.755-15.605-1.222v55.222c0,6.597-5.342,11.94-11.94,11.94 s-11.94-5.342-11.94-11.94v-58.009c-7.341-1.055-14.294-2.232-20.869-3.532v14.205c0,8.052-6.531,14.583-14.583,14.583 s-14.583-6.531-14.583-14.583v-21.247c-2.877-0.844-5.664-1.699-8.352-2.577c-6.331-2.077-12.139-4.232-17.459-6.431 c-21.902-9.074-35.519-18.892-43.538-26.2c-5.253-4.787-4.52-14.261,1.377-17.915c9.585-5.942,18.903-12.573,27.933-19.758 c6.875,6.297,18.759,12.828,38.429,9.018c34.43-6.664,5.553,44.981,34.986,39.984c29.432-4.998,47.203-7.775,58.309,11.107 C230.4,394.821,302.782,403.128,302.782,403.128z"></path><path style="fill:#00C279;" d="M395.081,223.84c-10.64,13.41-22.71,16.24-30.98,16.24c-11.93,0-22.88-5.74-32.63-13.42 c-1.06,3.9-2.78,7.62-5.43,10.98c-3.92,4.98-11.31,10.92-24.24,10.92c-0.31,0-0.63,0-0.95-0.01c-31-0.69-38.61-19.52-43.16-30.78 c-1.53-3.78-2.76-6.69-4.34-9.09c-5.01,8.72-13.38,22.99-30.58,22.99c-6.53,0-13.23-2.29-19.9-6.79c-1.46-0.99-2.68-1.77-3.7-2.39 c-4.22,4.8-11.19,11.35-23.53,15.54c-4.83,1.63-9.24,2.43-13.49,2.43c-8.82,0-16.54-3.59-21.74-10.11 c-3.83-4.79-5.72-10.44-6.52-15.88c0-0.01,0-0.01,0-0.01c6.02-5.18,11.85-10.65,17.5-16.34c8.24-8.29,16.1-17.04,23.53-26.02 c-13.08-4.45-22.17-9.54-28.33-13.96c-5.94-4.28-5.84-14.36,0.2-18.44c46.96-31.65,82.38-90.67,99.84-124.28 c5.48-10.56,18.7-10.56,24.19,0c17.46,33.61,52.87,92.63,99.83,124.28c6.04,4.08,6.14,14.16,0.2,18.44 c-6.16,4.42-15.25,9.51-28.32,13.96c12.05,14.57,25.24,28.57,39.41,40.96C386.221,216.81,390.601,220.42,395.081,223.84z"></path><path style="fill:#EDF6F9;" d="M381.941,213.06c-21.33,27.24-49.09-7.74-66-25.79c-17.9-19.1,18.54,45.03-14.71,44.28 c-33.24-0.74-21.1-25.91-42.51-41.46s-18.86,39.24-46.34,20.7c-27.5-18.54-15.99,2.25-42.2,11.14 c-26.21,8.88-18.79-23.81-18.79-23.81c8.24-8.29,16.1-17.04,23.53-26.02c-13.08-4.45-22.16-9.54-28.33-13.96 c-5.94-4.28-5.85-14.36,0.2-18.44c27.56-18.57,51.14-46.57,69.45-73.33c12.9-18.84,23.18-37.06,30.39-50.95 c5.48-10.56,18.7-10.56,24.18,0c8.02,15.42,19.81,36.18,34.75,57.2c17.64,24.8,39.67,49.95,65.09,67.08 c6.05,4.08,6.15,14.16,0.2,18.44c-6.17,4.42-15.25,9.51-28.32,13.96C354.591,186.67,367.76,200.67,381.941,213.06z"></path><path style="fill:#A9D9E9;" d="M305.561,72.62c-1.13,0.3-2.37,0.45-3.73,0.45c-21.07,0-25.44,31.92-33.94,11.42s-8-13.5-29-4.51 c-15.32,6.55-20.81-6.22-22.65-13.61c12.9-18.84,23.18-37.06,30.39-50.95c5.48-10.56,18.7-10.56,24.18,0 C278.831,30.84,290.621,51.6,305.561,72.62z"></path><g><circle style="fill:#EDF6F9;" cx="470.64" cy="189.13" r="16.07"></circle><circle style="fill:#EDF6F9;" cx="318.85" cy="345.36" r="16.07"></circle><circle style="fill:#EDF6F9;" cx="417.5" cy="98.31" r="16.07"></circle><circle style="fill:#EDF6F9;" cx="41.36" cy="270.95" r="16.07"></circle></g><path d="M470.64,165.561c-12.998,0-23.572,10.574-23.572,23.571c0,12.998,10.574,23.572,23.572,23.572 c12.997,0,23.571-10.574,23.571-23.572C494.211,176.135,483.637,165.561,470.64,165.561z M470.64,197.704 c-4.727,0-8.572-3.846-8.572-8.572s3.846-8.571,8.572-8.571s8.571,3.845,8.571,8.571S475.366,197.704,470.64,197.704z"></path><path d="M295.278,345.364c0,12.997,10.574,23.571,23.572,23.571c12.997,0,23.571-10.574,23.571-23.571 c0-12.998-10.574-23.572-23.571-23.572C305.853,321.792,295.278,332.366,295.278,345.364z M327.422,345.364 c0,4.727-3.845,8.571-8.571,8.571s-8.572-3.845-8.572-8.571s3.846-8.572,8.572-8.572S327.422,340.638,327.422,345.364z"></path><path d="M417.502,121.881c12.998,0,23.572-10.574,23.572-23.571c0-12.998-10.574-23.572-23.572-23.572 c-12.997,0-23.571,10.574-23.571,23.572C393.931,111.307,404.505,121.881,417.502,121.881z M417.502,89.737 c4.727,0,8.572,3.846,8.572,8.572s-3.846,8.571-8.572,8.571s-8.571-3.845-8.571-8.571S412.775,89.737,417.502,89.737z"></path><path d="M64.933,270.95c0-12.997-10.574-23.571-23.571-23.571c-12.998,0-23.572,10.574-23.572,23.571 c0,12.998,10.574,23.572,23.572,23.572C54.358,294.522,64.933,283.948,64.933,270.95z M41.361,279.522 c-4.727,0-8.572-3.846-8.572-8.572s3.846-8.571,8.572-8.571s8.571,3.845,8.571,8.571S46.088,279.522,41.361,279.522z"></path><path d="M461.758,329.215c-7.771-4.816-15.645-10.289-23.403-16.266c-3.277-2.526-7.989-1.919-10.519,1.364 c-2.528,3.281-1.917,7.99,1.364,10.519c8.159,6.286,16.454,12.05,24.656,17.134c0.714,0.441,1.226,1.459,1.337,2.655 c0.124,1.351-0.282,2.631-1.063,3.343c-9.218,8.406-26.629,20.556-57.228,30.694c-26.516,8.785-58.024,14.438-93.996,16.932 c-27.728-3.262-70.92-12.863-77.149-23.453c-13.857-23.557-36.882-19.646-66.029-14.698c-2.787,0.473-4.126,0.128-4.479-0.15 c-1.607-1.271-2.048-8.109-2.312-12.194c-0.563-8.728-1.2-18.619-8.733-24.438c-4.856-3.749-11.278-4.787-19.633-3.17 c-9.481,1.838-17.69,1.092-24.53-2.183c1.762-1.487,3.521-2.999,5.274-4.537c11.994-10.502,24.037-22.415,35.795-35.407 c1.629-1.801,2.286-4.279,1.762-6.65c-0.523-2.371-2.163-4.342-4.399-5.289c-11.147-4.718-20.5-10.159-27.807-16.18 c-0.958-0.787-1.233-2.202-1.171-3.263c0.073-1.261,0.592-2.348,1.351-2.835c11.001-7.061,22.031-15.58,32.937-25.41 c0.946,3.985,2.752,7.839,5.986,10.755c3.778,3.407,10.806,6.614,22.821,2.541c12.538-4.251,18.036-11.007,21.674-15.479 c0.775-0.952,1.805-2.217,2.372-2.704c0.859,0.106,3.754,0.904,11.544,6.156c6.611,4.462,12.903,6.041,18.697,4.699 c9.269-2.149,14.322-10.948,18.382-18.018c1.688-2.94,4.832-8.412,6.352-8.905c0.011,0,0.839,0.03,2.703,1.384 c6.91,5.018,9.47,11.349,12.181,18.051c4.376,10.82,9.822,24.286,34.568,24.84c0.243,0.006,0.482,0.008,0.72,0.008 c9,0,14.023-3.854,16.667-7.135c5.62-6.975,5.582-16.972,4.045-26.546c11.855,12.391,26.384,25.2,41.618,25.2 c0.343,0,0.689-0.006,1.034-0.02c6.345-0.243,12.151-2.659,17.339-7.183c7.965,6.622,16.049,12.589,24.106,17.763 c0.762,0.489,1.28,1.576,1.354,2.836c0.079,1.354-0.369,2.604-1.18,3.271c-7.296,6.013-16.647,11.454-27.798,16.173 c-2.236,0.947-3.876,2.919-4.399,5.29c-0.524,2.372,0.134,4.851,1.764,6.651c9.759,10.776,19.718,20.827,29.601,29.871 c1.439,1.316,3.253,1.967,5.062,1.967c2.031,0,4.056-0.82,5.535-2.437c2.796-3.056,2.586-7.8-0.47-10.597 c-7.207-6.595-14.464-13.752-21.654-21.356c8.395-4.22,15.731-8.903,21.891-13.979c4.507-3.702,6.983-9.581,6.624-15.728 c-0.353-6.05-3.425-11.5-8.221-14.582c-9.293-5.968-18.653-13.066-27.825-21.104c-10.648-9.314-21.306-20.08-31.771-32.091 c7.621-3.248,14.362-6.963,20.129-11.098c4.799-3.454,7.607-9.269,7.512-15.554c-0.094-6.238-3.047-11.916-7.899-15.189 c-45.854-30.909-80.689-89.404-97.374-121.521C273.582,4.473,266.572,0,258.724,0c-0.001,0-0.001,0-0.001,0 c-7.85,0-14.859,4.473-18.751,11.964c-10.88,20.942-28.728,51.707-51.972,79.342c-2.667,3.17-2.259,7.901,0.911,10.567 c3.173,2.668,7.902,2.257,10.567-0.911c5.451-6.48,10.608-13.118,15.462-19.762c1.894,2.429,4.277,4.565,7.279,6.057 c3.951,1.965,10.562,3.491,19.624-0.382c5.011-2.146,8.785-4.141,11.817-5.743c1.188-0.628,2.551-1.349,3.62-1.858 c1.288,2.314,3.018,6.485,3.683,8.09c1.977,4.768,5.017,10.368,11.025,11.359c0.602,0.099,1.185,0.146,1.752,0.146 c5.51,0,9.406-4.442,12.882-8.405c5.078-5.793,9.143-9.893,15.209-9.893c0.083,0,0.164-0.01,0.247-0.012 c17.604,24.182,39.364,48.499,64.382,65.364c0.774,0.522,1.269,1.664,1.288,2.979c0.021,1.343-0.48,2.579-1.265,3.145 c-7.004,5.021-15.876,9.381-26.37,12.956c-2.333,0.795-4.127,2.687-4.798,5.058c-0.671,2.372-0.134,4.922,1.438,6.822 c11.204,13.547,22.702,25.761,34.256,36.425c-2.072,1.415-4.205,2.179-6.437,2.264c-0.158,0.007-0.317,0.01-0.478,0.01 c-12.048,0-27.719-17.125-38.135-28.506c-1.585-1.732-3.104-3.392-4.545-4.931c-2.509-2.678-7.731-8.247-13.828-4.957 c-6.15,3.319-4.609,9.708-2.476,18.55c1.737,7.203,5.354,22.192,1.659,26.777c-0.872,1.084-2.702,1.603-5.37,1.542 c-14.878-0.333-16.923-5.392-20.999-15.468c-3.066-7.583-6.883-17.02-17.271-24.563c-4.974-3.611-9.888-4.931-14.614-3.92 c-7.992,1.709-12.386,9.358-16.262,16.107c-2.61,4.545-5.859,10.202-8.764,10.876c-1.526,0.354-3.983-0.54-6.921-2.522 c-9.627-6.491-15.457-8.938-20.771-8.723c-6.681,0.268-10.277,4.688-13.167,8.239c-3.004,3.691-6.409,7.876-14.854,10.739 c-3.826,1.299-6.875,1.5-7.959,0.527c-1.94-1.74-2.313-8.172-1.477-13.602c7.539-7.69,15.053-16.038,22.36-24.863 c1.573-1.899,2.111-4.45,1.44-6.823s-2.465-4.265-4.8-5.06c-10.499-3.574-19.375-7.934-26.369-12.949 c-0.795-0.571-1.295-1.809-1.275-3.15c0.021-1.315,0.514-2.458,1.287-2.979c8.179-5.514,16.418-12.104,24.488-19.59 c3.037-2.817,3.215-7.563,0.398-10.6c-2.817-3.035-7.563-3.215-10.6-0.398c-7.505,6.962-15.133,13.068-22.674,18.151 c-4.852,3.273-7.804,8.951-7.898,15.188c-0.095,6.286,2.713,12.1,7.522,15.561c5.76,4.13,12.5,7.843,20.121,11.09 c-5.374,6.161-10.823,12.025-16.275,17.515c-14.294,14.398-28.87,26.402-43.325,35.682c-4.794,3.081-7.866,8.532-8.219,14.582 c-0.358,6.146,2.118,12.025,6.615,15.72c6.168,5.082,13.507,9.768,21.901,13.987c-9.135,9.66-18.391,18.604-27.608,26.676 c-13.129,11.519-26.5,21.521-39.743,29.729c-4.771,2.955-7.821,8.068-8.372,14.026c-0.557,6.028,1.646,11.938,5.894,15.807 c7.934,7.23,22.306,17.886,45.724,27.589c5.637,2.33,11.688,4.559,18,6.63c1.031,0.336,2.094,0.675,3.183,1.015v15.681 c0,12.175,9.905,22.08,22.08,22.08s22.08-9.905,22.08-22.08v-5.196c1.942,0.336,3.9,0.66,5.869,0.972v51.558 c0,10.719,8.721,19.439,19.439,19.439s19.439-8.721,19.439-19.439V410.24c2.554,0.198,5.102,0.379,7.629,0.539 c3.889,0.248,7.843,0.456,11.839,0.633V504.5c0,4.143,3.357,7.5,7.5,7.5h45.46c4.143,0,7.5-3.357,7.5-7.5v-29.84 c0-4.143-3.357-7.5-7.5-7.5s-7.5,3.357-7.5,7.5V497h-30.46v-85.094c5.029,0.109,10.11,0.166,15.231,0.166 c5.199,0,10.266-0.06,15.229-0.166v32.084c0,4.143,3.357,7.5,7.5,7.5s7.5-3.357,7.5-7.5v-32.573 c106.918-4.733,155.362-34.199,175.285-52.37c4.247-3.87,6.45-9.78,5.893-15.808C469.578,337.281,466.526,332.17,461.758,329.215z M275.344,80.573c-0.207,0.235-0.426,0.485-0.651,0.74c-3.822-9.199-6.599-14.938-12.272-16.982 c-5.401-1.944-9.976,0.476-15.77,3.539c-2.791,1.476-6.265,3.312-10.708,5.214c-3.047,1.303-5.416,1.552-7.046,0.741 c-1.687-0.838-3.26-3.087-4.432-6.219c12.132-18.042,21.862-35.336,28.818-48.726c1.281-2.466,3.264-3.88,5.44-3.88 s4.158,1.414,5.439,3.879c6.754,13.002,16.403,30.181,28.525,48.241C284.657,69.959,279.253,76.115,275.344,80.573z M202.214,394.607c-2.104-0.192-4.187,0.506-5.744,1.926c-1.559,1.421-2.447,3.433-2.447,5.542v55.22 c0,2.448-1.991,4.439-4.439,4.439s-4.439-1.991-4.439-4.439v-58.013c0-3.732-2.745-6.897-6.439-7.425 c-6.983-0.997-13.875-2.161-20.482-3.461c-2.203-0.435-4.48,0.144-6.212,1.567s-2.735,3.549-2.735,5.792v14.206 c0,3.904-3.176,7.08-7.08,7.08s-7.08-3.176-7.08-7.08V388.71c0-3.332-2.198-6.265-5.397-7.199c-2.869-0.838-5.606-1.681-8.122-2.501 c-5.943-1.95-11.641-4.049-16.927-6.233c-21.41-8.871-34.308-18.391-41.356-24.815c-0.779-0.709-1.186-1.989-1.061-3.34 c0.11-1.196,0.622-2.214,1.337-2.656c7.976-4.944,15.983-10.514,23.949-16.616c10.856,7.459,24.504,9.842,39.886,6.864 c3.662-0.71,6.438-0.593,7.613,0.315c2.169,1.675,2.593,8.248,2.934,13.53c0.531,8.242,1.134,17.584,7.977,22.995 c4.104,3.245,9.587,4.312,16.294,3.174c31.716-5.388,42.643-5.994,50.588,7.515c3.801,6.461,12.283,12.096,25.715,17.033 c-7.128-0.211-14.127-0.531-20.939-0.965C212.518,395.486,207.34,395.081,202.214,394.607z"></path></svg>