<!-- icon666.com - MILLIONS vector ICONS FREE --><svg enable-background="new 0 0 256 256" viewBox="0 0 256 256" xmlns="http://www.w3.org/2000/svg"><g id="Layer_1"><g><g><path d="m212.672 156.2c-3.15 20.92-8.92 31.76-10.4 64.25l-1.17 25.69c-.08 1.6-1.4 2.86-3 2.86h-43.39c-1.6 0-2.92-1.26-3-2.86l-1.18-25.99c-1.47-32.26-7.24-43.13-10.38-63.95z" fill="#4c4944"></path><path d="m212.682 128h-72.55c-1.12 0-2.02.92-2 2.03.05 2.69.13 5.23.24 7.64.34 7.19.98 13.19 1.78 18.53 3.14 20.82 8.91 31.69 10.38 63.95l1.18 25.99c.08 1.6 1.4 2.86 3 2.86h43.39c1.6 0 2.92-1.26 3-2.86l1.17-25.69c1.48-32.49 7.25-43.33 10.4-64.25.79-5.34 1.43-11.34 1.77-18.53.11-2.41.19-4.95.24-7.64.02-1.11-.89-2.03-2-2.03z" fill="#efefef"></path><path d="m214.442 137.67c-.34 7.19-.98 13.19-1.77 18.53h-72.52c-.8-5.34-1.44-11.34-1.78-18.53z" fill="#afafaf"></path><path d="m212.672 156.2c-3.15 20.92-8.92 31.76-10.4 64.25l-1.17 25.69c-.08 1.6-1.4 2.86-3 2.86h-43.39c-1.6 0-2.92-1.26-3-2.86l-1.18-25.99c-1.47-32.26-7.24-43.13-10.38-63.95z" fill="#4c4944"></path></g><path d="m224.538 25.74h-96.257c-5.417 0-9.808 4.391-9.808 9.808v33.192c0 5.417 4.391 9.808 9.808 9.808h39.255l8.874 17.571 8.874-17.571h39.255c5.417 0 9.808-4.391 9.808-9.808v-33.192c0-5.417-4.392-9.808-9.809-9.808z" fill="#efefef"></path><g><path d="m227.264 101.757c-3.726-1.227-6.637-2.021-8.586-10.415-.634-2.735-4.545-2.728-5.178 0-1.906 8.207-4.563 9.086-8.586 10.415-2.423.8-2.428 4.245 0 5.047 6.682 2.207 7.439 5.472 8.585 10.414.637 2.741 4.542 2.74 5.179 0 1.904-8.207 4.706-9.133 8.585-10.414 2.423-.8 2.429-4.245.001-5.047z"></path><path d="m220.069 104.309c-1.467 1.033-2.789 2.422-3.922 4.434-.944-1.589-2.256-3.089-4.167-4.4 1.545-1.067 2.933-2.5 4.122-4.633 1.2 2.154 2.556 3.588 3.967 4.599z" fill="#f0c020"></path></g><path d="m122.44 119.79v124.21c0 2.761-2.239 5-5 5h-74.66c-2.761 0-5-2.239-5-5v-124.21c0-9.97 3.62-19.09 9.62-26.12 3.193-3.757 7.074-6.918 11.446-9.298 1.543-.84 2.568-2.389 2.667-4.143l2.868-51 .39-6.99h30.68l.39 6.99 2.868 51c.099 1.754 1.124 3.303 2.667 4.143 4.372 2.379 8.253 5.541 11.446 9.298 5.998 7.03 9.618 16.15 9.618 26.12z" fill="#878787"></path><path d="m95.84 29.23c-.07.01-.14.01-.21.01h-31.04c-.07 0-.14 0-.21-.01l.39-6.99h30.68z" fill="#4c4944"></path><path d="m103.25 14.62c0 4.22-3.41 7.62-7.62 7.62h-31.04c-4.21 0-7.62-3.41-7.62-7.62 0-4.22 3.41-7.62 7.62-7.62h31.04c4.21 0 7.62 3.41 7.62 7.62z" fill="#878787"></path><path d="m122.44 119.79v124.21c0 2.76-2.24 5-5 5h-74.66c-2.76 0-5-2.24-5-5v-124.21c0-9.97 3.62-19.09 9.62-26.12h65.42c6 7.03 9.62 16.15 9.62 26.12z" fill="#4c4944"></path><g><path d="m112.443 241.5c-1.381 0-2.5-1.119-2.5-2.5v-3c0-1.381 1.119-2.5 2.5-2.5s2.5 1.119 2.5 2.5v3c0 1.381-1.119 2.5-2.5 2.5zm0-13c-1.381 0-2.5-1.119-2.5-2.5v-106.21c0-10.069-5.437-19.112-13.723-23.963-1.191-.697-1.592-2.229-.894-3.421s2.229-1.591 3.42-.894c9.751 5.709 16.197 16.356 16.197 28.277v106.211c0 1.381-1.119 2.5-2.5 2.5z" fill="#878787"></path></g><path d="m37.78 131h84.66v77.49h-84.66z" fill="#afafaf"></path><path d="m37.78 142.258h84.66v54.973h-84.66z" fill="#f0c020"></path><g><path d="m82.915 154.866 2.928 5.933c.456.923 1.336 1.563 2.355 1.711l6.547.951c2.566.373 3.59 3.526 1.734 5.335l-4.738 4.618c-.737.719-1.074 1.754-.9 2.769l1.118 6.521c.438 2.555-2.244 4.504-4.539 3.298l-5.856-3.079c-.911-.479-2-.479-2.911 0l-5.856 3.079c-2.295 1.206-4.977-.742-4.539-3.298l1.118-6.521c.174-1.015-.162-2.05-.9-2.769l-4.738-4.618c-1.857-1.81-.832-4.963 1.734-5.335l6.547-.951c1.019-.148 1.9-.788 2.355-1.711l2.928-5.933c1.15-2.325 4.466-2.325 5.613 0z" fill="#efefef"></path></g><g><path d="m202.563 158.7c-.13 0-.261-.01-.394-.03-1.364-.216-2.294-1.497-2.079-2.86.525-3.317.937-6.631 1.26-10.129.126-1.375 1.349-2.389 2.719-2.26 1.375.127 2.387 1.344 2.26 2.719-.333 3.607-.758 7.025-1.3 10.451-.195 1.231-1.258 2.109-2.466 2.109z" fill="#efefef"></path></g><g><path d="m191.307 241.497c-1.379-.063-2.447-1.23-2.384-2.61l.136-2.997c.063-1.379 1.229-2.47 2.611-2.384 1.379.063 2.447 1.23 2.384 2.61l-.136 2.997c-.064 1.394-1.254 2.453-2.611 2.384zm.588-12.986c-1.379-.062-2.447-1.23-2.385-2.61l.272-6.014c1.019-22.324 3.938-34.861 6.76-46.985 1.508-6.463 2.636-11.433 3.55-17.099.22-1.363 1.5-2.298 2.866-2.07 1.363.22 2.29 1.503 2.07 2.865-.939 5.826-2.086 10.879-3.604 17.381-2.784 11.961-5.649 24.271-6.647 46.136l-.272 6.013c-.063 1.406-1.268 2.452-2.61 2.383z" fill="#878787"></path></g><g><path d="m162.75 182.667c-1.381 0-2.5-1.119-2.5-2.5v-.417c0-1.381 1.119-2.5 2.5-2.5s2.5 1.119 2.5 2.5v.417c0 1.381-1.119 2.5-2.5 2.5z" fill="#878787"></path></g><g><path d="m176.412 233.417c-1.381 0-2.5-1.119-2.5-2.5v-.417c0-1.381 1.119-2.5 2.5-2.5s2.5 1.119 2.5 2.5v.417c0 1.381-1.119 2.5-2.5 2.5z" fill="#878787"></path></g><g><path d="m186.5 172.245c-1.381 0-2.5-1.119-2.5-2.5v-.417c0-1.381 1.119-2.5 2.5-2.5s2.5 1.119 2.5 2.5v.417c0 1.381-1.119 2.5-2.5 2.5z" fill="#878787"></path></g><g><path d="m174.5 201.5c-1.381 0-2.5-1.119-2.5-2.5v-.417c0-1.381 1.119-2.5 2.5-2.5s2.5 1.119 2.5 2.5v.417c0 1.381-1.119 2.5-2.5 2.5z" fill="#afafaf"></path></g><g><path d="m164.667 211.198c-1.381 0-2.5-1.119-2.5-2.5v-.417c0-1.381 1.119-2.5 2.5-2.5s2.5 1.119 2.5 2.5v.417c0 1.381-1.12 2.5-2.5 2.5z" fill="#afafaf"></path></g><g><path d="m96.167 95.795c-.245-.151-.499-.295-.751-.43-5.424-2.964-8.851-8.356-9.188-14.437l-2.53-45.048c-.077-1.379.978-2.56 2.356-2.637 1.375-.089 2.559.978 2.636 2.355l2.53 45.05c.241 4.344 2.698 8.199 6.573 10.317.326.174.673.37 1.008.578 1.174.727 1.536 2.268.809 3.441-.73 1.178-2.272 1.537-3.443.811z" fill="#efefef"></path></g><g><path d="m112.443 210.99c-1.381 0-2.5-1.119-2.5-2.5v-11.26c0-1.381 1.119-2.5 2.5-2.5s2.5 1.119 2.5 2.5v11.26c0 1.381-1.119 2.5-2.5 2.5z" fill="#efefef"></path></g><g><path d="m112.443 144.76c-1.381 0-2.5-1.119-2.5-2.5v-11.26c0-1.381 1.119-2.5 2.5-2.5s2.5 1.119 2.5 2.5v11.26c0 1.381-1.119 2.5-2.5 2.5z" fill="#efefef"></path></g><g><path d="m112.443 199.73c-1.381 0-2.5-1.119-2.5-2.5v-54.97c0-1.381 1.119-2.5 2.5-2.5s2.5 1.119 2.5 2.5v54.971c0 1.38-1.119 2.499-2.5 2.499z" fill="#f8e5b0"></path></g><g><path d="m69.667 106.992c-1.381 0-2.5-1.119-2.5-2.5v-.416c0-1.381 1.119-2.5 2.5-2.5s2.5 1.119 2.5 2.5v.416c0 1.381-1.12 2.5-2.5 2.5z" fill="#878787"></path></g><g><path d="m93.167 236.75c-1.381 0-2.5-1.119-2.5-2.5v-.417c0-1.381 1.119-2.5 2.5-2.5s2.5 1.119 2.5 2.5v.417c0 1.381-1.12 2.5-2.5 2.5z" fill="#878787"></path></g><g><path d="m61 231.167c-1.381 0-2.5-1.119-2.5-2.5v-.417c0-1.381 1.119-2.5 2.5-2.5s2.5 1.119 2.5 2.5v.417c0 1.381-1.119 2.5-2.5 2.5z" fill="#878787"></path></g><g><path d="m70.833 224.234c-1.381 0-2.5-1.119-2.5-2.5v-.417c0-1.381 1.119-2.5 2.5-2.5s2.5 1.119 2.5 2.5v.417c0 1.381-1.119 2.5-2.5 2.5z" fill="#afafaf"></path></g><g><path d="m97.483 120.673c-1.381 0-2.5-1.119-2.5-2.5v-.417c0-1.381 1.119-2.5 2.5-2.5s2.5 1.119 2.5 2.5v.417c0 1.381-1.119 2.5-2.5 2.5z" fill="#afafaf"></path></g><path d="m200.07 215.05c-.102 1.354.932 2.567 2.33 2.65 1 .196 2.553-.746 2.65-2.33.09-1.38-.96-2.57-2.33-2.66-1.37-.101-2.57.97-2.65 2.34z"></path><path d="m217.182 130.076c.045-2.508-1.985-4.576-4.5-4.576h-72.55c-2.529 0-4.545 2.072-4.5 4.576.362 19.566 2.256 30.025 6.037 46.193 2.67 11.41 5.42 23.2 6.36 43.99l1.19 25.99c.14 2.939 2.56 5.25 5.49 5.25h43.39c2.94 0 5.35-2.3 5.5-5.24l.95-20.96c.062-1.372-1.008-2.548-2.38-2.61-1.4-.06-2.55 1.011-2.61 2.38v.011l-.96 20.95c-.01.25-.23.47-.5.47h-43.39c-.26 0-.49-.22-.5-.48l-1.18-25.979c-.97-21.311-3.8-33.391-6.53-45.07-1.25-5.37-2.43-10.439-3.42-16.27h66.66c-.99 5.869-2.17 10.949-3.42 16.319-1.99 8.54-4.05 17.36-5.4 29.971-.15 1.369.85 2.6 2.22 2.75 1.38.13 2.6-.86 2.75-2.221 1.29-12.17 3.31-20.819 5.26-29.18 2.661-11.435 4.992-21.67 5.79-38.552 0-.001 0-.002 0-.003.112-2.432.193-5.026.243-7.709zm-5.01.424c-.032 1.597-.076 3.159-.13 4.67h-71.27c-.055-1.509-.098-3.071-.13-4.67zm-69.852 23.2c-.596-4.37-1.028-8.833-1.31-13.53h70.795c-.28 4.674-.71 9.137-1.304 13.53z"></path><path d="m226.84 80.83c5.79-1.09 10-6.181 10-12.09v-33.19c0-6.79-5.52-12.31-12.3-12.31h-96.26c-6.79 0-12.31 5.52-12.31 12.31v33.19c0 6.779 5.52 12.31 12.31 12.31h37.72l8.18 16.2c.926 1.83 3.543 1.812 4.46 0l8.18-16.2h19.56c1.38 0 2.5-1.12 2.5-2.5s-1.12-2.5-2.5-2.5h-21.1c-.95 0-1.8.52-2.23 1.37l-6.64 13.149-6.64-13.149c-.43-.83-1.3-1.37-2.23-1.37h-39.26c-4.02-.01-7.3-3.29-7.31-7.31v-33.19c.01-4.02 3.29-7.3 7.31-7.31h96.26c4.02.01 7.3 3.29 7.31 7.31v33.19c0 3.51-2.5 6.529-5.94 7.18-.66.12-1.23.5-1.6 1.05-.38.55-.52 1.22-.4 1.87.26 1.33 1.58 2.25 2.93 1.99z"></path><circle cx="216.38" cy="78.55" r="2.5"></circle><path d="m134.32 43.997h4.822c.665 0 1.206.541 1.206 1.205 0 1.381 1.119 2.5 2.5 2.5s2.5-1.119 2.5-2.5c0-3.422-2.784-6.205-6.206-6.205h-4.822c-3.422 0-6.206 2.783-6.206 6.205v3.236c0 3.422 2.784 6.205 6.206 6.205h4.822c.665 0 1.206.541 1.206 1.206v3.235c0 .665-.541 1.206-1.206 1.206h-4.822c-.665 0-1.206-.541-1.206-1.206v-.049c0-1.381-1.119-2.476-2.5-2.476s-2.5 1.144-2.5 2.524c0 3.422 2.784 6.206 6.206 6.206h4.822c3.422 0 6.206-2.784 6.206-6.206v-3.233c0-3.422-2.784-6.206-6.206-6.206h-4.822c-.665 0-1.206-.541-1.206-1.205v-3.236c0-.665.541-1.206 1.206-1.206z"></path><path d="m156.57 65.291c1.381 0 2.5-1.119 2.5-2.5v-18.794h3.617c1.381 0 2.5-1.119 2.5-2.5s-1.119-2.5-2.5-2.5h-12.233c-1.381 0-2.5 1.119-2.5 2.5s1.119 2.5 2.5 2.5h3.617v18.794c-.001 1.381 1.118 2.5 2.499 2.5z"></path><path d="m224.706 41.497c0-1.381-1.119-2.5-2.5-2.5h-12.233c-1.381 0-2.5 1.119-2.5 2.5s1.119 2.5 2.5 2.5h3.617v18.794c0 1.381 1.119 2.5 2.5 2.5s2.5-1.119 2.5-2.5v-18.794h3.617c1.379 0 2.499-1.119 2.499-2.5z"></path><path d="m175.753 38.997c-4.39 0-7.96 3.571-7.96 7.96v10.373c0 4.39 3.571 7.961 7.96 7.961h1.313c4.39 0 7.96-3.571 7.96-7.961v-10.373c0-4.389-3.571-7.96-7.96-7.96zm4.273 7.96v10.373c0 1.633-1.328 2.961-2.96 2.961h-1.313c-1.632 0-2.96-1.328-2.96-2.961v-10.373c0-1.632 1.328-2.96 2.96-2.96h1.313c1.632 0 2.96 1.328 2.96 2.96z"></path><path d="m190.133 38.997c-1.381 0-2.5 1.119-2.5 2.5v15.177c0 4.752 3.865 8.617 8.617 8.617 4.751 0 8.616-3.865 8.616-8.617v-15.177c0-1.381-1.119-2.5-2.5-2.5s-2.5 1.119-2.5 2.5v15.177c0 1.994-1.623 3.617-3.617 3.617s-3.616-1.623-3.616-3.617v-15.177c0-1.381-1.119-2.5-2.5-2.5z"></path><path d="m80.402 185.136 5.856 3.079c4.128 2.17 8.954-1.339 8.166-5.934l-1.119-6.52c-.035-.204.032-.412.181-.557l4.737-4.618c3.338-3.254 1.495-8.929-3.119-9.6l-6.546-.951c-.205-.03-.382-.158-.474-.344l-2.928-5.933c-2.063-4.181-8.031-4.181-10.093 0l-2.928 5.933c-.091.186-.269.313-.473.344l-6.548.951c-4.615.671-6.457 6.346-3.119 9.6l4.739 4.619c.147.144.214.351.179.555l-1.118 6.521c-.789 4.595 4.037 8.102 8.166 5.934l5.856-3.08c.184-.096.401-.097.585.001zm-8.767-1.347c-.463.246-1-.144-.912-.662l1.118-6.521c.314-1.827-.292-3.689-1.618-4.981l-4.738-4.618c-.376-.367-.172-.996.348-1.072l6.548-.951c1.833-.267 3.417-1.418 4.236-3.078l2.929-5.933c.232-.472.893-.471 1.126 0l2.928 5.933c.82 1.661 2.403 2.812 4.237 3.078l6.547.951c.52.076.724.705.348 1.072l-4.736 4.617c-1.328 1.292-1.934 3.154-1.62 4.982l1.119 6.52c.088.517-.447.908-.912.663l-5.855-3.078c-1.638-.864-3.598-.865-5.239-.001z"></path><path d="m35.28 119.79v124.21c0 4.13 3.37 7.5 7.5 7.5h74.66c4.13 0 7.5-3.37 7.5-7.5 0-2.339 0-120.967 0-124.21 0-15.607-8.524-30.076-22.37-37.61-.81-.45-1.32-1.229-1.37-2.09l-3.12-55.662c4.398-1.1 7.67-5.074 7.67-9.808 0-5.58-4.54-10.12-10.12-10.12h-31.04c-5.58 0-10.12 4.54-10.12 10.12 0 4.737 3.276 8.713 7.678 9.81l-.728 12.92c-.08 1.38.98 2.561 2.35 2.641 1.38.069 2.56-.98 2.64-2.351l.73-12.899h25.94l3.13 55.63c.15 2.609 1.63 4.93 3.97 6.199 2.391 1.298 4.607 2.842 6.64 4.601h-53.422c2.035-1.758 4.251-3.303 6.642-4.601 2.34-1.27 3.82-3.59 3.97-6.199l1.28-22.771c.07-1.37-.98-2.55-2.36-2.63-1.41-.09-2.56.98-2.63 2.35l-1.28 22.77c-.05.86-.56 1.64-1.37 2.09-13.631 7.404-22.37 21.776-22.37 37.61zm29.49-100.05h-.18c-2.823 0-5.12-2.297-5.12-5.12s2.297-5.12 5.12-5.12h31.04c2.823 0 5.12 2.297 5.12 5.12s-2.297 5.12-5.12 5.12h-.18zm-24.49 179.989h17.13c1.38 0 2.5-1.12 2.5-2.5 0-1.37-1.11-2.489-2.48-2.5-.01 0-.01 0-.02 0h-17.13v-49.97h79.66v49.97h-42.53c-1.37 0-2.5 1.12-2.5 2.5s1.13 2.5 2.5 2.5h42.53v6.261h-79.66zm79.66-59.969h-79.66v-6.26h79.66zm-2.5 106.74h-74.66c-1.38 0-2.5-1.12-2.5-2.5v-33.01h79.66v33.01c0 1.38-1.12 2.5-2.5 2.5zm2.5-118h-79.66v-8.71c0-8.601 2.951-16.939 8.304-23.62h63.044c5.362 6.681 8.313 15.02 8.313 23.62v8.71z"></path><path d="m63.21 49.97c.05.01.1.01.15.01 1.32 0 2.42-1.04 2.49-2.359.04-.67-.19-1.311-.63-1.811-.45-.5-1.06-.79-1.73-.83-1.38-.09-2.55.99-2.63 2.36-.08 1.38.98 2.559 2.35 2.63z"></path><circle cx="67.41" cy="197.229" r="2.5"></circle></g></g></svg>