<!-- icon666.com - MILLIONS vector ICONS FREE --><svg version="1.1" id="Layer_1" xmlns="http://www.w3.org/2000/svg" xmlns:xlink="http://www.w3.org/1999/xlink" x="0px" y="0px" viewBox="0 0 512 512" style="enable-background:new 0 0 512 512;" xml:space="preserve"><circle style="fill:#FF505D;" cx="368.327" cy="282.122" r="135.837"></circle><path style="fill:#E21220;" d="M368.327,386.612c-69.719,0-127.159-52.527-134.931-120.163c-0.591,5.144-0.906,10.372-0.906,15.673 c0,75.021,60.816,135.837,135.837,135.837s135.837-60.816,135.837-135.837c0-5.302-0.315-10.529-0.905-15.673 C495.485,334.085,438.045,386.612,368.327,386.612z"></path><g><path style="fill:#FF7C80;" d="M355.265,233.987v-30.232c-43.281,0-78.367,35.087-78.367,78.367s35.087,78.367,78.367,78.367 v-30.232c-15.713-10.267-26.122-28.006-26.122-48.135S339.552,244.254,355.265,233.987z"></path><path style="fill:#FF7C80;" d="M381.388,203.755v30.232c15.713,10.267,26.122,28.006,26.122,48.135 c0,20.129-10.409,37.868-26.122,48.135v30.232c43.281,0,78.367-35.087,78.367-78.367S424.668,203.755,381.388,203.755z"></path></g><circle style="fill:#FF505D;" cx="143.673" cy="282.122" r="135.837"></circle><path style="fill:#E21220;" d="M228.702,176.196c18.708,23.276,29.91,52.842,29.91,85.029c0,75.021-60.816,135.837-135.837,135.837 c-32.187,0-61.752-11.202-85.029-29.91c24.897,30.976,63.093,50.808,105.927,50.808c75.021,0,135.837-60.816,135.837-135.837 C279.51,239.289,259.678,201.093,228.702,176.196z"></path><g><path style="fill:#91DC5A;" d="M102.939,135.565c19.51-5.228,40.734,10.721,40.734,10.721s-10.407,24.423-29.916,29.651 s-40.734-10.721-40.734-10.721S83.43,140.793,102.939,135.565z"></path><path style="fill:#91DC5A;" d="M184.408,135.565c19.509,5.228,29.916,29.651,29.916,29.651s-21.225,15.948-40.734,10.721 c-19.509-5.228-29.916-29.651-29.916-29.651S164.898,130.337,184.408,135.565z"></path><path style="fill:#91DC5A;" d="M164.571,182.857c0,20.198-20.898,36.571-20.898,36.571s-20.898-16.374-20.898-36.571 s20.898-36.571,20.898-36.571S164.571,162.659,164.571,182.857z"></path></g><path d="M377.101,323.698l-3.55,2.32v42.309h7.837c47.533,0,86.204-38.672,86.204-86.204s-38.671-86.204-86.204-86.204h-7.837 v42.309l3.55,2.32c14.134,9.236,22.573,24.779,22.573,41.575C399.673,298.919,391.235,314.462,377.101,323.698z M389.224,334.331 c16.434-12.336,26.122-31.547,26.122-52.208s-9.688-39.872-26.122-52.208v-17.89c35.216,3.911,62.694,33.856,62.694,70.098 s-27.478,66.187-62.694,70.098V334.331z"></path><path d="M368.327,138.449c-39.912,0-76.987,15.974-104.397,44.982l11.391,10.766c24.419-25.841,57.448-40.074,93.005-40.074 c70.58,0,128,57.42,128,128s-57.42,128-128,128c-35.578,0-68.625-14.249-93.055-40.123l-11.396,10.761 c27.421,29.041,64.516,45.035,104.451,45.035c79.222,0,143.673-64.452,143.673-143.673S447.549,138.449,368.327,138.449z"></path><path d="M51.464,311.115l-14.949,4.708c11.018,34.982,38.479,62.444,73.457,73.457l4.707-14.949 C84.579,364.853,60.948,341.221,51.464,311.115z"></path><path d="M286.494,266.449c6.648-29.291,31.467-51.098,60.934-54.417v17.88c-16.434,12.338-26.122,31.55-26.122,52.21 s9.688,39.872,26.122,52.21v17.894c-19.069-2.088-36.324-11.765-48.184-27.262l-12.447,9.526 c16.457,21.503,41.412,33.836,68.468,33.836h7.837v-42.305l-3.55-2.321c-14.134-9.238-22.573-24.782-22.573-41.579 s8.439-32.341,22.573-41.579l3.55-2.321v-42.305h-7.837c-31.234,0-59.431,17.061-74.56,42.999 c-8.055-25.572-23.203-48.647-44.162-66.417l-10.135,11.955c28.766,24.39,45.265,59.988,45.265,97.668c0,70.58-57.42,128-128,128 s-128-57.42-128-128c0-37.68,16.499-73.278,45.265-97.667l-10.136-11.955C18.517,199.873,0,239.829,0,282.122 c0,79.221,64.451,143.673,143.673,143.673s143.673-64.452,143.673-143.673C287.347,276.855,287.059,271.624,286.494,266.449z"></path><path d="M101.576,184.658l1.335-15.616c-7.555-0.646-14.805-3.929-19.569-6.576c3.927-6.541,11.427-16.6,21.628-19.33 c9.066-2.428,19.081,1.154,25.881,4.578c-6.955,7.614-15.913,20.302-15.913,35.143c0,23.741,22.925,41.976,23.901,42.739 l4.834,3.788l4.834-3.788c0.964-0.755,23.343-18.571,23.877-41.897c3.154,0.767,6.31,1.119,9.417,1.119 c19.22-0.001,36.383-12.7,37.227-13.334l4.907-3.686l-2.403-5.647c-0.485-1.142-12.155-28.015-35.098-34.156 c-12.792-3.425-25.769,0.482-34.92,4.735v-7.344c0-12.963,10.546-23.51,23.51-23.51V86.204c-21.606,0-39.184,17.577-39.184,39.184 v7.343c-9.152-4.254-22.13-8.162-34.919-4.735c-22.945,6.142-34.614,33.015-35.1,34.156l-2.403,5.646l4.906,3.686 C68.953,171.96,84.029,183.156,101.576,184.658z M182.376,143.135c10.261,2.746,17.729,12.772,21.635,19.307 c-6.672,3.699-18.2,8.655-28.401,5.927c-2.49-0.666-4.975-1.83-7.411-3.454c-3.227-6.986-7.77-12.892-11.688-17.184 C163.329,144.311,173.368,140.723,182.376,143.135z M143.672,156.95c5.305,5.468,13.062,15.282,13.062,25.907 c0,10.628-7.76,20.442-13.06,25.907c-5.305-5.468-13.062-15.282-13.062-25.907C130.612,172.229,138.373,162.415,143.672,156.95z"></path><rect x="294.139" y="274.286" width="15.673" height="15.673"></rect><rect x="424.636" y="274.286" width="15.673" height="15.673"></rect><rect x="313.26" y="320.428" transform="matrix(0.7071 -0.7071 0.7071 0.7071 -138.0709 323.1962)" width="15.673" height="15.673"></rect><rect x="405.504" y="228.156" transform="matrix(0.7071 0.7071 -0.7071 0.7071 287.9369 -223.1551)" width="15.673" height="15.673"></rect><rect x="313.246" y="228.147" transform="matrix(-0.7071 -0.7071 0.7071 -0.7071 381.2572 629.8882)" width="15.673" height="15.673"></rect><rect x="405.522" y="320.424" transform="matrix(0.7071 0.7071 -0.7071 0.7071 353.1852 -196.143)" width="15.673" height="15.673"></rect></svg>