<!-- icon666.com - MILLIONS vector ICONS FREE --><svg enable-background="new 0 0 256 256" viewBox="0 0 256 256" xmlns="http://www.w3.org/2000/svg"><g id="Layer_1"><g><g><path d="m134.51 62.9v185.78h-12.83v-185.57c3.016 3.019 8.368 3.618 12.83-.21z" fill="#f0c020"></path><path d="m134.51 62.9v8.3c-4.1 1.8-8.8 1.82-12.83.11v-8.2c3.016 3.019 8.368 3.618 12.83-.21z" fill="#e8a61e"></path></g><path d="m145.42 37.54c0 9.99-4.19 18.99-10.91 25.36-4.442 3.811-9.81 3.233-12.83.21-6.86-6.37-11.15-15.46-11.15-25.57 0-12.92 7.02-24.19 17.45-30.22 10.43 6.03 17.44 17.32 17.44 30.22z" fill="#f0c020"></path><g><g><path d="m170.571 103.342c-11.385 6.094-24.626 5.232-34.869-1.117.39-12.04 7.02-23.548 18.405-29.642 11.393-6.098 24.646-5.233 34.881 1.12-.398 12.045-7.032 23.545-18.417 29.639z" fill="#f0c020"></path></g><g><path d="m170.571 150.271c-11.385 6.094-24.626 5.232-34.869-1.117.39-12.04 7.02-23.548 18.405-29.642 11.393-6.098 24.646-5.233 34.881 1.12-.398 12.044-7.032 23.544-18.417 29.639z" fill="#f0c020"></path></g><g><path d="m170.571 197.199c-11.385 6.094-24.626 5.232-34.869-1.117.39-12.04 7.02-23.548 18.405-29.642 11.393-6.098 24.646-5.233 34.881 1.12-.398 12.044-7.032 23.544-18.417 29.639z" fill="#f0c020"></path></g></g><g><g><path d="m86.811 103.342c11.385 6.094 24.626 5.232 34.869-1.117-.39-12.04-7.02-23.548-18.405-29.642-11.393-6.098-24.646-5.233-34.881 1.12.397 12.045 7.031 23.545 18.417 29.639z" fill="#f0c020"></path></g><g><path d="m86.811 150.271c11.385 6.094 24.626 5.232 34.869-1.117-.39-12.04-7.02-23.548-18.405-29.642-11.393-6.098-24.646-5.233-34.881 1.12.397 12.044 7.031 23.544 18.417 29.639z" fill="#f0c020"></path></g><g><path d="m86.811 197.199c11.385 6.094 24.626 5.232 34.869-1.117-.39-12.04-7.02-23.548-18.405-29.642-11.393-6.098-24.646-5.233-34.881 1.12.397 12.044 7.031 23.544 18.417 29.639z" fill="#f0c020"></path></g></g><g><g><path d="m221.675 104.952c-3.726-1.227-6.637-2.021-8.586-10.415-.634-2.735-4.545-2.728-5.178 0-1.906 8.207-4.563 9.086-8.586 10.415-2.423.8-2.428 4.245 0 5.047 6.682 2.207 7.439 5.472 8.585 10.414.637 2.741 4.542 2.74 5.179 0 1.904-8.207 4.706-9.133 8.585-10.414 2.423-.799 2.429-4.244.001-5.047z"></path><path d="m214.48 107.504c-1.467 1.033-2.789 2.422-3.922 4.434-.944-1.589-2.256-3.089-4.167-4.4 1.545-1.067 2.933-2.5 4.122-4.633 1.201 2.155 2.556 3.588 3.967 4.599z" fill="#f0c020"></path></g><g><path d="m56.675 104.952c-3.726-1.227-6.637-2.021-8.586-10.415-.634-2.735-4.545-2.728-5.178 0-1.906 8.207-4.563 9.086-8.586 10.415-2.423.8-2.428 4.245 0 5.047 6.682 2.207 7.439 5.472 8.585 10.414.637 2.741 4.542 2.74 5.179 0 1.904-8.207 4.706-9.133 8.585-10.414 2.423-.799 2.429-4.244.001-5.047z"></path><path d="m49.48 107.504c-1.467 1.033-2.789 2.422-3.922 4.434-.944-1.589-2.256-3.089-4.167-4.4 1.545-1.067 2.933-2.5 4.122-4.633 1.201 2.155 2.556 3.588 3.967 4.599z" fill="#f0c020"></path></g></g><g><path d="m126.193 57.056c-.968-.985-.953-2.568.032-3.535 4.317-4.239 6.695-9.913 6.695-15.976 0-2.024-.277-4.042-.824-5.997-.372-1.33.405-2.709 1.734-3.081 1.327-.373 2.708.404 3.081 1.734.669 2.393 1.009 4.864 1.009 7.344 0 7.416-2.909 14.357-8.192 19.543-.986.968-2.568.954-3.535-.032zm1.832-33.471c-.557-.701-1.163-1.376-1.801-2.006-.983-.969-.994-2.552-.024-3.535.968-.984 2.552-.995 3.535-.024.782.771 1.523 1.597 2.206 2.455.859 1.081.679 2.654-.402 3.513-1.082.857-2.654.678-3.514-.403z" fill="#f8e5b0"></path></g><g><path d="m145.95 98.731c-1.318-.412-2.052-1.814-1.641-3.132.412-1.317 1.813-2.051 3.132-1.641 7.745 2.42 16.178.507 22.146-5.204.998-.956 2.582-.919 3.535.078.955.998.92 2.581-.078 3.535-7.311 6.996-17.642 9.316-27.094 6.364zm30.037-14.034c-1.269-.544-1.855-2.015-1.31-3.284.353-.821.661-1.676.916-2.541.391-1.324 1.78-2.08 3.105-1.69 1.324.391 2.081 1.781 1.69 3.105-.311 1.054-.687 2.097-1.118 3.099-.543 1.268-2.013 1.856-3.283 1.311z" fill="#f8e5b0"></path></g><g><path d="m145.949 145.659c-1.318-.412-2.052-1.814-1.64-3.132.413-1.317 1.813-2.051 3.132-1.64 7.712 2.412 16.157.528 22.146-5.203.998-.956 2.582-.919 3.535.078.955.998.92 2.581-.078 3.535-7.353 7.034-17.702 9.298-27.095 6.362zm30.04-14.034c-1.269-.544-1.856-2.014-1.312-3.283.353-.823.661-1.678.916-2.542.391-1.324 1.78-2.08 3.105-1.69 1.324.391 2.081 1.781 1.69 3.105-.311 1.052-.686 2.095-1.117 3.098-.546 1.275-2.021 1.854-3.282 1.312z" fill="#f8e5b0"></path></g><g><path d="m145.949 192.587c-1.318-.412-2.052-1.814-1.64-3.132.413-1.318 1.815-2.052 3.132-1.64 7.712 2.412 16.157.528 22.146-5.203.998-.955 2.582-.919 3.535.078.955.998.92 2.581-.078 3.535-7.353 7.035-17.702 9.299-27.095 6.362zm30.04-14.034c-1.269-.544-1.856-2.014-1.312-3.283.353-.823.661-1.678.916-2.542.391-1.324 1.78-2.081 3.105-1.69 1.324.391 2.081 1.781 1.69 3.105-.311 1.052-.686 2.095-1.117 3.098-.546 1.276-2.021 1.854-3.282 1.312z" fill="#f8e5b0"></path></g><g><path d="m84.337 92.367c-.998-.954-1.032-2.537-.078-3.535.953-.998 2.536-1.034 3.535-.078 6.001 5.741 14.449 7.611 22.146 5.204 1.319-.411 2.72.322 3.132 1.64s-.323 2.72-1.641 3.132c-9.382 2.935-19.734.679-27.094-6.363zm-6.227-8.982c-.431-1.003-.806-2.045-1.117-3.098-.391-1.325.366-2.715 1.69-3.105 1.328-.389 2.715.367 3.105 1.69.255.864.563 1.719.916 2.542.544 1.269-.043 2.739-1.312 3.283-1.259.542-2.735-.036-3.282-1.312z" fill="#f8e5b0"></path></g><g><path d="m84.337 139.295c-.998-.954-1.032-2.537-.078-3.535.953-.998 2.535-1.034 3.535-.078 5.989 5.73 14.434 7.616 22.146 5.203 1.319-.412 2.72.323 3.132 1.64.412 1.318-.322 2.72-1.64 3.132-9.392 2.938-19.74.675-27.095-6.362zm-6.227-8.982c-.431-1.003-.806-2.045-1.117-3.098-.391-1.325.366-2.715 1.69-3.105 1.328-.391 2.715.367 3.105 1.69.255.864.563 1.719.916 2.542.544 1.269-.043 2.739-1.312 3.283-1.259.542-2.735-.036-3.282-1.312z" fill="#f8e5b0"></path></g><g><path d="m84.337 186.224c-.998-.954-1.032-2.537-.078-3.535.953-.998 2.535-1.034 3.535-.078 5.989 5.73 14.434 7.616 22.146 5.203 1.316-.411 2.72.322 3.132 1.64s-.322 2.72-1.64 3.132c-9.392 2.937-19.74.674-27.095-6.362zm-6.227-8.983c-.431-1.003-.806-2.045-1.117-3.098-.391-1.325.366-2.715 1.69-3.105 1.328-.389 2.715.367 3.105 1.69.255.864.563 1.719.916 2.542.544 1.269-.043 2.739-1.312 3.283-1.259.542-2.735-.036-3.282-1.312z" fill="#f8e5b0"></path></g><path d="m134.51 233.18c-1.38 0-2.5 1.12-2.5 2.49v13c0 1.38 1.12 2.51 2.5 2.51s2.5-1.13 2.5-2.51v-13c0-1.37-1.12-2.49-2.5-2.49z"></path><path d="m134.51 223.17c-1.38 0-2.5 1.13-2.5 2.51 0 1.37 1.12 2.49 2.5 2.49s2.5-1.12 2.5-2.49c0-1.38-1.12-2.51-2.5-2.51z"></path><path d="m155.22 74.82c1.198-.629 1.68-2.144 1.01-3.38-.614-1.157-2.086-1.702-3.38-1.02-1.254.68-1.65 2.19-1.02 3.39.67 1.232 2.196 1.656 3.39 1.01z"></path><path d="m104.455 117.308c-11.74-6.284-26.063-5.824-37.379 1.2-.76.472-1.21 1.313-1.18 2.207.439 13.31 8.002 25.479 19.736 31.76 10.016 5.361 22.447 6.051 33.549.849v25.179c-1.12-1.947-2.41-3.799-3.87-5.522-.86-1.01-2.52-1.15-3.53-.29-1.036.873-1.198 2.466-.28 3.53 4.37 5.15 7.07 11.71 7.6 18.48-9.321 5.219-21.043 5.684-31.11.29-9.79-5.23-16.15-14.97-17.02-26.05 7.6-4.26 16.86-5.28 25.2-2.76 1.31.4 2.73-.37 3.12-1.66.4-1.32-.35-2.72-1.67-3.12-10.271-3.111-21.399-1.644-30.55 4.04-.75.47-1.2 1.31-1.17 2.2.427 13.082 7.698 25.326 19.73 31.76 10.457 5.595 22.8 5.901 33.55.856v48.414c0 1.38 1.12 2.51 2.5 2.51s2.5-1.13 2.5-2.51v-181.211c2.388.805 5.248.832 7.83-.1v148.31c0 1.38 1.12 2.5 2.5 2.5s2.5-1.12 2.5-2.5v-15.992c11.003 5.643 24.025 5.461 34.741-.275 11.734-6.281 19.297-18.451 19.736-31.76.03-.894-.42-1.735-1.18-2.207-11.316-7.025-25.641-7.485-37.379-1.2-7.013 3.754-12.518 9.62-15.917 16.568v-28.054c11.003 5.643 24.025 5.461 34.741-.275 11.734-6.281 19.297-18.451 19.736-31.76.03-.894-.42-1.735-1.18-2.207-11.317-7.024-25.639-7.484-37.379-1.2-7.013 3.754-12.518 9.621-15.917 16.569v-28.057c10.913 5.615 23.832 5.565 34.74-.27 12.058-6.47 19.314-18.714 19.74-31.76.02-.9-.43-1.74-1.18-2.21-7.989-4.962-17.788-6.869-27.44-4.84-1.32.285-2.222 1.595-1.93 2.97.28 1.32 1.64 2.21 2.97 1.93 7.815-1.656 15.784-.306 22.5 3.44-.87 11.08-7.23 20.82-17.02 26.06-10.076 5.399-21.773 4.928-31.11-.3.61-7.77 3.98-15.06 9.5-20.52.98-.97.98-2.56.02-3.53-.94-.95-2.59-.96-3.54-.02-2.982 2.947-5.41 6.333-7.25 10.089v-22.926c7.038-7.052 10.91-16.375 10.91-26.388 0-13.311-7.161-25.72-18.688-32.384-.774-.447-1.729-.447-2.503 0-11.533 6.668-18.698 19.077-18.698 32.384 0 9.964 4.035 19.573 11.149 26.617v20.545c-3.435-5.964-8.48-10.985-14.725-14.327-11.74-6.284-26.062-5.824-37.379 1.2-.76.471-1.21 1.313-1.18 2.207.439 13.31 8.002 25.479 19.736 31.76 10.085 5.398 22.518 6.019 33.549.849v25.24c-3.439-5.965-8.484-10.986-14.729-14.328zm-16.465 30.758c-9.734-5.21-16.155-15.099-17.017-26.055 9.593-5.364 21.383-5.508 31.122-.296 9.734 5.21 16.15 15.1 17.005 26.056-9.593 5.36-21.379 5.503-31.11.295zm67.297 20.578c9.739-5.214 21.53-5.068 31.122.296-.862 10.956-7.283 20.844-17.017 26.055-9.729 5.208-21.516 5.066-31.11-.294.854-10.957 7.27-20.847 17.005-26.057zm0-46.928c9.738-5.213 21.528-5.069 31.122.296-.862 10.956-7.283 20.844-17.017 26.055-9.729 5.209-21.516 5.066-31.11-.294.854-10.957 7.27-20.847 17.005-26.057zm-67.297-20.578c-9.734-5.21-16.155-15.099-17.017-26.054 9.593-5.365 21.383-5.508 31.122-.296 9.734 5.21 16.15 15.1 17.005 26.056-9.592 5.359-21.379 5.502-31.11.294zm25.04-63.593c0-11.039 5.692-21.365 14.95-27.293 9.252 5.926 14.94 16.251 14.94 27.293 0 8.995-3.597 17.353-10.126 23.532-2.922 2.748-6.927 2.489-9.403.214l-.001-.001c-.001-.001-.003-.002-.003-.003-.002-.001-.003-.003-.005-.004-6.579-6.108-10.352-14.76-10.352-23.738z"></path><path d="m104.57 170.11c1.197.758 2.704.397 3.45-.73.75-1.15.43-2.7-.72-3.45 0-.01 0-.01-.01-.01-1.12-.73-2.73-.39-3.46.72-.75 1.16-.43 2.71.73 3.47z"></path></g></g></svg>