<!-- icon666.com - MILLIONS vector ICONS FREE --><svg enable-background="new 0 0 256 256" viewBox="0 0 256 256" xmlns="http://www.w3.org/2000/svg"><g id="Layer_1"><g><g><g><path d="m101.939 10.1-.61 6.26-.69 7h-26.2l-.69-7-.61-6.26c-.29-2.94 2.02-5.49 4.98-5.49h18.84c2.96 0 5.27 2.55 4.98 5.49z" fill="#e8a61e"></path><path d="m133.476 128.73-.1 1.27-.52 7h-17.99c-2.209 0-4 1.791-4 4v81.94c0 2.209 1.791 4 4 4h11.23l-.52 7-.75 9.9c-.31 4.25-3.86 7.55-8.13 7.55h-58.29c-4.27 0-7.82-3.3-8.14-7.55-6.888-91.743-2.686-35.502-8.67-115.11-1.41-18.7 8.52-35.45 23.8-43.83 3.03-1.66 5.06-4.67 5.28-8.12l.92-14.42 1.38-21.74.42-7h28.28l.42 7 1.38 21.74.92 14.42c.22 3.45 2.25 6.46 5.28 8.12 15.28 8.38 25.21 25.13 23.8 43.83z" fill="#efefef"></path><path d="m133.476 128.73-.1 1.27-.52 7h-17.99c-2.209 0-4 1.791-4 4v81.94c0 2.209 1.791 4 4 4h11.23l-.52 7-.75 9.9c-.31 4.25-3.86 7.55-8.13 7.55h-58.29c-4.27 0-7.82-3.3-8.14-7.55-6.888-91.743-2.686-35.502-8.67-115.11-1.41-18.7 8.52-35.45 23.8-43.83 3.03-1.66 5.06-4.67 5.28-8.12l.92-14.42h31.88l.92 14.42c.22 3.45 2.25 6.46 5.28 8.12 15.28 8.38 25.21 25.13 23.8 43.83z" fill="#f0c020"></path><path d="m132.856 137 .52-7h-22.51c-3.866 0-7 3.134-7 7v89.94c0 3.866 3.134 7 7 7h14.71l.52-7h-11.23c-2.209 0-4-1.791-4-4v-81.94c0-2.209 1.791-4 4-4z" fill="#e8a61e"></path><path d="m102.099 40.617h-29.12l.42-7h28.28z" fill="#afafaf"></path><path d="m101.329 16.36-.69 7h-26.2l-.69-7z" fill="#cf941c"></path><path d="m104.289 25.36v6.32c0 1.06-.87 1.93-1.93 1.93h-29.64c-1.06 0-1.93-.87-1.93-1.93v-6.32c0-1.1.9-2 2-2h29.5c1.1 0 2 .9 2 2z" fill="#efefef"></path></g><g><path d="m184.865 76.714c12.424-12.424 12.424-32.568 0-44.992s-32.568-12.424-44.992 0c-11.099 11.099-12.274 28.355-3.542 40.768l-4.863 12.628 12.628-4.863c12.414 8.732 29.67 7.558 40.769-3.541z" fill="#efefef"></path><g fill="#f0c020"><path d="m155.35 51.718-9.113-2.25c-2.513-.62-4.047-3.161-3.427-5.674.62-2.513 3.161-4.047 5.674-3.427l9.113 2.25c2.513.62 4.047 3.161 3.427 5.674-.62 2.514-3.161 4.048-5.674 3.427z"></path><path d="m176.198 45.366-8.035 4.853c-2.216 1.338-5.097.627-6.435-1.589-1.338-2.216-.627-5.097 1.589-6.435l8.035-4.853c2.216-1.338 5.097-.627 6.435 1.589 1.338 2.216.626 5.097-1.589 6.435z"></path><path d="m162.564 74.538-4.975-8.237c-1.271-2.104-.595-4.84 1.509-6.111 2.618-1.581 5.381-.613 6.637 1.467l4.853 8.035c1.338 2.216.627 5.097-1.589 6.435-2.216 1.338-5.097.627-6.435-1.589z"></path></g></g><path d="m214.536 156.88v66.06c0 2.21-1.79 4-4 4h-95.67c-2.21 0-4-1.79-4-4v-66.06z" fill="#efefef"></path><path d="m214.536 141v15.88h-103.67v-15.88c0-2.21 1.79-4 4-4h95.67c2.21 0 4 1.79 4 4z" fill="#fc5d3d"></path><g><g><path d="m179.036 169.25v3c0 1.657-1.343 3-3 3h-27.33c-1.657 0-3-1.343-3-3v-3c0-1.657 1.343-3 3-3h27.33c1.657 0 3 1.343 3 3z" fill="#fc5d3d"></path><path d="m179.036 211.25v3c0 1.657-1.343 3-3 3h-27.33c-1.657 0-3-1.343-3-3v-3c0-1.657 1.343-3 3-3h27.33c1.657 0 3 1.343 3 3z" fill="#fc5d3d"></path><path d="m175.456 179.79v-4.54h-26.17v4.54c0 5.339 3.209 9.938 7.807 11.969-4.596 2.031-7.807 6.62-7.807 11.961v4.53h26.17v-4.53c0-5.34-3.21-9.929-7.8-11.96 4.59-2.03 7.8-6.63 7.8-11.97z" fill="#72c2e9"></path></g></g></g><g><path d="m90.963 62.518-1.03-16.29c-.087-1.378.959-2.565 2.337-2.653 1.373-.084 2.566.959 2.653 2.337l1.03 16.29c.087 1.378-.959 2.565-2.337 2.653-1.374.087-2.565-.957-2.653-2.337z" fill="#fff"></path></g><g><path d="m120.665 119.862c-.151-.912-.343-1.831-.57-2.733-.337-1.339.475-2.698 1.813-3.035 1.34-.336 2.698.475 3.035 1.813.261 1.036.481 2.092.654 3.139.226 1.362-.696 2.649-2.059 2.874-1.356.227-2.647-.693-2.873-2.058zm-4.061-11.33c-3.082-5.337-7.555-9.718-12.938-12.67-6.858-3.769-11.247-10.603-11.743-18.281l-.96-15.062c-.088-1.378.958-2.566 2.336-2.654 1.381-.088 2.566.958 2.654 2.336l.96 15.06c.385 5.962 3.809 11.278 9.159 14.218 6.183 3.391 11.323 8.424 14.862 14.553.69 1.196.281 2.725-.915 3.415-1.197.691-2.725.28-3.415-.915z" fill="#f8e5b0"></path></g><g><path d="m70.789 156.5c-1.381 0-2.5-1.119-2.5-2.5v-2.125c0-1.381 1.119-2.5 2.5-2.5s2.5 1.119 2.5 2.5v2.125c0 1.381-1.12 2.5-2.5 2.5z" fill="#cf941c"></path></g><g><path d="m96.957 226.104c-1.381 0-2.5-1.119-2.5-2.5v-2.125c0-1.381 1.119-2.5 2.5-2.5s2.5 1.119 2.5 2.5v2.125c0 1.381-1.12 2.5-2.5 2.5z" fill="#cf941c"></path></g><g><path d="m95.289 172.354c-1.381 0-2.5-1.119-2.5-2.5v-2.125c0-1.381 1.119-2.5 2.5-2.5s2.5 1.119 2.5 2.5v2.125c0 1.381-1.12 2.5-2.5 2.5z" fill="#e8a61e"></path></g><g><path d="m73.705 227.167c-1.381 0-2.5-1.119-2.5-2.5v-2.125c0-1.381 1.119-2.5 2.5-2.5s2.5 1.119 2.5 2.5v2.125c0 1.38-1.119 2.5-2.5 2.5z" fill="#cf941c"></path></g><g><path d="m61.372 171.292c-1.381 0-2.5-1.119-2.5-2.5v-2.125c0-1.381 1.119-2.5 2.5-2.5s2.5 1.119 2.5 2.5v2.125c0 1.38-1.119 2.5-2.5 2.5z" fill="#e8a61e"></path></g><g><path d="m80.039 105.75c-1.381 0-2.5-1.119-2.5-2.5v-2.125c0-1.381 1.119-2.5 2.5-2.5s2.5 1.119 2.5 2.5v2.125c0 1.381-1.12 2.5-2.5 2.5z" fill="#f8e5b0"></path></g><g><path d="m95.289 131.563c-1.381 0-2.5-1.119-2.5-2.5v-2.125c0-1.381 1.119-2.5 2.5-2.5s2.5 1.119 2.5 2.5v2.125c0 1.38-1.12 2.5-2.5 2.5z" fill="#cf941c"></path></g><g><path d="m81.539 195.813c-1.381 0-2.5-1.119-2.5-2.5v-2.125c0-1.381 1.119-2.5 2.5-2.5s2.5 1.119 2.5 2.5v2.125c0 1.38-1.12 2.5-2.5 2.5z" fill="#f8e5b0"></path></g><g><path d="m120.867 219.44c-1.381 0-2.5-1.119-2.5-2.5v-3c0-1.381 1.119-2.5 2.5-2.5s2.5 1.119 2.5 2.5v3c0 1.381-1.119 2.5-2.5 2.5zm0-13c-1.381 0-2.5-1.119-2.5-2.5v-37.06c0-1.381 1.119-2.5 2.5-2.5s2.5 1.119 2.5 2.5v37.06c0 1.381-1.119 2.5-2.5 2.5z" fill="#fff"></path></g><g><path d="m204.537 219.44c-1.381 0-2.5-1.119-2.5-2.5v-37.06c0-1.381 1.119-2.5 2.5-2.5s2.5 1.119 2.5 2.5v37.06c0 1.381-1.12 2.5-2.5 2.5zm0-47.06c-1.381 0-2.5-1.119-2.5-2.5v-3c0-1.381 1.119-2.5 2.5-2.5s2.5 1.119 2.5 2.5v3c0 1.381-1.12 2.5-2.5 2.5z" fill="#fff"></path></g><path d="m42.32 138.32c1.356-.102 2.406-1.29 2.3-2.68-.1-1.36-1.28-2.42-2.68-2.31-1.338.102-2.407 1.27-2.3 2.68.114 1.491 1.511 2.473 2.68 2.31z"></path><path d="m38.97 125.89c.02 1.36 1.14 2.46 2.5 2.46h.03c1.38-.02 2.49-1.16 2.47-2.54-.68-13.947 7.35-30.342 22.63-38.72 3.84-2.1 6.3-5.89 6.57-10.15l.768-12.08h27.198l.764 12.08c.27 4.26 2.73 8.05 6.57 10.15 15.364 8.424 23.836 24.92 22.51 41.45l-.45 5.96h-4.42v-5.438c0-1.381-1.119-2.5-2.5-2.5s-2.5 1.119-2.5 2.5v5.438h-6.24-.003c-3.584 0-6.5 2.916-6.5 6.5 0 5.94.003 14.555.003 81.94 0 3.58 2.91 6.5 6.5 6.5h8.53l-1.07 14.21c-.21 2.94-2.68 5.24-5.63 5.24h-58.3c-2.94 0-5.42-2.3-5.64-5.24-7.58-100.547-6.264-83.087-7.39-98.04-.1-1.36-1.3-2.4-2.68-2.3-1.374.104-2.404 1.279-2.3 2.68l7.38 98.04c.436 5.569 5.053 9.86 10.64 9.86h58.29c5.619 0 10.209-4.345 10.62-9.87l1.096-14.58h50.344c1.38 0 2.5-1.12 2.5-2.5s-1.12-2.5-2.5-2.5c-11.556 0-56.771 0-63.89 0-.83 0-1.5-.67-1.5-1.5v-63.56h98.67v63.56c0 .83-.68 1.5-1.5 1.5h-11.78c-1.38 0-2.5 1.12-2.5 2.5s1.12 2.5 2.5 2.5h11.78c3.58 0 6.5-2.92 6.5-6.5v-81.94c0-3.635-2.984-6.5-6.5-6.5h-.003-6.244v-5.438c0-1.381-1.119-2.5-2.5-2.5s-2.5 1.119-2.5 2.5v5.438h-34.091v-5.438c0-1.381-1.119-2.5-2.5-2.5s-2.5 1.119-2.5 2.5v5.438h-24.651l.419-5.57c1.416-19.599-8.773-37.275-25.09-46.22-2.34-1.29-3.83-3.56-3.99-6.09-2.617-41.146-2.203-34.555-2.589-40.978 1.467-.723 2.488-2.219 2.488-3.962v-6.32c0-2.103-1.455-3.859-3.408-4.35l1.045-10.664c.435-4.408-3.035-8.236-7.468-8.236h-18.84c-4.442 0-7.902 3.838-7.468 8.232l1.046 10.667c-1.952.491-3.408 2.248-3.408 4.35v6.32c0 1.738 1.015 3.23 2.475 3.955l-2.583 40.986c-.16 2.53-1.65 4.8-3.98 6.09-16.87 9.242-25.904 27.309-25.23 43.18zm123.732 20.693c1.381 0 2.5-1.119 2.5-2.5v-4.583h34.091v4.583c0 1.381 1.119 2.5 2.5 2.5s2.5-1.119 2.5-2.5v-4.583h6.244c.827 0 1.5.673 1.5 1.5v13.38h-98.667v-13.38c0-.83.67-1.5 1.5-1.5h6.24v4.583c0 1.381 1.119 2.5 2.5 2.5s2.5-1.119 2.5-2.5v-4.583h34.092v4.583c0 1.381 1.119 2.5 2.5 2.5zm-88.446-86.723c1.425-22.409 1.133-17.737 1.494-23.74h23.57l1.501 23.74zm27.533-34v5.25h-28.5v-5.25zm-23.67-18.75h18.84c1.483 0 2.637 1.27 2.492 2.745v.003l-1.078 11.002h-21.669l-1.078-11.006c-.145-1.475 1.011-2.744 2.493-2.744z"></path><path d="m196.53 57.44c.13-1.38-.88-2.6-2.25-2.73-1.37-.12-2.59.88-2.72 2.25-.01 0-.01.01-.01.01-.124 1.365.877 2.594 2.26 2.72 1.254.154 2.584-.788 2.72-2.25z"></path><path d="m186.63 78.48c3.09-3.08 5.52-6.66 7.24-10.64.57-1.288-.073-2.757-1.3-3.28-1.24-.54-2.76.07-3.29 1.3-1.47 3.4-3.55 6.45-6.18 9.09-10.338 10.302-26.217 11.251-37.56 3.26-.68-.48-1.57-.58-2.34-.29l-7.38 2.84 2.85-7.37c.29-.78.19-1.66-.29-2.34-8.021-11.386-7.016-27.283 3.26-37.56 11.403-11.424 29.973-11.488 41.46 0 3.94 3.95 6.67 8.9 7.88 14.32.29 1.31 1.66 2.19 2.98 1.89 1.35-.3 2.2-1.63 1.9-2.98-1.41-6.35-4.6-12.14-9.23-16.76-13.191-13.212-34.95-13.613-48.52 0-11.859 11.821-13.014 29.813-4.58 42.84l-4.4 11.42c-.77 2.024 1.218 3.999 3.24 3.23l11.41-4.39c13.154 8.476 31.103 7.184 42.85-4.58z"></path><path d="m179.926 37.638c-2.048-3.391-6.476-4.484-9.867-2.436l-8.035 4.853c-.554.335-1.048.741-1.484 1.197-.694-.478-1.479-.848-2.344-1.061l-9.113-2.25c-3.857-.951-7.748 1.398-8.701 5.255-.949 3.847 1.408 7.75 5.255 8.7l9.113 2.25c2.529.624 5.132-.152 6.919-2.019 2.271 1.56 5.292 1.737 7.785.233l8.035-4.853c3.393-2.049 4.486-6.475 2.437-9.869zm-23.977 11.653-9.113-2.25c-1.17-.289-1.888-1.477-1.599-2.647.29-1.177 1.485-1.887 2.647-1.599l9.113 2.25c1.2.296 1.873 1.535 1.599 2.647-.289 1.175-1.476 1.89-2.647 1.599zm18.957-6.065c-.001 0-.001 0 0 0l-8.036 4.853c-1.031.624-2.376.296-3.003-.742-.604-1-.321-2.361.742-3.002l8.035-4.853c1.029-.623 2.378-.292 3.002.741s.292 2.38-.74 3.003z"></path><path d="m157.806 58.049c-3.288 1.986-4.343 6.255-2.356 9.544l4.975 8.237c2.058 3.406 6.474 4.487 9.868 2.437 3.4-2.053 4.49-6.466 2.437-9.868l-4.853-8.035c-1.932-3.194-6.19-4.657-10.071-2.315zm9.9 15.938c-1.03.621-2.375.298-3.002-.742l-4.975-8.237c-.558-.925-.261-2.122.66-2.678 1.342-.81 2.602-.382 3.206.618l4.853 8.035c.625 1.035.294 2.378-.742 3.004z"></path><circle cx="188.76" cy="226.94" r="2.5"></circle><path d="m146.787 203.72v2.383c-2.087.781-3.58 2.791-3.58 5.147v3c0 3.033 2.467 5.5 5.5 5.5h27.33c3.033 0 5.5-2.467 5.5-5.5v-3c0-2.357-1.493-4.366-3.58-5.147v-2.383c0-4.686-2.111-9.044-5.607-11.96 3.496-2.917 5.607-7.278 5.607-11.97v-2.393c2.087-.781 3.58-2.791 3.58-5.147v-3c0-3.033-2.467-5.5-5.5-5.5h-27.33c-3.033 0-5.5 2.467-5.5 5.5v3c0 2.357 1.493 4.366 3.58 5.147v2.393c0 4.691 2.113 9.053 5.61 11.968-3.498 2.916-5.61 7.275-5.61 11.962zm29.75 10.53c0 .276-.224.5-.5.5h-27.33c-.276 0-.5-.224-.5-.5v-3c0-.276.224-.5.5-.5h27.33c.276 0 .5.224.5.5zm-28.33-45c0-.276.224-.5.5-.5h27.33c.276 0 .5.224.5.5v3c0 .276-.224.5-.5.5-9.88 0-17.508 0-27.33 0-.276 0-.5-.224-.5-.5zm3.58 34.47c0-4.182 2.48-7.979 6.317-9.675.906-.4 1.49-1.297 1.49-2.287s-.584-1.887-1.49-2.287c-3.837-1.694-6.317-5.494-6.317-9.681v-2.04h21.17v2.04c0 4.187-2.478 7.988-6.312 9.683-.905.4-1.489 1.297-1.489 2.286 0 .99.583 1.886 1.488 2.287 3.834 1.697 6.312 5.494 6.312 9.674v2.03h-21.17v-2.03z"></path></g></g></svg>