<svg xmlns="http://www.w3.org/2000/svg" version="1.0" width="230.000000" height="73.000000" preserveAspectRatio="xMidYMid meet" style=""><rect id="backgroundrect" width="100%" height="100%" x="0" y="0" fill="none" stroke="none"/>
<metadata>
Created by potrace 1.16, written by Peter Selinger 2001-2019
</metadata>

<g class="currentLayer" style=""><title>Layer 1</title><g transform="translate(0,73) scale(0.10000000149011612,-0.10000000149011612) " fill="#ffffff" stroke="#dadada" id="svg_1" class="selected" stroke-opacity="1" fill-opacity="1">
<path d="M142 518 c3 -115 4 -123 23 -123 18 0 20 8 23 98 l3 97 964 0 964 0 3 -97 c3 -90 5 -98 23 -98 19 0 20 8 23 123 l3 122 -1016 0 -1016 0 3 -122z" id="svg_2" stroke="#dadada" stroke-opacity="1" fill="#ffffff" fill-opacity="1"/>
<path d="M220 375 l0 -195 88 0 c55 0 92 4 100 12 16 16 16 160 0 176 -9 9 -9 15 0 24 18 18 15 129 -4 156 -14 20 -24 22 -100 22 l-84 0 0 -195z" id="svg_3" stroke="#dadada" stroke-opacity="1" fill="#ffffff" fill-opacity="1"/>
<path d="M457 563 c-4 -3 -7 -91 -7 -195 l0 -188 40 0 40 0 0 62 c0 71 11 68 33 -7 14 -49 15 -50 55 -53 l41 -3 -20 58 c-17 51 -18 59 -4 69 12 9 15 34 15 126 0 75 -4 118 -12 126 -13 13 -169 17 -181 5z" id="svg_4" stroke="#dadada" stroke-opacity="1" fill="#ffffff" fill-opacity="1"/>
<path d="M690 375 l0 -195 75 0 c67 0 75 2 75 19 0 11 3 26 6 35 5 13 -2 16 -35 16 l-41 0 0 44 c0 43 1 45 28 43 24 -2 27 2 30 31 3 30 1 32 -27 32 -30 0 -31 1 -31 50 l0 50 40 0 c41 0 45 5 34 48 -6 20 -12 22 -80 22 l-74 0 0 -195z" id="svg_5" stroke="#dadada" stroke-opacity="1" fill="#ffffff" fill-opacity="1"/>
<path d="M875 538 c9 -57 55 -349 55 -353 0 -3 15 -5 34 -5 39 0 41 3 52 90 12 101 21 101 35 3 l13 -93 37 0 36 0 18 118 c10 64 23 150 30 189 7 40 10 75 7 78 -3 3 -20 5 -37 5 l-33 0 -11 -75 c-6 -42 -11 -90 -12 -108 -1 -48 -15 -7 -23 68 -12 107 -15 115 -42 115 -29 0 -29 1 -46 -120 l-14 -95 -13 108 -14 107 -39 0 c-38 0 -39 0 -33 -32z" id="svg_6" stroke="#dadada" stroke-opacity="1" fill="#ffffff" fill-opacity="1"/>
<path d="M1220 375 l0 -195 40 0 39 0 3 63 3 62 20 -62 c20 -63 20 -63 59 -63 35 0 38 2 31 23 -28 91 -28 99 -12 109 14 7 17 27 17 118 0 135 -5 140 -122 140 l-78 0 0 -195z" id="svg_7" stroke="#dadada" stroke-opacity="1" fill="#ffffff" fill-opacity="1"/>
<path d="M1455 558 c-3 -7 -4 -88 -2 -179 1 -123 6 -170 16 -182 17 -21 150 -24 169 -5 8 8 12 66 12 195 l0 183 -35 0 -35 0 0 -158 c0 -87 -3 -161 -6 -164 -3 -3 -14 -4 -25 -1 -18 5 -19 15 -19 164 l0 159 -35 0 c-20 0 -38 -6 -40 -12z" id="svg_8" stroke="#dadada" stroke-opacity="1" fill="#ffffff" fill-opacity="1"/>
<path d="M1706 554 c-20 -19 -23 -183 -4 -202 7 -7 29 -12 50 -12 l38 0 0 -45 0 -45 -45 0 c-47 0 -55 -12 -39 -54 8 -21 126 -23 143 -2 8 9 11 47 9 107 l-3 94 -45 5 -45 5 0 45 0 45 49 3 c44 3 48 5 42 25 -3 12 -6 28 -6 35 0 19 -124 16 -144 -4z" id="svg_9" stroke="#dadada" stroke-opacity="1" fill="#ffffff" fill-opacity="1"/>
<path d="M1900 375 l0 -195 35 0 35 0 0 75 c0 73 1 75 25 75 24 0 25 -2 25 -75 l0 -75 40 0 40 0 -2 193 -3 192 -37 3 -38 3 0 -85 c0 -85 0 -86 -25 -86 -25 0 -25 1 -25 85 l0 85 -35 0 -35 0 0 -195z" id="svg_10" stroke="#dadada" stroke-opacity="1" fill="#ffffff" fill-opacity="1"/>
<path d="M140 215 l0 -115 1015 0 1015 0 0 115 0 115 -25 0 c-25 0 -25 -1 -25 -90 l0 -90 -965 0 -965 0 0 90 c0 89 0 90 -25 90 l-25 0 0 -115z" id="svg_11" stroke="#dadada" stroke-opacity="1" fill="#ffffff" fill-opacity="1"/>
</g></g></svg>