<svg xmlns="http://www.w3.org/2000/svg" version="1.0" width="791.000000" height="471.000000" preserveAspectRatio="xMidYMid meet"><rect id="backgroundrect" width="100%" height="100%" x="0" y="0" fill="none" stroke="none"/>
<metadata>
Created by potrace 1.16, written by Peter Selinger 2001-2019
</metadata>

<g class="currentLayer" style=""><title>Layer 1</title><g transform="translate(0,471) scale(0.10000000149011612,-0.10000000149011612) " fill="#ffffff" stroke="#dadada" id="svg_1" class="selected" stroke-opacity="1" fill-opacity="1">
<path d="M3820 4486 c0 -10 13 -16 38 -18 l37 -3 0 -385 0 -385 -32 -3 c-19 -2 -33 -9 -33 -16 0 -11 29 -14 125 -14 102 -1 125 2 125 14 0 9 -10 14 -29 14 -17 0 -33 5 -36 11 -4 6 -4 96 0 200 l8 189 68 0 c89 0 163 16 185 41 13 15 19 47 26 141 14 196 3 207 -222 219 -227 12 -260 11 -260 -5z m342 -37 c20 -11 21 -16 14 -158 -4 -80 -11 -150 -16 -155 -6 -6 -39 -12 -75 -14 l-65 -4 0 155 c0 85 3 162 6 171 7 19 103 23 136 5z" id="svg_2" stroke="#dadada" stroke-opacity="1" fill="#ffffff" fill-opacity="1"/>
<path d="M4596 4308 c-34 -124 -140 -531 -160 -610 -5 -21 -12 -28 -31 -28 -16 0 -25 -6 -25 -15 0 -11 11 -15 43 -15 23 0 59 -3 81 -7 31 -5 38 -3 34 8 -2 8 -15 15 -27 17 -31 5 -33 18 -12 97 l18 70 44 -3 c24 -1 59 -5 77 -8 l32 -5 0 -64 c0 -35 3 -70 6 -79 5 -13 -2 -16 -35 -16 -28 0 -41 -4 -41 -13 0 -10 28 -17 93 -25 50 -7 109 -15 131 -19 49 -8 46 14 -4 31 l-35 11 -7 195 c-16 428 -27 603 -40 612 -7 4 -33 8 -58 8 l-46 0 -38 -142z m63 -243 c6 -115 8 -211 6 -213 -2 -3 -34 -1 -70 3 -66 7 -67 7 -60 33 17 73 108 392 111 390 1 -2 7 -98 13 -213z" id="svg_3" stroke="#dadada" stroke-opacity="1" fill="#ffffff" fill-opacity="1"/>
<path d="M2815 4416 c-64 -16 -91 -31 -111 -61 -31 -48 5 -162 78 -242 77 -84 75 -78 35 -122 -47 -52 -52 -83 -32 -204 23 -134 36 -164 79 -182 74 -31 215 -10 275 41 30 25 30 25 41 4 8 -16 20 -20 53 -19 23 1 54 4 69 8 l27 6 -79 96 -79 97 -11 93 c-17 141 -15 136 -50 131 -32 -5 -33 -10 -14 -112 4 -23 1 -21 -31 15 -20 22 -52 59 -72 82 l-35 43 32 37 33 37 -7 89 c-9 120 -24 153 -73 166 -46 13 -64 13 -128 -3z m108 -36 c5 -4 15 -53 23 -109 14 -95 14 -104 -2 -128 l-17 -26 -18 24 c-53 68 -70 100 -80 151 -6 31 -9 64 -5 73 11 30 73 40 99 15z m96 -532 c61 -73 111 -136 111 -140 0 -4 -12 -22 -27 -38 -33 -37 -99 -51 -138 -30 -30 16 -40 43 -59 161 -18 109 -20 179 -7 179 6 0 60 -60 120 -132z" id="svg_4" stroke="#dadada" stroke-opacity="1" fill="#ffffff" fill-opacity="1"/>
<path d="M5090 4378 c0 -8 15 -18 33 -23 19 -6 31 -16 30 -25 -5 -46 -136 -726 -140 -733 -3 -5 -18 -6 -34 -3 -17 3 -29 1 -32 -7 -5 -15 283 -76 359 -77 81 0 82 1 175 373 81 325 82 329 65 363 -22 47 -70 67 -243 103 -206 43 -213 44 -213 29z m277 -73 c28 -8 56 -21 62 -29 9 -10 -7 -93 -69 -356 -44 -189 -85 -349 -92 -357 -9 -11 -24 -13 -62 -8 -27 3 -55 9 -61 13 -9 5 10 113 66 377 42 204 78 371 78 373 2 6 31 1 78 -13z" id="svg_5" stroke="#dadada" stroke-opacity="1" fill="#ffffff" fill-opacity="1"/>
<path d="M5760 4225 c0 -7 14 -18 30 -24 17 -5 30 -16 30 -24 0 -11 -37 -138 -191 -660 l-20 -69 -36 7 c-26 5 -34 3 -31 -6 6 -17 302 -109 360 -112 36 -2 52 3 67 18 25 25 241 620 241 664 0 59 -45 91 -205 143 -220 73 -245 79 -245 63z m282 -107 c26 -11 49 -26 52 -34 5 -12 -201 -632 -225 -676 -6 -11 -21 -18 -37 -18 -42 0 -102 20 -102 33 0 7 50 173 112 370 126 400 104 365 200 325z" id="svg_6" stroke="#dadada" stroke-opacity="1" fill="#ffffff" fill-opacity="1"/>
<path d="M1950 4213 c-14 -3 -77 -20 -140 -40 -210 -65 -273 -97 -179 -91 l41 3 119 -345 c66 -190 120 -352 122 -360 1 -8 -10 -20 -25 -28 -25 -11 -38 -32 -22 -32 24 0 330 106 356 124 60 40 60 43 -37 392 -48 176 -91 327 -96 336 -20 37 -72 53 -139 41z m8 -60 c5 -10 53 -168 107 -352 l98 -334 -22 -19 c-24 -19 -99 -43 -108 -34 -6 5 -233 706 -233 718 0 10 82 36 117 37 21 1 35 -5 41 -16z" id="svg_7" stroke="#dadada" stroke-opacity="1" fill="#ffffff" fill-opacity="1"/>
<path d="M1330 4001 c-233 -96 -312 -133 -301 -144 7 -7 20 -6 41 3 17 7 33 11 35 8 10 -10 305 -682 305 -694 0 -8 -11 -20 -25 -26 -14 -6 -25 -15 -25 -20 0 -14 29 -9 78 15 26 13 101 45 167 72 66 27 124 52 129 56 4 4 -9 51 -29 103 -34 87 -39 96 -59 90 -11 -4 -22 -8 -24 -9 -1 -1 7 -23 18 -49 29 -69 26 -98 -13 -133 -32 -28 -94 -60 -101 -52 -3 3 -91 209 -153 356 -7 17 65 29 80 14 6 -6 19 -31 28 -54 13 -31 22 -41 35 -39 11 2 21 6 23 8 4 4 -99 264 -106 264 -2 0 -13 -4 -23 -10 -17 -9 -17 -12 -1 -56 16 -45 16 -46 -8 -65 -13 -10 -28 -19 -35 -19 -6 0 -40 68 -75 151 -51 122 -61 153 -50 160 19 12 108 39 129 39 31 0 68 -39 86 -90 18 -50 27 -57 53 -41 12 8 8 27 -24 110 -20 56 -38 101 -39 100 0 0 -53 -22 -116 -48z" id="svg_8" stroke="#dadada" stroke-opacity="1" fill="#ffffff" fill-opacity="1"/>
<path d="M6416 4002 c-3 -5 10 -16 29 -25 19 -9 35 -20 34 -24 0 -5 -64 -163 -143 -353 l-142 -345 -38 3 c-60 5 -40 -16 49 -53 44 -18 126 -53 183 -78 l104 -47 45 97 c35 75 42 98 31 104 -24 16 -33 9 -63 -48 -38 -74 -62 -83 -145 -58 -46 14 -59 22 -55 34 3 9 70 167 150 351 154 357 146 345 205 329 9 -2 18 1 20 6 5 9 -220 113 -247 114 -6 1 -14 -3 -17 -7z" id="svg_9" stroke="#dadada" stroke-opacity="1" fill="#ffffff" fill-opacity="1"/>
<path d="M6975 3750 c-3 -5 8 -16 25 -25 20 -10 30 -22 28 -33 -2 -10 -79 -165 -173 -345 -140 -271 -173 -327 -187 -323 -10 4 -27 9 -38 12 -11 4 -20 2 -20 -4 0 -6 57 -41 127 -78 70 -36 148 -80 174 -95 25 -16 50 -29 56 -29 5 0 32 39 60 88 37 63 48 90 41 100 -18 21 -34 13 -57 -28 -33 -59 -68 -83 -110 -75 -19 4 -52 16 -74 26 l-38 20 34 62 c19 34 60 110 92 169 31 60 61 111 67 114 5 4 22 -5 36 -20 l26 -26 -27 -55 c-26 -53 -26 -55 -8 -65 17 -9 27 3 90 113 63 110 69 123 54 135 -24 17 -25 16 -51 -28 -24 -43 -52 -52 -86 -27 -18 13 -14 23 61 160 l79 146 50 -28 c96 -56 109 -90 64 -175 -25 -47 -29 -61 -18 -67 26 -17 37 -7 87 78 40 69 48 90 38 100 -14 13 -377 213 -389 213 -4 0 -9 -4 -13 -10z" id="svg_10" stroke="#dadada" stroke-opacity="1" fill="#ffffff" fill-opacity="1"/>
<path d="M740 3728 c-77 -34 -340 -185 -340 -195 0 -17 5 -16 42 3 17 9 34 12 38 7 5 -4 92 -154 195 -332 l186 -324 -28 -23 c-31 -25 -24 -46 9 -25 12 8 77 44 145 82 68 38 137 78 153 89 30 22 47 59 41 94 -6 40 -301 615 -320 626 -25 13 -88 12 -121 -2z m28 -80 c11 -18 86 -164 168 -324 l149 -292 -20 -22 c-19 -21 -94 -65 -100 -58 -7 8 -365 662 -365 668 0 10 103 59 127 59 14 1 28 -10 41 -31z" id="svg_11" stroke="#dadada" stroke-opacity="1" fill="#ffffff" fill-opacity="1"/>
<path d="M2910 2997 c-21 -10 -26 -21 -28 -60 -2 -33 -7 -47 -18 -47 -7 0 -14 -4 -14 -10 0 -5 7 -10 15 -10 13 0 15 -26 15 -175 l0 -175 -25 0 c-14 0 -25 -4 -25 -10 0 -6 37 -10 90 -10 50 0 90 4 90 9 0 5 -10 11 -22 13 -23 3 -23 4 -23 173 l0 170 28 3 c34 4 36 22 2 22 -26 0 -56 42 -54 77 0 10 5 3 12 -16 14 -41 29 -48 51 -26 21 22 20 41 -4 65 -23 23 -54 25 -90 7z" id="svg_12" stroke="#dadada" stroke-opacity="1" fill="#ffffff" fill-opacity="1"/>
<path d="M3550 3000 c0 -6 7 -13 15 -16 13 -5 15 -41 15 -235 0 -197 -2 -229 -15 -229 -8 0 -15 -4 -15 -9 0 -12 188 -20 227 -9 18 5 37 17 43 28 5 10 10 88 10 174 l0 156 -27 17 c-18 12 -46 18 -85 18 l-58 0 0 57 0 58 -55 0 c-31 0 -55 -4 -55 -10z m195 -305 c0 -167 0 -170 -22 -173 -12 -2 -31 2 -42 8 -20 10 -21 20 -21 170 0 171 0 171 55 167 l30 -2 0 -170z" id="svg_13" stroke="#dadada" stroke-opacity="1" fill="#ffffff" fill-opacity="1"/>
<path d="M3142 2926 c-12 -14 -36 -27 -52 -31 -35 -8 -39 -20 -10 -28 19 -5 20 -14 20 -165 l0 -161 26 -20 c20 -16 41 -21 86 -21 80 0 108 26 108 100 0 43 -3 50 -20 50 -17 0 -20 -7 -20 -43 0 -51 -22 -87 -54 -87 -42 0 -46 15 -46 187 l0 163 50 0 c28 0 50 5 50 10 0 6 -22 10 -50 10 -49 0 -50 1 -50 30 0 36 -8 37 -38 6z" id="svg_14" stroke="#dadada" stroke-opacity="1" fill="#ffffff" fill-opacity="1"/>
<path d="M2005 2889 c-69 -16 -75 -31 -75 -199 0 -178 2 -182 111 -188 99 -6 119 9 119 88 0 53 -2 60 -20 60 -18 0 -20 -7 -20 -55 0 -57 -14 -75 -59 -75 -44 0 -51 22 -51 171 0 78 5 149 10 160 12 21 50 25 81 9 15 -8 19 -22 19 -60 0 -43 3 -50 20 -50 18 0 20 7 20 69 l0 69 -40 0 c-22 1 -48 3 -58 5 -9 3 -35 1 -57 -4z" id="svg_15" stroke="#dadada" stroke-opacity="1" fill="#ffffff" fill-opacity="1"/>
<path d="M2583 2889 c-41 -12 -67 -50 -59 -85 5 -20 12 -25 34 -22 24 3 27 7 27 43 l0 40 40 0 40 0 3 -47 3 -46 -67 -22 c-97 -33 -107 -46 -102 -136 5 -115 16 -121 206 -116 46 1 82 6 82 12 0 6 -7 10 -15 10 -13 0 -15 24 -15 153 0 159 -6 184 -48 206 -29 15 -95 20 -129 10z m87 -254 c0 -103 0 -105 -25 -111 -49 -12 -55 -2 -55 96 l0 91 33 14 c17 8 35 14 40 15 4 0 7 -47 7 -105z" id="svg_16" stroke="#dadada" stroke-opacity="1" fill="#ffffff" fill-opacity="1"/>
<path d="M2220 2880 c0 -5 9 -10 20 -10 19 0 20 -7 20 -175 l0 -175 -25 0 c-14 0 -25 -4 -25 -10 0 -6 37 -10 90 -10 50 0 90 4 90 9 0 5 -10 11 -22 13 -23 3 -23 5 -23 160 0 130 3 160 16 173 14 15 15 13 12 -12 -3 -19 2 -37 15 -53 20 -24 20 -25 41 -6 25 23 27 53 5 84 -14 20 -23 22 -115 22 -59 0 -99 -4 -99 -10z" id="svg_17" stroke="#dadada" stroke-opacity="1" fill="#ffffff" fill-opacity="1"/>
<path d="M3900 2881 c0 -5 10 -11 23 -13 22 -3 22 -4 22 -173 0 -169 0 -170 -22 -173 -13 -2 -23 -8 -23 -13 0 -5 41 -9 90 -9 53 0 90 4 90 10 0 6 -11 10 -25 10 l-25 0 0 158 c0 129 3 162 16 178 15 18 15 18 10 -5 -6 -29 8 -66 28 -74 40 -15 63 65 28 96 -15 13 -39 17 -115 17 -53 0 -97 -4 -97 -9z" id="svg_18" stroke="#dadada" stroke-opacity="1" fill="#ffffff" fill-opacity="1"/>
<path d="M4233 2871 l-33 -21 0 -154 0 -155 26 -20 c50 -40 200 -23 218 24 3 9 6 39 6 66 0 42 -3 49 -20 49 -17 0 -20 -7 -20 -49 0 -69 -41 -103 -105 -87 -24 6 -25 9 -25 96 l0 90 85 0 85 0 0 64 c0 93 -16 110 -111 114 -61 2 -80 -1 -106 -17z" id="svg_19" stroke="#dadada" stroke-opacity="1" fill="#ffffff" fill-opacity="1"/>
<path d="M4490 2880 c0 -5 10 -10 23 -10 22 0 26 -11 67 -185 l44 -186 35 3 36 3 24 93 c13 50 27 92 30 92 4 0 17 -43 30 -96 l23 -95 36 3 36 3 36 180 c29 144 39 181 53 183 38 8 13 22 -38 22 -30 0 -55 -4 -55 -10 0 -5 9 -10 21 -10 17 0 20 -5 16 -22 -3 -13 -16 -74 -28 -137 -26 -130 -26 -130 -64 32 -30 131 -30 127 -5 127 11 0 20 5 20 10 0 6 -33 10 -80 10 -47 0 -80 -4 -80 -10 0 -5 9 -10 20 -10 14 0 22 -11 30 -41 10 -35 8 -55 -10 -123 -20 -74 -39 -123 -40 -103 0 10 -49 224 -56 250 -4 12 0 17 15 17 12 0 21 5 21 10 0 6 -33 10 -80 10 -47 0 -80 -4 -80 -10z" id="svg_20" stroke="#dadada" stroke-opacity="1" fill="#ffffff" fill-opacity="1"/>
<path d="M5075 2879 c-42 -24 -45 -38 -45 -189 0 -179 2 -183 113 -188 59 -2 78 1 105 17 30 20 32 24 32 81 0 53 -2 60 -20 60 -17 0 -20 -7 -20 -48 0 -61 -16 -82 -66 -89 -57 -7 -66 8 -62 104 l3 78 83 3 82 3 0 68 c0 90 -15 105 -113 109 -42 1 -81 -2 -92 -9z" id="svg_21" stroke="#dadada" stroke-opacity="1" fill="#ffffff" fill-opacity="1"/>
<path d="M5350 2880 c0 -5 9 -10 20 -10 19 0 20 -7 20 -175 l0 -175 -25 0 c-14 0 -25 -4 -25 -10 0 -6 37 -10 90 -10 53 0 90 4 90 10 0 6 -11 10 -25 10 l-25 0 0 154 c0 134 2 157 18 176 l18 23 -4 -35 c-3 -24 2 -40 13 -52 21 -21 36 -17 54 15 12 22 12 29 0 55 -14 29 -14 29 -117 32 -65 2 -102 -1 -102 -8z" id="svg_22" stroke="#dadada" stroke-opacity="1" fill="#ffffff" fill-opacity="1"/>
<path d="M5590 2881 c0 -5 12 -11 26 -13 25 -3 29 -12 80 -183 47 -161 52 -184 42 -220 -12 -49 -25 -65 -50 -65 -16 0 -19 5 -13 29 8 38 -17 66 -46 51 -27 -15 -25 -64 3 -84 31 -22 94 -20 116 2 10 10 26 50 36 88 78 316 99 384 117 384 11 0 19 5 19 10 0 6 -25 10 -55 10 -30 0 -55 -4 -55 -10 0 -5 7 -10 15 -10 19 0 19 -23 1 -86 -8 -27 -20 -69 -26 -93 -6 -23 -13 -41 -16 -38 -4 3 -64 206 -64 214 0 2 11 3 25 3 14 0 25 5 25 10 0 6 -37 10 -90 10 -49 0 -90 -4 -90 -9z" id="svg_23" stroke="#dadada" stroke-opacity="1" fill="#ffffff" fill-opacity="1"/>
<path d="M401 2523 c-16 -13 -33 -63 -66 -185 -49 -181 -49 -202 -1 -233 22 -15 1719 -454 1753 -455 7 0 28 22 45 49 18 28 40 52 48 54 20 5 1441 -376 1432 -384 -4 -4 -398 -111 -877 -239 -478 -128 -880 -236 -892 -241 -26 -10 -32 -32 -20 -84 13 -52 24 -65 55 -65 14 0 478 122 1033 270 554 149 1020 270 1034 270 15 0 481 -121 1035 -270 554 -148 1019 -270 1033 -270 30 0 40 12 55 66 14 49 8 72 -22 84 -12 4 -413 113 -891 240 -479 128 -873 235 -877 239 -9 8 1412 389 1432 384 8 -2 30 -26 48 -54 17 -27 38 -49 45 -49 35 1 1731 440 1753 455 48 31 48 52 -1 233 -48 182 -61 202 -121 202 -31 0 -1678 -456 -1731 -480 -20 -8 -23 -17 -23 -63 0 -29 -6 -60 -12 -69 -13 -16 -1678 -468 -1723 -468 -45 0 -1710 453 -1722 468 -7 9 -13 40 -13 69 0 46 -3 55 -22 63 -55 24 -1701 480 -1732 480 -19 0 -43 -8 -55 -17z" id="svg_24" stroke="#dadada" stroke-opacity="1" fill="#ffffff" fill-opacity="1"/>
<path d="M3950 853 c-23 -9 -50 -35 -50 -49 0 -7 7 -20 16 -29 22 -21 46 -1 42 34 -2 20 1 26 17 26 16 0 21 -8 23 -38 3 -34 -2 -44 -42 -87 -44 -47 -46 -52 -46 -110 l0 -60 75 0 75 0 0 45 c0 33 -4 45 -15 45 -10 0 -15 -10 -15 -30 0 -23 -5 -31 -24 -36 -36 -9 -46 2 -46 48 0 34 6 46 45 84 48 48 61 79 51 119 -9 35 -62 54 -106 38z" id="svg_25" stroke="#dadada" stroke-opacity="1" fill="#ffffff" fill-opacity="1"/>
<path d="M4150 849 c-13 -5 -28 -15 -32 -22 -4 -7 -8 -67 -8 -134 0 -115 1 -123 22 -137 29 -20 87 -20 116 0 21 14 22 22 22 143 0 99 -3 131 -14 140 -20 17 -77 22 -106 10z" id="svg_26" stroke="#dadada" stroke-opacity="1" fill="#ffffff" fill-opacity="1"/>
<path d="M4417 853 c-4 -6 -21 -14 -37 -18 -31 -7 -42 -25 -15 -25 13 0 15 -21 15 -125 0 -104 -2 -125 -15 -125 -8 0 -15 -4 -15 -10 0 -5 25 -10 55 -10 30 0 55 5 55 10 0 6 -7 10 -15 10 -12 0 -15 26 -17 153 -2 83 -6 147 -11 140z" id="svg_27" stroke="#dadada" stroke-opacity="1" fill="#ffffff" fill-opacity="1"/>
<path d="M4570 853 c-34 -12 -40 -36 -40 -159 0 -116 1 -124 22 -138 12 -9 38 -16 58 -16 20 0 46 7 58 16 19 13 22 24 22 88 0 83 -8 96 -63 96 l-38 0 3 48 c3 39 6 47 23 47 15 0 19 -6 17 -23 -5 -33 15 -54 39 -41 62 33 -30 107 -101 82z" id="svg_28" stroke="#dadada" stroke-opacity="1" fill="#ffffff" fill-opacity="1"/>
<path d="M3541 806 c-7 -8 -24 -17 -39 -21 -25 -6 -25 -8 -9 -19 14 -11 17 -29 17 -103 0 -103 12 -123 73 -123 45 0 67 22 67 66 0 49 -28 46 -32 -3 -2 -31 -7 -39 -25 -41 -23 -3 -23 -1 -23 97 l0 101 25 0 c14 0 25 5 25 10 0 6 -11 10 -25 10 -18 0 -25 5 -25 20 0 23 -13 26 -29 6z" id="svg_29" stroke="#dadada" stroke-opacity="1" fill="#ffffff" fill-opacity="1"/>
<path d="M3140 779 c-36 -15 -40 -26 -40 -121 0 -79 2 -88 22 -102 29 -20 87 -20 116 0 27 19 33 94 7 94 -10 0 -15 -10 -15 -33 0 -39 -15 -57 -47 -57 -21 0 -23 4 -23 55 l0 55 50 0 50 0 0 38 c0 21 -6 46 -12 54 -16 21 -76 30 -108 17z" id="svg_30" stroke="#dadada" stroke-opacity="1" fill="#ffffff" fill-opacity="1"/>
<path d="M3340 777 c-19 -10 -26 -21 -28 -53 -3 -38 -1 -40 43 -62 44 -21 46 -24 43 -60 -3 -34 -6 -37 -33 -37 -27 0 -30 3 -33 38 -2 24 -8 37 -18 37 -10 0 -14 -13 -14 -50 l0 -50 50 0 c87 0 119 27 105 91 -5 24 -16 35 -51 49 -38 17 -44 23 -44 49 0 32 24 48 46 30 8 -6 14 -24 14 -40 0 -19 5 -29 15 -29 11 0 15 12 15 44 0 41 -2 44 -31 50 -43 8 -50 8 -79 -7z" id="svg_31" stroke="#dadada" stroke-opacity="1" fill="#ffffff" fill-opacity="1"/>
</g></g></svg>