<svg xmlns="http://www.w3.org/2000/svg" xmlns:xlink="http://www.w3.org/1999/xlink" version="1.1" width="700" height="700" style="shape-rendering:geometricPrecision; text-rendering:geometricPrecision; image-rendering:optimizeQuality; fill-rule:evenodd; clip-rule:evenodd"><rect id="backgroundrect" width="100%" height="100%" x="0" y="0" fill="none" stroke="none"/>






























<g class="currentLayer" style=""><title>Layer 1</title><g id="svg_3" class="" fill="#ffffff" fill-opacity="1"><path style="opacity:0.831" fill="#ffffff" d="M 397.5,67.5 C 400.607,67.3512 403.607,67.8512 406.5,69C 410.737,72.5213 410.403,75.3546 405.5,77.5C 400.962,76.6077 399.962,74.441 402.5,71C 400.633,70.2888 399.133,70.7888 398,72.5C 396.916,75.2486 396.083,78.0819 395.5,81C 397.706,82.2502 399.039,84.0835 399.5,86.5C 398.07,86.5792 396.736,86.2458 395.5,85.5C 393.745,91.0294 392.745,96.6961 392.5,102.5C 393.833,102.5 395.167,102.5 396.5,102.5C 396.5,103.5 396.5,104.5 396.5,105.5C 390.82,104.942 385.153,104.275 379.5,103.5C 379.5,102.5 379.5,101.5 379.5,100.5C 381.167,100.5 382.833,100.5 384.5,100.5C 385.26,95.1798 385.927,89.8465 386.5,84.5C 383.068,84.7521 382.068,83.4188 383.5,80.5C 384.736,81.2458 386.07,81.5792 387.5,81.5C 387.926,74.6138 391.259,69.9472 397.5,67.5 Z" id="svg_4" fill-opacity="1"/></g><g id="svg_5" class="" fill="#ffffff" fill-opacity="1"><path style="opacity:0.842" fill="#ffffff" d="M 333.5,73.5 C 335.833,73.5 338.167,73.5 340.5,73.5C 340.5,75.5 340.5,77.5 340.5,79.5C 342.861,79.3259 345.194,78.9926 347.5,78.5C 347.5,79.5 347.5,80.5 347.5,81.5C 345.194,81.9926 342.861,82.3259 340.5,82.5C 340.98,87.8221 341.313,93.1554 341.5,98.5C 342.552,98.6495 343.552,98.4828 344.5,98C 345.52,96.4443 346.853,95.2776 348.5,94.5C 350.394,97.2784 349.394,99.445 345.5,101C 342.167,101.667 338.833,101.667 335.5,101C 334.874,100.25 334.374,99.4162 334,98.5C 333.316,93.1778 332.816,87.8444 332.5,82.5C 330.139,82.6741 327.806,83.0074 325.5,83.5C 325.281,82.325 325.614,81.325 326.5,80.5C 328.409,79.6518 330.409,79.3184 332.5,79.5C 332.325,77.3792 332.659,75.3792 333.5,73.5 Z" id="svg_6" fill-opacity="1"/></g><g id="svg_7" class="" fill="#ffffff" fill-opacity="1"><path style="opacity:0.774" fill="#ffffff" d="M 310.5,81.5 C 311.649,81.7911 312.316,82.6244 312.5,84C 314.497,86.8167 313.83,88.6501 310.5,89.5C 306.71,85.577 303.043,85.577 299.5,89.5C 304.577,90.1051 309.577,90.9384 314.5,92C 316.504,94.8408 317.004,98.0074 316,101.5C 314.786,103.049 313.286,104.215 311.5,105C 307.64,105.105 303.974,105.938 300.5,107.5C 299.006,105.058 298.006,102.391 297.5,99.5C 298.723,98.3861 300.056,98.2195 301.5,99C 305.877,103.799 309.877,103.633 313.5,98.5C 308.792,97.8157 304.126,96.9823 299.5,96C 295.661,92.2832 295.661,88.4499 299.5,84.5C 303.451,84.0656 307.118,83.0656 310.5,81.5 Z" id="svg_8" fill-opacity="1"/></g><g id="svg_9" class="" fill="#ffffff" fill-opacity="1"><path style="opacity:0.828" fill="#ffffff" d="M 278.5,88.5 C 279.586,88.62 280.253,89.2867 280.5,90.5C 282,95.8333 283.5,101.167 285,106.5C 286.333,107.833 287.667,107.833 289,106.5C 290.23,107.275 290.563,108.275 290,109.5C 286.411,110.531 282.911,111.864 279.5,113.5C 278.833,112.5 278.167,111.5 277.5,110.5C 273.808,115.671 268.808,117.504 262.5,116C 259.322,111.989 256.989,107.489 255.5,102.5C 253.994,101.253 252.494,101.253 251,102.5C 249.77,101.725 249.437,100.725 250,99.5C 253.667,97.8333 257.333,96.1667 261,94.5C 263.187,99.3865 265.187,104.387 267,109.5C 267.347,111.18 268.347,112.18 270,112.5C 272.321,111.513 273.987,109.846 275,107.5C 275.317,103.09 274.817,98.7572 273.5,94.5C 272.07,94.4208 270.736,94.7542 269.5,95.5C 268.5,95.1667 267.833,94.5 267.5,93.5C 271.15,91.6245 274.817,89.9578 278.5,88.5 Z" id="svg_10" fill-opacity="1"/></g><g id="svg_11" class="" fill="#ffffff" fill-opacity="1"><path style="opacity:0.822" fill="#ffffff" d="M 416.5,89.5 C 426.754,87.4516 433.421,91.2849 436.5,101C 434.638,109.605 429.304,113.271 420.5,112C 410.273,108.64 407.44,102.14 412,92.5C 413.652,91.6006 415.152,90.6006 416.5,89.5 Z M 420.5,92.5 C 418.679,96.1282 417.346,99.9615 416.5,104C 416.903,105.473 417.57,106.806 418.5,108C 421.068,109.983 423.401,109.817 425.5,107.5C 427.136,104.089 428.469,100.589 429.5,97C 427.622,93.3941 424.622,91.8941 420.5,92.5 Z" id="svg_12" fill-opacity="1"/></g><g id="svg_13" class="" fill="#ffffff" fill-opacity="1"><path style="opacity:0.752" fill="#ffffff" d="M 226.5,94.5 C 232.155,94.3245 233.488,96.4912 230.5,101C 224.339,101.878 223.006,99.7113 226.5,94.5 Z" id="svg_14" fill-opacity="1"/></g><g id="svg_15" class="" fill="#ffffff" fill-opacity="1"><path style="opacity:0.805" fill="#ffffff" d="M 449.5,98.5 C 453.658,99.4983 457.658,100.998 461.5,103C 462.641,103.741 462.641,104.575 461.5,105.5C 464.897,106.172 468.23,107.005 471.5,108C 473.229,109.789 473.896,111.956 473.5,114.5C 471.473,114.662 469.473,114.495 467.5,114C 465.473,112.604 465.14,110.938 466.5,109C 464.365,108.365 462.365,108.699 460.5,110C 458.121,113.256 456.121,116.756 454.5,120.5C 456.297,121.695 457.297,123.362 457.5,125.5C 451.636,124.231 446.302,121.898 441.5,118.5C 441.833,117.5 442.5,116.833 443.5,116.5C 444.891,117.645 446.224,117.645 447.5,116.5C 449.371,111.926 451.371,107.426 453.5,103C 450.553,102.888 449.22,101.388 449.5,98.5 Z" id="svg_16" fill-opacity="1"/></g><g id="svg_17" class="" fill="#ffffff" fill-opacity="1"><path style="opacity:0.852" fill="#ffffff" d="M249.03763443231583,141.5 C308.4056344323158,114.385 369.07263443231585,111.219 431.0376344323158,132 C511.2686344323158,164.605 559.7686344323158,223.438 576.5376344323158,308.5 C588.1836344323158,400.965 557.3496344323158,475.465 484.0376344323158,532 C414.3146344323158,578.191 340.3146344323158,586.191 262.0376344323158,556 C195.91863443231583,525.939 152.41863443231583,476.105 131.53763443231583,406.5 C112.35863443231582,327.357 128.69263443231583,256.691 180.53763443231583,194.5 C198.4516344323158,174.904 218.9516344323158,158.737 242.03763443231583,146 C238.49763443231583,145.671 237.33163443231584,143.838 238.53763443231583,140.5 C240.12163443231583,139.139 241.95563443231583,138.472 244.03763443231583,138.5 C240.39763443231584,129.215 235.73063443231584,120.549 230.03763443231583,112.5 C228.20563443231583,113.248 226.53863443231583,114.248 225.03763443231583,115.5 C224.25063443231582,114.758 223.58463443231582,113.925 223.03763443231583,113 C227.54563443231584,110.246 232.21163443231583,107.746 237.03763443231583,105.5 C241.15263443231584,113 244.98563443231583,120.667 248.53763443231583,128.5 C250.25563443231582,132.795 250.42263443231582,137.128 249.03763443231583,141.5 zM349.0376344323158,125.5 C266.7136344323158,129.734 203.88063443231582,166.734 160.53763443231583,236.5 C121.20463443231583,309.5 121.20463443231583,382.5 160.53763443231583,455.5 C204.38963443231583,525.946 268.0556344323158,562.946 351.5376344323158,566.5 C435.01963443231585,562.946 498.68563443231585,525.946 542.5376344323158,455.5 C581.8706344323158,382.5 581.8706344323158,309.5 542.5376344323158,236.5 C498.3056344323158,164.883 433.8056344323158,127.883 349.0376344323158,125.5 zM471.0376344323158,186.5 C470.0066344323158,187.249 468.83963443231585,187.915 467.5376344323158,188.5 C466.7046344323158,206.176 466.87163443231583,223.843 468.0376344323158,241.5 C469.2736344323158,240.754 470.6076344323158,240.421 472.0376344323158,240.5 C472.3676344323158,222.326 472.03463443231584,204.326 471.0376344323158,186.5 zM428.0376344323158,200.5 C427.0066344323158,201.249 425.83963443231585,201.915 424.5376344323158,202.5 C424.0376344323158,271.166 423.87063443231585,339.833 424.0376344323158,408.5 C425.46763443231583,408.579 426.80163443231584,408.246 428.0376344323158,407.5 C429.3696344323158,338.335 429.3696344323158,269.335 428.0376344323158,200.5 zM355.0376344323158,223.5 C354.0066344323158,224.249 352.83963443231585,224.915 351.5376344323158,225.5 C350.7046344323158,243.176 350.87163443231583,260.843 352.0376344323158,278.5 C353.2736344323158,277.754 354.6076344323158,277.421 356.0376344323158,277.5 C356.3676344323158,259.326 356.03463443231584,241.326 355.0376344323158,223.5 zM312.0376344323158,237.5 C311.0066344323158,238.249 309.83963443231585,238.915 308.5376344323158,239.5 C308.0376344323158,308.166 307.87063443231585,376.833 308.0376344323158,445.5 C309.46763443231583,445.579 310.80163443231584,445.246 312.0376344323158,444.5 C313.3696344323158,375.335 313.3696344323158,306.335 312.0376344323158,237.5 zM233.03763443231583,263.5 C232.00663443231582,264.249 230.83963443231582,264.915 229.53763443231583,265.5 C229.19363443231583,333.221 228.86063443231583,400.887 228.53763443231583,468.5 C232.22363443231583,463.796 234.22363443231583,458.463 234.53763443231583,452.5 C234.70463443231583,421 234.87063443231582,389.5 235.03763443231583,358 C235.03763443231583,326.16 234.37063443231582,294.66 233.03763443231583,263.5 zM458.0376344323158,427.5 C451.6156344323158,431.762 448.4496344323158,437.762 448.5376344323158,445.5 C456.27963443231585,443.031 463.94563443231584,440.364 471.5376344323158,437.5 C471.7476344323158,434.731 470.91463443231584,432.231 469.0376344323158,430 C465.74863443231584,427.791 462.0816344323158,426.958 458.0376344323158,427.5 zM188.03763443231583,431.5 C186.74263443231584,438.096 186.07563443231584,444.929 186.03763443231583,452 C186.20463443231583,458.5 186.37063443231582,465 186.53763443231583,471.5 C187.47363443231583,474.768 189.47363443231583,477.101 192.53763443231583,478.5 C191.13763443231582,462.969 190.63763443231582,447.302 191.03763443231583,431.5 C190.03763443231583,431.5 189.03763443231583,431.5 188.03763443231583,431.5 zM365.0376344323158,456.5 C358.4516344323158,458.231 353.61863443231584,462.231 350.5376344323158,468.5 C349.87063443231585,478.5 349.87063443231585,488.5 350.5376344323158,498.5 C355.5786344323158,504.908 361.74563443231585,506.074 369.0376344323158,502 C379.1226344323158,494.308 382.9566344323158,484.142 380.5376344323158,471.5 C378.7756344323158,462.903 373.60863443231585,457.903 365.0376344323158,456.5 z" id="svg_18" fill-opacity="1"/></g><g id="svg_19" class="" fill="#ffffff" fill-opacity="1"><path style="opacity:0.91" fill="#ffffff" d="M 145.5,169.5 C 148.893,173.267 151.56,177.6 153.5,182.5C 158.04,184.109 162.706,185.275 167.5,186C 167.957,186.414 168.291,186.914 168.5,187.5C 165.146,191.019 161.98,194.686 159,198.5C 159.165,203.828 159.665,209.162 160.5,214.5C 155.527,212.933 150.694,210.933 146,208.5C 141.306,210.933 136.473,212.933 131.5,214.5C 132.335,209.162 132.835,203.828 133,198.5C 130.02,194.686 126.854,191.019 123.5,187.5C 123.709,186.914 124.043,186.414 124.5,186C 129.294,185.275 133.96,184.109 138.5,182.5C 140.591,177.98 142.925,173.647 145.5,169.5 Z" id="svg_20" fill-opacity="1"/></g><g id="svg_21" class="" fill="#ffffff" fill-opacity="1"><path style="opacity:0.91" fill="#ffffff" d="M 558.5,169.5 C 561.893,173.267 564.56,177.6 566.5,182.5C 571.04,184.109 575.706,185.275 580.5,186C 580.957,186.414 581.291,186.914 581.5,187.5C 578.146,191.019 574.98,194.686 572,198.5C 572.165,203.828 572.665,209.162 573.5,214.5C 568.527,212.933 563.694,210.933 559,208.5C 554.306,210.933 549.473,212.933 544.5,214.5C 545.335,209.162 545.835,203.828 546,198.5C 543.02,194.686 539.854,191.019 536.5,187.5C 536.709,186.914 537.043,186.414 537.5,186C 542.294,185.275 546.96,184.109 551.5,182.5C 553.591,177.98 555.925,173.647 558.5,169.5 Z" id="svg_22" fill-opacity="1"/></g><g id="svg_23" class="" fill="#ffffff" fill-opacity="1"><path style="opacity:0.914" fill="#ffffff" d="M 483.5,175.5 C 484.663,197.663 484.83,219.996 484,242.5C 475.998,245.667 467.831,248.334 459.5,250.5C 459.667,230.497 459.5,210.497 459,190.5C 453.555,192.593 448.055,194.593 442.5,196.5C 441.333,227.828 441.167,259.161 442,290.5C 451.002,286.999 460.169,283.999 469.5,281.5C 469.5,283.833 469.5,286.167 469.5,288.5C 460.108,290.964 450.775,293.631 441.5,296.5C 441.333,332.168 441.5,367.835 442,403.5C 444.333,402.5 446.667,401.5 449,400.5C 449.957,403.379 449.457,405.879 447.5,408C 434.574,412.476 421.574,416.642 408.5,420.5C 408.5,418.167 408.5,415.833 408.5,413.5C 410.937,413.244 413.271,412.577 415.5,411.5C 416.667,342.502 416.833,273.502 416,204.5C 413.667,205.5 411.333,206.5 409,207.5C 408.186,205.098 408.353,202.765 409.5,200.5C 434.275,192.131 458.942,183.798 483.5,175.5 Z M 470.5,186.5 C 469.469,187.249 468.302,187.915 467,188.5C 466.167,206.176 466.334,223.843 467.5,241.5C 468.736,240.754 470.07,240.421 471.5,240.5C 471.83,222.326 471.497,204.326 470.5,186.5 Z M 427.5,200.5 C 426.469,201.249 425.302,201.915 424,202.5C 423.5,271.166 423.333,339.833 423.5,408.5C 424.93,408.579 426.264,408.246 427.5,407.5C 428.832,338.335 428.832,269.335 427.5,200.5 Z" id="svg_24" fill-opacity="1"/></g><g id="svg_25" class="" fill="#ffffff" fill-opacity="1"><path style="opacity:0.914" fill="#ffffff" d="M 367.5,212.5 C 368.663,234.663 368.83,256.996 368,279.5C 359.998,282.667 351.831,285.334 343.5,287.5C 343.667,267.497 343.5,247.497 343,227.5C 337.555,229.593 332.055,231.593 326.5,233.5C 325.333,264.828 325.167,296.161 326,327.5C 335.002,323.999 344.169,320.999 353.5,318.5C 353.5,320.833 353.5,323.167 353.5,325.5C 344.108,327.964 334.775,330.631 325.5,333.5C 325.333,369.168 325.5,404.835 326,440.5C 328.333,439.5 330.667,438.5 333,437.5C 333.957,440.379 333.457,442.879 331.5,445C 318.574,449.476 305.574,453.642 292.5,457.5C 292.5,455.167 292.5,452.833 292.5,450.5C 294.937,450.244 297.271,449.577 299.5,448.5C 300.667,379.502 300.833,310.502 300,241.5C 297.667,242.5 295.333,243.5 293,244.5C 292.186,242.098 292.353,239.765 293.5,237.5C 318.275,229.131 342.942,220.798 367.5,212.5 Z M 354.5,223.5 C 353.469,224.249 352.302,224.915 351,225.5C 350.167,243.176 350.334,260.843 351.5,278.5C 352.736,277.754 354.07,277.421 355.5,277.5C 355.83,259.326 355.497,241.326 354.5,223.5 Z M 311.5,237.5 C 310.469,238.249 309.302,238.915 308,239.5C 307.5,308.166 307.333,376.833 307.5,445.5C 308.93,445.579 310.264,445.246 311.5,444.5C 312.832,375.335 312.832,306.335 311.5,237.5 Z" id="svg_26" fill-opacity="1"/></g><g id="svg_27" class="" fill="#ffffff" fill-opacity="1"><path style="opacity:0.916" fill="#ffffff" d="M 251.5,250.5 C 252.5,250.5 253.5,250.5 254.5,250.5C 255.733,256.268 253.4,258.934 247.5,258.5C 247.667,322.168 247.5,385.834 247,449.5C 243.018,464.825 233.851,475.992 219.5,483C 209.071,487.957 198.404,488.623 187.5,485C 182.851,482.545 180.017,478.712 179,473.5C 178.5,458.17 178.333,442.837 178.5,427.5C 186.891,425.37 195.225,423.036 203.5,420.5C 203.081,439.208 203.581,457.875 205,476.5C 207.593,479.933 210.76,480.433 214.5,478C 218.165,476.332 220.332,473.499 221,469.5C 221.667,402.167 221.667,334.833 221,267.5C 218.699,268.867 216.199,269.534 213.5,269.5C 213.244,267.208 213.577,265.041 214.5,263C 227.105,259.299 239.439,255.132 251.5,250.5 Z M 232.5,263.5 C 231.469,264.249 230.302,264.915 229,265.5C 228.656,333.221 228.323,400.887 228,468.5C 231.686,463.796 233.686,458.463 234,452.5C 234.167,421 234.333,389.5 234.5,358C 234.5,326.16 233.833,294.66 232.5,263.5 Z M 187.5,431.5 C 186.205,438.096 185.538,444.929 185.5,452C 185.667,458.5 185.833,465 186,471.5C 186.936,474.768 188.936,477.101 192,478.5C 190.6,462.969 190.1,447.302 190.5,431.5C 189.5,431.5 188.5,431.5 187.5,431.5 Z" id="svg_28" fill-opacity="1"/></g><g id="svg_29" class="" fill="#ffffff" fill-opacity="1"><path style="opacity:0.87" fill="#ffffff" d="M 93.5,341.5 C 94.4959,341.414 95.3292,341.748 96,342.5C 97.1667,344.833 98.3333,347.167 99.5,349.5C 102.915,350.711 106.248,352.044 109.5,353.5C 107.476,355.69 105.643,358.023 104,360.5C 103.248,363.894 103.415,367.227 104.5,370.5C 104,370.833 103.5,371.167 103,371.5C 100.106,370.303 97.273,368.97 94.5,367.5C 91.727,368.97 88.8937,370.303 86,371.5C 85.5,371.167 85,370.833 84.5,370.5C 85.5851,367.227 85.7517,363.894 85,360.5C 83.3573,358.023 81.524,355.69 79.5,353.5C 82.7516,352.044 86.0849,350.711 89.5,349.5C 90.8599,346.78 92.1932,344.114 93.5,341.5 Z" id="svg_30" fill-opacity="1"/></g><g id="svg_31" class="" fill="#ffffff" fill-opacity="1"><path style="opacity:0.87" fill="#ffffff" d="M 608.5,341.5 C 609.496,341.414 610.329,341.748 611,342.5C 612.167,344.833 613.333,347.167 614.5,349.5C 617.915,350.711 621.248,352.044 624.5,353.5C 622.476,355.69 620.643,358.023 619,360.5C 618.248,363.894 618.415,367.227 619.5,370.5C 619,370.833 618.5,371.167 618,371.5C 615.106,370.303 612.273,368.97 609.5,367.5C 606.727,368.97 603.894,370.303 601,371.5C 600.5,371.167 600,370.833 599.5,370.5C 600.585,367.227 600.752,363.894 600,360.5C 598.357,358.023 596.524,355.69 594.5,353.5C 597.752,352.044 601.085,350.711 604.5,349.5C 605.86,346.78 607.193,344.114 608.5,341.5 Z" id="svg_32" fill-opacity="1"/></g><g id="svg_33" class="" fill="#ffffff" fill-opacity="1"><path style="opacity:0.871" fill="#ffffff" d="M 560.5,394.5 C 561.5,394.5 562.5,394.5 563.5,394.5C 563.649,395.552 563.483,396.552 563,397.5C 560.23,399.601 558.23,402.268 557,405.5C 551.333,421.833 545.667,438.167 540,454.5C 538.267,456.602 536.267,456.935 534,455.5C 530.471,447.246 527.138,438.913 524,430.5C 519.313,442.042 514.48,453.542 509.5,465C 507.888,465.72 506.388,465.554 505,464.5C 500,451.833 495,439.167 490,426.5C 488.018,423.596 485.518,421.262 482.5,419.5C 489.466,416.402 496.799,414.069 504.5,412.5C 504.723,415.114 503.556,416.781 501,417.5C 500.219,418.729 499.719,420.062 499.5,421.5C 502.997,431.162 506.497,440.828 510,450.5C 514.218,441.849 518.052,433.015 521.5,424C 520.145,420.788 518.645,417.622 517,414.5C 515.416,413.139 513.582,412.472 511.5,412.5C 511.36,410.876 512.027,409.71 513.5,409C 520.335,407.665 527.001,405.831 533.5,403.5C 533.374,406.468 531.874,408.468 529,409.5C 528.833,410.333 528.667,411.167 528.5,412C 531.651,422.13 535.485,431.963 540,441.5C 543.534,431.897 546.868,422.231 550,412.5C 550.667,409.5 550.667,406.5 550,403.5C 548.301,402.594 546.467,402.261 544.5,402.5C 544.5,401.5 544.5,400.5 544.5,399.5C 550.183,398.604 555.517,396.937 560.5,394.5 Z" id="svg_34" fill-opacity="1"/></g><g id="svg_35" class="" fill="#ffffff" fill-opacity="1"><path style="opacity:0.853" fill="#ffffff" d="M 345.5,415.5 C 346.833,415.5 348.167,415.5 349.5,415.5C 349.333,431.17 349.5,446.837 350,462.5C 357.692,451.388 367.859,447.888 380.5,452C 382.709,453.873 384.542,456.04 386,458.5C 390.558,475.822 386.391,490.655 373.5,503C 365.104,509.525 356.104,510.692 346.5,506.5C 344.515,508.457 343.015,510.79 342,513.5C 340.989,514.337 339.822,514.67 338.5,514.5C 339.633,486.523 339.8,458.523 339,430.5C 338.196,429.196 337.029,428.529 335.5,428.5C 333.865,429.046 332.199,429.38 330.5,429.5C 330.33,428.178 330.663,427.011 331.5,426C 336.917,423.406 341.583,419.906 345.5,415.5 Z M 364.5,456.5 C 357.914,458.231 353.081,462.231 350,468.5C 349.333,478.5 349.333,488.5 350,498.5C 355.041,504.908 361.208,506.074 368.5,502C 378.585,494.308 382.419,484.142 380,471.5C 378.238,462.903 373.071,457.903 364.5,456.5 Z" id="svg_36" fill-opacity="1"/></g><g id="svg_37" class="" fill="#ffffff" fill-opacity="1"><path style="opacity:0.858" fill="#ffffff" d="M 460.5,422.5 C 473.628,420.806 480.461,426.473 481,439.5C 470.033,443.539 458.867,447.205 447.5,450.5C 446.18,457.708 448.18,463.875 453.5,469C 459.676,472.48 465.676,472.147 471.5,468C 474.99,465.509 478.157,462.675 481,459.5C 481.692,460.025 482.192,460.692 482.5,461.5C 475.038,475.181 463.705,481.014 448.5,479C 442.455,476.099 438.955,471.265 438,464.5C 436.377,445.402 443.877,431.402 460.5,422.5 Z M 457.5,427.5 C 451.078,431.762 447.912,437.762 448,445.5C 455.742,443.031 463.408,440.364 471,437.5C 471.21,434.731 470.377,432.231 468.5,430C 465.211,427.791 461.544,426.958 457.5,427.5 Z" id="svg_38" fill-opacity="1"/></g><g id="svg_39" class="" fill="#ffffff" fill-opacity="1"><path style="opacity:0.883" fill="#ffffff" d="M 423.5,433.5 C 434.318,432.762 436.651,436.596 430.5,445C 423.408,442.649 418.242,444.816 415,451.5C 413,462.833 413,474.167 415,485.5C 415.804,486.804 416.971,487.471 418.5,487.5C 420.453,486.844 422.453,486.511 424.5,486.5C 424.67,487.822 424.337,488.989 423.5,490C 415.119,492.073 406.786,494.24 398.5,496.5C 400.035,493.768 401.869,491.102 404,488.5C 404.667,476.5 404.667,464.5 404,452.5C 403.592,450.59 402.425,449.59 400.5,449.5C 398.547,450.156 396.547,450.489 394.5,450.5C 394.33,449.178 394.663,448.011 395.5,447C 401.295,444.874 406.295,441.54 410.5,437C 411.448,436.517 412.448,436.351 413.5,436.5C 413.335,439.85 413.502,443.183 414,446.5C 416.225,441.447 419.392,437.114 423.5,433.5 Z" id="svg_40" fill-opacity="1"/></g><g id="svg_41" class="" fill="#ffffff" fill-opacity="1"><path style="opacity:0.794" fill="#ffffff" d="M 149.5,497.5 C 151.564,500.221 154.231,502.221 157.5,503.5C 154.841,505.964 154.174,508.797 155.5,512C 153.433,512.536 151.599,512.036 150,510.5C 148.401,512.036 146.567,512.536 144.5,512C 145.826,508.797 145.159,505.964 142.5,503.5C 145.781,502.548 148.115,500.548 149.5,497.5 Z" id="svg_42" fill-opacity="1"/></g><g id="svg_43" class="" fill="#ffffff" fill-opacity="1"><path style="opacity:0.794" fill="#ffffff" d="M 558.5,497.5 C 560.564,500.221 563.231,502.221 566.5,503.5C 563.841,505.964 563.174,508.797 564.5,512C 562.433,512.536 560.599,512.036 559,510.5C 557.401,512.036 555.567,512.536 553.5,512C 554.826,508.797 554.159,505.964 551.5,503.5C 554.781,502.548 557.115,500.548 558.5,497.5 Z" id="svg_44" fill-opacity="1"/></g><g id="svg_45" class="" fill="#ffffff" fill-opacity="1"><path style="opacity:0.819" fill="#ffffff" d="M 256.5,564.5 C 259.607,564.351 262.607,564.851 265.5,566C 270.53,572.803 269.03,575.303 261,573.5C 260.217,571.567 260.717,570.067 262.5,569C 260.263,567.144 258.429,567.644 257,570.5C 255.833,572.833 254.667,575.167 253.5,577.5C 254.833,578.5 256.167,579.5 257.5,580.5C 257.167,581.5 256.5,582.167 255.5,582.5C 254.109,581.355 252.776,581.355 251.5,582.5C 249.364,586.606 247.364,590.772 245.5,595C 246.613,596.394 247.947,597.561 249.5,598.5C 249.167,599.5 248.5,600.167 247.5,600.5C 242.38,598.44 237.38,596.107 232.5,593.5C 231.614,592.675 231.281,591.675 231.5,590.5C 233.807,590.986 235.973,590.986 238,590.5C 240.039,586.255 242.206,582.088 244.5,578C 243.421,577.044 242.255,576.211 241,575.5C 241.484,571.796 243.151,571.462 246,574.5C 248.106,569.557 251.606,566.224 256.5,564.5 Z" id="svg_46" fill-opacity="1"/></g><g id="svg_47" class="" fill="#ffffff" fill-opacity="1"><path style="opacity:0.838" fill="#ffffff" d="M 420.5,575.5 C 422.124,575.36 423.29,576.027 424,577.5C 427,587.5 430,597.5 433,607.5C 434.667,608.833 436.333,608.833 438,607.5C 438.49,608.793 438.657,610.127 438.5,611.5C 434.214,612.707 429.88,613.707 425.5,614.5C 425.649,613.448 425.483,612.448 425,611.5C 424.167,613.667 422.667,615.167 420.5,616C 407.044,617.883 402.21,612.383 406,599.5C 409.971,595.019 414.804,593.019 420.5,593.5C 419.234,589.535 418.067,585.535 417,581.5C 415.396,580.351 413.73,580.351 412,581.5C 410.72,581.387 409.887,580.72 409.5,579.5C 413.21,578 416.876,576.666 420.5,575.5 Z M 415.5,596.5 C 414.469,597.249 413.302,597.915 412,598.5C 411.752,602.936 412.419,607.27 414,611.5C 417.6,614.354 420.6,613.687 423,609.5C 424.487,602.751 421.987,598.417 415.5,596.5 Z" id="svg_48" fill-opacity="1"/></g><g id="svg_49" class="" fill="#ffffff" fill-opacity="1"><path style="opacity:0.764" fill="#ffffff" d="M 457.5,578.5 C 460.443,580.048 461.443,582.382 460.5,585.5C 459.325,586.855 458.325,586.688 457.5,585C 454.412,584.153 451.579,584.653 449,586.5C 448.517,587.448 448.351,588.448 448.5,589.5C 453.748,588.02 459.081,587.52 464.5,588C 469.662,592.237 469.662,596.57 464.5,601C 459.825,602.082 455.492,603.915 451.5,606.5C 449.881,603.812 448.547,600.979 447.5,598C 451.655,599.062 455.988,599.395 460.5,599C 462.455,598.047 464.122,596.713 465.5,595C 464.892,594.13 464.059,593.63 463,593.5C 457.441,595.972 451.941,595.972 446.5,593.5C 445.201,590.423 445.368,587.423 447,584.5C 450.675,582.684 454.175,580.684 457.5,578.5 Z" id="svg_50" fill-opacity="1"/></g><g id="svg_51" class="" fill="#ffffff" fill-opacity="1"><path style="opacity:0.75" fill="#ffffff" d="M 306.5,582.5 C 311.123,581.408 312.956,583.075 312,587.5C 306.41,590.36 304.577,588.693 306.5,582.5 Z" id="svg_52" fill-opacity="1"/></g><g id="svg_53" class="" fill="#ffffff" fill-opacity="1"><path style="opacity:0.811" fill="#ffffff" d="M 279.5,591.5 C 283.211,590.116 286.877,590.282 290.5,592C 293.116,597.228 291.45,599.061 285.5,597.5C 284.288,591.59 281.788,591.257 278,596.5C 276.301,599.935 274.801,603.435 273.5,607C 275.221,607.739 276.887,608.573 278.5,609.5C 278.291,610.086 277.957,610.586 277.5,611C 271.146,610.215 265.146,608.215 259.5,605C 260.699,602.516 262.532,602.35 265,604.5C 267.162,599.35 269.329,594.184 271.5,589C 268.553,588.888 267.22,587.388 267.5,584.5C 271.168,585.556 274.835,586.722 278.5,588C 279.337,589.011 279.67,590.178 279.5,591.5 Z" id="svg_54" fill-opacity="1"/></g><g id="svg_55" class="" fill="#ffffff" fill-opacity="1"><path style="opacity:0.828" fill="#ffffff" d="M 298.5,594.5 C 302.557,594.848 306.557,595.514 310.5,596.5C 309.241,603.128 308.241,609.794 307.5,616.5C 308.833,616.5 310.167,616.5 311.5,616.5C 311.5,617.5 311.5,618.5 311.5,619.5C 305.41,619.015 299.41,618.015 293.5,616.5C 293.5,615.5 293.5,614.5 293.5,613.5C 295.144,613.286 296.644,613.62 298,614.5C 299.504,608.969 301.004,603.469 302.5,598C 300.744,597.798 299.078,597.298 297.5,596.5C 297.863,595.817 298.196,595.15 298.5,594.5 Z" id="svg_56" fill-opacity="1"/></g><g id="svg_57" class="" fill="#ffffff" fill-opacity="1"><path style="opacity:0.833" fill="#ffffff" d="M 378.5,599.5 C 381.972,599.126 384.972,600.126 387.5,602.5C 389.312,607.651 390.312,612.984 390.5,618.5C 392.144,618.714 393.644,618.38 395,617.5C 395.49,618.793 395.657,620.127 395.5,621.5C 389.509,621.966 383.509,622.299 377.5,622.5C 377.5,621.5 377.5,620.5 377.5,619.5C 379.288,619.785 380.955,619.452 382.5,618.5C 381.637,613.537 380.97,608.537 380.5,603.5C 375.615,602.856 372.448,604.856 371,609.5C 370.333,612.833 370.333,616.167 371,619.5C 372.699,620.406 374.533,620.739 376.5,620.5C 376.5,621.5 376.5,622.5 376.5,623.5C 370.167,623.5 363.833,623.5 357.5,623.5C 357.5,622.5 357.5,621.5 357.5,620.5C 359.167,620.5 360.833,620.5 362.5,620.5C 362.5,614.833 362.5,609.167 362.5,603.5C 360.833,603.5 359.167,603.5 357.5,603.5C 357.5,602.5 357.5,601.5 357.5,600.5C 361.514,600.334 365.514,600.501 369.5,601C 370.126,601.75 370.626,602.584 371,603.5C 373.255,601.501 375.755,600.168 378.5,599.5 Z" id="svg_58" fill-opacity="1"/></g><g id="svg_59" class="" fill="#ffffff" fill-opacity="1"><path style="opacity:0.802" fill="#ffffff" d="M 331.5,600.5 C 341.093,598.447 346.76,602.114 348.5,611.5C 342.788,611.687 337.121,611.354 331.5,610.5C 329.505,618.672 332.505,621.506 340.5,619C 342.5,618.333 343.833,617 344.5,615C 345.944,614.219 347.277,614.386 348.5,615.5C 346.463,620.357 342.796,623.023 337.5,623.5C 327.259,622.774 322.759,617.44 324,607.5C 325.742,604.254 328.242,601.921 331.5,600.5 Z M 333.5,603.5 C 332.766,604.708 332.433,606.041 332.5,607.5C 335.127,608.092 337.794,608.425 340.5,608.5C 340.714,606.856 340.38,605.356 339.5,604C 337.527,603.505 335.527,603.338 333.5,603.5 Z" id="svg_60" fill-opacity="1"/></g></g></svg>