<svg xmlns="http://www.w3.org/2000/svg" xmlns:xlink="http://www.w3.org/1999/xlink" version="1.1" width="1028" height="969" style="shape-rendering: geometricprecision; text-rendering: geometricprecision; fill-rule: evenodd; clip-rule: evenodd;"><rect id="backgroundrect" width="100%" height="100%" x="0" y="0" fill="none" stroke="none"/>





































































<g class="currentLayer" style=""><title>Layer 1</title><g id="svg_1" class="selected" opacity="0" stroke="#ffffff" stroke-opacity="1" fill="#ffffff" fill-opacity="1"><path style="" fill="#ffffff" d="M -0.5,-0.5 C 342.167,-0.5 684.833,-0.5 1027.5,-0.5C 1027.5,322.5 1027.5,645.5 1027.5,968.5C 684.833,968.5 342.167,968.5 -0.5,968.5C -0.5,645.5 -0.5,322.5 -0.5,-0.5 Z" id="svg_2" opacity="0" stroke="#ffffff" stroke-opacity="1" fill-opacity="1"/></g><g id="svg_3" class="selected" stroke="#ffffff" stroke-opacity="1" fill="#ffffff" fill-opacity="1"><path style="opacity:1" fill="#ffffff" d="M 493.5,71.5 C 503.825,72.1682 506.992,77.1682 503,86.5C 498.813,91.2876 494.313,91.621 489.5,87.5C 484.898,80.6456 486.231,75.3123 493.5,71.5 Z" id="svg_4" stroke="#ffffff" stroke-opacity="1" fill-opacity="1"/></g><g id="svg_5" class="selected" stroke="#ffffff" stroke-opacity="1" fill="#ffffff" fill-opacity="1"><path style="opacity:1" fill="#ffffff" d="M 563.5,75.5 C 573.107,73.9415 577.274,77.9415 576,87.5C 573.647,92.4264 569.814,94.2598 564.5,93C 558.905,90.646 557.072,86.4793 559,80.5C 560.025,78.313 561.525,76.6464 563.5,75.5 Z" id="svg_6" stroke="#ffffff" stroke-opacity="1" fill-opacity="1"/></g><g id="svg_7" class="selected" stroke="#ffffff" stroke-opacity="1" fill="#ffffff" fill-opacity="1"><path style="opacity:1" fill="#ffffff" d="M 422.5,81.5 C 432.111,81.9138 435.611,86.5805 433,95.5C 428.623,101.074 423.623,101.741 418,97.5C 413.676,90.3873 415.176,85.054 422.5,81.5 Z" id="svg_8" stroke="#ffffff" stroke-opacity="1" fill-opacity="1"/></g><g id="svg_9" class="selected" stroke="#ffffff" stroke-opacity="1" fill="#ffffff" fill-opacity="1"><path style="opacity:1" fill="#ffffff" d="M 635.5,91.5 C 642.085,91.2495 645.751,94.4162 646.5,101C 643.92,110.418 638.42,112.584 630,107.5C 626.581,100.098 628.414,94.765 635.5,91.5 Z" id="svg_10" stroke="#ffffff" stroke-opacity="1" fill-opacity="1"/></g><g id="svg_11" class="selected" stroke="#ffffff" stroke-opacity="1" fill="#ffffff" fill-opacity="1"><path style="opacity:1" fill="#ffffff" d="M 353.5,104.5 C 364.852,104.322 368.352,109.322 364,119.5C 357.508,124.275 352.175,123.275 348,116.5C 347.056,111.146 348.889,107.146 353.5,104.5 Z" id="svg_12" stroke="#ffffff" stroke-opacity="1" fill-opacity="1"/></g><g id="svg_13" class="selected" stroke="#ffffff" stroke-opacity="1" fill="#ffffff" fill-opacity="1"><path style="opacity:1" fill="#ffffff" d="M 698.5,121.5 C 710.46,120.939 714.127,126.106 709.5,137C 699.29,141.727 694.124,138.561 694,127.5C 695.332,125.34 696.832,123.34 698.5,121.5 Z" id="svg_14" stroke="#ffffff" stroke-opacity="1" fill-opacity="1"/></g><g id="svg_15" class="selected" stroke="#ffffff" stroke-opacity="1" fill="#ffffff" fill-opacity="1"><path style="opacity:1" fill="#ffffff" d="M 291.5,139.5 C 300.498,139.329 304.331,143.662 303,152.5C 295.034,161.24 288.867,160.074 284.5,149C 285.528,144.814 287.862,141.647 291.5,139.5 Z" id="svg_16" stroke="#ffffff" stroke-opacity="1" fill-opacity="1"/></g><g id="svg_17" class="selected" stroke="#ffffff" stroke-opacity="1" fill="#ffffff" fill-opacity="1"><path style="opacity:1" fill="#ffffff" d="M 522.5,141.5 C 533.626,140.463 539.126,145.463 539,156.5C 534.338,166.833 527.338,168.833 518,162.5C 512.767,154.038 514.267,147.038 522.5,141.5 Z" id="svg_18" stroke="#ffffff" stroke-opacity="1" fill-opacity="1"/></g><g id="svg_19" class="selected" stroke="#ffffff" stroke-opacity="1" fill="#ffffff" fill-opacity="1"><path style="opacity:1" fill="#ffffff" d="M 523.5,147.5 C 532.807,146.953 535.474,150.787 531.5,159C 523.221,161.951 519.721,159.118 521,150.5C 522.045,149.627 522.878,148.627 523.5,147.5 Z" id="svg_20" stroke="#ffffff" stroke-opacity="1" fill-opacity="1"/></g><g id="svg_21" class="selected" stroke="#ffffff" stroke-opacity="1" fill="#ffffff" fill-opacity="1"><path style="opacity:1" fill="#ffffff" d="M 563.5,155.5 C 577.649,157.8 581.815,165.466 576,178.5C 567.667,185.643 560.001,184.977 553,176.5C 549.193,165.722 552.693,158.722 563.5,155.5 Z" id="svg_22" stroke="#ffffff" stroke-opacity="1" fill-opacity="1"/></g><g id="svg_23" class="selected" stroke="#ffffff" stroke-opacity="1" fill="#ffffff" fill-opacity="1"><path style="opacity:1" fill="#ffffff" d="M 561.5,161.5 C 568.144,160.649 572.144,163.482 573.5,170C 572.933,174.734 570.266,177.234 565.5,177.5C 559.041,176.592 556.541,172.926 558,166.5C 558.997,164.677 560.164,163.01 561.5,161.5 Z" id="svg_24" stroke="#ffffff" stroke-opacity="1" fill-opacity="1"/></g><g id="svg_25" class="selected" stroke="#ffffff" stroke-opacity="1" fill="#ffffff" fill-opacity="1"><path style="opacity:1" fill="#ffffff" d="M 758.5,162.5 C 768.878,162.574 772.378,167.574 769,177.5C 758.072,183.038 752.739,179.705 753,167.5C 754.352,165.251 756.185,163.584 758.5,162.5 Z" id="svg_26" stroke="#ffffff" stroke-opacity="1" fill-opacity="1"/></g><g id="svg_27" class="selected" stroke="#ffffff" stroke-opacity="1" fill="#ffffff" fill-opacity="1"><path style="opacity:1" fill="#ffffff" d="M 598.5,182.5 C 612.525,183.577 618.025,190.91 615,204.5C 606.71,215.496 597.71,216.162 588,206.5C 583.771,198.199 585.271,191.033 592.5,185C 594.611,184.155 596.611,183.322 598.5,182.5 Z" id="svg_28" stroke="#ffffff" stroke-opacity="1" fill-opacity="1"/></g><g id="svg_29" class="selected" stroke="#ffffff" stroke-opacity="1" fill="#ffffff" fill-opacity="1"><path style="opacity:1" fill="#ffffff" d="M 237.5,185.5 C 246.004,185.835 249.504,190.168 248,198.5C 245.647,203.426 241.814,205.26 236.5,204C 231.268,201.367 229.435,197.201 231,191.5C 232.436,188.558 234.603,186.558 237.5,185.5 Z" id="svg_30" stroke="#ffffff" stroke-opacity="1" fill-opacity="1"/></g><g id="svg_31" class="selected" stroke="#ffffff" stroke-opacity="1" fill="#ffffff" fill-opacity="1"><path style="opacity:1" fill="#ffffff" d="M 596.5,188.5 C 606.513,187.348 611.013,191.681 610,201.5C 607.367,206.732 603.201,208.565 597.5,207C 589.851,201.276 589.518,195.109 596.5,188.5 Z" id="svg_32" stroke="#ffffff" stroke-opacity="1" fill-opacity="1"/></g><g id="svg_33" class="selected" stroke="#ffffff" stroke-opacity="1" fill="#ffffff" fill-opacity="1"><path style="opacity:1" fill="#ffffff" d="M 808.5,213.5 C 818.541,213.357 822.374,218.023 820,227.5C 815.867,232.833 811.034,233.667 805.5,230C 800.788,223.395 801.788,217.895 808.5,213.5 Z" id="svg_34" stroke="#ffffff" stroke-opacity="1" fill-opacity="1"/></g><g id="svg_35" class="selected" stroke="#ffffff" stroke-opacity="1" fill="#ffffff" fill-opacity="1"><path style="opacity:1" fill="#ffffff" d="M 627.5,220.5 C 643.842,221.159 650.009,229.493 646,245.5C 640.526,253.75 633.026,256.25 623.5,253C 611.942,243.405 611.608,233.405 622.5,223C 624.315,222.243 625.981,221.41 627.5,220.5 Z" id="svg_36" stroke="#ffffff" stroke-opacity="1" fill-opacity="1"/></g><g id="svg_37" class="selected" stroke="#ffffff" stroke-opacity="1" fill="#ffffff" fill-opacity="1"><path style="opacity:1" fill="#ffffff" d="M 626.5,226.5 C 640.148,225.956 644.648,231.956 640,244.5C 632.575,250.53 626.241,249.53 621,241.5C 620.333,238.5 620.333,235.5 621,232.5C 622.36,229.977 624.193,227.977 626.5,226.5 Z" id="svg_38" stroke="#ffffff" stroke-opacity="1" fill-opacity="1"/></g><g id="svg_39" class="selected" stroke="#ffffff" stroke-opacity="1" fill="#ffffff" fill-opacity="1"><path style="opacity:1" fill="#ffffff" d="M 191.5,241.5 C 198.804,240.8 202.804,244.133 203.5,251.5C 201.406,259.02 196.74,261.52 189.5,259C 182.796,252.319 183.462,246.486 191.5,241.5 Z" id="svg_40" stroke="#ffffff" stroke-opacity="1" fill-opacity="1"/></g><g id="svg_41" class="selected" stroke="#ffffff" stroke-opacity="1" fill="#ffffff" fill-opacity="1"><path style="opacity:1" fill="#ffffff" d="M 514.5,252.5 C 516.582,252.472 518.416,253.139 520,254.5C 520.499,260.157 520.666,265.824 520.5,271.5C 536.68,273.116 551.68,278.116 565.5,286.5C 568.718,283.723 572.385,281.723 576.5,280.5C 580.881,282.344 581.714,285.344 579,289.5C 575.253,294.243 571.919,299.243 569,304.5C 567.837,311.13 567.004,317.796 566.5,324.5C 581.412,324.176 596.245,324.509 611,325.5C 612.777,391.96 608.11,457.96 597,523.5C 586.981,580.724 565.648,633.057 533,680.5C 528.023,687.458 522.356,693.792 516,699.5C 513.117,697.386 510.451,695.053 508,692.5C 488.475,667.597 472.475,640.597 460,611.5C 445.471,574.384 435.471,536.051 430,496.5C 422.532,439.737 419.532,382.737 421,325.5C 435.755,324.509 450.588,324.176 465.5,324.5C 465.785,310.851 461.618,298.851 453,288.5C 450.341,284.645 451.175,281.979 455.5,280.5C 459.327,282.246 462.993,284.246 466.5,286.5C 480.202,277.711 495.202,272.711 511.5,271.5C 511.718,266.789 511.385,262.122 510.5,257.5C 511.127,255.213 512.46,253.546 514.5,252.5 Z" id="svg_42" stroke="#ffffff" stroke-opacity="1" fill-opacity="1"/></g><g id="svg_43" class="selected" stroke="#ffffff" stroke-opacity="1" fill="#ffffff" fill-opacity="1"><path style="opacity:1" fill="#ffffff" d="M 646.5,268.5 C 666.283,268.118 673.449,277.451 668,296.5C 660.084,305.283 650.918,306.783 640.5,301C 630.022,287.76 632.022,276.926 646.5,268.5 Z" id="svg_44" stroke="#ffffff" stroke-opacity="1" fill-opacity="1"/></g><g id="svg_45" class="selected" stroke="#ffffff" stroke-opacity="1" fill="#ffffff" fill-opacity="1"><path style="opacity:1" fill="#ffffff" d="M 847.5,273.5 C 857.85,272.343 862.016,276.676 860,286.5C 853.833,293.412 848.167,293.079 843,285.5C 842.02,280.476 843.52,276.476 847.5,273.5 Z" id="svg_46" stroke="#ffffff" stroke-opacity="1" fill-opacity="1"/></g><g id="svg_47" class="selected" stroke="#ffffff" stroke-opacity="1" fill="#ffffff" fill-opacity="1"><path style="opacity:1" fill="#ffffff" d="M 648.5,273.5 C 662.585,274.338 667.085,281.338 662,294.5C 660.786,296.049 659.286,297.215 657.5,298C 641.949,299.727 636.783,293.227 642,278.5C 643.805,276.174 645.972,274.508 648.5,273.5 Z" id="svg_48" stroke="#ffffff" stroke-opacity="1" fill-opacity="1"/></g><g id="svg_49" class="selected" stroke="#ffffff" stroke-opacity="1" fill="#ffffff" fill-opacity="1"><path style="opacity:1" fill="#ffffff" d="M 513.5,280.5 C 514.483,284.298 514.817,288.298 514.5,292.5C 513.167,292.5 511.833,292.5 510.5,292.5C 511.209,291.596 512.209,291.263 513.5,291.5C 513.5,287.833 513.5,284.167 513.5,280.5 Z" id="svg_50" stroke="#ffffff" stroke-opacity="1" fill-opacity="1"/></g><g id="svg_51" class="selected" stroke="#ffffff" stroke-opacity="1" fill="#ffffff" fill-opacity="1"><path style="opacity:1" fill="#ffffff" d="M 513.5,280.5 C 513.5,284.167 513.5,287.833 513.5,291.5C 512.209,291.263 511.209,291.596 510.5,292.5C 509.883,292.611 509.383,292.944 509,293.5C 508.502,296.817 508.335,300.15 508.5,303.5C 505.167,303.5 501.833,303.5 498.5,303.5C 498.665,299.818 498.499,296.152 498,292.5C 494.198,291.194 490.365,291.194 486.5,292.5C 485.511,296.107 485.177,299.774 485.5,303.5C 481.5,303.5 477.5,303.5 473.5,303.5C 473.196,300.421 472.196,297.587 470.5,295C 483.308,285.897 497.642,281.064 513.5,280.5 Z" id="svg_52" stroke="#ffffff" stroke-opacity="1" fill-opacity="1"/></g><g id="svg_53" class="selected" stroke="#ffffff" stroke-opacity="1" fill="#ffffff" fill-opacity="1"><path style="opacity:1" fill="#ffffff" d="M 526.5,281.5 C 524.167,281.5 521.833,281.5 519.5,281.5C 519.244,285.269 519.577,288.936 520.5,292.5C 518.577,288.971 517.911,284.971 518.5,280.5C 521.385,280.194 524.052,280.527 526.5,281.5 Z" id="svg_54" stroke="#ffffff" stroke-opacity="1" fill-opacity="1"/></g><g id="svg_55" class="selected" stroke="#ffffff" stroke-opacity="1" fill="#ffffff" fill-opacity="1"><path style="opacity:1" fill="#ffffff" d="M 526.5,281.5 C 538.543,283.013 549.543,287.18 559.5,294C 560.059,294.725 560.392,295.558 560.5,296.5C 559.533,298.762 558.866,301.095 558.5,303.5C 554.5,303.5 550.5,303.5 546.5,303.5C 546.665,299.818 546.499,296.152 546,292.5C 542,291.167 538,291.167 534,292.5C 533.501,296.152 533.335,299.818 533.5,303.5C 529.833,303.5 526.167,303.5 522.5,303.5C 523.08,299.351 522.414,295.684 520.5,292.5C 519.577,288.936 519.244,285.269 519.5,281.5C 521.833,281.5 524.167,281.5 526.5,281.5 Z" id="svg_56" stroke="#ffffff" stroke-opacity="1" fill-opacity="1"/></g><g id="svg_57" class="selected" stroke="#ffffff" stroke-opacity="1" fill="#ffffff" fill-opacity="1"><path style="opacity:1" fill="#ffffff" d="M 157.5,304.5 C 167.696,304.874 170.862,309.874 167,319.5C 162.57,324.284 157.903,324.618 153,320.5C 148.68,313.344 150.18,308.011 157.5,304.5 Z" id="svg_58" stroke="#ffffff" stroke-opacity="1" fill-opacity="1"/></g><g id="svg_59" class="selected" stroke="#ffffff" stroke-opacity="1" fill="#ffffff" fill-opacity="1"><path style="opacity:1" fill="#ffffff" d="M 473.5,318.5 C 501.5,318.5 529.5,318.5 557.5,318.5C 557.5,320.5 557.5,322.5 557.5,324.5C 529.5,324.5 501.5,324.5 473.5,324.5C 473.5,322.5 473.5,320.5 473.5,318.5 Z" id="svg_60" stroke="#ffffff" stroke-opacity="1" fill-opacity="1"/></g><g id="svg_61" class="selected" stroke="#ffffff" stroke-opacity="1" fill="#ffffff" fill-opacity="1"><path style="opacity:1" fill="#ffffff" d="M 651.5,325.5 C 666.229,324.022 674.896,330.522 677.5,345C 673.781,362.718 663.448,368.385 646.5,362C 635.042,351.339 634.709,340.339 645.5,329C 647.432,327.541 649.432,326.375 651.5,325.5 Z" id="svg_62" stroke="#ffffff" stroke-opacity="1" fill-opacity="1"/></g><g id="svg_63" class="selected" stroke="#ffffff" stroke-opacity="1" fill="#ffffff" fill-opacity="1"><path style="opacity:1" fill="#ffffff" d="M 522.5,685.5 C 521.501,601.668 521.167,517.668 521.5,433.5C 521.549,430.901 522.549,428.734 524.5,427C 528.086,425.892 531.753,425.392 535.5,425.5C 535.5,424.167 535.5,422.833 535.5,421.5C 522.167,421.5 508.833,421.5 495.5,421.5C 495.5,422.833 495.5,424.167 495.5,425.5C 500.561,424.665 504.895,425.999 508.5,429.5C 509.667,514.831 509.833,600.165 509,685.5C 484.393,653.625 466.06,618.292 454,579.5C 436.178,515.744 426.844,450.744 426,384.5C 425.5,366.17 425.333,347.836 425.5,329.5C 485.833,329.5 546.167,329.5 606.5,329.5C 608.16,402.916 601.66,475.583 587,547.5C 577.95,585.659 563.617,621.659 544,655.5C 537.358,665.96 530.191,675.96 522.5,685.5 Z" id="svg_64" stroke="#ffffff" stroke-opacity="1" fill-opacity="1"/></g><g id="svg_65" class="selected" stroke="#ffffff" stroke-opacity="1" fill="#ffffff" fill-opacity="1"><path style="opacity:1" fill="#ffffff" d="M 656.5,330.5 C 669.96,333.125 674.126,340.791 669,353.5C 660.701,361.677 652.701,361.344 645,352.5C 641.268,340.957 645.101,333.624 656.5,330.5 Z" id="svg_66" stroke="#ffffff" stroke-opacity="1" fill-opacity="1"/></g><g id="svg_67" class="selected" stroke="#ffffff" stroke-opacity="1" fill="#ffffff" fill-opacity="1"><path style="opacity:1" fill="#ffffff" d="M 875.5,339.5 C 885.681,338.179 889.848,342.513 888,352.5C 885.024,356.939 880.857,358.439 875.5,357C 868.888,351.169 868.888,345.336 875.5,339.5 Z" id="svg_68" stroke="#ffffff" stroke-opacity="1" fill-opacity="1"/></g><g id="svg_69" class="selected" stroke="#ffffff" stroke-opacity="1" fill="#ffffff" fill-opacity="1"><path style="opacity:1" fill="#ffffff" d="M 136.5,372.5 C 144.847,373.505 148.014,378.172 146,386.5C 142.666,391.648 138.166,392.814 132.5,390C 126.375,382.456 127.709,376.623 136.5,372.5 Z" id="svg_70" stroke="#ffffff" stroke-opacity="1" fill-opacity="1"/></g><g id="svg_71" class="selected" stroke="#ffffff" stroke-opacity="1" fill="#ffffff" fill-opacity="1"><path style="opacity:1" fill="#ffffff" d="M 630.5,384.5 C 643.234,383.116 651.734,388.449 656,400.5C 657.37,415.64 650.537,424.64 635.5,427.5C 622.729,425.896 615.396,418.729 613.5,406C 614.978,395.372 620.644,388.205 630.5,384.5 Z" id="svg_72" stroke="#ffffff" stroke-opacity="1" fill-opacity="1"/></g><g id="svg_73" class="selected" stroke="#ffffff" stroke-opacity="1" fill="#ffffff" fill-opacity="1"><path style="opacity:1" fill="#ffffff" d="M 630.5,390.5 C 645.635,389.794 652.135,396.794 650,411.5C 645.39,420.595 638.223,423.429 628.5,420C 618.228,412.764 616.894,404.098 624.5,394C 626.437,392.538 628.437,391.372 630.5,390.5 Z" id="svg_74" stroke="#ffffff" stroke-opacity="1" fill-opacity="1"/></g><g id="svg_75" class="selected" stroke="#ffffff" stroke-opacity="1" fill="#ffffff" fill-opacity="1"><path style="opacity:1" fill="#ffffff" d="M 891.5,409.5 C 899.822,408.712 903.988,412.379 904,420.5C 901.792,427.11 897.292,429.276 890.5,427C 883.711,420.687 884.045,414.853 891.5,409.5 Z" id="svg_76" stroke="#ffffff" stroke-opacity="1" fill-opacity="1"/></g><g id="svg_77" class="selected" stroke="#ffffff" stroke-opacity="1" fill="#ffffff" fill-opacity="1"><path style="opacity:1" fill="#ffffff" d="M 521.5,433.5 C 521.167,517.668 521.501,601.668 522.5,685.5C 522.217,686.289 521.717,686.956 521,687.5C 520.168,602.666 520.334,517.999 521.5,433.5 Z" id="svg_78" stroke="#ffffff" stroke-opacity="1" fill-opacity="1"/></g><g id="svg_79" class="selected" stroke="#ffffff" stroke-opacity="1" fill="#ffffff" fill-opacity="1"><path style="opacity:1" fill="#ffffff" d="M 124.5,444.5 C 134.681,443.179 138.848,447.513 137,457.5C 134.565,462.224 130.731,463.724 125.5,462C 117.866,456.666 117.533,450.833 124.5,444.5 Z" id="svg_80" stroke="#ffffff" stroke-opacity="1" fill-opacity="1"/></g><g id="svg_81" class="selected" stroke="#ffffff" stroke-opacity="1" fill="#ffffff" fill-opacity="1"><path style="opacity:1" fill="#ffffff" d="M 895.5,456.5 C 900.54,455.686 904.206,457.52 906.5,462C 908.589,471.243 904.922,475.576 895.5,475C 889.548,472.14 887.715,467.64 890,461.5C 891.107,458.887 892.94,457.22 895.5,456.5 Z" id="svg_82" stroke="#ffffff" stroke-opacity="1" fill-opacity="1"/></g><g id="svg_83" class="selected" stroke="#ffffff" stroke-opacity="1" fill="#ffffff" fill-opacity="1"><path style="opacity:1" fill="#ffffff" d="M 132.5,515.5 C 142.961,518.569 144.961,524.402 138.5,533C 126.353,535.854 122.187,531.354 126,519.5C 127.792,517.372 129.958,516.039 132.5,515.5 Z" id="svg_84" stroke="#ffffff" stroke-opacity="1" fill-opacity="1"/></g><g id="svg_85" class="selected" stroke="#ffffff" stroke-opacity="1" fill="#ffffff" fill-opacity="1"><path style="opacity:1" fill="#ffffff" d="M 889.5,528.5 C 898.842,529.006 902.009,533.672 899,542.5C 895.146,546.671 890.646,547.504 885.5,545C 879.639,537.596 880.973,532.096 889.5,528.5 Z" id="svg_86" stroke="#ffffff" stroke-opacity="1" fill-opacity="1"/></g><g id="svg_87" class="selected" stroke="#ffffff" stroke-opacity="1" fill="#ffffff" fill-opacity="1"><path style="opacity:1" fill="#ffffff" d="M 414.5,548.5 C 429.903,547.234 438.903,554.234 441.5,569.5C 438.73,586.211 429.063,593.044 412.5,590C 398.794,582.546 395.294,571.713 402,557.5C 405.299,553.118 409.466,550.118 414.5,548.5 Z" id="svg_88" stroke="#ffffff" stroke-opacity="1" fill-opacity="1"/></g><g id="svg_89" class="selected" stroke="#ffffff" stroke-opacity="1" fill="#ffffff" fill-opacity="1"><path style="opacity:1" fill="#ffffff" d="M 416.5,553.5 C 427.714,553.048 434.047,558.381 435.5,569.5C 434.545,579.122 429.212,584.455 419.5,585.5C 407.425,583.031 402.592,575.698 405,563.5C 407.577,558.573 411.411,555.24 416.5,553.5 Z" id="svg_90" stroke="#ffffff" stroke-opacity="1" fill-opacity="1"/></g><g id="svg_91" class="selected" stroke="#ffffff" stroke-opacity="1" fill="#ffffff" fill-opacity="1"><path style="opacity:1" fill="#ffffff" d="M 148.5,585.5 C 157.799,586.042 161.299,590.708 159,599.5C 155.376,604.154 150.876,605.321 145.5,603C 139.641,595.809 140.641,589.975 148.5,585.5 Z" id="svg_92" stroke="#ffffff" stroke-opacity="1" fill-opacity="1"/></g><g id="svg_93" class="selected" stroke="#ffffff" stroke-opacity="1" fill="#ffffff" fill-opacity="1"><path style="opacity:1" fill="#ffffff" d="M 867.5,597.5 C 878.603,596.424 882.436,601.091 879,611.5C 875.95,615.13 872.117,616.297 867.5,615C 862.845,612.103 861.345,607.937 863,602.5C 864.707,600.963 866.207,599.296 867.5,597.5 Z" id="svg_94" stroke="#ffffff" stroke-opacity="1" fill-opacity="1"/></g><g id="svg_95" class="selected" stroke="#ffffff" stroke-opacity="1" fill="#ffffff" fill-opacity="1"><path style="opacity:1" fill="#ffffff" d="M 404.5,609.5 C 422.115,607.949 430.282,615.949 429,633.5C 423.694,647.067 414.194,651.234 400.5,646C 389.996,637.814 388.163,627.98 395,616.5C 397.79,613.535 400.957,611.202 404.5,609.5 Z" id="svg_96" stroke="#ffffff" stroke-opacity="1" fill-opacity="1"/></g><g id="svg_97" class="selected" stroke="#ffffff" stroke-opacity="1" fill="#ffffff" fill-opacity="1"><path style="opacity:1" fill="#ffffff" d="M 408.5,614.5 C 417.946,615.024 423.28,620.024 424.5,629.5C 421.142,641.341 413.809,644.841 402.5,640C 394.293,631.655 394.626,623.655 403.5,616C 405.382,615.802 407.048,615.302 408.5,614.5 Z" id="svg_98" stroke="#ffffff" stroke-opacity="1" fill-opacity="1"/></g><g id="svg_99" class="selected" stroke="#ffffff" stroke-opacity="1" fill="#ffffff" fill-opacity="1"><path style="opacity:1" fill="#ffffff" d="M 178.5,650.5 C 187.506,651.009 191.006,655.676 189,664.5C 184.005,670.768 178.672,671.102 173,665.5C 170.354,658.801 172.187,653.801 178.5,650.5 Z" id="svg_100" stroke="#ffffff" stroke-opacity="1" fill-opacity="1"/></g><g id="svg_101" class="selected" stroke="#ffffff" stroke-opacity="1" fill="#ffffff" fill-opacity="1"><path style="opacity:1" fill="#ffffff" d="M 836.5,661.5 C 844.935,661.101 848.768,665.101 848,673.5C 845.646,679.095 841.479,680.928 835.5,679C 830.691,675.893 829.191,671.727 831,666.5C 832.73,664.598 834.563,662.931 836.5,661.5 Z" id="svg_102" stroke="#ffffff" stroke-opacity="1" fill-opacity="1"/></g><g id="svg_103" class="selected" stroke="#ffffff" stroke-opacity="1" fill="#ffffff" fill-opacity="1"><path style="opacity:1" fill="#ffffff" d="M 414.5,663.5 C 428.187,664.015 434.687,671.015 434,684.5C 433.052,691.448 429.219,695.948 422.5,698C 405.688,699.854 398.188,692.354 400,675.5C 402.94,669.047 407.774,665.047 414.5,663.5 Z" id="svg_104" stroke="#ffffff" stroke-opacity="1" fill-opacity="1"/></g><g id="svg_105" class="selected" stroke="#ffffff" stroke-opacity="1" fill="#ffffff" fill-opacity="1"><path style="opacity:1" fill="#ffffff" d="M 412.5,669.5 C 427.153,669.319 431.653,675.986 426,689.5C 418.268,695.491 411.601,694.491 406,686.5C 403.341,678.977 405.507,673.31 412.5,669.5 Z" id="svg_106" stroke="#ffffff" stroke-opacity="1" fill-opacity="1"/></g><g id="svg_107" class="selected" stroke="#ffffff" stroke-opacity="1" fill="#ffffff" fill-opacity="1"><path style="opacity:1" fill="#ffffff" d="M 437.5,706.5 C 453.577,708.993 458.411,717.659 452,732.5C 441.188,741.521 431.855,740.188 424,728.5C 421.683,716.775 426.183,709.442 437.5,706.5 Z" id="svg_108" stroke="#ffffff" stroke-opacity="1" fill-opacity="1"/></g><g id="svg_109" class="selected" stroke="#ffffff" stroke-opacity="1" fill="#ffffff" fill-opacity="1"><path style="opacity:1" fill="#ffffff" d="M 218.5,709.5 C 230.167,708.892 234,713.892 230,724.5C 223.597,729.157 218.263,728.157 214,721.5C 212.478,716.241 213.978,712.241 218.5,709.5 Z" id="svg_110" stroke="#ffffff" stroke-opacity="1" fill-opacity="1"/></g><g id="svg_111" class="selected" stroke="#ffffff" stroke-opacity="1" fill="#ffffff" fill-opacity="1"><path style="opacity:1" fill="#ffffff" d="M 435.5,712.5 C 447.107,712.053 451.273,717.386 448,728.5C 441.119,735.537 435.119,734.87 430,726.5C 428.268,720.314 430.101,715.647 435.5,712.5 Z" id="svg_112" stroke="#ffffff" stroke-opacity="1" fill-opacity="1"/></g><g id="svg_113" class="selected" stroke="#ffffff" stroke-opacity="1" fill="#ffffff" fill-opacity="1"><path style="opacity:1" fill="#ffffff" d="M 794.5,718.5 C 803.008,718.833 806.175,723.166 804,731.5C 801.058,736.153 796.891,737.653 791.5,736C 786.391,732.634 785.224,728.134 788,722.5C 789.792,720.372 791.958,719.039 794.5,718.5 Z" id="svg_114" stroke="#ffffff" stroke-opacity="1" fill-opacity="1"/></g><g id="svg_115" class="selected" stroke="#ffffff" stroke-opacity="1" fill="#ffffff" fill-opacity="1"><path style="opacity:1" fill="#ffffff" d="M 465.5,739.5 C 478.466,739.968 483.966,746.635 482,759.5C 476.642,767.932 469.476,769.765 460.5,765C 451.812,754.546 453.479,746.046 465.5,739.5 Z" id="svg_116" stroke="#ffffff" stroke-opacity="1" fill-opacity="1"/></g><g id="svg_117" class="selected" stroke="#ffffff" stroke-opacity="1" fill="#ffffff" fill-opacity="1"><path style="opacity:1" fill="#ffffff" d="M 465.5,745.5 C 472.539,744.178 476.539,747.011 477.5,754C 476.655,758.845 473.822,761.678 469,762.5C 459.196,758.648 458.03,752.982 465.5,745.5 Z" id="svg_118" stroke="#ffffff" stroke-opacity="1" fill-opacity="1"/></g><g id="svg_119" class="selected" stroke="#ffffff" stroke-opacity="1" fill="#ffffff" fill-opacity="1"><path style="opacity:1" fill="#ffffff" d="M 273.5,758.5 C 282.386,759.958 285.22,764.958 282,773.5C 277.994,778.166 273.494,778.666 268.5,775C 263.372,767.331 265.039,761.831 273.5,758.5 Z" id="svg_120" stroke="#ffffff" stroke-opacity="1" fill-opacity="1"/></g><g id="svg_121" class="selected" stroke="#ffffff" stroke-opacity="1" fill="#ffffff" fill-opacity="1"><path style="opacity:1" fill="#ffffff" d="M 499.5,763.5 C 511.901,765.306 515.734,771.973 511,783.5C 504.333,790.167 497.667,790.167 491,783.5C 486.577,773.576 489.41,766.909 499.5,763.5 Z" id="svg_122" stroke="#ffffff" stroke-opacity="1" fill-opacity="1"/></g><g id="svg_123" class="selected" stroke="#ffffff" stroke-opacity="1" fill="#ffffff" fill-opacity="1"><path style="opacity:1" fill="#ffffff" d="M 738.5,766.5 C 748.878,766.031 752.712,770.698 750,780.5C 746.668,784.947 742.501,786.114 737.5,784C 730.893,777.733 731.226,771.9 738.5,766.5 Z" id="svg_124" stroke="#ffffff" stroke-opacity="1" fill-opacity="1"/></g><g id="svg_125" class="selected" stroke="#ffffff" stroke-opacity="1" fill="#ffffff" fill-opacity="1"><path style="opacity:1" fill="#ffffff" d="M 498.5,769.5 C 503.948,768.886 507.282,771.219 508.5,776.5C 505.803,782.537 501.637,783.87 496,780.5C 493.6,775.99 494.433,772.323 498.5,769.5 Z" id="svg_126" stroke="#ffffff" stroke-opacity="1" fill-opacity="1"/></g><g id="svg_127" class="selected" stroke="#ffffff" stroke-opacity="1" fill="#ffffff" fill-opacity="1"><path style="opacity:1" fill="#ffffff" d="M 330.5,798.5 C 340.659,797.158 344.826,801.491 343,811.5C 340.337,815.725 336.504,817.225 331.5,816C 325.975,813.081 324.142,808.581 326,802.5C 327.397,800.93 328.897,799.596 330.5,798.5 Z" id="svg_128" stroke="#ffffff" stroke-opacity="1" fill-opacity="1"/></g><g id="svg_129" class="selected" stroke="#ffffff" stroke-opacity="1" fill="#ffffff" fill-opacity="1"><path style="opacity:1" fill="#ffffff" d="M 678.5,803.5 C 685.647,803.192 689.647,806.526 690.5,813.5C 686.554,822.432 680.72,824.098 673,818.5C 669.816,811.551 671.65,806.551 678.5,803.5 Z" id="svg_130" stroke="#ffffff" stroke-opacity="1" fill-opacity="1"/></g><g id="svg_131" class="selected" stroke="#ffffff" stroke-opacity="1" fill="#ffffff" fill-opacity="1"><path style="opacity:1" fill="#ffffff" d="M 397.5,825.5 C 405.735,824.914 409.902,828.581 410,836.5C 405.598,844.558 399.932,845.558 393,839.5C 390.227,833.395 391.727,828.728 397.5,825.5 Z" id="svg_132" stroke="#ffffff" stroke-opacity="1" fill-opacity="1"/></g><g id="svg_133" class="selected" stroke="#ffffff" stroke-opacity="1" fill="#ffffff" fill-opacity="1"><path style="opacity:1" fill="#ffffff" d="M 610.5,828.5 C 620.954,828.773 624.454,833.773 621,843.5C 614.969,848.829 609.635,848.163 605,841.5C 603.571,835.7 605.404,831.367 610.5,828.5 Z" id="svg_134" stroke="#ffffff" stroke-opacity="1" fill-opacity="1"/></g><g id="svg_135" class="selected" stroke="#ffffff" stroke-opacity="1" fill="#ffffff" fill-opacity="1"><path style="opacity:1" fill="#ffffff" d="M 468.5,839.5 C 478.887,839.717 482.387,844.717 479,854.5C 473.375,859.935 468.042,859.602 463,853.5C 460.817,847.211 462.65,842.544 468.5,839.5 Z" id="svg_136" stroke="#ffffff" stroke-opacity="1" fill-opacity="1"/></g><g id="svg_137" class="selected" stroke="#ffffff" stroke-opacity="1" fill="#ffffff" fill-opacity="1"><path style="opacity:1" fill="#ffffff" d="M 542.5,840.5 C 551.066,842.303 553.9,847.303 551,855.5C 546.567,860.055 541.734,860.555 536.5,857C 532.772,852.669 532.605,848.169 536,843.5C 538.166,842.269 540.333,841.269 542.5,840.5 Z" id="svg_138" stroke="#ffffff" stroke-opacity="1" fill-opacity="1"/></g></g></svg>