<!-- icon666.com - MILLIONS vector ICONS FREE --><svg enable-background="new 0 0 256 256" viewBox="0 0 256 256" xmlns="http://www.w3.org/2000/svg"><g id="Layer_1"><g><path d="m214.243 90.909c0 38.388-56.019 123.648-77.76 155.292-4.091 5.954-12.874 5.954-16.965 0-21.741-31.644-77.76-116.904-77.76-155.292 0-47.63 38.612-86.243 86.243-86.243s86.242 38.613 86.242 86.243z" fill="#fc5d3d"></path><circle cx="128" cy="90.909" fill="#efefef" r="62.576"></circle><g><path d="m126.825 242.6c-1.138-.782-1.427-2.338-.645-3.477l1.692-2.47c.779-1.14 2.334-1.436 3.474-.655 1.141.778 1.434 2.333.656 3.474l-1.701 2.483c-.782 1.136-2.337 1.427-3.476.645zm7.327-10.749c-1.147-.769-1.455-2.321-.686-3.469 42.753-63.836 68.277-115.228 68.276-137.473 0-40.662-33.081-73.743-73.742-73.743-1.381 0-2.5-1.119-2.5-2.5s1.119-2.5 2.5-2.5c43.418 0 78.742 35.324 78.742 78.743 0 34.373-52.907 116.043-69.122 140.256-.768 1.147-2.322 1.453-3.468.686z" fill="#ffcbc3"></path></g><path d="m175.32 185.43c-1.15-.68-2.76-.26-3.43.88-.72 1.208-.287 2.724.88 3.42 1.228.726 2.754.27 3.42-.88.697-1.17.329-2.705-.87-3.42z"></path><path d="m128 2.17c-48.953 0-88.74 39.635-88.74 88.74.043 39.293 55.978 124.364 78.2 156.71 5.079 7.404 16.007 7.395 21.08 0 8-11.641 20.13-29.79 32.49-50.15.72-1.18.34-2.72-.84-3.44-1.123-.689-2.682-.379-3.43.841-12.32 20.279-24.38 38.34-32.34 49.92-3.106 4.499-9.734 4.5-12.84 0-21.37-31.099-77.408-116.444-77.32-153.88 0-46.288 37.448-83.74 83.74-83.74 46.301 0 83.74 37.448 83.74 83.74.052 23.746-22.993 66.163-34.83 86.77-.68 1.2-.27 2.73.93 3.41 1.16.67 2.75.229 3.41-.92 12.502-21.793 35.44-64.075 35.49-89.26 0-48.988-39.686-88.741-88.74-88.741z"></path><path d="m70.03 106.72c-.36-1.3-1.76-2.11-3.07-1.75-1.33.36-2.12 1.74-1.76 3.07.373 1.343 1.773 2.118 3.07 1.75 1.33-.36 2.12-1.74 1.76-3.07z"></path><path d="m128 155.99c36.197-.044 65.08-29.356 65.08-65.08 0-35.855-29.057-65.08-65.08-65.08-35.963 0-65.08 29.16-65.08 65.08 0 2.319.13 4.649.37 6.92.14 1.359 1.38 2.37 2.75 2.22 1.37-.14 2.36-1.38 2.22-2.75-.22-2.11-.34-4.26-.34-6.39.02-33.2 26.865-60.08 60.08-60.08 33.138 0 60.059 26.797 60.08 60.08-.02 33.239-26.887 60.069-60.08 60.069-23.51 0-44.99-13.83-54.72-35.239-.55-1.221-2.09-1.801-3.31-1.24-1.26.569-1.81 2.05-1.24 3.31 10.215 22.473 32.852 38.158 59.27 38.18z"></path><g><g><path d="m151.62 66.43v63.92c0 2.61-2.11 4.72-4.72 4.72h-43.66c-2.6 0-4.72-2.11-4.72-4.72v-51.14c.11 3.03 2.62 5.64 5.67 5.57 2.99-.07 5.4-2.52 5.4-5.53v7.94c0 3.29 2.88 5.91 6.26 5.48 2.79-.35 4.81-2.86 4.81-5.67v-13.03c0-4.16 3.38-7.54 7.55-7.54z" fill="#f0c020"></path></g><g><path d="m170.949 88.747v20.474c0 5.205-4.224 9.429-9.429 9.429h-9.901v-9.429h9.901v-20.474h-9.901v-9.429h9.901c5.205 0 9.429 4.224 9.429 9.429z" fill="#efefef"></path></g><g><path d="m142.19 128.14h-34.238c-1.381 0-2.5-1.119-2.5-2.5s1.119-2.5 2.5-2.5h31.738v-32.079c0-1.381 1.119-2.5 2.5-2.5s2.5 1.119 2.5 2.5v34.579c0 1.381-1.119 2.5-2.5 2.5zm0-44.579c-1.381 0-2.5-1.119-2.5-2.5v-3c0-1.381 1.119-2.5 2.5-2.5s2.5 1.119 2.5 2.5v3c0 1.38-1.119 2.5-2.5 2.5z" fill="#f8e5b0"></path></g><g><path d="m151.6 66.43h-23.39c-4.17 0-7.55 3.38-7.55 7.54v13.03c0 2.81-2.02 5.32-4.81 5.67-3.38.43-6.26-2.19-6.26-5.48v-7.94c0 3.01-2.41 5.46-5.4 5.53-3.05.07-5.56-2.54-5.67-5.57 0 0 0-8.809 0-8.9 0-2.06-.29-4.1-.79-6.1-1.85-7.29 3.2-15.52 12.58-15.52 7.471-16.116 31.452-12.263 33.48 5.37 5.75 1.02 9.38 6.8 7.81 12.37z" fill="#f8e5b0"></path></g><g><path d="m129.94 58.27c-1.38 0-2.5-1.12-2.5-2.5v-.47c0-1.38 1.12-2.5 2.5-2.5s2.5 1.12 2.5 2.5v.47c0 1.379-1.12 2.5-2.5 2.5z" fill="#f0c020"></path></g><g><path d="m113.9 64.17c-1.38 0-2.5-1.12-2.5-2.5v-.48c0-1.37 1.12-2.5 2.5-2.5s2.5 1.13 2.5 2.5v.48c0 1.38-1.12 2.5-2.5 2.5z" fill="#e8a61e"></path></g><g><path d="m120.97 52.85c-1.37 0-2.5-1.12-2.5-2.5v-.47c0-1.38 1.13-2.5 2.5-2.5 1.38 0 2.5 1.12 2.5 2.5v.47c0 1.379-1.12 2.5-2.5 2.5z" fill="#fff"></path></g><g><path d="m133.792 83.18c-1.381 0-2.5 1.119-2.5 2.5v32.97c0 1.381 1.119 2.5 2.5 2.5s2.5-1.119 2.5-2.5v-32.97c0-1.381-1.12-2.5-2.5-2.5z"></path><path d="m161.52 76.818h-7.399v-10.175c1.519-6.378-2.149-12.599-8.12-14.593-.72-3.54-2.4-6.83-4.84-9.521-.89-.979-2.55-1.06-3.53-.159-.954.855-1.149 2.442-.17 3.529h.01c2.15 2.37 3.47 5.29 3.84 8.44.12 1.09.96 1.99 2.04 2.18 4.446.778 6.517 5.334 6.11 7.41h-21.25c-5.549 0-10.05 4.512-10.05 10.04v13.031c0 1.6-1.147 3.004-2.625 3.189-1.814.234-3.444-1.211-3.444-3 0-4.176.001-10.459.001-12.625 0-1.381-1.119-2.5-2.5-2.5s-2.5 1.119-2.5 2.5v4.671c0 .005-.001.01-.001.015 0 1.688-1.415 3.029-2.976 3.029-1.665.004-3.055-1.56-3.094-3.159v-8.81c0-2.16-.29-4.42-.86-6.71-1.336-5.027 1.7-12.363 10.15-12.41.97 0 1.86-.569 2.27-1.449 1.8-3.881 5.15-6.841 9.21-8.11 1.342-.406 2.043-1.842 1.64-3.13-.41-1.29-1.84-2.04-3.14-1.641-4.91 1.54-9.01 4.881-11.54 9.4-10.026.869-15.643 10.178-13.44 18.56.47 1.9.71 3.74.71 5.49v60.04c0 3.981 3.239 7.221 7.22 7.221h43.66c3.981 0 7.22-3.239 7.22-7.221v-9.199h7.399c6.578 0 11.929-5.352 11.929-11.929v-20.475c-.001-6.577-5.353-11.929-11.93-11.929zm-7.4 14.429h4.899v15.475h-4.899zm-7.22 41.323h-43.66c-1.224 0-2.22-.996-2.22-2.221v-43.692c1.994.851 4.224.791 6.07.032 0 4.58 2.876 7.768 6.754 8.414v23.549c0 1.381 1.119 2.5 2.5 2.5s2.5-1.119 2.5-2.5v-24.357c2.58-1.374 4.316-4.147 4.316-7.295v-13.03c0-2.727 2.234-5.03 5.05-5.04h20.91v61.42c0 1.224-.996 2.22-2.22 2.22zm21.549-23.348c0 3.82-3.108 6.929-6.929 6.929h-7.399v-4.429h7.399c1.381 0 2.5-1.119 2.5-2.5v-20.475c0-1.381-1.119-2.5-2.5-2.5h-7.399v-4.429h7.399c3.821 0 6.929 3.108 6.929 6.929z"></path><path d="m130.24 41.47h.01c1.299.368 2.698-.409 3.07-1.75.36-1.34-.43-2.71-1.76-3.07-1.31-.359-2.72.46-3.07 1.761-.36 1.318.43 2.698 1.75 3.059z"></path></g></g></g></g></svg>