<!-- icon666.com - MILLIONS vector ICONS FREE --><svg enable-background="new 0 0 256 256" viewBox="0 0 256 256" xmlns="http://www.w3.org/2000/svg"><g id="Layer_1"><g><path d="m186.27 71.065v68.27l-46.75 38.28h-23.04l-46.75-38.28v-68.27c0-2.76 2.23-5 5-5h47.3v19.8c-9.21 2.61-15.99 11.02-15.99 21.13 0 10.13 6.81 18.55 15.99 21.13 3.908 1.111 8.058 1.103 11.94 0 9.22-2.6 15.98-11.07 15.98-21.13 0-9.9-6.61-18.47-15.98-21.13v-19.8h47.3c2.77 0 5 2.24 5 5z" fill="#efefef"></path><path d="m140.97 132.87v2.15c3.33 2.14 5.55 5.86 5.55 10.1v1.23c0 4.58-2.59 8.57-6.38 10.59l-1.12 9.54c-.41 3.53-3.4 6.19-6.95 6.19h-8.14c-3.55 0-6.54-2.66-6.95-6.19l-1.12-9.54c-3.79-2.02-6.38-6.01-6.38-10.59v-1.23c0-4.24 2.22-7.96 5.55-10.1v-2.14c-9.54-4.8-15.99-14.72-15.99-25.89s6.47-21.07 15.99-25.88v-15.04h7v19.79c-9.21 2.61-15.99 11.03-15.99 21.13 0 10.13 6.81 18.56 15.99 21.13 3.91 1.12 8.06 1.11 11.94 0 9.22-2.59 15.98-11.06 15.98-21.13 0-9.89-6.61-18.46-15.98-21.13v-19.79h7v15.04c9.54 4.81 15.98 14.73 15.98 25.88 0 11.19-6.46 21.08-15.98 25.88z" fill="#afafaf"></path><g fill="#f0c020"><path d="m69.73 119.595v80.23h-10.96v-80.23c0-3.03 2.45-5.48 5.48-5.48 3.037 0 5.48 2.44 5.48 5.48z"></path><path d="m58.77 209.445h10.96v42.34h-10.96z"></path><path d="m197.23 119.595v80.23h-10.96v-80.23c0-3.03 2.45-5.48 5.48-5.48 3.037 0 5.48 2.44 5.48 5.48z"></path><path d="m186.27 209.445h10.96v42.34h-10.96z"></path><path d="m136.523 189.903h-17.045c-1.657 0-3-1.343-3-3v-9.286h23.045v9.286c0 1.657-1.344 3-3 3z"></path><path d="m204.335 204.634c0 2.656-2.154 4.81-4.81 4.81h-143.047c-2.656 0-4.81-2.154-4.81-4.81 0-2.656 2.154-4.81 4.81-4.81h143.047c2.656 0 4.81 2.154 4.81 4.81z"></path></g><path d="m122.24 189.905h11.52v9.919h-11.52z" fill="#878787"></path><path d="m122.24 209.445h11.52v11.92h-11.52z" fill="#878787"></path><path d="m122.03 52.745v13.32h-46.23v-8.32c0-2.77 2.24-5 5-5z" fill="#f0c020"></path><path d="m180.2 57.745v8.32h-46.23v-13.32h41.23c2.76 0 5 2.23 5 5z" fill="#f0c020"></path><path d="m172.814 52.74h-11.939v-13.901c0-3.297 2.673-5.97 5.97-5.97 3.297 0 5.97 2.673 5.97 5.97v13.901z" fill="#878787"></path><path d="m95.12 52.74h-11.939v-13.901c0-3.297 2.673-5.97 5.97-5.97 3.297 0 5.97 2.673 5.97 5.97v13.901z" fill="#878787"></path><path d="m133.97 128.12v12h-11.94v-12c3.91 1.12 8.06 1.11 11.94 0z" fill="#7d7b79"></path><path d="m133.97 10.185v8.9h-11.94v-8.9c0-3.3 2.67-5.97 5.97-5.97 3.29 0 5.97 2.68 5.97 5.97z" fill="#878787"></path><path d="m133.97 38.84v47.02c-1.9-.53-3.9-.82-5.98-.82-2.06 0-4.06.29-5.96.82v-47.02c0-3.3 2.67-5.98 5.97-5.98 3.29 0 5.97 2.69 5.97 5.98z" fill="#878787"></path><path d="m160.88 29.085v23.65h-26.91v-13.9c0-3.29-2.68-5.97-5.97-5.97-3.3 0-5.97 2.67-5.97 5.97v13.9h-26.91v-23.65c0-5.52 4.48-10 10-10h45.76c5.52 0 10 4.48 10 10z" fill="#efefef"></path><path d="m140.97 38.835v13.9h-7v-13.9c0-3.29-2.68-5.97-5.97-5.97-3.3 0-5.97 2.67-5.97 5.97v13.9h-7v-13.9c0-7.15 5.82-12.97 12.97-12.97s12.97 5.82 12.97 12.97z" fill="#afafaf"></path><path d="m149.95 106.99c0 10.07-6.76 18.54-15.98 21.13-3.88 1.11-8.03 1.12-11.94 0-9.18-2.57-15.99-11-15.99-21.13 0-10.1 6.78-18.52 15.99-21.13 1.9-.53 3.9-.82 5.96-.82 2.08 0 4.08.29 5.98.82 9.37 2.67 15.98 11.24 15.98 21.13z" fill="#f0c020"></path><path d="m133.97 78.67v7.19c-1.9-.53-3.9-.82-5.98-.82-2.06 0-4.06.29-5.96.82v-7.2c3.84-.81 7.92-.85 11.94.01z" fill="#7d7b79"></path><path d="m139.52 145.12v1.23c0 2.76-2.24 5-5 5h-13.04c-2.76 0-5-2.24-5-5v-1.23c0-2.76 2.24-5 5-5h13.04c2.76 0 5 2.24 5 5z" fill="#f0c020"></path><path d="m139.52 226.365v1.223c0 2.761-2.239 5-5 5h-13.04c-2.761 0-5-2.239-5-5v-1.223c0-2.761 2.239-5 5-5h13.04c2.761 0 5 2.239 5 5z" fill="#f0c020"></path><path d="m133.75 232.585-.82 7-.86 7.32h-8.14l-.86-7.32-.82-7z" fill="#afafaf"></path><path d="m133.75 232.585-.82 7h-9.86l-.82-7z" fill="#878787"></path><g fill="#e8a61e"><path d="m115.03 52.745v6.32h-39.23v7h46.23c0-5.324 0-8.75 0-13.32z"></path><path d="m140.97 59.065v-6.32h-7v13.32h46.23v-7c-32.19 0-18.685 0-39.23 0z"></path></g><path d="m58.77 192.825h10.96v7h-10.96z" fill="#e8a61e"></path><path d="m58.77 209.445h10.96v7h-10.96z" fill="#e8a61e"></path><path d="m186.27 192.825h10.96v7h-10.96z" fill="#e8a61e"></path><path d="m186.27 209.445h10.96v7h-10.96z" fill="#e8a61e"></path><g><path d="m133.75 151.348-.82 7-.86 7.319h-8.14l-.86-7.319-.82-7z" fill="#afafaf"></path><path d="m133.75 151.349-.82 7h-9.86l-.82-7z" fill="#7d7b79"></path></g><g><path d="m46.742 102.448c-3.726-1.227-6.637-2.021-8.586-10.415-.634-2.735-4.545-2.728-5.178 0-1.906 8.207-4.563 9.086-8.586 10.415-2.423.8-2.428 4.245 0 5.047 6.682 2.207 7.439 5.472 8.585 10.414.637 2.741 4.542 2.74 5.179 0 1.904-8.207 4.706-9.133 8.585-10.414 2.424-.8 2.429-4.245.001-5.047z"></path><path d="m39.548 105c-1.467 1.033-2.789 2.422-3.922 4.434-.944-1.589-2.256-3.089-4.167-4.4 1.545-1.067 2.933-2.5 4.122-4.633 1.2 2.154 2.555 3.587 3.967 4.599z" fill="#f0c020"></path></g><g><path d="m231.607 102.448c-3.726-1.227-6.637-2.021-8.586-10.415-.634-2.735-4.545-2.728-5.178 0-1.906 8.207-4.563 9.086-8.586 10.415-2.423.8-2.428 4.245 0 5.047 6.682 2.207 7.439 5.472 8.585 10.414.637 2.741 4.542 2.74 5.179 0 1.904-8.207 4.706-9.133 8.585-10.414 2.424-.8 2.43-4.245.001-5.047z"></path><path d="m224.413 105c-1.467 1.033-2.789 2.422-3.922 4.434-.944-1.589-2.256-3.089-4.167-4.4 1.545-1.067 2.933-2.5 4.122-4.633 1.2 2.154 2.556 3.587 3.967 4.599z" fill="#f0c020"></path></g><path d="m222.455 249.285h-22.725v-37.351c3.935-.11 7.104-3.338 7.104-7.3s-3.169-7.189-7.104-7.3v-77.74c0-4.4-3.58-7.98-7.98-7.98-1.054 0-2.058.21-2.98.583v-41.127-.005c0-.022-.003-.042-.003-.064-.042-3.598-2.61-6.614-6.067-7.297v-5.959c0-4.097-3.303-7.433-7.386-7.494v-11.412c0-4.67-3.799-8.47-8.469-8.47-1.235 0-2.406.272-3.465.749v-2.028c0-2.48-.72-4.87-2.09-6.92-.74-1.11-2.35-1.44-3.47-.7-1.16.781-1.444 2.329-.69 3.47.82 1.23 1.25 2.66 1.25 4.15 0 9.746-.005 6.731-.005 21.14h-21.905v-11.39-.005c0-4.67-3.799-8.47-8.47-8.47-4.66 0-8.463 3.789-8.47 8.475v11.39h-21.91c0-12.402 0-8.736 0-21.14.01-4.13 3.37-7.5 7.5-7.51h35.61c1.37 0 2.5-1.12 2.5-2.49 0-1.38-1.13-2.5-2.5-2.5h-4.26v-6.405c0-4.67-3.799-8.47-8.47-8.47s-8.47 3.8-8.47 8.47v6.405h-14.41c-6.89 0-12.5 5.6-12.5 12.5v2.031c-1.06-.479-2.232-.751-3.469-.751-4.67 0-8.469 3.799-8.469 8.47v11.412c-4.082.063-7.382 3.397-7.382 7.493v5.959c-3.448.678-6.061 3.725-6.07 7.366v41.135c-.922-.374-1.927-.585-2.98-.585-4.39 0-7.97 3.58-7.98 7.97v21.43c0 1.37 1.12 2.49 2.5 2.49s2.5-1.12 2.5-2.49v-21.43c0-1.64 1.34-2.97 2.98-2.98 1.67.01 2.97 1.32 2.98 2.98v77.734h-5.96v-36.304c0-1.38-1.12-2.5-2.5-2.5s-2.5 1.12-2.5 2.5v36.315c-3.934.112-7.102 3.339-7.102 7.3s3.168 7.188 7.102 7.3v37.351h-22.725c-1.381 0-2.5 1.119-2.5 2.5s1.119 2.5 2.5 2.5h188.91c1.381 0 2.5-1.119 2.5-2.5s-1.119-2.501-2.5-2.501zm-97.925-239.1c0-1.914 1.557-3.47 3.47-3.47s3.47 1.557 3.47 3.47v6.4h-6.939v-6.4zm67.22 106.43c1.671 0 2.98 1.309 2.98 2.98v77.729h-5.96c0-9.096 0-69.031 0-77.729 0-1.643 1.337-2.98 2.98-2.98zm-28.37-77.824c.027-1.89 1.568-3.421 3.465-3.421 1.913 0 3.469 1.557 3.469 3.47v11.4h-6.934zm-26.91 16.454h38.73c1.378 0 2.5 1.122 2.5 2.5v5.815h-41.23zm-11.94-16.41c0-.009.003-.018.003-.027.015-1.882 1.58-3.442 3.467-3.442 1.794 0 3.47 1.494 3.47 3.475v43.943c-.976-.14-2.334-.248-3.479-.248-1.15 0-2.458.103-3.46.247-.001-8.813-.001-35.035-.001-43.948zm22.92 68.16c0 8.673-5.822 16.373-14.164 18.725-3.458.983-7.114.982-10.58-.002-8.341-2.344-14.167-10.043-14.167-18.723 0-10.975 9.029-19.448 19.397-19.47 10.841-.024 19.514 8.826 19.514 19.47zm-25.97 41.853c-1.378 0-2.5-1.122-2.5-2.5v-1.223c0-1.378 1.122-2.5 2.5-2.5h13.04c1.378 0 2.5 1.122 2.5 2.5v1.223c0 1.378-1.122 2.5-2.5 2.5-4.901 0-8.239 0-13.04 0zm9.46 5-1.093 9.32h-3.693l-1.093-9.32zm-6.41-16.223v-6.416c2.432.344 4.674.317 6.939 0v6.416zm-38.849-98.786c0-1.913 1.556-3.47 3.469-3.47 1.911 0 3.467 1.554 3.469 3.465v11.406h-6.938zm-7.381 18.906c0-1.378 1.122-2.5 2.5-2.5h38.73v8.32c-25.607 0-16.122.001-41.23-.004zm-6.07 13.325c0-1.38 1.12-2.51 2.5-2.51h44.8v15.496c-9.503 3.512-15.99 12.683-15.99 22.939 0 10.268 6.49 19.44 15.99 22.941v7.954c-3.192.861-5.55 3.773-5.55 7.234v1.223c0 3.632 2.596 6.668 6.029 7.353l1.438 12.259c.148 1.259 1.215 2.208 2.483 2.208h8.14c1.268 0 2.335-.949 2.483-2.208l1.438-12.259c3.434-.686 6.029-3.721 6.029-7.353v-1.223c0-3.46-2.359-6.373-5.55-7.234v-7.956c9.497-3.511 15.98-12.681 15.98-22.939 0-10.266-6.485-19.438-15.98-22.94v-15.49h44.8c1.378 0 2.5 1.122 2.5 2.5v67.085l-11.91 9.75c-1.06.87-1.22 2.45-.35 3.52.888 1.073 2.473 1.206 3.52.35l8.74-7.159v52.713h-47.51v-4.921h.263c3.033 0 5.5-2.467 5.5-5.5v-8.109l17.538-14.354c1.117-.943 1.183-2.488.35-3.52-.84-1.02-2.48-1.19-3.51-.36l-.01.01-17.757 14.547h-21.266l-45.138-36.967c0-6.623 0-60.363 0-67.08zm47.248 116.333c-.276 0-.5-.224-.5-.5v-6.784h18.045v6.784c0 .276-.224.5-.5.5zm11.782 5.002v4.919h-6.52v-4.919zm-59.03-47.794 41.748 34.184v8.109c0 3.033 2.467 5.5 5.5 5.5h.263v4.921h-47.511zm-5 104.674h-5.96v-37.34h5.96zm5 0v-37.341h47.51v7.133c-3.298.788-5.76 3.752-5.76 7.288v1.223c0 3.632 2.596 6.668 6.029 7.353l1.438 12.256c.118 1.004.825 1.803 1.749 2.088zm62.29-25.42c1.378 0 2.5 1.122 2.5 2.5v1.223c0 1.378-1.122 2.5-2.5 2.5-.001 0-13.039 0-13.04 0-1.378 0-2.5-1.122-2.5-2.5v-1.223c0-1.378 1.122-2.5 2.5-2.5zm-9.78-5v-6.92h6.52v6.92zm5.107 25.54h-3.693l-1.093-9.317h5.879zm53.923 4.88h-50.966c.924-.285 1.631-1.083 1.749-2.088l1.438-12.256c3.434-.686 6.029-3.721 6.029-7.353v-1.223c0-3.536-2.462-6.5-5.76-7.288v-7.133h47.51zm10.96 0h-5.96v-37.34h5.96zm-138.252-42.341c-1.274 0-2.31-1.036-2.31-2.31s1.036-2.31 2.31-2.31h143.046c1.274 0 2.31 1.036 2.31 2.31s-1.036 2.31-2.31 2.31z"></path><g><path d="m145.137 160.091c-.875-1.068-.718-2.644.35-3.518l28.283-23.158v-44.35c0-1.381 1.119-2.5 2.5-2.5s2.5 1.119 2.5 2.5v45.533c0 .75-.336 1.459-.916 1.934l-29.199 23.908c-1.067.875-2.643.72-3.518-.349zm31.133-78.526c-1.381 0-2.5-1.119-2.5-2.5v-3c0-1.381 1.119-2.5 2.5-2.5s2.5 1.119 2.5 2.5v3c0 1.381-1.119 2.5-2.5 2.5z" fill="#fff"></path></g><path d="m139.079 98.75 1.128-1.213c.94-1.011.882-2.593-.129-3.533s-2.593-.883-3.533.129l-1.202 1.293c-2.145-1.317-4.658-2.091-7.355-2.091-7.773 0-14.097 6.331-14.097 14.112 0 2.909.891 5.712 2.577 8.107.796 1.129 2.355 1.399 3.483.605 1.129-.795 1.4-2.354.605-3.483-1.09-1.548-1.666-3.356-1.666-5.229 0-5.024 4.081-9.112 9.097-9.112 1.376 0 2.677.315 3.848.864l-5.665 6.094c-.94 1.011-.882 2.593.129 3.533 1.009.938 2.591.884 3.533-.129l5.782-6.221c.936 1.431 1.485 3.137 1.485 4.97 0 1.875-.573 3.686-1.656 5.237-.791 1.132-.514 2.69.619 3.481 1.129.789 2.689.515 3.481-.619 3.535-5.06 3.429-11.841-.464-16.795z"></path><path d="m167.3 158.1c1.06-.87 1.22-2.45.35-3.52-.84-1.02-2.49-1.19-3.52-.35-1.07.88-1.23 2.46-.35 3.52.865 1.067 2.443 1.235 3.52.35z"></path><path d="m58.77 153.51c1.38 0 2.5-1.12 2.5-2.49 0-1.38-1.12-2.5-2.5-2.5s-2.5 1.12-2.5 2.5c0 1.37 1.12 2.49 2.5 2.49z"></path><path d="m153.23 19.09c0-1.38-1.13-2.5-2.5-2.5-1.38 0-2.5 1.12-2.5 2.5 0 1.37 1.12 2.49 2.5 2.49 1.37 0 2.5-1.12 2.5-2.49z"></path></g></g></svg>