<?xml version="1.0" encoding="UTF-8"?>
<!DOCTYPE svg PUBLIC "-//W3C//DTD SVG 1.1//EN" "http://www.w3.org/Graphics/SVG/1.1/DTD/svg11.dtd">
<svg xmlns="http://www.w3.org/2000/svg" version="1.1" width="2084px" height="2084px" style="shape-rendering:geometricPrecision; text-rendering:geometricPrecision; image-rendering:optimizeQuality; fill-rule:evenodd; clip-rule:evenodd" xmlns:xlink="http://www.w3.org/1999/xlink">
<g><path style="opacity:0.998" fill="#fefefe" d="M 1034.5,277.5 C 1238.06,278.683 1414.39,347.516 1563.5,484C 1720.57,635.713 1800.91,821.379 1804.5,1041C 1800.53,1268.55 1715.19,1458.89 1548.5,1612C 1382.18,1755.55 1188.84,1818.55 968.5,1801C 755.119,1777.25 580.619,1683.08 445,1518.5C 317.584,1354.85 263.251,1169.19 282,961.5C 305.783,760.404 393.283,593.571 544.5,461C 685.849,342.547 849.182,281.381 1034.5,277.5 Z"/></g>
<g><path style="opacity:1" fill="#472f22" d="M 1053.5,491.5 C 1080.81,492.836 1108.14,493.67 1135.5,494C 1151.95,499.227 1167.28,506.56 1181.5,516C 1184.54,518.703 1187.2,521.703 1189.5,525C 1220.59,537.093 1243.76,557.926 1259,587.5C 1264.12,607.328 1264.79,627.328 1261,647.5C 1258.95,650.929 1257.45,654.596 1256.5,658.5C 1256.69,660.577 1257.19,662.577 1258,664.5C 1267.53,676.824 1270.7,690.657 1267.5,706C 1266.39,711.607 1264.89,717.107 1263,722.5C 1254.94,741.617 1246.61,760.617 1238,779.5C 1231.81,793.549 1229.81,808.215 1232,823.5C 1233.09,833.866 1234.42,844.199 1236,854.5C 1249.36,856.684 1260.36,863.017 1269,873.5C 1277,888.179 1286,902.179 1296,915.5C 1306.28,927.786 1318.78,936.953 1333.5,943C 1381.31,959.572 1427.98,978.905 1473.5,1001C 1494.71,1013.54 1513.54,1029.04 1530,1047.5C 1532.22,1051.27 1533.89,1055.27 1535,1059.5C 1536.86,1069.28 1539.2,1078.95 1542,1088.5C 1547.33,1102.5 1552.67,1116.5 1558,1130.5C 1561.02,1143.92 1564.35,1157.25 1568,1170.5C 1574.34,1189.36 1580.18,1208.36 1585.5,1227.5C 1573.24,1225.29 1560.91,1223.62 1548.5,1222.5C 1548.67,1215.49 1548.5,1208.49 1548,1201.5C 1546.02,1195.58 1544.35,1189.58 1543,1183.5C 1542.73,1173.14 1542.06,1162.81 1541,1152.5C 1536.25,1135.66 1530.92,1119 1525,1102.5C 1521.71,1090.68 1519.38,1078.68 1518,1066.5C 1514.07,1053.9 1506.41,1044.24 1495,1037.5C 1488.56,1044.03 1483.9,1051.7 1481,1060.5C 1476.33,1075.17 1471.67,1089.83 1467,1104.5C 1463.81,1112.22 1459.14,1118.88 1453,1124.5C 1455.33,1108.47 1458.33,1092.47 1462,1076.5C 1464.39,1066.32 1467.39,1056.32 1471,1046.5C 1472.57,1037.6 1474.4,1028.77 1476.5,1020C 1461.33,1013.41 1446.66,1005.74 1432.5,997C 1406.55,986.24 1380.39,976.074 1354,966.5C 1352.96,967.623 1352.29,968.956 1352,970.5C 1343.67,1016.84 1335.67,1063.17 1328,1109.5C 1326.54,1111.89 1324.37,1112.89 1321.5,1112.5C 1316.53,1111.34 1311.53,1110.34 1306.5,1109.5C 1306.22,1112.39 1307.55,1113.89 1310.5,1114C 1312.05,1115.21 1313.22,1116.71 1314,1118.5C 1313.97,1131.5 1313.97,1144.5 1314,1157.5C 1317.09,1173.84 1322.59,1189.34 1330.5,1204C 1215.67,1195.67 1100.67,1192.34 985.5,1194C 946.946,1194.22 908.446,1195.72 870,1198.5C 868.833,1198.17 867.667,1197.83 866.5,1197.5C 874.544,1170.21 885.044,1143.87 898,1118.5C 899.167,1117.33 900.333,1116.17 901.5,1115C 905.167,1114.67 908.833,1114.33 912.5,1114C 914.797,1112.74 915.63,1110.9 915,1108.5C 895.311,1117.47 889.311,1112.13 897,1092.5C 900.71,1061.29 905.71,1030.29 912,999.5C 914.241,988.862 917.741,978.696 922.5,969C 896.489,969.922 872.156,976.922 849.5,990C 835.833,994.333 822.167,998.667 808.5,1003C 802.897,1005.05 798.064,1008.21 794,1012.5C 793.333,1015.17 793.333,1017.83 794,1020.5C 801.922,1032.92 807.922,1046.25 812,1060.5C 813.02,1083.57 812.353,1106.57 810,1129.5C 808.63,1123.91 807.63,1118.24 807,1112.5C 806.33,1097.76 804.996,1083.1 803,1068.5C 800.017,1055.21 794.85,1042.87 787.5,1031.5C 786.998,1030.48 786.332,1030.31 785.5,1031C 778.967,1037.44 771.301,1042.1 762.5,1045C 756.355,1050.9 750.022,1056.57 743.5,1062C 733.63,1072.3 724.13,1082.8 715,1093.5C 713.06,1099.99 710.727,1106.32 708,1112.5C 704.724,1118.11 701.057,1123.44 697,1128.5C 695.991,1136.42 694.491,1144.26 692.5,1152C 685.529,1168.11 678.695,1184.28 672,1200.5C 669.723,1203.4 667.223,1206.07 664.5,1208.5C 662.485,1196.2 660.651,1183.86 659,1171.5C 652.909,1149.55 649.076,1127.21 647.5,1104.5C 644.696,1106.14 642.029,1107.97 639.5,1110C 637.597,1110.77 635.93,1110.44 634.5,1109C 641.917,1102.59 649.083,1095.75 656,1088.5C 661.085,1082 665.418,1075 669,1067.5C 670.262,1062.21 670.596,1056.88 670,1051.5C 669.484,1048.97 668.317,1046.8 666.5,1045C 654.727,1041.37 644.894,1034.87 637,1025.5C 630.37,1012.57 632.87,1001.73 644.5,993C 661.502,982.08 680.168,976.413 700.5,976C 701.38,974.644 701.714,973.144 701.5,971.5C 678.916,971.545 656.916,975.045 635.5,982C 631.848,982.499 628.182,982.665 624.5,982.5C 624.33,981.178 624.663,980.011 625.5,979C 629.918,978.792 634.251,978.126 638.5,977C 634.5,976.667 630.5,976.333 626.5,976C 623.64,974.924 620.64,974.091 617.5,973.5C 618.376,972.749 619.376,972.249 620.5,972C 638.72,973.976 656.72,972.31 674.5,967C 678.547,963.308 683.214,960.641 688.5,959C 696.411,957.344 704.411,956.344 712.5,956C 718.713,954.227 724.713,951.894 730.5,949C 741.272,946.76 751.939,944.093 762.5,941C 765.726,939.894 768.393,938.061 770.5,935.5C 760.93,935.55 751.263,935.384 741.5,935C 739.773,932.096 739.107,928.93 739.5,925.5C 719.443,925.793 699.443,926.96 679.5,929C 679,929.5 678.5,930 678,930.5C 677.829,935.533 677.329,940.533 676.5,945.5C 672.935,940.406 672.602,935.072 675.5,929.5C 671.878,928.341 668.211,928.175 664.5,929C 663.167,936.828 664.833,943.995 669.5,950.5C 669.167,950.833 668.833,951.167 668.5,951.5C 661.424,946.67 658.757,940.004 660.5,931.5C 650.762,934.858 640.762,937.358 630.5,939C 626.5,939.667 622.5,939.667 618.5,939C 616.579,938.64 614.912,937.806 613.5,936.5C 621.371,936.039 629.037,934.539 636.5,932C 640.743,924.711 647.076,920.711 655.5,920C 658.833,915.333 662.833,911.333 667.5,908C 675.426,905.151 683.592,903.317 692,902.5C 693.713,901.863 693.879,900.863 692.5,899.5C 693.333,899.167 694.167,898.833 695,898.5C 710.721,898.557 725.554,895.057 739.5,888C 740.833,886.667 742.167,885.333 743.5,884C 735.833,883.667 728.167,883.333 720.5,883C 713.372,880.242 710.872,875.076 713,867.5C 714.644,864.689 716.81,862.356 719.5,860.5C 712.988,857.961 706.488,857.961 700,860.5C 698.653,867.103 697.487,873.77 696.5,880.5C 694.374,874.249 694.041,867.916 695.5,861.5C 676.908,865.318 658.242,868.818 639.5,872C 636.458,880.418 637.292,888.585 642,896.5C 642.667,898.5 642.667,900.5 642,902.5C 635.389,894.429 632.555,885.095 633.5,874.5C 625.314,881.854 616.981,889.02 608.5,896C 606.457,897.708 604.79,899.708 603.5,902C 602.365,902.749 601.365,902.583 600.5,901.5C 609.627,892.204 618.627,882.704 627.5,873C 629.5,871.667 631.5,870.333 633.5,869C 630.447,868.821 627.447,868.321 624.5,867.5C 632.777,866.893 640.277,864.226 647,859.5C 647.311,858.258 646.811,857.258 645.5,856.5C 654.977,855.174 663.977,852.341 672.5,848C 679.917,842.67 683.084,835.503 682,826.5C 681.883,829.911 680.383,832.411 677.5,834C 668.788,837.43 659.788,838.763 650.5,838C 645.776,835.565 644.276,831.731 646,826.5C 647.123,823.751 648.623,821.251 650.5,819C 638.493,822.117 626.826,826.45 615.5,832C 610.333,834.5 606.5,838.333 604,843.5C 602.892,851.941 606.392,857.608 614.5,860.5C 611.278,861.758 608.278,861.258 605.5,859C 603.548,856.926 601.715,854.759 600,852.5C 597.871,859.348 596.538,866.348 596,873.5C 593.585,878.321 591.752,883.321 590.5,888.5C 590.984,893.984 593.984,896.651 599.5,896.5C 599.5,897.5 599.5,898.5 599.5,899.5C 595.936,899.312 592.603,898.312 589.5,896.5C 586.099,907.203 582.599,917.87 579,928.5C 578.333,933.833 578.333,939.167 579,944.5C 583.13,959.542 584.964,974.876 584.5,990.5C 583.758,1013.29 581.591,1035.96 578,1058.5C 577.027,1056.61 576.36,1054.61 576,1052.5C 575.667,1053.17 575.333,1053.83 575,1054.5C 574.132,1064.52 573.132,1074.52 572,1084.5C 569.108,1091.72 565.774,1098.72 562,1105.5C 554.775,1145.01 543.608,1183.34 528.5,1220.5C 517.879,1222.39 507.212,1223.05 496.5,1222.5C 518.145,1180.22 537.311,1136.88 554,1092.5C 556.886,1069.29 560.886,1046.29 566,1023.5C 566.667,1003.5 566.667,983.5 566,963.5C 562.254,945.998 562.921,928.664 568,911.5C 576.377,888.37 582.711,864.703 587,840.5C 588.646,834.032 592.146,828.865 597.5,825C 608.486,818.257 619.986,812.423 632,807.5C 640.431,767.774 650.431,728.441 662,689.5C 665.014,680.624 670.514,673.791 678.5,669C 689.716,662.889 701.716,659.556 714.5,659C 741.499,656.003 766.499,661.67 789.5,676C 799.071,682.227 805.571,690.727 809,701.5C 812.926,732.502 816.926,763.502 821,794.5C 829.341,834.463 821.008,870.463 796,902.5C 790.257,908.747 784.091,914.414 777.5,919.5C 784.852,932.648 781.852,942.815 768.5,950C 758.488,953.753 748.155,956.086 737.5,957C 735.893,958.049 735.227,959.549 735.5,961.5C 745.174,961.371 753.674,964.371 761,970.5C 762.805,974.386 764.305,978.386 765.5,982.5C 775.166,985.545 783.5,990.545 790.5,997.5C 817.694,987.936 844.36,977.103 870.5,965C 894.217,959.073 918.217,954.406 942.5,951C 947.679,950.161 951.846,947.661 955,943.5C 960.246,928.258 966.746,913.591 974.5,899.5C 963.635,886.44 954.802,872.107 948,856.5C 945.533,849.63 943.533,842.63 942,835.5C 940.149,808.511 938.482,781.511 937,754.5C 934.34,734.205 932.006,713.871 930,693.5C 929.428,676.329 929.595,659.162 930.5,642C 929.928,628.329 929.262,614.662 928.5,601C 928.677,573.976 939.677,552.643 961.5,537C 976.998,527.833 991.665,517.5 1005.5,506C 1020.6,497.795 1036.6,492.962 1053.5,491.5 Z"/></g>
<g><path style="opacity:1" fill="#fdfdfd" d="M 1089.5,506.5 C 1095.64,505.51 1101.98,505.177 1108.5,505.5C 1123.7,505.384 1138.04,508.884 1151.5,516C 1159.34,520.751 1167,525.751 1174.5,531C 1180.59,537.09 1185.93,543.756 1190.5,551C 1194.65,553.106 1198.48,552.606 1202,549.5C 1244.27,572.718 1258.27,607.385 1244,653.5C 1242.83,654.667 1241.67,655.833 1240.5,657C 1227.64,656.347 1217.48,661.18 1210,671.5C 1208.09,674.206 1207.26,677.206 1207.5,680.5C 1209.2,680.66 1210.87,680.494 1212.5,680C 1214.97,673.191 1219.31,667.857 1225.5,664C 1229.74,662.543 1234.07,662.209 1238.5,663C 1241,664.167 1242.83,666 1244,668.5C 1247.48,673.784 1250.14,679.451 1252,685.5C 1255.71,716.058 1245.87,741.224 1222.5,761C 1215.38,765.499 1210.54,763.666 1208,755.5C 1207.67,751.833 1207.33,748.167 1207,744.5C 1205,743.167 1203,743.167 1201,744.5C 1199.75,751.215 1200.75,757.548 1204,763.5C 1207.88,767.844 1212.71,769.511 1218.5,768.5C 1214.75,810.097 1216.58,851.43 1224,892.5C 1225.63,898.88 1227.8,905.047 1230.5,911C 1233.86,912.293 1235.86,911.293 1236.5,908C 1232.66,898.153 1230,887.986 1228.5,877.5C 1238.36,878.85 1245.19,884.183 1249,893.5C 1249.81,898.257 1249.48,902.924 1248,907.5C 1236.63,925.87 1222.13,941.37 1204.5,954C 1182.67,963.5 1160,970.167 1136.5,974C 1122.17,974.667 1107.83,974.667 1093.5,974C 1075.32,969.939 1057.65,964.272 1040.5,957C 1025.13,951.098 1017.63,939.931 1018,923.5C 1023.33,929.16 1029.49,933.66 1036.5,937C 1045.88,939.793 1055.21,942.793 1064.5,946C 1070,948.245 1075,951.245 1079.5,955C 1083.4,956.249 1084.73,955.083 1083.5,951.5C 1071.34,943.384 1058,937.884 1043.5,935C 1039.6,933.435 1035.93,931.435 1032.5,929C 1055.27,933.904 1077.27,931.404 1098.5,921.5C 1100.34,915.916 1098.34,914.083 1092.5,916C 1063.99,927.823 1036.66,925.489 1010.5,909C 1006.34,906.336 1002.34,903.503 998.5,900.5C 998.5,899.833 998.833,899.5 999.5,899.5C 1024.7,907.957 1048.7,905.123 1071.5,891C 1077.38,886.46 1081.71,880.794 1084.5,874C 1084.33,873.5 1084.17,873 1084,872.5C 1072.65,887.599 1057.48,896.099 1038.5,898C 1020.93,902.874 1005.43,899.374 992,887.5C 987.382,880.819 984.215,873.486 982.5,865.5C 981.426,872.886 982.759,879.886 986.5,886.5C 985.645,887.293 984.811,886.96 984,885.5C 960.952,854.649 951.952,819.982 957,781.5C 953.879,761.292 952.712,740.958 953.5,720.5C 956.056,720.868 958.056,720.034 959.5,718C 958.5,716.333 957.5,714.667 956.5,713C 957.207,710.46 958.873,709.293 961.5,709.5C 961.318,711.591 961.652,713.591 962.5,715.5C 964.893,717.363 967.56,718.696 970.5,719.5C 967.144,720.486 963.81,720.653 960.5,720C 965.182,725.222 970.515,725.889 976.5,722C 980.167,719 983.833,716 987.5,713C 983.97,712.328 982.637,710.162 983.5,706.5C 985.833,706.5 988.167,706.5 990.5,706.5C 990.664,709.187 990.497,711.854 990,714.5C 984.41,724.759 979.743,735.426 976,746.5C 972.952,755.961 974.452,764.461 980.5,772C 980.238,774.547 979.738,777.047 979,779.5C 972.584,790.088 968.584,801.421 967,813.5C 970.196,803.435 975.196,794.435 982,786.5C 983.597,783.209 985.097,779.875 986.5,776.5C 988.413,775.949 990.413,775.782 992.5,776C 993.516,775.481 994.182,774.647 994.5,773.5C 993.781,771.272 992.448,769.439 990.5,768C 985.019,766.028 982.019,762.195 981.5,756.5C 982.525,745.118 986.359,734.784 993,725.5C 994.821,720.548 996.488,715.548 998,710.5C 998.667,705.5 998.667,700.5 998,695.5C 992.373,688.457 985.873,682.457 978.5,677.5C 977.233,675.961 976.233,674.294 975.5,672.5C 974.89,670.566 973.89,668.899 972.5,667.5C 972.5,666.833 972.833,666.5 973.5,666.5C 976.527,668.529 978.86,671.196 980.5,674.5C 982.777,663.619 978.444,658.452 967.5,659C 966.663,660.011 966.33,661.178 966.5,662.5C 960.989,660.79 955.323,660.123 949.5,660.5C 948.037,627.376 959.37,599.543 983.5,577C 985.5,575.667 987.5,574.333 989.5,573C 993.25,572.74 996.916,572.073 1000.5,571C 1001.34,569.989 1001.67,568.822 1001.5,567.5C 991.101,567.521 980.768,568.354 970.5,570C 962.648,572.509 955.815,576.675 950,582.5C 952.065,569.905 958.898,560.739 970.5,555C 973.833,554.333 977.167,554.333 980.5,555C 987.217,557.192 993.551,560.192 999.5,564C 1004.17,564.667 1008.83,564.667 1013.5,564C 1014.38,562.644 1014.71,561.144 1014.5,559.5C 1011.15,559.665 1007.82,559.498 1004.5,559C 998.167,556 991.833,553 985.5,550C 980.467,549.829 975.467,549.329 970.5,548.5C 977.166,537.216 986.5,534.382 998.5,540C 1002.5,544.667 1006.5,549.333 1010.5,554C 1017.47,557.334 1024.8,558.334 1032.5,557C 1033.34,555.989 1033.67,554.822 1033.5,553.5C 1027.89,554.092 1022.56,553.259 1017.5,551C 1012.85,546.083 1008.19,541.083 1003.5,536C 999.575,534.416 995.575,533.083 991.5,532C 998.347,521.632 1007.68,518.632 1019.5,523C 1021.17,524 1022.83,525 1024.5,526C 1030.27,532.855 1036.27,539.522 1042.5,546C 1048.66,549.873 1055.33,551.207 1062.5,550C 1063.83,548.667 1063.83,547.333 1062.5,546C 1057.9,546.011 1053.57,545.011 1049.5,543C 1042.19,536.022 1035.19,528.689 1028.5,521C 1025.93,519.546 1023.26,518.38 1020.5,517.5C 1018.5,516.833 1016.5,516.167 1014.5,515.5C 1032.88,506.524 1052.21,503.024 1072.5,505C 1078.28,506.789 1083.62,509.455 1088.5,513C 1097.12,520.61 1104.62,529.11 1111,538.5C 1111.67,537.167 1111.67,535.833 1111,534.5C 1105.51,523.836 1098.34,514.503 1089.5,506.5 Z"/></g>
<g><path style="opacity:1" fill="#978a82" d="M 1108.5,505.5 C 1101.98,505.177 1095.64,505.51 1089.5,506.5C 1088.96,506.44 1088.62,506.107 1088.5,505.5C 1095.32,504.182 1101.99,504.182 1108.5,505.5 Z"/></g>
<g><path style="opacity:1" fill="#86766d" d="M 1014.5,515.5 C 1016.5,516.167 1018.5,516.833 1020.5,517.5C 1018.08,517.808 1015.74,517.474 1013.5,516.5C 1013.62,515.893 1013.96,515.56 1014.5,515.5 Z"/></g>
<g><path style="opacity:1" fill="#f3f1f0" d="M 969.5,575.5 C 970.552,575.351 971.552,575.517 972.5,576C 964.544,586.745 956.711,597.578 949,608.5C 949.47,593.533 956.303,582.533 969.5,575.5 Z"/></g>
<g><path style="opacity:1" fill="#4c3428" d="M 1057.5,640.5 C 1079.16,638.308 1095.66,646.308 1107,664.5C 1108.01,666.025 1108.51,667.692 1108.5,669.5C 1097.29,667.563 1086.96,663.396 1077.5,657C 1072.5,656.333 1067.5,656.333 1062.5,657C 1057.83,662.67 1051.83,665.003 1044.5,664C 1043.17,663.333 1043.17,662.667 1044.5,662C 1059.11,651.349 1074.61,649.849 1091,657.5C 1091.67,656.833 1091.67,656.167 1091,655.5C 1085.99,650.168 1079.82,647.001 1072.5,646C 1067.19,645.187 1061.85,644.521 1056.5,644C 1056.04,643.586 1055.71,643.086 1055.5,642.5C 1056.24,641.818 1056.91,641.151 1057.5,640.5 Z"/></g>
<g><path style="opacity:1" fill="#4d3629" d="M 1040.5,644.5 C 1042.92,644.192 1045.26,644.526 1047.5,645.5C 1044.48,650.264 1040.65,654.264 1036,657.5C 1033.99,660.536 1033.16,663.869 1033.5,667.5C 1032.5,667.5 1031.5,667.5 1030.5,667.5C 1028.68,657.478 1032.02,649.811 1040.5,644.5 Z"/></g>
<g><path style="opacity:1" fill="#4e362a" d="M 1021.5,651.5 C 1022.5,651.5 1023.5,651.5 1024.5,651.5C 1022.83,655.339 1022.33,659.339 1023,663.5C 1025.55,665.716 1027.72,668.216 1029.5,671C 1029.18,672.653 1028.18,673.653 1026.5,674C 1027.93,677.912 1026.43,679.412 1022,678.5C 1013.95,677.772 1010.12,673.272 1010.5,665C 1010.53,660.11 1012.53,656.277 1016.5,653.5C 1018.87,654.822 1020.53,654.155 1021.5,651.5 Z"/></g>
<g><path style="opacity:1" fill="#4b3326" d="M 973.5,666.5 C 971.664,664.412 969.331,663.079 966.5,662.5C 966.33,661.178 966.663,660.011 967.5,659C 978.444,658.452 982.777,663.619 980.5,674.5C 978.86,671.196 976.527,668.529 973.5,666.5 Z"/></g>
<g><path style="opacity:1" fill="#b1a7a2" d="M 966.5,662.5 C 969.331,663.079 971.664,664.412 973.5,666.5C 972.833,666.5 972.5,666.833 972.5,667.5C 970.46,665.823 968.46,664.156 966.5,662.5 Z"/></g>
<g><path style="opacity:1" fill="#f7f6f6" d="M 974.5,675.5 C 974.167,676.167 973.833,676.833 973.5,677.5C 971.915,678.002 971.415,679.002 972,680.5C 979.206,685.695 985.706,691.695 991.5,698.5C 991.167,698.833 990.833,699.167 990.5,699.5C 982.272,697.598 973.939,697.098 965.5,698C 960.545,699.476 956.212,701.976 952.5,705.5C 951.066,703.78 950.233,701.78 950,699.5C 948.669,692.197 948.003,684.863 948,677.5C 953.269,682.245 959.436,683.745 966.5,682C 968.18,681.653 969.18,680.653 969.5,679C 968.318,677.265 966.651,676.265 964.5,676C 959.647,675.971 954.98,675.138 950.5,673.5C 948.605,671.133 948.105,668.466 949,665.5C 955.504,666.08 962.004,667.58 968.5,670C 971.023,671.36 973.023,673.193 974.5,675.5 Z"/></g>
<g><path style="opacity:1" fill="#d8d3d1" d="M 1016.5,656.5 C 1017,661.031 1018,665.531 1019.5,670C 1017.59,670.448 1016.42,669.615 1016,667.5C 1015.32,663.779 1015.49,660.112 1016.5,656.5 Z"/></g>
<g><path style="opacity:1" fill="#50392d" d="M 1225.5,672.5 C 1234.18,671.096 1240.01,674.429 1243,682.5C 1244.72,692.123 1244.89,701.79 1243.5,711.5C 1242.75,710.624 1242.25,709.624 1242,708.5C 1241.15,702.186 1240.49,695.853 1240,689.5C 1238.84,679.998 1233.67,676.498 1224.5,679C 1221.66,680.672 1219.33,682.839 1217.5,685.5C 1216.37,683.926 1216.2,682.259 1217,680.5C 1219.07,676.923 1221.91,674.256 1225.5,672.5 Z"/></g>
<g><path style="opacity:1" fill="#8c7d75" d="M 975.5,672.5 C 976.233,674.294 977.233,675.961 978.5,677.5C 976.833,677.5 975.167,677.5 973.5,677.5C 973.833,676.833 974.167,676.167 974.5,675.5C 975.404,674.791 975.737,673.791 975.5,672.5 Z"/></g>
<g><path style="opacity:1" fill="#4a3226" d="M 1058.5,676.5 C 1071.49,676.081 1084.16,677.915 1096.5,682C 1100.17,682.333 1103.83,682.667 1107.5,683C 1108.86,684.938 1108.53,686.604 1106.5,688C 1101.5,688.333 1096.5,688.667 1091.5,689C 1080.17,697.555 1067.5,700.555 1053.5,698C 1052.37,696.984 1052.7,696.317 1054.5,696C 1051.86,694.039 1050.03,691.539 1049,688.5C 1047.17,690.333 1045.33,692.167 1043.5,694C 1045.58,694.192 1047.58,694.692 1049.5,695.5C 1049.02,696.478 1048.36,697.311 1047.5,698C 1044.44,698.741 1041.44,698.575 1038.5,697.5C 1037.55,695.955 1037.21,694.288 1037.5,692.5C 1034.97,691.108 1032.81,691.442 1031,693.5C 1029.26,696.957 1028.26,700.623 1028,704.5C 1025.45,697.693 1026.28,691.359 1030.5,685.5C 1032.14,684.319 1033.8,684.319 1035.5,685.5C 1042.51,680.48 1050.18,677.48 1058.5,676.5 Z"/></g>
<g><path style="opacity:1" fill="#fbfafa" d="M 713.5,679.5 C 735.807,676.864 756.473,681.364 775.5,693C 780.382,696.214 784.215,700.381 787,705.5C 788.958,713.392 790.458,721.392 791.5,729.5C 791.167,730.5 790.833,731.5 790.5,732.5C 785.964,728.129 781.964,723.295 778.5,718C 776.212,717.178 773.878,716.511 771.5,716C 766.416,712.46 761.083,709.46 755.5,707C 752.377,706.794 749.377,706.127 746.5,705C 744.241,699.085 739.908,695.752 733.5,695C 729.044,694.133 724.711,694.466 720.5,696C 719.013,698.737 716.679,700.403 713.5,701C 711.451,703.593 709.285,706.093 707,708.5C 700.254,699.349 691.087,695.182 679.5,696C 682.61,690.891 686.943,687.224 692.5,685C 699.468,682.483 706.468,680.65 713.5,679.5 Z"/></g>
<g><path style="opacity:1" fill="#f3f1f1" d="M 1072.5,684.5 C 1073.27,683.853 1074.27,683.52 1075.5,683.5C 1079.48,684.663 1083.48,685.83 1087.5,687C 1083.62,689.107 1079.62,690.941 1075.5,692.5C 1074.92,689.553 1073.92,686.886 1072.5,684.5 Z"/></g>
<g><path style="opacity:1" fill="#ada39d" d="M 1053.5,684.5 C 1055.46,684.948 1055.8,685.948 1054.5,687.5C 1053.61,686.675 1053.28,685.675 1053.5,684.5 Z"/></g>
<g><path style="opacity:1" fill="#e9e6e4" d="M 1067.5,686.5 C 1068.62,688.288 1068.79,690.288 1068,692.5C 1066.61,693.554 1065.11,693.72 1063.5,693C 1065.72,691.399 1067.05,689.233 1067.5,686.5 Z"/></g>
<g><path style="opacity:1" fill="#fdfdfd" d="M 801.5,804.5 C 801.802,807.059 801.468,809.393 800.5,811.5C 781.132,797.193 759.299,790.527 735,791.5C 721.638,791.318 708.471,792.818 695.5,796C 682.632,799.734 669.965,804.067 657.5,809C 653.152,809.465 648.819,809.965 644.5,810.5C 652.48,780.721 660.98,751.054 670,721.5C 674.467,715.453 677.8,708.786 680,701.5C 681.313,700.427 682.813,699.76 684.5,699.5C 692.944,701.457 699.611,705.957 704.5,713C 706.971,713.706 709.305,713.373 711.5,712C 713.886,707.44 717.553,704.607 722.5,703.5C 723.04,702.252 723.707,701.085 724.5,700C 729.611,698.889 734.278,699.889 738.5,703C 739.833,705.333 741.167,707.667 742.5,710C 745.167,711 747.833,712 750.5,713C 752.561,716.654 755.561,717.487 759.5,715.5C 764.896,718.401 770.563,720.568 776.5,722C 779.667,727.833 784.167,732.333 790,735.5C 791.861,737.888 793.194,740.554 794,743.5C 796.65,763.826 799.15,784.159 801.5,804.5 Z"/></g>
<g><path style="opacity:1" fill="#a79b95" d="M 966.5,700.5 C 968.857,700.337 971.19,700.503 973.5,701C 970.706,702.557 967.706,702.89 964.5,702C 965.416,701.722 966.082,701.222 966.5,700.5 Z"/></g>
<g><path style="opacity:1" fill="#50392d" d="M 1206.5,702.5 C 1207.83,702.5 1209.17,702.5 1210.5,702.5C 1210.34,704.527 1210.5,706.527 1211,708.5C 1212.94,713.484 1214.77,718.484 1216.5,723.5C 1215.79,727.918 1213.79,731.585 1210.5,734.5C 1209.59,733.21 1209.76,731.877 1211,730.5C 1211.67,727.167 1211.67,723.833 1211,720.5C 1206.98,715.227 1205.48,709.227 1206.5,702.5 Z"/></g>
<g><path style="opacity:1" fill="#cac2be" d="M 977.5,707.5 C 980.038,709.322 980.038,711.322 977.5,713.5C 976.769,711.599 976.769,709.599 977.5,707.5 Z"/></g>
<g><path style="opacity:1" fill="#4d3629" d="M 1018.5,731.5 C 1026.98,733.026 1035.31,735.193 1043.5,738C 1046,740.5 1048.5,743 1051,745.5C 1057.88,757.254 1066.22,767.92 1076,777.5C 1078.21,780.554 1079.21,783.887 1079,787.5C 1077.59,784.339 1075.92,781.339 1074,778.5C 1064.49,771.499 1056.83,762.833 1051,752.5C 1050.85,763.486 1045.35,768.819 1034.5,768.5C 1034.5,767.167 1034.5,765.833 1034.5,764.5C 1037.97,764.874 1040.97,763.874 1043.5,761.5C 1044.61,756.889 1044.78,752.222 1044,747.5C 1042.5,744 1040,741.5 1036.5,740C 1030.71,738.942 1025.04,737.442 1019.5,735.5C 1018.57,734.311 1018.24,732.978 1018.5,731.5 Z"/></g>
<g><path style="opacity:1" fill="#533c30" d="M 1005.5,732.5 C 1006.12,732.611 1006.62,732.944 1007,733.5C 1008.09,739.111 1006.26,743.611 1001.5,747C 999.635,748.301 997.635,748.635 995.5,748C 1000.27,743.739 1003.6,738.572 1005.5,732.5 Z"/></g>
<g><path style="opacity:1" fill="#493125" d="M 1012.5,750.5 C 1020.85,748.998 1027.35,751.665 1032,758.5C 1032.67,760.5 1032.67,762.5 1032,764.5C 1027.34,758.251 1021.17,755.417 1013.5,756C 1011.38,757.122 1009.54,758.622 1008,760.5C 1006.51,758.728 1006.18,756.728 1007,754.5C 1008.81,753.023 1010.65,751.69 1012.5,750.5 Z"/></g>
<g><path style="opacity:1" fill="#4c3427" d="M 989.5,758.5 C 998.58,758.08 1002.75,762.413 1002,771.5C 998.224,766.739 993.724,762.905 988.5,760C 989.056,759.617 989.389,759.117 989.5,758.5 Z"/></g>
<g><path style="opacity:1" fill="#4f382b" d="M 1209.5,775.5 C 1210.59,775.62 1211.25,776.287 1211.5,777.5C 1210.36,786.504 1209.2,795.504 1208,804.5C 1203.32,816.856 1197.32,828.522 1190,839.5C 1189.42,836.743 1189.75,834.077 1191,831.5C 1201.47,814.229 1207.64,795.562 1209.5,775.5 Z"/></g>
<g><path style="opacity:1" fill="#4b3327" d="M 1017.5,796.5 C 1028.62,795.03 1038.95,797.197 1048.5,803C 1051.31,803.629 1054.14,804.129 1057,804.5C 1059.35,804.742 1061.18,803.908 1062.5,802C 1069.79,801.801 1072.45,805.301 1070.5,812.5C 1054.54,811.349 1038.54,811.182 1022.5,812C 1019.85,813.299 1017.19,814.632 1014.5,816C 1011.5,816.333 1008.5,816.667 1005.5,817C 998.299,821.698 990.965,826.198 983.5,830.5C 983.167,830.167 982.833,829.833 982.5,829.5C 986.231,824.474 988.064,818.808 988,812.5C 988.561,810.275 989.561,808.275 991,806.5C 999.742,802.704 1008.58,799.37 1017.5,796.5 Z"/></g>
<g><path style="opacity:1" fill="#cdba95" d="M 730.5,799.5 C 756.45,797.434 780.284,803.434 802,817.5C 808.094,846.038 802.094,871.705 784,894.5C 777.476,902.022 770.643,909.189 763.5,916C 736.865,916.824 710.199,917.824 683.5,919C 680.167,916 676.833,913 673.5,910C 673.833,909.667 674.167,909.333 674.5,909C 680.449,907.783 686.449,906.783 692.5,906C 695.071,905.099 697.404,903.766 699.5,902C 716.814,903.675 732.814,900.008 747.5,891C 755.455,880.879 755.455,870.879 747.5,861C 735.633,856.825 723.467,853.991 711,852.5C 691.123,855.344 671.623,859.844 652.5,866C 649.947,866.851 647.614,866.518 645.5,865C 651.238,858.383 658.572,855.05 667.5,855C 685.35,848.542 691.516,836.375 686,818.5C 682.171,814 677.338,811.167 671.5,810C 678.381,807.623 685.381,805.623 692.5,804C 705.328,802.622 717.995,801.122 730.5,799.5 Z"/></g>
<g><path style="opacity:1" fill="#efeceb" d="M 1017.5,801.5 C 1023.73,800.939 1029.73,801.772 1035.5,804C 1030.83,804.333 1026.17,804.667 1021.5,805C 1014.9,808.378 1007.9,810.378 1000.5,811C 997.073,812.796 993.906,814.963 991,817.5C 990.07,814.15 990.903,811.317 993.5,809C 1001.5,806.173 1009.5,803.673 1017.5,801.5 Z"/></g>
<g><path style="opacity:1" fill="#b3a9a4" d="M 801.5,804.5 C 802.638,807.304 802.805,810.304 802,813.5C 801.283,812.956 800.783,812.289 800.5,811.5C 801.468,809.393 801.802,807.059 801.5,804.5 Z"/></g>
<g><path style="opacity:1" fill="#f8f7f6" d="M 660.5,816.5 C 667.248,815.405 673.081,817.072 678,821.5C 679.227,825.591 678.394,829.091 675.5,832C 671.749,832.749 668.082,833.749 664.5,835C 659.574,836.036 654.907,835.536 650.5,833.5C 648.934,824.968 652.267,819.301 660.5,816.5 Z"/></g>
<g><path style="opacity:1" fill="#4e362a" d="M 1048.5,815.5 C 1049.24,815.369 1049.91,815.536 1050.5,816C 1038.03,827.166 1023.36,833.499 1006.5,835C 1003.24,836.587 1001.08,839.087 1000,842.5C 998.708,838.373 999.875,835.206 1003.5,833C 1001.27,832.031 999.266,830.698 997.5,829C 1015.86,829.261 1032.86,824.761 1048.5,815.5 Z"/></g>
<g><path style="opacity:1" fill="#4f382c" d="M 1020.5,838.5 C 1048.93,838.877 1049.27,840.377 1021.5,843C 1014.27,845.966 1006.94,848.299 999.5,850C 1006,845.089 1013,841.255 1020.5,838.5 Z"/></g>
<g><path style="opacity:1" fill="#fbfbfb" d="M 722.5,862.5 C 729.721,863.406 736.721,865.239 743.5,868C 745.923,871.379 746.09,874.879 744,878.5C 735.912,879.648 727.746,879.815 719.5,879C 714.802,872.435 715.802,866.935 722.5,862.5 Z"/></g>
<g><path style="opacity:1" fill="#f9f8f8" d="M 1227.5,871.5 C 1242.42,872.398 1253.92,879.398 1262,892.5C 1267.1,901.271 1271.77,910.271 1276,919.5C 1282.17,929.667 1290.33,937.833 1300.5,944C 1309.17,953.333 1317.83,962.667 1326.5,972C 1329.69,974.692 1333.03,977.192 1336.5,979.5C 1332.45,980.773 1328.45,980.606 1324.5,979C 1320.08,977.194 1315.75,975.194 1311.5,973C 1308.83,971.667 1306.83,969.667 1305.5,967C 1299.61,965.458 1295.11,961.958 1292,956.5C 1288.04,946.063 1282.21,936.897 1274.5,929C 1265.4,927.145 1263.06,922.145 1267.5,914C 1265.4,910.77 1263.23,910.937 1261,914.5C 1261.93,928.794 1256.77,940.294 1245.5,949C 1240.83,952 1236.17,955 1231.5,958C 1230.54,959.419 1229.71,960.919 1229,962.5C 1231.05,967.627 1232.88,972.961 1234.5,978.5C 1230.85,993.94 1222.19,1005.77 1208.5,1014C 1195.09,1020.79 1181.93,1027.95 1169,1035.5C 1168.33,1034.83 1168.33,1034.17 1169,1033.5C 1174.09,1026.32 1179.42,1019.32 1185,1012.5C 1198.69,997.809 1212.69,983.475 1227,969.5C 1227.33,965.833 1227.67,962.167 1228,958.5C 1233.64,949.883 1237.64,940.55 1240,930.5C 1243.93,922.906 1248.27,915.573 1253,908.5C 1257.07,896.058 1253.91,885.891 1243.5,878C 1238.17,875.518 1232.84,873.351 1227.5,871.5 Z"/></g>
<g><path style="opacity:1" fill="#a69a94" d="M 999.5,899.5 C 998.833,899.5 998.5,899.833 998.5,900.5C 996.704,899.207 995.037,897.707 993.5,896C 995.812,896.447 997.812,897.613 999.5,899.5 Z"/></g>
<g><path style="opacity:1" fill="#f9f9f8" d="M 1053.5,987.5 C 1053.16,988.338 1052.49,988.672 1051.5,988.5C 1039.42,987.287 1027.42,985.453 1015.5,983C 1013.71,979.417 1013.04,975.584 1013.5,971.5C 1010.91,971.568 1008.58,972.068 1006.5,973C 1000,966.5 993.5,960 987,953.5C 986.769,949.416 986.102,945.416 985,941.5C 983.484,932.043 984.817,923.043 989,914.5C 990.041,912.415 991.541,910.748 993.5,909.5C 998.34,912.419 1003.01,915.586 1007.5,919C 1000.77,930.084 998.937,941.917 1002,954.5C 1007.95,962.567 1015.11,969.4 1023.5,975C 1033.18,980.007 1043.18,984.174 1053.5,987.5 Z"/></g>
<g><path style="opacity:1" fill="#f1f0ef" d="M 749.5,922.5 C 756.808,921.408 763.308,923.074 769,927.5C 769.299,931.203 767.466,933.036 763.5,933C 757.833,933.667 752.167,933.667 746.5,933C 740.591,927.467 741.591,923.967 749.5,922.5 Z"/></g>
<g><path style="opacity:1" fill="#fdfdfd" d="M 1264.5,930.5 C 1268.75,931.044 1272.25,933.044 1275,936.5C 1279.74,944.248 1284.07,952.248 1288,960.5C 1291.04,964.701 1294.54,968.367 1298.5,971.5C 1296.5,976.344 1295,981.344 1294,986.5C 1293.27,996.586 1291.93,1006.59 1290,1016.5C 1283.44,1037.4 1278.77,1058.74 1276,1080.5C 1274.67,1081.17 1273.33,1081.83 1272,1082.5C 1269.12,1088.2 1268.95,1093.86 1271.5,1099.5C 1276.88,1102.18 1282.54,1103.85 1288.5,1104.5C 1288.02,1108.1 1286.86,1111.43 1285,1114.5C 1270.91,1113.68 1256.74,1113.18 1242.5,1113C 1232.99,1110.36 1223.32,1108.36 1213.5,1107C 1198.79,1106.07 1184.13,1104.74 1169.5,1103C 1166.37,1102.61 1163.37,1101.77 1160.5,1100.5C 1178.95,1080.21 1198.78,1061.55 1220,1044.5C 1222,1036.53 1224,1028.53 1226,1020.5C 1235.37,1000.44 1244.7,980.439 1254,960.5C 1258.19,956.312 1262.36,952.145 1266.5,948C 1265.94,945.812 1264.61,945.146 1262.5,946C 1251.69,954.116 1244.19,964.616 1240,977.5C 1239.98,972.792 1238.31,968.792 1235,965.5C 1234.33,964.167 1234.33,962.833 1235,961.5C 1243.53,956.645 1251.19,950.645 1258,943.5C 1260.71,939.419 1262.87,935.086 1264.5,930.5 Z"/></g>
<g><path style="opacity:1" fill="#f8f7f6" d="M 978.5,927.5 C 979.654,933.987 979.821,940.654 979,947.5C 968.373,955.432 963.706,966.099 965,979.5C 962.359,986.479 957.859,991.979 951.5,996C 942.75,1000.79 934.25,1005.96 926,1011.5C 925.333,1010.5 925.333,1009.5 926,1008.5C 929.414,1002 933.081,995.67 937,989.5C 947.627,976.538 958.627,963.871 970,951.5C 973.731,943.806 976.564,935.806 978.5,927.5 Z"/></g>
<g><path style="opacity:1" fill="#fefdfd" d="M 979.5,953.5 C 987.071,961.737 995.071,969.737 1003.5,977.5C 1005.07,978.309 1006.74,978.643 1008.5,978.5C 1008.59,981.939 1009.92,984.772 1012.5,987C 1030.46,988.757 1048.13,992.09 1065.5,997C 1078.05,1003.89 1087.55,1013.72 1094,1026.5C 1103.46,1047.03 1110.13,1068.36 1114,1090.5C 1102.16,1091.5 1090.33,1093 1078.5,1095C 1042.09,1102.91 1005.42,1109.58 968.5,1115C 953.799,1115.56 939.132,1115.06 924.5,1113.5C 923.875,1110.03 924.875,1107.2 927.5,1105C 934.923,1104.65 942.256,1103.65 949.5,1102C 951.333,1101.5 952.5,1100.33 953,1098.5C 953.828,1093.8 953.662,1089.13 952.5,1084.5C 951.914,1084.29 951.414,1083.96 951,1083.5C 948.779,1060.21 948.112,1036.88 949,1013.5C 950.64,1009.61 951.973,1005.61 953,1001.5C 958.591,997.914 963.591,993.58 968,988.5C 971.786,981.32 973.453,973.653 973,965.5C 974.124,960.891 976.291,956.891 979.5,953.5 Z"/></g>
<g><path style="opacity:1" fill="#f9f8f8" d="M 726.5,956.5 C 727.497,956.47 728.164,956.97 728.5,958C 726.389,963.7 725.055,969.533 724.5,975.5C 719.167,975.5 713.833,975.5 708.5,975.5C 708.46,970.807 708.127,966.141 707.5,961.5C 714.514,962.045 720.848,960.378 726.5,956.5 Z"/></g>
<g><path style="opacity:1" fill="#563f33" d="M 591.5,964.5 C 592.384,973.401 592.884,982.401 593,991.5C 589.393,988.115 587.893,983.948 588.5,979C 588.57,973.962 589.57,969.129 591.5,964.5 Z"/></g>
<g><path style="opacity:1" fill="#f6f5f4" d="M 731.5,970.5 C 740.673,969.414 748.506,972.08 755,978.5C 755.483,979.448 755.649,980.448 755.5,981.5C 747.52,980.037 739.52,978.704 731.5,977.5C 731.5,975.167 731.5,972.833 731.5,970.5 Z"/></g>
<g><path style="opacity:1" fill="#fcfcfc" d="M 690.5,982.5 C 714.097,980.18 736.763,983.68 758.5,993C 766.201,996.706 772.701,1001.87 778,1008.5C 780.905,1013.65 781.238,1018.98 779,1024.5C 773.188,1032.83 765.354,1038.33 755.5,1041C 729.776,1048.06 704.11,1047.73 678.5,1040C 666.843,1036.66 657.01,1030.5 649,1021.5C 644.902,1014.97 644.568,1008.3 648,1001.5C 654.981,993.856 663.481,988.689 673.5,986C 679.349,985.071 685.015,983.904 690.5,982.5 Z"/></g>
<g><path style="opacity:1" fill="#9e918a" d="M 1053.5,987.5 C 1055.51,988.228 1057.51,989.062 1059.5,990C 1056.58,990.433 1053.91,989.933 1051.5,988.5C 1052.49,988.672 1053.16,988.338 1053.5,987.5 Z"/></g>
<g><path style="opacity:1" fill="#4d3529" d="M 701.5,996.5 C 713.845,995.224 725.512,997.39 736.5,1003C 745.16,1012.1 743.493,1019.1 731.5,1024C 716.899,1029.11 702.566,1028.44 688.5,1022C 679.246,1016.82 678.246,1010.48 685.5,1003C 690.607,999.935 695.94,997.769 701.5,996.5 Z"/></g>
<g><path style="opacity:1" fill="#fafafa" d="M 700.5,1001.5 C 711.901,1000.18 722.568,1002.35 732.5,1008C 736.5,1011.33 736.5,1014.67 732.5,1018C 719.025,1024.13 705.692,1023.8 692.5,1017C 688.153,1013.92 687.487,1010.25 690.5,1006C 693.815,1004.17 697.149,1002.67 700.5,1001.5 Z"/></g>
<g><path style="opacity:1" fill="#fcfbfb" d="M 1219.5,1010.5 C 1220.59,1010.62 1221.25,1011.29 1221.5,1012.5C 1220.55,1022.76 1218.38,1032.76 1215,1042.5C 1205.5,1050.67 1196,1058.83 1186.5,1067C 1175.95,1077.05 1165.95,1087.55 1156.5,1098.5C 1149.45,1099.49 1142.78,1098.16 1136.5,1094.5C 1142.26,1083.32 1147.76,1071.99 1153,1060.5C 1158.75,1051.42 1165.91,1043.58 1174.5,1037C 1184.18,1031.16 1194.18,1025.82 1204.5,1021C 1209.92,1017.97 1214.92,1014.47 1219.5,1010.5 Z"/></g>
<g><path style="opacity:1" fill="#483023" d="M 1071.5,1034.5 C 1080.04,1033.54 1085.54,1037.2 1088,1045.5C 1089.75,1062.52 1082.92,1067.68 1067.5,1061C 1062.85,1054.16 1062.35,1046.99 1066,1039.5C 1067.73,1037.6 1069.56,1035.93 1071.5,1034.5 Z"/></g>
<g><path style="opacity:1" fill="#4e372a" d="M 1186.5,1042.5 C 1188.35,1042.22 1189.68,1042.89 1190.5,1044.5C 1186.95,1051.71 1182.62,1058.37 1177.5,1064.5C 1175.95,1065.45 1174.29,1065.79 1172.5,1065.5C 1172.35,1064.45 1172.52,1063.45 1173,1062.5C 1177.76,1055.98 1182.26,1049.31 1186.5,1042.5 Z"/></g>
<g><path style="opacity:1" fill="#fdfdfd" d="M 676.5,1048.5 C 683.464,1049.73 690.464,1050.89 697.5,1052C 713.214,1052.58 728.881,1052.25 744.5,1051C 731.444,1063.27 718.944,1076.1 707,1089.5C 703.667,1097.5 700.333,1105.5 697,1113.5C 692.546,1118.63 688.879,1124.29 686,1130.5C 685.932,1136.99 684.932,1143.33 683,1149.5C 678.138,1160.42 673.472,1171.42 669,1182.5C 663.369,1160.21 658.869,1137.71 655.5,1115C 655.667,1112.83 655.833,1110.67 656,1108.5C 662.721,1093.39 669.721,1078.39 677,1063.5C 677.388,1058.49 677.222,1053.49 676.5,1048.5 Z"/></g>
<g><path style="opacity:1" fill="#e6e3e1" d="M 948.5,1086.5 C 951.644,1091.77 950.644,1096.27 945.5,1100C 939.639,1100.65 933.806,1101.48 928,1102.5C 927.167,1102.17 926.333,1101.83 925.5,1101.5C 931.888,1099.88 938.222,1098.05 944.5,1096C 947.62,1093.59 948.953,1090.43 948.5,1086.5 Z"/></g>
<g><path style="opacity:1" fill="#efedec" d="M 1288.5,1090.5 C 1301.05,1090.02 1312.72,1093.02 1323.5,1099.5C 1322.97,1101.23 1321.97,1102.56 1320.5,1103.5C 1313.68,1101.84 1307.01,1099.67 1300.5,1097C 1292.96,1095.96 1285.62,1094.29 1278.5,1092C 1282.03,1091.82 1285.36,1091.32 1288.5,1090.5 Z"/></g>
<g><path style="opacity:1" fill="#f3f1f0" d="M 943.5,1090.5 C 944.645,1091.79 944.311,1092.96 942.5,1094C 930.711,1095.78 919.378,1099.11 908.5,1104C 906.527,1104.5 904.527,1104.66 902.5,1104.5C 902.281,1103.32 902.614,1102.32 903.5,1101.5C 908.273,1099.23 912.939,1096.73 917.5,1094C 925.089,1092.77 932.756,1092.1 940.5,1092C 941.737,1091.77 942.737,1091.27 943.5,1090.5 Z"/></g>
<g><path style="opacity:1" fill="#e9e6e4" d="M 1273.5,1092.5 C 1275.01,1093.84 1276.68,1095 1278.5,1096C 1287.41,1097.08 1296.08,1099.08 1304.5,1102C 1301.65,1103.73 1298.65,1103.89 1295.5,1102.5C 1296.89,1101.31 1296.73,1100.65 1295,1100.5C 1293.33,1101.17 1291.67,1101.83 1290,1102.5C 1285.14,1101.08 1280.31,1099.58 1275.5,1098C 1273.84,1096.56 1273.18,1094.72 1273.5,1092.5 Z"/></g>
<g><path style="opacity:1" fill="#e8e5e4" d="M 1307.5,1103.5 C 1312,1104.42 1316.5,1105.42 1321,1106.5C 1322.71,1106.56 1324.04,1105.89 1325,1104.5C 1326.08,1107.24 1325.25,1108.9 1322.5,1109.5C 1317.75,1108.65 1313.09,1107.48 1308.5,1106C 1307.75,1105.33 1307.41,1104.5 1307.5,1103.5 Z"/></g>
<g><path style="opacity:1" fill="#cdc6c3" d="M 897.5,1101.5 C 898.302,1102.95 898.802,1104.62 899,1106.5C 900.4,1107.12 901.9,1107.45 903.5,1107.5C 910.336,1105.94 917.003,1104.11 923.5,1102C 916.921,1105.62 909.921,1108.12 902.5,1109.5C 896.806,1109.39 895.139,1106.72 897.5,1101.5 Z"/></g>
<g><path style="opacity:1" fill="#f6f5f5" d="M 1292.5,1105.5 C 1295.49,1106 1298.49,1106.5 1301.5,1107C 1302.36,1107.69 1303.02,1108.52 1303.5,1109.5C 1297.46,1118.91 1292.46,1128.91 1288.5,1139.5C 1286.99,1140.75 1285.49,1140.75 1284,1139.5C 1284.64,1127.62 1287.47,1116.28 1292.5,1105.5 Z"/></g>
<g><path style="opacity:1" fill="#f7f6f5" d="M 920.5,1106.5 C 921.124,1106.92 921.457,1107.58 921.5,1108.5C 918.047,1117.98 919.713,1126.48 926.5,1134C 926.266,1135.73 925.266,1136.57 923.5,1136.5C 917.689,1133.85 914.356,1129.35 913.5,1123C 915.57,1117.42 917.903,1111.92 920.5,1106.5 Z"/></g>
<g><path style="opacity:1" fill="#462e21" d="M 1066.5,1223.5 C 1068.33,1227.51 1069,1231.85 1068.5,1236.5C 1066.05,1237.47 1063.39,1237.81 1060.5,1237.5C 1059.17,1237.5 1057.83,1237.5 1056.5,1237.5C 1056.17,1258.34 1056.5,1279.01 1057.5,1299.5C 1057.5,1311.5 1057.5,1323.5 1057.5,1335.5C 1061.17,1335.5 1064.83,1335.5 1068.5,1335.5C 1069.43,1336.57 1069.77,1337.9 1069.5,1339.5C 1070.01,1343.03 1069.34,1346.2 1067.5,1349C 1054.2,1350.25 1040.86,1350.75 1027.5,1350.5C 1024.38,1349.52 1021.04,1349.19 1017.5,1349.5C 1016.54,1347.74 1016.21,1345.74 1016.5,1343.5C 1016.5,1340.83 1016.5,1338.17 1016.5,1335.5C 1020.5,1335.5 1024.5,1335.5 1028.5,1335.5C 1028.5,1308.83 1028.5,1282.17 1028.5,1255.5C 1028.5,1250.83 1028.5,1246.17 1028.5,1241.5C 1016.83,1241.5 1005.17,1241.5 993.5,1241.5C 994.231,1272.83 994.565,1304.16 994.5,1335.5C 998.167,1335.5 1001.83,1335.5 1005.5,1335.5C 1006.37,1337.72 1006.7,1340.05 1006.5,1342.5C 1006.5,1344.83 1006.5,1347.17 1006.5,1349.5C 992.512,1350.23 978.512,1350.57 964.5,1350.5C 961.167,1350.17 957.833,1349.83 954.5,1349.5C 953.564,1345.26 953.231,1340.93 953.5,1336.5C 957.452,1335.73 961.452,1335.39 965.5,1335.5C 965.711,1303.16 965.378,1270.82 964.5,1238.5C 960.76,1238.76 957.094,1238.43 953.5,1237.5C 952.508,1233.22 952.174,1228.88 952.5,1224.5C 990.485,1223.54 1028.48,1223.21 1066.5,1223.5 Z"/></g>
<g><path style="opacity:1" fill="#79665a" d="M 1066.5,1223.5 C 1067.5,1223.5 1068.5,1223.5 1069.5,1223.5C 1069.5,1225.83 1069.5,1228.17 1069.5,1230.5C 1069.79,1232.74 1069.46,1234.74 1068.5,1236.5C 1069,1231.85 1068.33,1227.51 1066.5,1223.5 Z"/></g>
<g><path style="opacity:1" fill="#462e21" d="M 1158.5,1231.5 C 1167.96,1266.8 1177.29,1302.13 1186.5,1337.5C 1189.52,1337.7 1192.52,1338.04 1195.5,1338.5C 1195.5,1342.83 1195.5,1347.17 1195.5,1351.5C 1182.5,1352.74 1169.5,1352.74 1156.5,1351.5C 1152.9,1350.66 1149.23,1350.32 1145.5,1350.5C 1145.5,1346.17 1145.5,1341.83 1145.5,1337.5C 1149.45,1336.73 1153.45,1336.39 1157.5,1336.5C 1157.42,1332.16 1156.42,1328.16 1154.5,1324.5C 1154.01,1322.19 1153.67,1319.86 1153.5,1317.5C 1141.83,1317.13 1130.17,1316.8 1118.5,1316.5C 1116.99,1322.88 1115.32,1329.21 1113.5,1335.5C 1117.48,1336.02 1121.48,1336.35 1125.5,1336.5C 1125.5,1340.83 1125.5,1345.17 1125.5,1349.5C 1115.19,1350.34 1104.86,1350.67 1094.5,1350.5C 1091.04,1349.52 1087.37,1349.19 1083.5,1349.5C 1083.5,1344.83 1083.5,1340.17 1083.5,1335.5C 1087.11,1335.79 1090.61,1335.46 1094,1334.5C 1103.5,1302.51 1113,1270.51 1122.5,1238.5C 1118.76,1238.76 1115.09,1238.43 1111.5,1237.5C 1110.51,1233.22 1110.17,1228.88 1110.5,1224.5C 1125.83,1223.22 1141.16,1223.22 1156.5,1224.5C 1156.88,1226.92 1157.54,1229.25 1158.5,1231.5 Z"/></g>
<g><path style="opacity:1" fill="#462e21" d="M 1279.5,1236.5 C 1288.13,1271.68 1296.13,1307.02 1303.5,1342.5C 1306.46,1343.16 1309.46,1343.49 1312.5,1343.5C 1312.5,1347.83 1312.5,1352.17 1312.5,1356.5C 1299.5,1356.5 1286.5,1356.5 1273.5,1356.5C 1270.03,1355.48 1266.36,1354.81 1262.5,1354.5C 1262.5,1350.17 1262.5,1345.83 1262.5,1341.5C 1266.5,1341.5 1270.5,1341.5 1274.5,1341.5C 1271.47,1323.04 1267.81,1304.71 1263.5,1286.5C 1262.24,1277.72 1260.41,1269.05 1258,1260.5C 1249.4,1286.56 1241.57,1312.89 1234.5,1339.5C 1238.71,1339.72 1242.71,1340.38 1246.5,1341.5C 1246.5,1343.17 1246.5,1344.83 1246.5,1346.5C 1246.5,1348.83 1246.5,1351.17 1246.5,1353.5C 1234.8,1353.77 1223.13,1353.44 1211.5,1352.5C 1210.17,1352.5 1208.83,1352.5 1207.5,1352.5C 1206.08,1351.55 1204.41,1351.22 1202.5,1351.5C 1202.62,1348.14 1202.95,1344.81 1203.5,1341.5C 1203.5,1340.5 1203.5,1339.5 1203.5,1338.5C 1207.11,1338.79 1210.61,1338.46 1214,1337.5C 1223.51,1306.32 1233.01,1275.15 1242.5,1244C 1242.17,1243.5 1241.83,1243 1241.5,1242.5C 1237.91,1241.57 1234.24,1241.24 1230.5,1241.5C 1230.2,1236.9 1230.53,1232.4 1231.5,1228C 1246.52,1227.27 1261.52,1227.6 1276.5,1229C 1278.76,1230.93 1279.76,1233.43 1279.5,1236.5 Z"/></g>
<g><path style="opacity:1" fill="#462e21" d="M 832.5,1235.5 C 832.5,1237.5 832.5,1239.5 832.5,1241.5C 828.452,1241.39 824.452,1241.73 820.5,1242.5C 822.13,1274.84 823.796,1307.17 825.5,1339.5C 829.167,1339.5 832.833,1339.5 836.5,1339.5C 838.256,1340.55 838.923,1342.22 838.5,1344.5C 838.5,1347.17 838.5,1349.83 838.5,1352.5C 823.615,1355.01 808.615,1356.01 793.5,1355.5C 790.833,1355.5 788.167,1355.5 785.5,1355.5C 785.231,1351.07 785.564,1346.74 786.5,1342.5C 790.119,1341.76 793.785,1341.42 797.5,1341.5C 796.538,1330.19 795.872,1318.86 795.5,1307.5C 795.5,1306.83 795.5,1306.17 795.5,1305.5C 795.5,1303.5 795.5,1301.5 795.5,1299.5C 792.615,1299.19 789.948,1299.53 787.5,1300.5C 777.835,1300.88 768.169,1301.21 758.5,1301.5C 759.831,1315.46 760.497,1329.46 760.5,1343.5C 764.167,1343.5 767.833,1343.5 771.5,1343.5C 773.357,1345.28 774.357,1347.61 774.5,1350.5C 774.5,1352.5 774.5,1354.5 774.5,1356.5C 760.243,1358.47 745.91,1359.47 731.5,1359.5C 727.833,1359.5 724.167,1359.5 720.5,1359.5C 720.334,1355.15 720.501,1350.82 721,1346.5C 724.411,1345.71 727.911,1345.21 731.5,1345C 732.022,1344.44 732.355,1343.77 732.5,1343C 730.373,1313.87 728.706,1284.71 727.5,1255.5C 728.036,1252.3 727.369,1249.64 725.5,1247.5C 721.833,1247.5 718.167,1247.5 714.5,1247.5C 713.8,1243.2 713.467,1238.87 713.5,1234.5C 731.387,1231.86 749.387,1230.86 767.5,1231.5C 767.5,1233.83 767.5,1236.17 767.5,1238.5C 767.5,1240.5 767.5,1242.5 767.5,1244.5C 763.601,1244.97 759.767,1245.63 756,1246.5C 756.571,1258.79 757.071,1271.12 757.5,1283.5C 764.022,1283.82 770.355,1283.49 776.5,1282.5C 782.167,1282.5 787.833,1282.5 793.5,1282.5C 793.055,1269.82 792.388,1257.15 791.5,1244.5C 787.5,1244.5 783.5,1244.5 779.5,1244.5C 779.813,1240.96 779.479,1237.62 778.5,1234.5C 778.5,1233.17 778.5,1231.83 778.5,1230.5C 791.471,1229.17 804.471,1228.17 817.5,1227.5C 822.535,1227.58 827.535,1227.92 832.5,1228.5C 832.5,1230.83 832.5,1233.17 832.5,1235.5 Z"/></g>
<g><path style="opacity:1" fill="#cfbd97" d="M 1069.5,1230.5 C 1073.18,1230.72 1076.85,1231.06 1080.5,1231.5C 1080.5,1235.83 1080.5,1240.17 1080.5,1244.5C 1076.45,1244.39 1072.45,1244.73 1068.5,1245.5C 1068.5,1275.5 1068.5,1305.5 1068.5,1335.5C 1064.83,1335.5 1061.17,1335.5 1057.5,1335.5C 1057.5,1323.5 1057.5,1311.5 1057.5,1299.5C 1057.5,1279.17 1057.5,1258.83 1057.5,1238.5C 1058.79,1238.74 1059.79,1238.4 1060.5,1237.5C 1063.39,1237.81 1066.05,1237.47 1068.5,1236.5C 1069.46,1234.74 1069.79,1232.74 1069.5,1230.5 Z"/></g>
<g><path style="opacity:1" fill="#cebb96" d="M 1158.5,1231.5 C 1161.81,1232.05 1165.14,1232.38 1168.5,1232.5C 1177.91,1269.9 1187.58,1307.24 1197.5,1344.5C 1199.17,1344.5 1200.83,1344.5 1202.5,1344.5C 1202.26,1343.21 1202.6,1342.21 1203.5,1341.5C 1202.95,1344.81 1202.62,1348.14 1202.5,1351.5C 1204.41,1351.22 1206.08,1351.55 1207.5,1352.5C 1206.54,1354.26 1206.21,1356.26 1206.5,1358.5C 1189.8,1360.01 1173.13,1359.68 1156.5,1357.5C 1156.5,1355.5 1156.5,1353.5 1156.5,1351.5C 1169.5,1352.74 1182.5,1352.74 1195.5,1351.5C 1195.5,1347.17 1195.5,1342.83 1195.5,1338.5C 1192.52,1338.04 1189.52,1337.7 1186.5,1337.5C 1177.29,1302.13 1167.96,1266.8 1158.5,1231.5 Z"/></g>
<g><path style="opacity:1" fill="#462e21" d="M 1388.5,1242.5 C 1388.5,1244.17 1388.5,1245.83 1388.5,1247.5C 1384.28,1249.04 1379.95,1250.04 1375.5,1250.5C 1375.08,1259.68 1374.42,1268.85 1373.5,1278C 1373.83,1279.83 1374.17,1281.67 1374.5,1283.5C 1377.76,1284.42 1381.09,1284.75 1384.5,1284.5C 1398.34,1285.05 1410.67,1289.72 1421.5,1298.5C 1433.13,1311.09 1435.63,1325.42 1429,1341.5C 1422.09,1353.06 1411.92,1359.89 1398.5,1362C 1377.77,1361.94 1357.1,1360.77 1336.5,1358.5C 1332.85,1358.06 1329.18,1357.72 1325.5,1357.5C 1325.93,1353.18 1326.26,1348.84 1326.5,1344.5C 1330.83,1344.5 1335.17,1344.5 1339.5,1344.5C 1339.5,1342.5 1339.5,1340.5 1339.5,1338.5C 1342.22,1308.2 1344.55,1277.86 1346.5,1247.5C 1342.23,1247.35 1338.23,1246.35 1334.5,1244.5C 1335.43,1240.57 1335.77,1236.57 1335.5,1232.5C 1353.3,1232.27 1370.96,1233.6 1388.5,1236.5C 1388.5,1238.5 1388.5,1240.5 1388.5,1242.5 Z"/></g>
<g><path style="opacity:1" fill="#cdba94" d="M 832.5,1235.5 C 836.167,1235.5 839.833,1235.5 843.5,1235.5C 843.5,1239.83 843.5,1244.17 843.5,1248.5C 839.534,1249.16 835.534,1249.5 831.5,1249.5C 833.093,1279.51 834.76,1309.51 836.5,1339.5C 832.833,1339.5 829.167,1339.5 825.5,1339.5C 823.796,1307.17 822.13,1274.84 820.5,1242.5C 824.452,1241.73 828.452,1241.39 832.5,1241.5C 832.5,1239.5 832.5,1237.5 832.5,1235.5 Z"/></g>
<g><path style="opacity:1" fill="#cdba95" d="M 1279.5,1236.5 C 1282.83,1236.5 1286.17,1236.5 1289.5,1236.5C 1297.47,1274.52 1306.14,1312.35 1315.5,1350C 1317.89,1350.29 1320.22,1350.79 1322.5,1351.5C 1323.49,1355.78 1323.83,1360.12 1323.5,1364.5C 1306.69,1365.21 1290.03,1364.21 1273.5,1361.5C 1273.5,1359.83 1273.5,1358.17 1273.5,1356.5C 1286.5,1356.5 1299.5,1356.5 1312.5,1356.5C 1312.5,1352.17 1312.5,1347.83 1312.5,1343.5C 1309.46,1343.49 1306.46,1343.16 1303.5,1342.5C 1296.13,1307.02 1288.13,1271.68 1279.5,1236.5 Z"/></g>
<g><path style="opacity:1" fill="#462e21" d="M 657.5,1246.5 C 670.757,1279.76 683.923,1313.1 697,1346.5C 699.719,1347.44 702.552,1347.78 705.5,1347.5C 706.404,1348.21 706.737,1349.21 706.5,1350.5C 706.616,1353.86 706.949,1357.19 707.5,1360.5C 691.956,1363.23 676.289,1364.57 660.5,1364.5C 659.5,1364.5 658.5,1364.5 657.5,1364.5C 656.705,1360.21 656.372,1355.88 656.5,1351.5C 660.772,1351.35 664.772,1350.35 668.5,1348.5C 667.143,1345.4 665.81,1342.4 664.5,1339.5C 663.991,1336.81 662.991,1334.31 661.5,1332C 650.185,1332.47 638.852,1332.97 627.5,1333.5C 626.128,1340.1 625.128,1346.77 624.5,1353.5C 628.5,1353.5 632.5,1353.5 636.5,1353.5C 637.092,1356.13 637.425,1358.79 637.5,1361.5C 637.5,1363.17 637.5,1364.83 637.5,1366.5C 627.313,1368.9 616.98,1370.23 606.5,1370.5C 602.833,1370.5 599.167,1370.5 595.5,1370.5C 594.751,1366.18 594.585,1361.85 595,1357.5C 597.405,1356.73 599.905,1356.23 602.5,1356C 603.667,1355.5 604.5,1354.67 605,1353.5C 610.995,1321.19 616.828,1288.86 622.5,1256.5C 618.167,1256.5 613.833,1256.5 609.5,1256.5C 608.949,1252.24 608.949,1248.07 609.5,1244C 624.635,1240.48 639.969,1238.98 655.5,1239.5C 655.878,1241.92 656.545,1244.25 657.5,1246.5 Z"/></g>
<g><path style="opacity:1" fill="#ccba96" d="M 778.5,1234.5 C 779.479,1237.62 779.813,1240.96 779.5,1244.5C 779.5,1247.17 779.5,1249.83 779.5,1252.5C 775.5,1252.83 771.5,1253.17 767.5,1253.5C 767.518,1263.18 767.852,1272.85 768.5,1282.5C 771.167,1282.5 773.833,1282.5 776.5,1282.5C 770.355,1283.49 764.022,1283.82 757.5,1283.5C 757.071,1271.12 756.571,1258.79 756,1246.5C 759.767,1245.63 763.601,1244.97 767.5,1244.5C 767.5,1242.5 767.5,1240.5 767.5,1238.5C 771.064,1239.42 774.731,1239.76 778.5,1239.5C 778.5,1237.83 778.5,1236.17 778.5,1234.5 Z"/></g>
<g><path style="opacity:1" fill="#cdba94" d="M 1028.5,1255.5 C 1027.53,1253.39 1027.2,1251.06 1027.5,1248.5C 1020.5,1248.5 1013.5,1248.5 1006.5,1248.5C 1005.17,1261.82 1004.5,1275.48 1004.5,1289.5C 1004.5,1303.34 1004.83,1317 1005.5,1330.5C 1005.5,1332.17 1005.5,1333.83 1005.5,1335.5C 1001.83,1335.5 998.167,1335.5 994.5,1335.5C 994.565,1304.16 994.231,1272.83 993.5,1241.5C 1005.17,1241.5 1016.83,1241.5 1028.5,1241.5C 1028.5,1246.17 1028.5,1250.83 1028.5,1255.5 Z"/></g>
<g><path style="opacity:1" fill="#472f21" d="M 1488.5,1251.5 C 1488.33,1253.86 1487.99,1256.19 1487.5,1258.5C 1483.5,1258.5 1479.5,1258.5 1475.5,1258.5C 1472.56,1290.81 1469.89,1323.14 1467.5,1355.5C 1471.15,1355.94 1474.82,1356.28 1478.5,1356.5C 1478.5,1360.83 1478.5,1365.17 1478.5,1369.5C 1464.44,1369.83 1450.44,1369.16 1436.5,1367.5C 1432.86,1366.73 1429.19,1366.06 1425.5,1365.5C 1425.5,1361.17 1425.5,1356.83 1425.5,1352.5C 1429.83,1352.5 1434.17,1352.5 1438.5,1352.5C 1439.01,1340.74 1440.01,1329.07 1441.5,1317.5C 1443.06,1296.84 1444.39,1276.17 1445.5,1255.5C 1441.85,1255.06 1438.18,1254.72 1434.5,1254.5C 1434.5,1250.17 1434.5,1245.83 1434.5,1241.5C 1452.69,1240.63 1470.69,1241.96 1488.5,1245.5C 1488.5,1247.5 1488.5,1249.5 1488.5,1251.5 Z"/></g>
<g><path style="opacity:1" fill="#cebb96" d="M 1388.5,1242.5 C 1392.39,1243.59 1396.39,1244.26 1400.5,1244.5C 1400.07,1248.82 1399.74,1253.16 1399.5,1257.5C 1395.17,1257.5 1390.83,1257.5 1386.5,1257.5C 1386,1266.51 1385.33,1275.51 1384.5,1284.5C 1381.09,1284.75 1377.76,1284.42 1374.5,1283.5C 1374.17,1281.67 1373.83,1279.83 1373.5,1278C 1374.42,1268.85 1375.08,1259.68 1375.5,1250.5C 1379.83,1250.5 1384.17,1250.5 1388.5,1250.5C 1388.5,1249.5 1388.5,1248.5 1388.5,1247.5C 1388.5,1245.83 1388.5,1244.17 1388.5,1242.5 Z"/></g>
<g><path style="opacity:1" fill="#fdfcfc" d="M 779.5,1244.5 C 783.5,1244.5 787.5,1244.5 791.5,1244.5C 792.388,1257.15 793.055,1269.82 793.5,1282.5C 787.833,1282.5 782.167,1282.5 776.5,1282.5C 773.833,1282.5 771.167,1282.5 768.5,1282.5C 767.852,1272.85 767.518,1263.18 767.5,1253.5C 771.5,1253.17 775.5,1252.83 779.5,1252.5C 779.5,1249.83 779.5,1247.17 779.5,1244.5 Z"/></g>
<g><path style="opacity:1" fill="#cdba95" d="M 657.5,1246.5 C 660.5,1246.5 663.5,1246.5 666.5,1246.5C 679.3,1280.23 692.3,1313.9 705.5,1347.5C 702.552,1347.78 699.719,1347.44 697,1346.5C 683.923,1313.1 670.757,1279.76 657.5,1246.5 Z"/></g>
<g><path style="opacity:1" fill="#462e21" d="M 567.5,1255.5 C 567.785,1257.29 567.452,1258.95 566.5,1260.5C 563.243,1261.55 559.91,1262.22 556.5,1262.5C 560.354,1294.86 564.354,1327.19 568.5,1359.5C 572.833,1359.5 577.167,1359.5 581.5,1359.5C 581.674,1361.86 582.007,1364.19 582.5,1366.5C 582.5,1368.17 582.5,1369.83 582.5,1371.5C 568.625,1374.61 554.625,1376.94 540.5,1378.5C 537.167,1378.5 533.833,1378.5 530.5,1378.5C 529.833,1375.83 529.167,1373.17 528.5,1370.5C 528.5,1368.83 528.5,1367.17 528.5,1365.5C 532.197,1364.99 535.864,1364.33 539.5,1363.5C 536.894,1335.23 533.227,1307.23 528.5,1279.5C 528.664,1276.81 528.497,1274.15 528,1271.5C 526.938,1270.9 525.772,1270.57 524.5,1270.5C 514.176,1271.98 503.843,1273.31 493.5,1274.5C 498.073,1305.42 502.073,1336.42 505.5,1367.5C 509.167,1367.5 512.833,1367.5 516.5,1367.5C 517.496,1367.41 518.329,1367.75 519,1368.5C 519.495,1370.47 519.662,1372.47 519.5,1374.5C 519.739,1376.47 519.406,1378.3 518.5,1380C 505.007,1383.29 491.34,1385.46 477.5,1386.5C 473.833,1386.5 470.167,1386.5 466.5,1386.5C 465.816,1382.45 465.816,1378.45 466.5,1374.5C 469.692,1373.13 473.026,1372.3 476.5,1372C 474.006,1342.5 470.34,1313 465.5,1283.5C 465.768,1280.88 465.435,1278.38 464.5,1276C 460.514,1275.5 456.514,1275.33 452.5,1275.5C 451.729,1272.15 451.062,1268.65 450.5,1265C 450.645,1264.23 450.978,1263.56 451.5,1263C 487.519,1257.15 523.686,1252.31 560,1248.5C 565.853,1247.42 568.353,1249.75 567.5,1255.5 Z"/></g>
<g><path style="opacity:1" fill="#462e21" d="M 1561.5,1260.5 C 1560.63,1262.72 1560.3,1265.05 1560.5,1267.5C 1555.9,1267.2 1551.4,1267.53 1547,1268.5C 1545.83,1277.67 1544.67,1286.84 1543.5,1296C 1543.74,1305.68 1548.4,1311.84 1557.5,1314.5C 1562.4,1315.57 1567.4,1316.24 1572.5,1316.5C 1574.17,1301.17 1575.83,1285.84 1577.5,1270.5C 1575.83,1270.5 1574.17,1270.5 1572.5,1270.5C 1571,1269.69 1569.34,1269.03 1567.5,1268.5C 1566.52,1265.91 1566.19,1263.25 1566.5,1260.5C 1566.54,1259.42 1566.87,1258.42 1567.5,1257.5C 1585.12,1256.37 1602.45,1258.21 1619.5,1263C 1620.25,1263.67 1620.59,1264.5 1620.5,1265.5C 1619.52,1268.62 1619.19,1271.96 1619.5,1275.5C 1615.17,1275.5 1610.83,1275.5 1606.5,1275.5C 1601.88,1307.46 1597.54,1339.46 1593.5,1371.5C 1597.52,1372.04 1601.52,1372.7 1605.5,1373.5C 1605.5,1374.5 1605.5,1375.5 1605.5,1376.5C 1604.52,1379.62 1604.19,1382.96 1604.5,1386.5C 1589.98,1386.23 1575.64,1384.56 1561.5,1381.5C 1558.17,1380.83 1554.83,1380.17 1551.5,1379.5C 1551.31,1375.43 1551.64,1371.43 1552.5,1367.5C 1556.83,1367.5 1561.17,1367.5 1565.5,1367.5C 1565.5,1366.5 1565.5,1365.5 1565.5,1364.5C 1566.13,1356.12 1567.13,1347.79 1568.5,1339.5C 1569.14,1337.54 1569.14,1335.71 1568.5,1334C 1557.57,1333.44 1546.9,1331.6 1536.5,1328.5C 1522.53,1322.51 1515.2,1311.85 1514.5,1296.5C 1515.91,1285.15 1517.24,1273.82 1518.5,1262.5C 1515.14,1262.38 1511.81,1262.05 1508.5,1261.5C 1508.74,1257.16 1509.07,1252.82 1509.5,1248.5C 1517.53,1248.48 1525.53,1248.98 1533.5,1250C 1542.85,1251.51 1552.18,1253.01 1561.5,1254.5C 1561.5,1256.5 1561.5,1258.5 1561.5,1260.5 Z"/></g>
<g><path style="opacity:1" fill="#fdfdfc" d="M 1006.5,1248.5 C 1013.5,1248.5 1020.5,1248.5 1027.5,1248.5C 1027.2,1251.06 1027.53,1253.39 1028.5,1255.5C 1028.5,1282.17 1028.5,1308.83 1028.5,1335.5C 1024.5,1335.5 1020.5,1335.5 1016.5,1335.5C 1016.5,1338.17 1016.5,1340.83 1016.5,1343.5C 1013.19,1342.95 1009.86,1342.62 1006.5,1342.5C 1006.7,1340.05 1006.37,1337.72 1005.5,1335.5C 1005.5,1333.83 1005.5,1332.17 1005.5,1330.5C 1005.18,1303.09 1005.51,1275.76 1006.5,1248.5 Z"/></g>
<g><path style="opacity:1" fill="#867057" d="M 1388.5,1247.5 C 1388.5,1248.5 1388.5,1249.5 1388.5,1250.5C 1384.17,1250.5 1379.83,1250.5 1375.5,1250.5C 1379.95,1250.04 1384.28,1249.04 1388.5,1247.5 Z"/></g>
<g><path style="opacity:1" fill="#af9b7c" d="M 725.5,1247.5 C 727.369,1249.64 728.036,1252.3 727.5,1255.5C 726.883,1255.39 726.383,1255.06 726,1254.5C 725.503,1252.19 725.337,1249.86 725.5,1247.5 Z"/></g>
<g><path style="opacity:1" fill="#cebb95" d="M 1488.5,1251.5 C 1492.15,1251.94 1495.82,1252.28 1499.5,1252.5C 1499.53,1256.87 1499.2,1261.2 1498.5,1265.5C 1494.5,1265.5 1490.5,1265.5 1486.5,1265.5C 1483.78,1295.82 1481.11,1326.16 1478.5,1356.5C 1474.82,1356.28 1471.15,1355.94 1467.5,1355.5C 1469.89,1323.14 1472.56,1290.81 1475.5,1258.5C 1479.5,1258.5 1483.5,1258.5 1487.5,1258.5C 1487.99,1256.19 1488.33,1253.86 1488.5,1251.5 Z"/></g>
<g><path style="opacity:1" fill="#cebb96" d="M 567.5,1255.5 C 571.106,1255.21 574.606,1255.54 578,1256.5C 578.392,1260.53 578.892,1264.53 579.5,1268.5C 576.161,1268.89 572.827,1269.39 569.5,1270C 568.376,1270.84 567.709,1272.01 567.5,1273.5C 571.533,1301.8 575.2,1330.13 578.5,1358.5C 579.791,1358.26 580.791,1358.6 581.5,1359.5C 577.167,1359.5 572.833,1359.5 568.5,1359.5C 564.354,1327.19 560.354,1294.86 556.5,1262.5C 559.91,1262.22 563.243,1261.55 566.5,1260.5C 567.452,1258.95 567.785,1257.29 567.5,1255.5 Z"/></g>
<g><path style="opacity:1" fill="#927c61" d="M 1060.5,1237.5 C 1059.79,1238.4 1058.79,1238.74 1057.5,1238.5C 1057.5,1258.83 1057.5,1279.17 1057.5,1299.5C 1056.5,1279.01 1056.17,1258.34 1056.5,1237.5C 1057.83,1237.5 1059.17,1237.5 1060.5,1237.5 Z"/></g>
<g><path style="opacity:1" fill="#cab792" d="M 1143.5,1280.5 C 1141.21,1286.32 1139.21,1292.32 1137.5,1298.5C 1133.17,1298.5 1128.83,1298.5 1124.5,1298.5C 1128.16,1284.36 1132.32,1270.36 1137,1256.5C 1139.79,1264.34 1141.96,1272.34 1143.5,1280.5 Z"/></g>
<g><path style="opacity:1" fill="#cbb893" d="M 1561.5,1260.5 C 1563.17,1260.5 1564.83,1260.5 1566.5,1260.5C 1566.19,1263.25 1566.52,1265.91 1567.5,1268.5C 1569.34,1269.03 1571,1269.69 1572.5,1270.5C 1571.57,1271.57 1571.23,1272.9 1571.5,1274.5C 1567.17,1274.5 1562.83,1274.5 1558.5,1274.5C 1556.95,1284.46 1555.62,1294.46 1554.5,1304.5C 1554.7,1308.1 1555.7,1311.44 1557.5,1314.5C 1548.4,1311.84 1543.74,1305.68 1543.5,1296C 1544.67,1286.84 1545.83,1277.67 1547,1268.5C 1551.4,1267.53 1555.9,1267.2 1560.5,1267.5C 1560.3,1265.05 1560.63,1262.72 1561.5,1260.5 Z"/></g>
<g><path style="opacity:1" fill="#cbb893" d="M 1263.5,1286.5 C 1257.63,1304.77 1251.96,1323.11 1246.5,1341.5C 1242.71,1340.38 1238.71,1339.72 1234.5,1339.5C 1241.57,1312.89 1249.4,1286.56 1258,1260.5C 1260.41,1269.05 1262.24,1277.72 1263.5,1286.5 Z"/></g>
<g><path style="opacity:1" fill="#ccb994" d="M 1620.5,1265.5 C 1620.5,1266.5 1620.5,1267.5 1620.5,1268.5C 1624.1,1268.79 1627.6,1269.46 1631,1270.5C 1630.84,1274.46 1630.68,1278.46 1630.5,1282.5C 1626.17,1282.5 1621.83,1282.5 1617.5,1282.5C 1613.5,1312.83 1609.5,1343.16 1605.5,1373.5C 1601.52,1372.7 1597.52,1372.04 1593.5,1371.5C 1597.54,1339.46 1601.88,1307.46 1606.5,1275.5C 1610.83,1275.5 1615.17,1275.5 1619.5,1275.5C 1619.19,1271.96 1619.52,1268.62 1620.5,1265.5 Z"/></g>
<g><path style="opacity:1" fill="#cdba95" d="M 528.5,1279.5 C 520.729,1279.74 513.062,1280.74 505.5,1282.5C 509.066,1310.89 512.733,1339.22 516.5,1367.5C 512.833,1367.5 509.167,1367.5 505.5,1367.5C 502.073,1336.42 498.073,1305.42 493.5,1274.5C 503.843,1273.31 514.176,1271.98 524.5,1270.5C 525.772,1270.57 526.938,1270.9 528,1271.5C 528.497,1274.15 528.664,1276.81 528.5,1279.5 Z"/></g>
<g><path style="opacity:1" fill="#fbfaf9" d="M 1572.5,1270.5 C 1574.17,1270.5 1575.83,1270.5 1577.5,1270.5C 1575.83,1285.84 1574.17,1301.17 1572.5,1316.5C 1567.4,1316.24 1562.4,1315.57 1557.5,1314.5C 1555.7,1311.44 1554.7,1308.1 1554.5,1304.5C 1555.62,1294.46 1556.95,1284.46 1558.5,1274.5C 1562.83,1274.5 1567.17,1274.5 1571.5,1274.5C 1571.23,1272.9 1571.57,1271.57 1572.5,1270.5 Z"/></g>
<g><path style="opacity:1" fill="#cab792" d="M 647.5,1294.5 C 646.128,1300.9 644.795,1307.4 643.5,1314C 644.094,1314.46 644.761,1314.63 645.5,1314.5C 641.03,1315.49 636.363,1315.82 631.5,1315.5C 633.472,1301.08 635.972,1286.75 639,1272.5C 642.099,1279.7 644.932,1287.04 647.5,1294.5 Z"/></g>
<g><path style="opacity:1" fill="#baa98d" d="M 452.5,1275.5 C 456.514,1275.33 460.514,1275.5 464.5,1276C 465.435,1278.38 465.768,1280.88 465.5,1283.5C 463.771,1282.05 462.771,1280.05 462.5,1277.5C 459.023,1276.83 455.689,1276.17 452.5,1275.5 Z"/></g>
<g><path style="opacity:1" fill="#472f22" d="M 891.5,1277.5 C 909.911,1278.74 916.078,1288.08 910,1305.5C 902.693,1314.06 894.193,1315.56 884.5,1310C 875.174,1300.29 875.174,1290.63 884.5,1281C 886.925,1279.79 889.259,1278.62 891.5,1277.5 Z"/></g>
<g><path style="opacity:1" fill="#fcfcfc" d="M 528.5,1279.5 C 533.227,1307.23 536.894,1335.23 539.5,1363.5C 535.864,1364.33 532.197,1364.99 528.5,1365.5C 528.5,1367.17 528.5,1368.83 528.5,1370.5C 528.5,1371.83 528.5,1373.17 528.5,1374.5C 525.5,1374.5 522.5,1374.5 519.5,1374.5C 519.662,1372.47 519.495,1370.47 519,1368.5C 518.329,1367.75 517.496,1367.41 516.5,1367.5C 512.733,1339.22 509.066,1310.89 505.5,1282.5C 513.062,1280.74 520.729,1279.74 528.5,1279.5 Z"/></g>
<g><path style="opacity:1" fill="#f1eeec" d="M 1143.5,1280.5 C 1145.63,1286.69 1147.3,1293.02 1148.5,1299.5C 1144.63,1299.81 1140.96,1299.48 1137.5,1298.5C 1139.21,1292.32 1141.21,1286.32 1143.5,1280.5 Z"/></g>
<g><path style="opacity:1" fill="#ded1b8" d="M 1006.5,1248.5 C 1005.51,1275.76 1005.18,1303.09 1005.5,1330.5C 1004.83,1317 1004.5,1303.34 1004.5,1289.5C 1004.5,1275.48 1005.17,1261.82 1006.5,1248.5 Z"/></g>
<g><path style="opacity:1" fill="#f4f2f0" d="M 647.5,1294.5 C 650.608,1300.82 652.941,1307.49 654.5,1314.5C 651.5,1314.5 648.5,1314.5 645.5,1314.5C 644.761,1314.63 644.094,1314.46 643.5,1314C 644.795,1307.4 646.128,1300.9 647.5,1294.5 Z"/></g>
<g><path style="opacity:1" fill="#cdba95" d="M 787.5,1300.5 C 789.833,1300.5 792.167,1300.5 794.5,1300.5C 794.216,1302.41 794.549,1304.08 795.5,1305.5C 795.5,1306.17 795.5,1306.83 795.5,1307.5C 787.175,1308.2 778.842,1308.87 770.5,1309.5C 770.833,1320.83 771.167,1332.17 771.5,1343.5C 767.833,1343.5 764.167,1343.5 760.5,1343.5C 760.497,1329.46 759.831,1315.46 758.5,1301.5C 768.169,1301.21 777.835,1300.88 787.5,1300.5 Z"/></g>
<g><path style="opacity:1" fill="#877159" d="M 787.5,1300.5 C 789.948,1299.53 792.615,1299.19 795.5,1299.5C 795.5,1301.5 795.5,1303.5 795.5,1305.5C 794.549,1304.08 794.216,1302.41 794.5,1300.5C 792.167,1300.5 789.833,1300.5 787.5,1300.5 Z"/></g>
<g><path style="opacity:1" fill="#ccb994" d="M 1421.5,1298.5 C 1430.12,1302.79 1436.79,1309.12 1441.5,1317.5C 1440.01,1329.07 1439.01,1340.74 1438.5,1352.5C 1434.17,1352.5 1429.83,1352.5 1425.5,1352.5C 1425.5,1356.83 1425.5,1361.17 1425.5,1365.5C 1424.88,1365.39 1424.38,1365.06 1424,1364.5C 1416.21,1368.66 1407.87,1370.66 1399,1370.5C 1378.15,1368.64 1357.32,1366.64 1336.5,1364.5C 1336.5,1362.5 1336.5,1360.5 1336.5,1358.5C 1357.1,1360.77 1377.77,1361.94 1398.5,1362C 1411.92,1359.89 1422.09,1353.06 1429,1341.5C 1435.63,1325.42 1433.13,1311.09 1421.5,1298.5 Z"/></g>
<g><path style="opacity:1" fill="#cdba95" d="M 1397.5,1310.5 C 1392.47,1310.5 1387.47,1310.16 1382.5,1309.5C 1382,1320.55 1381,1331.55 1379.5,1342.5C 1375.8,1342.45 1372.14,1342.11 1368.5,1341.5C 1369.33,1328.49 1370.33,1315.49 1371.5,1302.5C 1379.67,1301.55 1387.34,1303.05 1394.5,1307C 1395.71,1308.04 1396.71,1309.21 1397.5,1310.5 Z"/></g>
<g><path style="opacity:1" fill="#fdfcfc" d="M 795.5,1307.5 C 795.872,1318.86 796.538,1330.19 797.5,1341.5C 793.785,1341.42 790.119,1341.76 786.5,1342.5C 784.631,1344.64 783.964,1347.3 784.5,1350.5C 781.167,1350.5 777.833,1350.5 774.5,1350.5C 774.357,1347.61 773.357,1345.28 771.5,1343.5C 771.167,1332.17 770.833,1320.83 770.5,1309.5C 778.842,1308.87 787.175,1308.2 795.5,1307.5 Z"/></g>
<g><path style="opacity:1" fill="#fdfcfc" d="M 1397.5,1310.5 C 1402.65,1318.58 1402.82,1326.92 1398,1335.5C 1393.02,1340.88 1386.85,1343.22 1379.5,1342.5C 1381,1331.55 1382,1320.55 1382.5,1309.5C 1387.47,1310.16 1392.47,1310.5 1397.5,1310.5 Z"/></g>
<g><path style="opacity:1" fill="#cdba95" d="M 1154.5,1324.5 C 1146.17,1324.5 1137.83,1324.5 1129.5,1324.5C 1127.38,1330.65 1126.38,1336.98 1126.5,1343.5C 1129.88,1343.46 1133.21,1343.79 1136.5,1344.5C 1136.5,1348.83 1136.5,1353.17 1136.5,1357.5C 1122.44,1359.1 1108.44,1358.76 1094.5,1356.5C 1094.5,1354.5 1094.5,1352.5 1094.5,1350.5C 1104.86,1350.67 1115.19,1350.34 1125.5,1349.5C 1125.5,1345.17 1125.5,1340.83 1125.5,1336.5C 1121.48,1336.35 1117.48,1336.02 1113.5,1335.5C 1115.32,1329.21 1116.99,1322.88 1118.5,1316.5C 1130.17,1316.8 1141.83,1317.13 1153.5,1317.5C 1153.67,1319.86 1154.01,1322.19 1154.5,1324.5 Z"/></g>
<g><path style="opacity:1" fill="#cdba96" d="M 1536.5,1328.5 C 1546.9,1331.6 1557.57,1333.44 1568.5,1334C 1569.14,1335.71 1569.14,1337.54 1568.5,1339.5C 1556.23,1340.06 1545.56,1336.4 1536.5,1328.5 Z"/></g>
<g><path style="opacity:1" fill="#ccb994" d="M 664.5,1339.5 C 655.823,1340.07 647.157,1340.74 638.5,1341.5C 637.705,1345.48 637.038,1349.48 636.5,1353.5C 632.5,1353.5 628.5,1353.5 624.5,1353.5C 625.128,1346.77 626.128,1340.1 627.5,1333.5C 638.852,1332.97 650.185,1332.47 661.5,1332C 662.991,1334.31 663.991,1336.81 664.5,1339.5 Z"/></g>
<g><path style="opacity:1" fill="#a0948c" d="M 953.5,1336.5 C 953.231,1340.93 953.564,1345.26 954.5,1349.5C 953.2,1347.78 952.533,1345.61 952.5,1343C 952.504,1340.64 952.837,1338.47 953.5,1336.5 Z"/></g>
<g><path style="opacity:1" fill="#cdba95" d="M 1069.5,1339.5 C 1070.4,1340.21 1070.74,1341.21 1070.5,1342.5C 1073.86,1342.62 1077.19,1342.95 1080.5,1343.5C 1080.5,1347.5 1080.5,1351.5 1080.5,1355.5C 1062.88,1357.74 1045.22,1358.07 1027.5,1356.5C 1027.5,1354.5 1027.5,1352.5 1027.5,1350.5C 1040.86,1350.75 1054.2,1350.25 1067.5,1349C 1069.34,1346.2 1070.01,1343.03 1069.5,1339.5 Z"/></g>
<g><path style="opacity:1" fill="#cdba95" d="M 1006.5,1342.5 C 1009.86,1342.62 1013.19,1342.95 1016.5,1343.5C 1016.21,1345.74 1016.54,1347.74 1017.5,1349.5C 1017.5,1351.83 1017.5,1354.17 1017.5,1356.5C 1000.52,1357.56 983.516,1357.73 966.5,1357C 964.75,1355.25 964.083,1353.08 964.5,1350.5C 978.512,1350.57 992.512,1350.23 1006.5,1349.5C 1006.5,1347.17 1006.5,1344.83 1006.5,1342.5 Z"/></g>
<g><path style="opacity:1" fill="#afa59f" d="M 1339.5,1338.5 C 1339.5,1340.5 1339.5,1342.5 1339.5,1344.5C 1335.17,1344.5 1330.83,1344.5 1326.5,1344.5C 1330.3,1343.52 1334.3,1343.18 1338.5,1343.5C 1338.22,1341.59 1338.55,1339.92 1339.5,1338.5 Z"/></g>
<g><path style="opacity:1" fill="#ccba96" d="M 838.5,1344.5 C 841.795,1346.45 845.462,1347.45 849.5,1347.5C 850.08,1351.81 850.414,1356.14 850.5,1360.5C 832.592,1362.96 814.592,1363.96 796.5,1363.5C 796.5,1361.17 796.5,1358.83 796.5,1356.5C 795.209,1356.74 794.209,1356.4 793.5,1355.5C 808.615,1356.01 823.615,1355.01 838.5,1352.5C 838.5,1349.83 838.5,1347.17 838.5,1344.5 Z"/></g>
<g><path style="opacity:1" fill="#cdba96" d="M 1246.5,1346.5 C 1250.14,1347.11 1253.8,1347.45 1257.5,1347.5C 1257.5,1351.83 1257.5,1356.17 1257.5,1360.5C 1243.1,1362.08 1228.76,1361.58 1214.5,1359C 1213.93,1356.57 1212.93,1354.4 1211.5,1352.5C 1223.13,1353.44 1234.8,1353.77 1246.5,1353.5C 1246.5,1351.17 1246.5,1348.83 1246.5,1346.5 Z"/></g>
<g><path style="opacity:1" fill="#cdba96" d="M 786.5,1342.5 C 785.564,1346.74 785.231,1351.07 785.5,1355.5C 785.5,1358.17 785.5,1360.83 785.5,1363.5C 767.626,1366.19 749.626,1367.19 731.5,1366.5C 731.5,1364.17 731.5,1361.83 731.5,1359.5C 745.91,1359.47 760.243,1358.47 774.5,1356.5C 774.5,1354.5 774.5,1352.5 774.5,1350.5C 777.833,1350.5 781.167,1350.5 784.5,1350.5C 783.964,1347.3 784.631,1344.64 786.5,1342.5 Z"/></g>
<g><path style="opacity:1" fill="#cdba95" d="M 706.5,1350.5 C 707.249,1351.53 707.915,1352.7 708.5,1354C 711.482,1354.5 714.482,1354.66 717.5,1354.5C 718.2,1358.8 718.533,1363.13 718.5,1367.5C 702.039,1371.05 685.373,1372.38 668.5,1371.5C 668.5,1369.5 668.5,1367.5 668.5,1365.5C 665.615,1365.81 662.948,1365.47 660.5,1364.5C 676.289,1364.57 691.956,1363.23 707.5,1360.5C 706.949,1357.19 706.616,1353.86 706.5,1350.5 Z"/></g>
<g><path style="opacity:1" fill="#cebc96" d="M 637.5,1361.5 C 641.167,1361.5 644.833,1361.5 648.5,1361.5C 648.5,1365.83 648.5,1370.17 648.5,1374.5C 634.644,1377.04 620.644,1378.04 606.5,1377.5C 606.5,1375.17 606.5,1372.83 606.5,1370.5C 616.98,1370.23 627.313,1368.9 637.5,1366.5C 637.5,1364.83 637.5,1363.17 637.5,1361.5 Z"/></g>
<g><path style="opacity:1" fill="#ccba95" d="M 1478.5,1356.5 C 1479.46,1358.26 1479.79,1360.26 1479.5,1362.5C 1483.17,1363.17 1486.83,1363.83 1490.5,1364.5C 1489.98,1368.48 1489.65,1372.48 1489.5,1376.5C 1472.01,1377.44 1454.68,1376.11 1437.5,1372.5C 1436.55,1370.95 1436.21,1369.29 1436.5,1367.5C 1450.44,1369.16 1464.44,1369.83 1478.5,1369.5C 1478.5,1365.17 1478.5,1360.83 1478.5,1356.5 Z"/></g>
<g><path style="opacity:1" fill="#cdba95" d="M 582.5,1366.5 C 585.833,1366.5 589.167,1366.5 592.5,1366.5C 593.659,1370.71 593.659,1374.88 592.5,1379C 575.498,1383.76 558.165,1385.93 540.5,1385.5C 540.5,1383.17 540.5,1380.83 540.5,1378.5C 554.625,1376.94 568.625,1374.61 582.5,1371.5C 582.5,1369.83 582.5,1368.17 582.5,1366.5 Z"/></g>
<g><path style="opacity:1" fill="#9e928b" d="M 1565.5,1364.5 C 1565.5,1365.5 1565.5,1366.5 1565.5,1367.5C 1561.17,1367.5 1556.83,1367.5 1552.5,1367.5C 1556.95,1367.04 1561.28,1366.04 1565.5,1364.5 Z"/></g>
<g><path style="opacity:1" fill="#cebb97" d="M 528.5,1370.5 C 529.167,1373.17 529.833,1375.83 530.5,1378.5C 531.159,1381.46 531.492,1384.46 531.5,1387.5C 513.853,1391.86 496.02,1393.86 478,1393.5C 477.503,1391.19 477.337,1388.86 477.5,1386.5C 491.34,1385.46 505.007,1383.29 518.5,1380C 519.406,1378.3 519.739,1376.47 519.5,1374.5C 522.5,1374.5 525.5,1374.5 528.5,1374.5C 528.5,1373.17 528.5,1371.83 528.5,1370.5 Z"/></g>
<g><path style="opacity:1" fill="#cdbb96" d="M 1605.5,1376.5 C 1605.37,1377.38 1605.7,1378.04 1606.5,1378.5C 1609.45,1379.65 1612.45,1380.65 1615.5,1381.5C 1616.51,1385.48 1616.51,1389.48 1615.5,1393.5C 1597.66,1393.19 1579.99,1391.19 1562.5,1387.5C 1562.67,1385.38 1562.34,1383.38 1561.5,1381.5C 1575.64,1384.56 1589.98,1386.23 1604.5,1386.5C 1604.19,1382.96 1604.52,1379.62 1605.5,1376.5 Z"/></g>
<g><path style="opacity:1" fill="#9f938c" d="M 901.5,1439.5 C 892.566,1438.91 883.899,1439.58 875.5,1441.5C 875.5,1440.5 875.5,1439.5 875.5,1438.5C 884.349,1438.17 893.016,1438.51 901.5,1439.5 Z"/></g>
<g><path style="opacity:1" fill="#483023" d="M 981.5,1437.5 C 1001.88,1436.71 1011.04,1446.37 1009,1466.5C 1004.33,1481.43 994.163,1487.6 978.5,1485C 970.565,1482.73 965.732,1477.56 964,1469.5C 960.741,1453.68 966.574,1443.01 981.5,1437.5 Z"/></g>
<g><path style="opacity:1" fill="#483124" d="M 1086.5,1437.5 C 1095.53,1436.12 1103.36,1438.46 1110,1444.5C 1110.86,1446.09 1111.53,1447.75 1112,1449.5C 1112.33,1457.83 1112.67,1466.17 1113,1474.5C 1114.74,1475.96 1116.58,1477.29 1118.5,1478.5C 1119.45,1480.05 1119.79,1481.71 1119.5,1483.5C 1114.11,1483.73 1108.77,1484.4 1103.5,1485.5C 1103.81,1483.08 1103.47,1480.74 1102.5,1478.5C 1093.72,1487.01 1084.39,1487.68 1074.5,1480.5C 1068.98,1471.03 1071.32,1464.19 1081.5,1460C 1087.71,1458.28 1094.04,1457.45 1100.5,1457.5C 1101.62,1448.22 1097.62,1444.72 1088.5,1447C 1085.77,1449.62 1082.94,1452.12 1080,1454.5C 1077.32,1452.15 1074.98,1449.48 1073,1446.5C 1072.49,1445 1072.99,1443.84 1074.5,1443C 1078.48,1440.85 1082.48,1439.02 1086.5,1437.5 Z"/></g>
<g><path style="opacity:1" fill="#493124" d="M 1137.5,1437.5 C 1138.5,1437.5 1139.5,1437.5 1140.5,1437.5C 1140.34,1440.19 1140.5,1442.85 1141,1445.5C 1151.9,1434.64 1162.56,1434.97 1173,1446.5C 1179.18,1459.93 1177.01,1471.77 1166.5,1482C 1159.2,1485.96 1151.7,1486.46 1144,1483.5C 1143.5,1488.82 1143.33,1494.16 1143.5,1499.5C 1147.54,1499.96 1151.54,1500.62 1155.5,1501.5C 1155.5,1503.5 1155.5,1505.5 1155.5,1507.5C 1144.83,1507.5 1134.17,1507.5 1123.5,1507.5C 1123.34,1505.8 1123.51,1504.13 1124,1502.5C 1126.33,1500.83 1128.67,1499.17 1131,1497.5C 1131.67,1483.17 1131.67,1468.83 1131,1454.5C 1128.76,1451.93 1126.92,1449.09 1125.5,1446C 1129.36,1442.91 1133.36,1440.08 1137.5,1437.5 Z"/></g>
<g><path style="opacity:1" fill="#9c9088" d="M 1183.5,1439.5 C 1191.65,1438.51 1199.98,1438.17 1208.5,1438.5C 1208.78,1440.41 1208.45,1442.08 1207.5,1443.5C 1207.5,1442.17 1207.5,1440.83 1207.5,1439.5C 1199.5,1439.5 1191.5,1439.5 1183.5,1439.5 Z"/></g>
<g><path style="opacity:1" fill="#462e21" d="M 784.5,1439.5 C 802.833,1439.5 821.167,1439.5 839.5,1439.5C 839.66,1441.2 839.494,1442.87 839,1444.5C 837,1445.83 835,1447.17 833,1448.5C 832.333,1457.83 832.333,1467.17 833,1476.5C 835.382,1477.55 837.882,1478.22 840.5,1478.5C 840.5,1480.5 840.5,1482.5 840.5,1484.5C 831.833,1484.5 823.167,1484.5 814.5,1484.5C 814.023,1480.13 815.856,1477.13 820,1475.5C 820.5,1466.17 820.666,1456.84 820.5,1447.5C 814.833,1447.5 809.167,1447.5 803.5,1447.5C 803.334,1457.17 803.5,1466.84 804,1476.5C 805.897,1478.02 808.064,1478.68 810.5,1478.5C 810.5,1480.5 810.5,1482.5 810.5,1484.5C 801.5,1484.5 792.5,1484.5 783.5,1484.5C 783.215,1482.71 783.548,1481.05 784.5,1479.5C 786.937,1478.2 789.104,1476.53 791,1474.5C 791.667,1465.5 791.667,1456.5 791,1447.5C 789.103,1445.98 786.936,1445.32 784.5,1445.5C 784.5,1443.5 784.5,1441.5 784.5,1439.5 Z"/></g>
<g><path style="opacity:1" fill="#493125" d="M 875.5,1441.5 C 883.899,1439.58 892.566,1438.91 901.5,1439.5C 901.785,1441.29 901.452,1442.95 900.5,1444.5C 898.578,1445.71 896.745,1447.04 895,1448.5C 894.333,1457.83 894.333,1467.17 895,1476.5C 897.301,1477.87 899.801,1478.53 902.5,1478.5C 902.5,1480.5 902.5,1482.5 902.5,1484.5C 894.167,1484.5 885.833,1484.5 877.5,1484.5C 876.966,1480.52 878.466,1477.52 882,1475.5C 882.667,1470.17 882.667,1464.83 882,1459.5C 876.667,1464.17 871.333,1468.83 866,1473.5C 865.51,1474.79 865.343,1476.13 865.5,1477.5C 867.806,1477.99 870.139,1478.33 872.5,1478.5C 872.5,1480.5 872.5,1482.5 872.5,1484.5C 863.5,1484.5 854.5,1484.5 845.5,1484.5C 845.827,1480.11 848.16,1477.11 852.5,1475.5C 853.498,1465.86 853.832,1456.19 853.5,1446.5C 851.194,1446.01 848.861,1445.67 846.5,1445.5C 846.5,1443.5 846.5,1441.5 846.5,1439.5C 854.5,1439.5 862.5,1439.5 870.5,1439.5C 871.332,1443.5 869.832,1446.16 866,1447.5C 865.333,1453.17 865.333,1458.83 866,1464.5C 871.143,1459.27 876.476,1454.27 882,1449.5C 882.667,1448.5 882.667,1447.5 882,1446.5C 880.266,1445.75 878.433,1445.25 876.5,1445C 875.663,1443.99 875.33,1442.82 875.5,1441.5 Z"/></g>
<g><path style="opacity:1" fill="#472f22" d="M 908.5,1439.5 C 919.838,1439.33 931.172,1439.5 942.5,1440C 951.452,1442.3 954.285,1447.8 951,1456.5C 949.833,1457.67 948.667,1458.83 947.5,1460C 954.94,1464.62 956.44,1470.79 952,1478.5C 949.374,1481.23 946.207,1483.06 942.5,1484C 930.838,1484.5 919.171,1484.67 907.5,1484.5C 907.34,1482.8 907.506,1481.13 908,1479.5C 910.333,1477.83 912.667,1476.17 915,1474.5C 915.5,1465.17 915.666,1455.84 915.5,1446.5C 913.194,1446.01 910.861,1445.67 908.5,1445.5C 908.5,1443.5 908.5,1441.5 908.5,1439.5 Z"/></g>
<g><path style="opacity:1" fill="#462e21" d="M 1017.5,1439.5 C 1028.84,1439.33 1040.17,1439.5 1051.5,1440C 1060.5,1442.87 1063,1448.71 1059,1457.5C 1057.75,1458.21 1056.58,1459.04 1055.5,1460C 1063.88,1464.09 1065.71,1470.26 1061,1478.5C 1058.13,1481.46 1054.63,1483.3 1050.5,1484C 1039.17,1484.5 1027.84,1484.67 1016.5,1484.5C 1016.34,1482.8 1016.51,1481.13 1017,1479.5C 1019.33,1477.83 1021.67,1476.17 1024,1474.5C 1024.67,1465.5 1024.67,1456.5 1024,1447.5C 1021.99,1446.33 1019.83,1445.66 1017.5,1445.5C 1017.5,1443.5 1017.5,1441.5 1017.5,1439.5 Z"/></g>
<g><path style="opacity:1" fill="#462e21" d="M 1183.5,1439.5 C 1191.5,1439.5 1199.5,1439.5 1207.5,1439.5C 1207.5,1440.83 1207.5,1442.17 1207.5,1443.5C 1206.49,1445.34 1204.99,1446.67 1203,1447.5C 1202.5,1450.82 1202.33,1454.15 1202.5,1457.5C 1208.5,1457.5 1214.5,1457.5 1220.5,1457.5C 1220.67,1454.15 1220.5,1450.82 1220,1447.5C 1217.79,1446.2 1215.45,1445.2 1213,1444.5C 1212.51,1442.87 1212.34,1441.2 1212.5,1439.5C 1221.5,1439.5 1230.5,1439.5 1239.5,1439.5C 1239.79,1441.29 1239.45,1442.95 1238.5,1444.5C 1236.06,1445.8 1233.9,1447.47 1232,1449.5C 1231.33,1458.5 1231.33,1467.5 1232,1476.5C 1234.3,1477.87 1236.8,1478.53 1239.5,1478.5C 1239.5,1480.5 1239.5,1482.5 1239.5,1484.5C 1231.17,1484.5 1222.83,1484.5 1214.5,1484.5C 1214.02,1480.13 1215.86,1477.13 1220,1475.5C 1220.5,1472.18 1220.67,1468.85 1220.5,1465.5C 1214.36,1464.51 1208.02,1464.18 1201.5,1464.5C 1201.18,1468.7 1201.52,1472.7 1202.5,1476.5C 1204.59,1477.94 1206.92,1478.61 1209.5,1478.5C 1209.5,1480.5 1209.5,1482.5 1209.5,1484.5C 1200.5,1484.5 1191.5,1484.5 1182.5,1484.5C 1182.34,1482.8 1182.51,1481.13 1183,1479.5C 1185.69,1478.32 1188.02,1476.66 1190,1474.5C 1190.5,1465.17 1190.67,1455.84 1190.5,1446.5C 1188.19,1446.01 1185.86,1445.67 1183.5,1445.5C 1183.5,1443.5 1183.5,1441.5 1183.5,1439.5 Z"/></g>
<g><path style="opacity:1" fill="#483023" d="M 1260.5,1439.5 C 1272.17,1439.5 1283.83,1439.5 1295.5,1439.5C 1295.79,1441.29 1295.45,1442.95 1294.5,1444.5C 1292.58,1445.71 1290.74,1447.04 1289,1448.5C 1288.33,1457.83 1288.33,1467.17 1289,1476.5C 1291.3,1477.87 1293.8,1478.53 1296.5,1478.5C 1296.5,1480.5 1296.5,1482.5 1296.5,1484.5C 1287.5,1484.5 1278.5,1484.5 1269.5,1484.5C 1269.34,1482.8 1269.51,1481.13 1270,1479.5C 1276.08,1477.62 1278.08,1473.62 1276,1467.5C 1273.88,1468.23 1271.71,1468.89 1269.5,1469.5C 1267.64,1475.72 1263.97,1480.56 1258.5,1484C 1254.93,1485.4 1251.26,1485.74 1247.5,1485C 1246.48,1484.48 1245.82,1483.65 1245.5,1482.5C 1245.74,1476.81 1248.74,1474.31 1254.5,1475C 1256.35,1473.32 1258.02,1471.48 1259.5,1469.5C 1249.89,1464.18 1247.39,1456.52 1252,1446.5C 1254.44,1443.55 1257.27,1441.21 1260.5,1439.5 Z"/></g>
<g><path style="opacity:1" fill="#f7f5f5" d="M 928.5,1446.5 C 931.941,1446.3 935.274,1446.8 938.5,1448C 941.167,1451 941.167,1454 938.5,1457C 934.848,1457.5 931.182,1457.67 927.5,1457.5C 927.244,1453.73 927.577,1450.06 928.5,1446.5 Z"/></g>
<g><path style="opacity:1" fill="#faf9f9" d="M 980.5,1447.5 C 988.62,1445.97 994.12,1448.97 997,1456.5C 998.11,1462.47 997.276,1468.14 994.5,1473.5C 987.763,1478.13 981.93,1477.13 977,1470.5C 975.561,1465.24 975.228,1459.9 976,1454.5C 976.545,1451.47 978.045,1449.14 980.5,1447.5 Z"/></g>
<g><path style="opacity:1" fill="#f1efef" d="M 1036.5,1446.5 C 1040.96,1445.88 1044.96,1446.88 1048.5,1449.5C 1050.04,1452.29 1049.71,1454.79 1047.5,1457C 1043.51,1457.5 1039.51,1457.67 1035.5,1457.5C 1035.24,1453.73 1035.58,1450.06 1036.5,1446.5 Z"/></g>
<g><path style="opacity:1" fill="#fcfbfb" d="M 1149.5,1447.5 C 1155.59,1446.14 1160.09,1448.14 1163,1453.5C 1164.03,1460.37 1163.37,1467.03 1161,1473.5C 1156.39,1475.51 1151.56,1476.01 1146.5,1475C 1145.58,1474.63 1144.75,1474.13 1144,1473.5C 1143.33,1466.83 1143.33,1460.17 1144,1453.5C 1145.36,1450.98 1147.19,1448.98 1149.5,1447.5 Z"/></g>
<g><path style="opacity:1" fill="#f9f8f8" d="M 1264.5,1447.5 C 1268.5,1447.5 1272.5,1447.5 1276.5,1447.5C 1276.67,1451.51 1276.5,1455.51 1276,1459.5C 1272.82,1461.52 1269.32,1462.02 1265.5,1461C 1260.53,1456.97 1260.2,1452.47 1264.5,1447.5 Z"/></g>
<g><path style="opacity:1" fill="#4c3427" d="M 742.5,1457.5 C 742.5,1461.5 742.5,1465.5 742.5,1469.5C 739.167,1469.5 735.833,1469.5 732.5,1469.5C 677.824,1468 623.157,1466.17 568.5,1464C 626.479,1461.28 684.479,1459.11 742.5,1457.5 Z"/></g>
<g><path style="opacity:1" fill="#4e362a" d="M 1339.5,1457.5 C 1397.51,1459.29 1455.51,1461.46 1513.5,1464C 1455.49,1466.08 1397.49,1468.25 1339.5,1470.5C 1339.5,1466.17 1339.5,1461.83 1339.5,1457.5 Z"/></g>
<g><path style="opacity:1" fill="#fbfafa" d="M 927.5,1464.5 C 931.182,1464.33 934.848,1464.5 938.5,1465C 942.501,1467.11 943.501,1470.27 941.5,1474.5C 940.975,1475.19 940.308,1475.69 939.5,1476C 935.514,1476.5 931.514,1476.67 927.5,1476.5C 927.5,1472.5 927.5,1468.5 927.5,1464.5 Z"/></g>
<g><path style="opacity:1" fill="#f7f5f5" d="M 1035.5,1464.5 C 1040.27,1464.19 1044.93,1464.69 1049.5,1466C 1052.33,1469.66 1052,1473 1048.5,1476C 1044.5,1476.67 1040.5,1476.67 1036.5,1476C 1035.54,1472.27 1035.21,1468.44 1035.5,1464.5 Z"/></g>
<g><path style="opacity:1" fill="#f4f2f2" d="M 1091.5,1464.5 C 1094.5,1464.5 1097.5,1464.5 1100.5,1464.5C 1100.43,1473.72 1095.76,1477.56 1086.5,1476C 1082.5,1472.67 1082.5,1469.33 1086.5,1466C 1088.38,1465.8 1090.05,1465.3 1091.5,1464.5 Z"/></g>
<g><path style="opacity:1" fill="#79675e" d="M 1220.5,1465.5 C 1214.5,1465.5 1208.5,1465.5 1202.5,1465.5C 1202.5,1469.17 1202.5,1472.83 1202.5,1476.5C 1201.52,1472.7 1201.18,1468.7 1201.5,1464.5C 1208.02,1464.18 1214.36,1464.51 1220.5,1465.5 Z"/></g>
<g><path style="opacity:1" fill="#9b8e87" d="M 742.5,1457.5 C 743.485,1461.63 743.818,1465.97 743.5,1470.5C 739.629,1470.81 735.962,1470.48 732.5,1469.5C 735.833,1469.5 739.167,1469.5 742.5,1469.5C 742.5,1465.5 742.5,1461.5 742.5,1457.5 Z"/></g>
</svg>
