<!-- icon666.com - MILLIONS vector ICONS FREE --><svg viewBox="0 0 64 64" xmlns="http://www.w3.org/2000/svg"><g id="Job-Human_Resource-Hiring-Search-Information" data-name="Job-Human Resource-Hiring-Search-Information"><path d="m53 9v46a6 6 0 0 1 -6 6h-30a6 6 0 0 1 -6-6v-46a6 6 0 0 1 6-6h30a5.8 5.8 0 0 1 2 .35 5.981 5.981 0 0 1 4 5.65z" fill="#e6e7e8" style="fill: rgb(255, 250, 194);"></path><path d="m49 3.35v9.65l-3-3-3 3v-10h4a5.8 5.8 0 0 1 2 .35z" fill="#d8d7da"></path><path d="m47 3v8l-3-3-3 3v-8z" fill="#ff5023"></path><path d="m41.09 47.25-.19-.11a7.974 7.974 0 0 0 -1.48-.69 7.875 7.875 0 0 0 -2.64-.45h-.78v-3.41a5.044 5.044 0 0 0 2.9-3.59h1.1a2 2 0 0 0 0-4h-1v-1a5 5 0 0 0 -10 0v1h-1a2 2 0 0 0 0 4h1.1a5.044 5.044 0 0 0 2.9 3.59v3.41h-.78a7.875 7.875 0 0 0 -2.64.45 7.974 7.974 0 0 0 -1.48.69l-.19.11a6.025 6.025 0 0 0 -2.91 5.15v2.6h20v-2.6a6.025 6.025 0 0 0 -2.91-5.15z" fill="#d8d7da"></path><path d="m33.09 45.82.91-1.82h.78a7.875 7.875 0 0 1 2.64.45l-1.42 3.55z" fill="#1e81ce" style="fill: rgb(10, 109, 3);"></path><path d="m30 44 .91 1.82-2.91 2.18-1.42-3.55a7.875 7.875 0 0 1 2.64-.45z" fill="#1e81ce" style="fill: rgb(10, 109, 3);"></path><path d="m39.09 45.25a6.025 6.025 0 0 1 2.91 5.15v2.6h-20v-2.6a6.025 6.025 0 0 1 2.91-5.15l.19-.11a7.974 7.974 0 0 1 1.48-.69l1.42 3.55 2.91-2.18 1.09 2.18 1.09-2.18 2.91 2.18 1.42-3.55a7.974 7.974 0 0 1 1.48.69z" fill="#3d9ae2" style="fill: rgb(89, 177, 111);"></path><path d="m38 33a2 2 0 0 1 0 4h-1.1a4.712 4.712 0 0 0 .1-1v-3z" fill="#ffb655"></path><path d="m26 37a2 2 0 0 1 0-4h1v3a4.712 4.712 0 0 0 .1 1z" fill="#ffb655"></path><path d="m37 32v.06h-.09a6.217 6.217 0 0 0 -.91-.06c-3.33 0-4.67 2-8 2a7.23 7.23 0 0 1 -1-.07v-1.93a5 5 0 1 1 10 0z" fill="#57565c"></path><path d="m34 40v4l-.91 1.82-1.09 2.18-1.09-2.18-.91-1.82v-4z" fill="#ffc477"></path><path d="m34 40v2.59a5.083 5.083 0 0 1 -4 0v-2.59z" fill="#ffb655"></path><path d="m37 32.06v3.94a4.712 4.712 0 0 1 -.1 1 5.044 5.044 0 0 1 -2.9 3.59 5.083 5.083 0 0 1 -4 0 5.044 5.044 0 0 1 -2.9-3.59 4.712 4.712 0 0 1 -.1-1v-2.07a7.23 7.23 0 0 0 1 .07c3.33 0 4.67-2 8-2a6.217 6.217 0 0 1 .91.06z" fill="#ffc477"></path><path d="m47 2h-30a7.008 7.008 0 0 0 -7 7v46a7.008 7.008 0 0 0 7 7h30a7.008 7.008 0 0 0 7-7v-46a7.008 7.008 0 0 0 -7-7zm-5 2h4v4.59l-1.29-1.3a1.008 1.008 0 0 0 -1.42 0l-1.29 1.3zm10 51a5 5 0 0 1 -5 5h-30a5 5 0 0 1 -5-5v-46a5 5 0 0 1 5-5h23v7a.987.987 0 0 0 .62.92 1 1 0 0 0 1.09-.21l2.29-2.3 2.29 2.3a1.007 1.007 0 0 0 .71.29.838.838 0 0 0 .38-.08.987.987 0 0 0 .62-.92v-6.9a5.017 5.017 0 0 1 4 4.9z" fill="#000000"></path><path d="m31 24h2a3 3 0 0 0 3-3v-4a3 3 0 0 0 -3-3h-2a3 3 0 0 0 -3 3v4a3 3 0 0 0 3 3zm-1-7a1 1 0 0 1 1-1h2a1 1 0 0 1 1 1v4a1 1 0 0 1 -1 1h-2a1 1 0 0 1 -1-1z" fill="#000000"></path><path d="m23 24a3 3 0 0 0 3-3v-6a1 1 0 0 0 -1-1h-3v2h2v5a1 1 0 0 1 -1 1h-2a1 1 0 0 1 -1-1v-1h-2v1a3 3 0 0 0 3 3z" fill="#000000"></path><path d="m46 17a3.009 3.009 0 0 0 -3-3h-4a1 1 0 0 0 -1 1v8a1 1 0 0 0 1 1h4a3.009 3.009 0 0 0 3-3 2.974 2.974 0 0 0 -.78-2 2.974 2.974 0 0 0 .78-2zm-3 5h-3v-2h3a1 1 0 0 1 0 2zm0-4h-3v-2h3a1 1 0 0 1 0 2z" fill="#000000"></path><path d="m39.59 44.38-.17-.1a9.008 9.008 0 0 0 -4.42-1.28v-1.81a6.044 6.044 0 0 0 2.65-3.19h.35a3 3 0 0 0 0-6 6 6 0 0 0 -12 0 3 3 0 0 0 0 6h.35a6.044 6.044 0 0 0 2.65 3.19v1.81a8.968 8.968 0 0 0 -4.4 1.27l-.21.12a7.075 7.075 0 0 0 -3.39 6.01v2.6a1 1 0 0 0 1 1h20a1 1 0 0 0 1-1v-2.6a7.079 7.079 0 0 0 -3.41-6.02zm-1.59-10.38a1 1 0 0 1 0 2zm-12 2a1 1 0 0 1 0-2zm10.07 9.13-.51 1.29-1.2-.9.26-.52h.16a6.882 6.882 0 0 1 1.29.13zm-8.07-13.13a3.991 3.991 0 0 1 7.86-.99 10.664 10.664 0 0 0 -4.25 1.07 8.622 8.622 0 0 1 -3.61.92zm0 4v-1a10.362 10.362 0 0 0 4.39-1.08 8.622 8.622 0 0 1 3.61-.92v3a4 4 0 0 1 -8 0zm5 5.91v1.85l-1 2-1-2v-1.85a5.6 5.6 0 0 0 2 0zm-3.78 3.09h.16l.26.52-1.2.9-.51-1.29a6.882 6.882 0 0 1 1.29-.13zm11.78 7h-18v-1.6a5.032 5.032 0 0 1 2.41-4.28l.21-.12a3.356 3.356 0 0 1 .42-.22l1.03 2.59a1 1 0 0 0 .66.59.842.842 0 0 0 .27.04 1.029 1.029 0 0 0 .6-.2l1.95-1.46.56 1.11a1 1 0 0 0 1.78 0l.56-1.11 1.95 1.46a1.029 1.029 0 0 0 .6.2.842.842 0 0 0 .27-.04 1 1 0 0 0 .66-.59l1.03-2.59c.15.08.3.14.44.23l.17.1a5.036 5.036 0 0 1 2.43 4.29z" fill="#000000"></path></g></svg>